<?xml version="1.0" encoding="UTF-8" standalone="no"?>
<svg
   xmlns:dc="http://purl.org/dc/elements/1.1/"
   xmlns:cc="http://creativecommons.org/ns#"
   xmlns:rdf="http://www.w3.org/1999/02/22-rdf-syntax-ns#"
   xmlns:svg="http://www.w3.org/2000/svg"
   xmlns="http://www.w3.org/2000/svg"
   xmlns:xlink="http://www.w3.org/1999/xlink"
   xmlns:sodipodi="http://sodipodi.sourceforge.net/DTD/sodipodi-0.dtd"
   xmlns:inkscape="http://www.inkscape.org/namespaces/inkscape"
   inkscape:version="1.0 (1.0+r73+1)"
   sodipodi:docname="device-notifier.svg"
   id="svg35"
   height="32"
   version="1.1"
   width="32">
  <sodipodi:namedview
     inkscape:current-layer="layer1"
     inkscape:window-maximized="1"
     inkscape:window-y="0"
     inkscape:window-x="0"
     inkscape:cy="17.469358"
     inkscape:cx="17.744863"
     inkscape:zoom="19.136077"
     showgrid="true"
     id="namedview37"
     inkscape:window-height="1013"
     inkscape:window-width="1920"
     inkscape:pageshadow="2"
     inkscape:pageopacity="0"
     guidetolerance="10"
     gridtolerance="10"
     objecttolerance="10"
     borderopacity="1"
     bordercolor="#666666"
     pagecolor="#ffffff">
    <inkscape:grid
       id="grid862"
       type="xygrid" />
  </sodipodi:namedview>
  <defs
     id="defs5455">
      <style
       id="current-color-scheme"
       type="text/css">
      .ColorScheme-Highlight {
        color:#3daee9;
      }
      </style>
    <linearGradient
       id="linearGradient883"
       inkscape:collect="always">
      <stop
         id="stop879"
         offset="0"
         style="stop-color:#ffffff;stop-opacity:1;" />
      <stop
         id="stop881"
         offset="1"
         style="stop-color:#ffffff;stop-opacity:0;" />
    </linearGradient>
    <linearGradient
       id="linearGradient870"
       inkscape:collect="always">
      <stop
         id="stop866"
         offset="0"
         style="stop-color:#ffffff;stop-opacity:1;" />
      <stop
         id="stop868"
         offset="1"
         style="stop-color:#ffffff;stop-opacity:0;" />
    </linearGradient>
    <linearGradient
       id="linearGradient4303"
       inkscape:collect="always">
      <stop
         id="stop4305"
         style="stop-color:#c6cdd1" />
      <stop
         id="stop4307"
         style="stop-color:#e0e5e7"
         offset="1" />
    </linearGradient>
    <linearGradient
       id="linearGradient4143-8"
       inkscape:collect="always">
      <stop
         id="stop4145-7"
         style="stop-color:#faae2a" />
      <stop
         id="stop4147-4"
         style="stop-color:#ffc35a"
         offset="1" />
    </linearGradient>
    <linearGradient
       gradientTransform="matrix(1.0769231 0 0 1 -33.50552 0)"
       gradientUnits="userSpaceOnUse"
       x2="0"
       y2="517.79797"
       y1="527.79797"
       id="linearGradient4357"
       xlink:href="#linearGradient4303"
       inkscape:collect="always" />
    <linearGradient
       gradientTransform="matrix(1 0 0 1 -2.500012 0)"
       gradientUnits="userSpaceOnUse"
       x2="400.57144"
       x1="398.57144"
       id="linearGradient4371"
       xlink:href="#linearGradient4143-8"
       inkscape:collect="always" />
    <linearGradient
       gradientTransform="matrix(1 0 0 1 4.500057 0)"
       x2="400.57144"
       gradientUnits="userSpaceOnUse"
       x1="398.57144"
       id="linearGradient4375"
       xlink:href="#linearGradient4143-8"
       inkscape:collect="always" />
    <linearGradient
       id="linearGradient4227"
       inkscape:collect="always">
      <stop
         id="stop4229"
         style="stop-color:#292c2f" />
      <stop
         id="stop4231"
         style="stop-opacity:0"
         offset="1" />
    </linearGradient>
    <linearGradient
       gradientTransform="translate(0,4)"
       gradientUnits="userSpaceOnUse"
       x2="23.00004"
       y2="23.00003"
       x1="9.00001"
       y1="9"
       id="linearGradient4188"
       xlink:href="#linearGradient4227"
       inkscape:collect="always" />
    <linearGradient
       gradientUnits="userSpaceOnUse"
       y2="542.79797"
       x2="402.57144"
       y1="529.79797"
       x1="402.57144"
       id="linearGradient872"
       xlink:href="#linearGradient870"
       inkscape:collect="always" />
    <linearGradient
       gradientUnits="userSpaceOnUse"
       y2="545.79797"
       x2="394.57144"
       y1="527.79797"
       x1="394.57144"
       id="linearGradient885"
       xlink:href="#linearGradient883"
       inkscape:collect="always" />
  </defs>
  <metadata
     id="metadata5458">
    <rdf:RDF>
      <cc:Work
         rdf:about="">
        <dc:format>image/svg+xml</dc:format>
        <dc:type
           rdf:resource="http://purl.org/dc/dcmitype/StillImage" />
      </cc:Work>
    </rdf:RDF>
  </metadata>
  <g
     transform="matrix(1 0 0 1 -384.57143 -515.798)"
     id="layer1"
     inkscape:groupmode="layer"
     inkscape:label="Capa 1">
    <rect
       class="ColorScheme-Highlight"
       id="rect4180"
       style="fill:currentColor"
       height="18.00001"
       y="527.79816"
       x="391.57144"
       width="18" />
    <rect
       id="rect4182"
       style="fill:url(#linearGradient4357)"
       height="10.00003"
       y="517.79797"
       x="393.57144"
       width="14" />
    <rect
       id="rect4359"
       style="fill:#23262c"
       height="4.00003"
       y="519.79797"
       x="395.07144"
       width="4.00003" />
    <rect
       id="rect4361"
       style="fill:#23262c"
       height="4.00003"
       y="519.79797"
       x="402.0715"
       width="4.00003" />
    <rect
       id="rect4363"
       style="fill:url(#linearGradient4371)"
       height="4"
       y="519.79797"
       x="396.07144"
       width="2.00001" />
    <rect
       id="rect4373"
       style="fill:url(#linearGradient4375)"
       height="4"
       y="519.79797"
       x="403.0715"
       width="2.00001" />
    <rect
       width="18"
       x="391.57144"
       y="527.79816"
       height="18.00001"
       style="fill:url(#linearGradient885);fill-opacity:1;opacity:0.24"
       id="rect877" />
    <rect
       id="rect4377"
       style="fill:#000000;fill-opacity:1;opacity:0.2"
       height="0.999974"
       y="544.79797"
       x="391.57144"
       width="18" />
    <path
       transform="translate(384.57143,515.798)"
       d="M 17 14 L 17 23 L 15 23 L 23.699219 31.699219 C 26.115389 30.109999 27.94437 28.73944 29 26 L 17 14 z M 16.599609 25.199219 L 16.587891 25.210938 C 16.6135 25.230017 16.642392 25.244227 16.666016 25.265625 L 16.599609 25.199219 z M 16.732422 25.332031 C 16.894097 25.509548 17 25.739868 17 26 C 17 26.554 16.554 27 16 27 C 15.758116 27 15.545622 26.903629 15.373047 26.761719 L 21 32 C 21.67244 31.71758 23.000004 32.000044 23.365234 31.902344 L 16.732422 25.332031 z M 15.210938 26.587891 L 15.199219 26.599609 L 15.255859 26.652344 C 15.238557 26.632584 15.226656 26.608989 15.210938 26.587891 z "
       style="fill:url(#linearGradient4188);opacity:0.2;fill-rule:evenodd"
       id="path4179" />
    <path
       d="m 399.57143,529.798 0,9 2,0 0,-9 z m 1,11 c -0.554,0 -1,0.446 -1,1 0,0.554 0.446,1 1,1 0.554,0 1,-0.446 1,-1 0,-0.554 -0.446,-1 -1,-1 z"
       id="rect4142"
       style="fill:#ffffff;fill-opacity:1;opacity:0.6" />
    <path
       style="fill:url(#linearGradient872);fill-opacity:1;opacity:0.6"
       id="path864"
       d="m 399.57143,529.798 0,9 2,0 0,-9 z m 1,11 c -0.554,0 -1,0.446 -1,1 0,0.554 0.446,1 1,1 0.554,0 1,-0.446 1,-1 0,-0.554 -0.446,-1 -1,-1 z" />
  </g>
</svg>
