<?xml version="1.0" encoding="UTF-8" standalone="no"?>
<svg
   xmlns:dc="http://purl.org/dc/elements/1.1/"
   xmlns:cc="http://creativecommons.org/ns#"
   xmlns:rdf="http://www.w3.org/1999/02/22-rdf-syntax-ns#"
   xmlns:svg="http://www.w3.org/2000/svg"
   xmlns="http://www.w3.org/2000/svg"
   xmlns:xlink="http://www.w3.org/1999/xlink"
   xmlns:sodipodi="http://sodipodi.sourceforge.net/DTD/sodipodi-0.dtd"
   xmlns:inkscape="http://www.inkscape.org/namespaces/inkscape"
   inkscape:version="1.0 (1.0+r73+1)"
   sodipodi:docname="preferences-desktop-search.svg"
   id="svg27"
   viewBox="0 0 32 32"
   version="1.1">
  <metadata
     id="metadata31">
    <rdf:RDF>
      <cc:Work
         rdf:about="">
        <dc:format>image/svg+xml</dc:format>
        <dc:type
           rdf:resource="http://purl.org/dc/dcmitype/StillImage" />
      </cc:Work>
    </rdf:RDF>
  </metadata>
  <sodipodi:namedview
     inkscape:current-layer="svg27"
     inkscape:window-maximized="1"
     inkscape:window-y="0"
     inkscape:window-x="0"
     inkscape:cy="16"
     inkscape:cx="16"
     inkscape:zoom="27.0625"
     showgrid="true"
     id="namedview29"
     inkscape:window-height="1013"
     inkscape:window-width="1920"
     inkscape:pageshadow="2"
     inkscape:pageopacity="0"
     guidetolerance="10"
     gridtolerance="10"
     objecttolerance="10"
     borderopacity="1"
     bordercolor="#666666"
     pagecolor="#ffffff">
    <inkscape:grid
       id="grid856"
       type="xygrid" />
  </sodipodi:namedview>
  <defs
     id="defs17">
      <style
       id="current-color-scheme"
       type="text/css">
      .ColorScheme-Highlight {
        color:#3daee9;
      }
      </style>
    <linearGradient
       id="linearGradient874"
       inkscape:collect="always">
      <stop
         id="stop870"
         offset="0"
         style="stop-color:#ffffff;stop-opacity:1;" />
      <stop
         id="stop872"
         offset="1"
         style="stop-color:#ffffff;stop-opacity:0;" />
    </linearGradient>
    <linearGradient
       id="linearGradient864"
       inkscape:collect="always">
      <stop
         id="stop860"
         offset="0"
         style="stop-color:#ffffff;stop-opacity:1;" />
      <stop
         id="stop862"
         offset="1"
         style="stop-color:#ffffff;stop-opacity:0;" />
    </linearGradient>
    <linearGradient
       gradientUnits="userSpaceOnUse"
       gradientTransform="matrix(.93333 0 0 .93333 55.171 70.016)"
       y2="479.76"
       y1="509.64"
       x2="370.03"
       x1="370.22"
       id="linearGradient862">
      <stop
         id="stop2"
         offset="0"
         stop-color="#197cf1" />
      <stop
         id="stop4"
         offset="1"
         stop-color="#21c9fb" />
    </linearGradient>
    <linearGradient
       gradientUnits="userSpaceOnUse"
       gradientTransform="matrix(1.6667 0 0 1.6667 372.9 504.13)"
       y2="10"
       y1="22"
       x2="0"
       id="linearGradient4273">
      <stop
         id="stop7"
         offset="0"
         stop-color="#7cbaf8" />
      <stop
         id="stop9"
         offset="1"
         stop-color="#f4fcff" />
    </linearGradient>
    <linearGradient
       gradientUnits="userSpaceOnUse"
       gradientTransform="translate(-0.26,-2.82)"
       y2="28.651"
       y1="9.3115"
       x2="25.93"
       x1="7.2685"
       id="linearGradient4191">
      <stop
         id="stop12"
         offset="0"
         stop-color="#292c2f" />
      <stop
         id="stop14"
         offset="1"
         stop-opacity="0" />
    </linearGradient>
    <linearGradient
       gradientUnits="userSpaceOnUse"
       y2="540.79999"
       x2="400.57001"
       y1="520.79999"
       x1="400.57001"
       id="linearGradient866"
       xlink:href="#linearGradient864"
       inkscape:collect="always" />
    <linearGradient
       gradientUnits="userSpaceOnUse"
       y2="545.79999"
       x2="394.57001"
       y1="517.79999"
       x1="394.57001"
       id="linearGradient876"
       xlink:href="#linearGradient874"
       inkscape:collect="always" />
  </defs>
  <g
     id="g25"
     transform="translate(-384.57 -515.8)">
    <circle
       class="ColorScheme-Highlight"
       id="circle19"
       stroke-width="1.3712"
       fill="currentColor"
       r="14"
       cy="531.8"
       cx="400.57" />
    <circle
       style="fill:url(#linearGradient876);fill-opacity:1;opacity:0.24"
       cx="400.57"
       cy="531.8"
       r="14"
       stroke-width="1.3712"
       id="circle868" />
    <path
       transform="translate(384.57,515.8)"
       d="M 18.490234 7.9902344 C 19.434539 9.2446875 20 10.801957 20 12.5 C 20 14.2753 19.36735 15.882263 18.34375 17.164062 L 25 23.822266 L 23.822266 25 L 17.164062 18.34375 C 15.882263 19.36733 14.2753 20 12.5 20 C 10.801957 20 9.2446875 19.434539 7.9902344 18.490234 L 19 29.5 L 22.574219 28.083984 L 25.669922 25.830078 L 27.765625 22.859375 L 28.724609 20.583984 L 29.5 19 L 18.490234 7.9902344 z "
       style="fill:url(#linearGradient4191);opacity:0.2"
       id="path21" />
    <path
       style="fill:#ffffff;fill-opacity:1;opacity:0.6"
       id="path23"
       stroke-width="1.6667"
       d="m397.07 520.8c-4.155 0-7.5 3.345-7.5 7.5s3.345 7.5 7.5 7.5c1.7753 0 3.3829-0.63332 4.6647-1.6569l6.6569 6.6569 1.1784-1.1784-6.6569-6.6569c1.0236-1.2818 1.6569-2.8894 1.6569-4.6647 0-4.155-3.345-7.5-7.5-7.5zm0 1.6667c3.2316 0 5.8333 2.6017 5.8333 5.8333s-2.6017 5.8333-5.8333 5.8333-5.8333-2.6017-5.8333-5.8333 2.6017-5.8333 5.8333-5.8333z" />
    <path
       d="m397.07 520.8c-4.155 0-7.5 3.345-7.5 7.5s3.345 7.5 7.5 7.5c1.7753 0 3.3829-0.63332 4.6647-1.6569l6.6569 6.6569 1.1784-1.1784-6.6569-6.6569c1.0236-1.2818 1.6569-2.8894 1.6569-4.6647 0-4.155-3.345-7.5-7.5-7.5zm0 1.6667c3.2316 0 5.8333 2.6017 5.8333 5.8333s-2.6017 5.8333-5.8333 5.8333-5.8333-2.6017-5.8333-5.8333 2.6017-5.8333 5.8333-5.8333z"
       stroke-width="1.6667"
       id="path858"
       style="fill:url(#linearGradient866);fill-opacity:1;opacity:0.6" />
  </g>
</svg>
