<?xml version="1.0" encoding="UTF-8" standalone="no"?>
<svg
   xmlns:dc="http://purl.org/dc/elements/1.1/"
   xmlns:cc="http://creativecommons.org/ns#"
   xmlns:rdf="http://www.w3.org/1999/02/22-rdf-syntax-ns#"
   xmlns:svg="http://www.w3.org/2000/svg"
   xmlns="http://www.w3.org/2000/svg"
   xmlns:xlink="http://www.w3.org/1999/xlink"
   xmlns:sodipodi="http://sodipodi.sourceforge.net/DTD/sodipodi-0.dtd"
   xmlns:inkscape="http://www.inkscape.org/namespaces/inkscape"
   inkscape:version="1.0 (1.0+r73+1)"
   sodipodi:docname="preferences-desktop-sound.svg"
   id="svg40"
   height="32"
   version="1.1"
   width="32">
  <sodipodi:namedview
     inkscape:current-layer="layer1"
     inkscape:window-maximized="1"
     inkscape:window-y="0"
     inkscape:window-x="0"
     inkscape:cy="10.08776"
     inkscape:cx="16"
     inkscape:zoom="27.0625"
     showgrid="true"
     id="namedview42"
     inkscape:window-height="1013"
     inkscape:window-width="1920"
     inkscape:pageshadow="2"
     inkscape:pageopacity="0"
     guidetolerance="10"
     gridtolerance="10"
     objecttolerance="10"
     borderopacity="1"
     bordercolor="#666666"
     pagecolor="#ffffff">
    <inkscape:grid
       id="grid880"
       type="xygrid" />
  </sodipodi:namedview>
  <defs
     id="defs5455">
      <style
       id="current-color-scheme"
       type="text/css">
      .ColorScheme-Highlight {
        color:#3daee9;
      }
      </style>
    <linearGradient
       id="linearGradient876"
       inkscape:collect="always">
      <stop
         id="stop872"
         offset="0"
         style="stop-color:#ffffff;stop-opacity:1;" />
      <stop
         id="stop874"
         offset="1"
         style="stop-color:#ffffff;stop-opacity:0;" />
    </linearGradient>
    <linearGradient
       id="linearGradient4211"
       inkscape:collect="always">
      <stop
         id="stop4213"
         style="stop-color:#2f3943" />
      <stop
         id="stop4215"
         style="stop-color:#808c9b"
         offset="1" />
    </linearGradient>
    <linearGradient
       id="linearGradient4199"
       inkscape:collect="always">
      <stop
         id="stop4201"
         style="stop-color:#2f3943" />
      <stop
         id="stop4203"
         style="stop-color:#4d5662"
         offset="1" />
    </linearGradient>
    <linearGradient
       id="linearGradient4191"
       inkscape:collect="always">
      <stop
         id="stop4193"
         style="stop-color:#18222a" />
      <stop
         id="stop4195"
         style="stop-color:#566069"
         offset="1" />
    </linearGradient>
    <linearGradient
       gradientUnits="userSpaceOnUse"
       x2="0"
       y2="517.79797"
       y1="545.79797"
       id="linearGradient4197"
       xlink:href="#linearGradient4191"
       inkscape:collect="always" />
    <linearGradient
       gradientUnits="userSpaceOnUse"
       x2="0"
       y2="521.79797"
       y1="541.79797"
       id="linearGradient4205"
       xlink:href="#linearGradient4199"
       inkscape:collect="always" />
    <linearGradient
       x2="0"
       gradientUnits="userSpaceOnUse"
       y2="521.79797"
       y1="541.79797"
       id="linearGradient4209"
       xlink:href="#linearGradient4211"
       inkscape:collect="always" />
    <linearGradient
       gradientUnits="userSpaceOnUse"
       x2="22"
       y2="24"
       x1="11"
       y1="13"
       id="linearGradient4532"
       xlink:href="#linearGradient4227"
       inkscape:collect="always" />
    <linearGradient
       id="linearGradient4227"
       inkscape:collect="always">
      <stop
         id="stop4229"
         style="stop-color:#292c2f" />
      <stop
         id="stop4231"
         style="stop-opacity:0"
         offset="1" />
    </linearGradient>
    <linearGradient
       gradientUnits="userSpaceOnUse"
       y2="12"
       x2="18"
       y1="3"
       x1="18"
       id="linearGradient878"
       xlink:href="#linearGradient876"
       inkscape:collect="always" />
  </defs>
  <metadata
     id="metadata5458">
    <rdf:RDF>
      <cc:Work
         rdf:about="">
        <dc:format>image/svg+xml</dc:format>
        <dc:type
           rdf:resource="http://purl.org/dc/dcmitype/StillImage" />
      </cc:Work>
    </rdf:RDF>
  </metadata>
  <g
     transform="matrix(1 0 0 1 -384.57143 -515.798)"
     id="layer1"
     inkscape:groupmode="layer"
     inkscape:label="Capa 1">
    <rect
       id="rect4160"
       style="fill:url(#linearGradient4197)"
       ry="14"
       height="28"
       rx="13.999979"
       y="517.79797"
       x="386.5715"
       width="27.999958" />
    <rect
       id="rect4207"
       style="fill:url(#linearGradient4209)"
       ry="12"
       height="24"
       rx="11.999984"
       y="519.79797"
       x="388.5715"
       width="23.999968" />
    <path
       transform="matrix(1 0 0 1 384.57143 515.798)"
       d="M 22 8 L 8 22 L 16 30 C 23.755988 30 30 23.756 30 16 L 22 8 z "
       id="path4521"
       style="fill:url(#linearGradient4532);opacity:0.2;fill-rule:evenodd" />
    <rect
       id="rect4178"
       style="fill:url(#linearGradient4205)"
       height="20"
       ry="10"
       rx="9.999986"
       y="521.79797"
       x="390.5715"
       width="19.999971" />
    <path
       class="ColorScheme-Highlight"
       transform="translate(384.57143,515.798)"
       d="M 16 3 A 1 1 0 0 0 15 4 A 1 1 0 0 0 16 5 A 1 1 0 0 0 17 4 A 1 1 0 0 0 16 3 z M 16 7 C 15.446 7 15 7.446 15 8 L 15 11 C 15 11.554 15.446 12 16 12 C 16.554 12 17 11.554 17 11 L 17 8 C 17 7.446 16.554 7 16 7 z "
       style="fill:currentColor"
       id="rect4217" />
    <circle
       transform="matrix(0 1 -1 0 0 0)"
       id="circle4465"
       r="1"
       style="fill:#26333a"
       cy="-412.57138"
       cx="531.79797" />
    <circle
       transform="matrix(0 1 -1 0 0 0)"
       r="1"
       id="circle4467"
       style="fill:#26333a"
       cy="-388.57138"
       cx="531.79797" />
    <circle
       transform="matrix(0.5 0.8660254 -0.8660254 0.5 0 0)"
       r="1"
       id="circle4473"
       style="fill:#26333a"
       cy="-93.006"
       cx="660.83624" />
    <circle
       transform="matrix(0.5 0.8660254 -0.8660254 0.5 0 0)"
       id="circle4475"
       r="1"
       style="fill:#26333a"
       cy="-69.006"
       cx="660.83624" />
    <circle
       transform="matrix(0.8660254 0.5 -0.5 0.8660254 0 0)"
       id="circle4477"
       r="1"
       style="fill:#26333a"
       cy="248.26486"
       cx="612.80396" />
    <circle
       transform="matrix(0.8660254 -0.5 0.5 0.8660254 0 0)"
       r="1"
       id="circle4481"
       style="fill:#26333a"
       cy="648.83624"
       cx="81.006" />
    <circle
       transform="matrix(0.5 -0.8660254 0.8660254 0.5 0 0)"
       id="circle4485"
       r="1"
       style="fill:#26333a"
       cy="600.80396"
       cx="-260.26486" />
    <circle
       transform="matrix(0.5 -0.8660254 0.8660254 0.5 0 0)"
       r="1"
       id="circle4487"
       style="fill:#26333a"
       cy="624.80396"
       cx="-260.26486" />
    <path
       transform="translate(384.57143,515.798)"
       d="M 16 3 A 1 1 0 0 0 15 4 A 1 1 0 0 0 16 5 A 1 1 0 0 0 17 4 A 1 1 0 0 0 16 3 z M 16 7 C 15.446 7 15 7.446 15 8 L 15 11 C 15 11.554 15.446 12 16 12 C 16.554 12 17 11.554 17 11 L 17 8 C 17 7.446 16.554 7 16 7 z "
       id="path882"
       style="fill:#ffffff;fill-opacity:1;opacity:0.2" />
    <path
       style="fill:url(#linearGradient878);fill-opacity:1;opacity:0.24"
       id="path870"
       d="M 16 3 A 1 1 0 0 0 15 4 A 1 1 0 0 0 16 5 A 1 1 0 0 0 17 4 A 1 1 0 0 0 16 3 z M 16 7 C 15.446 7 15 7.446 15 8 L 15 11 C 15 11.554 15.446 12 16 12 C 16.554 12 17 11.554 17 11 L 17 8 C 17 7.446 16.554 7 16 7 z "
       transform="translate(384.57143,515.798)" />
  </g>
</svg>
