<?xml version="1.0" encoding="UTF-8" standalone="no"?>
<svg
   xmlns:dc="http://purl.org/dc/elements/1.1/"
   xmlns:cc="http://creativecommons.org/ns#"
   xmlns:rdf="http://www.w3.org/1999/02/22-rdf-syntax-ns#"
   xmlns:svg="http://www.w3.org/2000/svg"
   xmlns="http://www.w3.org/2000/svg"
   xmlns:xlink="http://www.w3.org/1999/xlink"
   xmlns:sodipodi="http://sodipodi.sourceforge.net/DTD/sodipodi-0.dtd"
   xmlns:inkscape="http://www.inkscape.org/namespaces/inkscape"
   inkscape:version="1.0 (1.0+r73+1)"
   sodipodi:docname="preferences-security.svg"
   id="svg25"
   version="1.1"
   width="32"
   height="32">
  <metadata
     id="metadata31">
    <rdf:RDF>
      <cc:Work
         rdf:about="">
        <dc:format>image/svg+xml</dc:format>
        <dc:type
           rdf:resource="http://purl.org/dc/dcmitype/StillImage" />
      </cc:Work>
    </rdf:RDF>
  </metadata>
  <defs
     id="defs29">
    <linearGradient
       inkscape:collect="always"
       id="linearGradient904">
      <stop
         style="stop-color:#ffffff;stop-opacity:1"
         offset="0"
         id="stop900" />
      <stop
         style="stop-color:#ffffff;stop-opacity:0"
         offset="1"
         id="stop902" />
    </linearGradient>
    <style
       id="current-color-scheme"
       type="text/css">
      .ColorScheme-Highlight {
        color:#3daee9;
      }
      </style>
    <linearGradient
       id="linearGradient864"
       inkscape:collect="always">
      <stop
         id="stop860"
         offset="0"
         style="stop-color:#ffffff;stop-opacity:1;" />
      <stop
         id="stop862"
         offset="1"
         style="stop-color:#ffffff;stop-opacity:0;" />
    </linearGradient>
    <linearGradient
       gradientUnits="userSpaceOnUse"
       y2="21"
       x2="12"
       y1="9"
       x1="12"
       id="linearGradient866"
       xlink:href="#linearGradient864"
       inkscape:collect="always" />
    <linearGradient
       inkscape:collect="always"
       xlink:href="#linearGradient904"
       id="linearGradient906"
       x1="12"
       y1="2"
       x2="12"
       y2="30"
       gradientUnits="userSpaceOnUse" />
  </defs>
  <sodipodi:namedview
     inkscape:current-layer="svg25"
     inkscape:window-maximized="1"
     inkscape:window-y="0"
     inkscape:window-x="0"
     inkscape:cy="11.831079"
     inkscape:cx="20.093058"
     inkscape:zoom="14.481547"
     showgrid="true"
     id="namedview27"
     inkscape:window-height="1013"
     inkscape:window-width="1920"
     inkscape:pageshadow="2"
     inkscape:pageopacity="0"
     guidetolerance="10"
     gridtolerance="10"
     objecttolerance="10"
     borderopacity="1"
     bordercolor="#666666"
     pagecolor="#ffffff"
     inkscape:document-rotation="0">
    <inkscape:grid
       id="grid856"
       type="xygrid" />
  </sodipodi:namedview>
  <linearGradient
     y2="2"
     y1="30"
     x2="16"
     x1="16"
     gradientUnits="userSpaceOnUse"
     id="a">
    <stop
       id="stop2"
       stop-color="#197cf1"
       offset="0" />
    <stop
       id="stop4"
       stop-color="#20bcfa"
       offset="1" />
  </linearGradient>
  <linearGradient
     y2="21"
     y1="10"
     x2="25"
     x1="14"
     gradientUnits="userSpaceOnUse"
     id="b">
    <stop
       id="stop7"
       stop-color="#292c2f"
       offset="0"
       style="stop-opacity:0.2" />
    <stop
       id="stop9"
       stop-opacity="0"
       offset="1" />
  </linearGradient>
  <linearGradient
     y2="9"
     y1="21"
     x2="14"
     x1="14"
     gradientUnits="userSpaceOnUse"
     id="c">
    <stop
       id="stop12"
       stop-color="#7cbaf8"
       offset="0" />
    <stop
       id="stop14"
       stop-color="#f4fcff"
       offset="1" />
  </linearGradient>
  <path
     fill="currentColor"
     class="ColorScheme-Highlight"
     id="path17"
     d="M16 2C12.59 3.806 9.18 4.544 5.77 5.23v13.463c0 3.77 5.526 8.918 10.23 11.307 4.704-2.389 10.23-7.537 10.23-11.307V5.231C22.82 4.544 19.41 3.806 16 2z" />
  <path
     d="M16 2C12.59 3.806 9.18 4.544 5.77 5.23v13.463c0 3.77 5.526 8.918 10.23 11.307 4.704-2.389 10.23-7.537 10.23-11.307V5.231C22.82 4.544 19.41 3.806 16 2z"
     id="path898"
     class="ColorScheme-Highlight"
     fill="currentColor"
     style="fill:url(#linearGradient906);fill-opacity:1;opacity:0.24" />
  <path
     id="path19"
     style="fill:url(#b)"
     d="M 18.138672,9.8964844 C 18.690581,10.457534 18.999919,11.212993 19,12 v 3 h 2 v 6 H 11 l 6.904297,6.904297 c 4.057732,-2.57227 8.086271,-6.706525 8.302734,-9.939453 z M 15.951172,10 C 14.865717,10.026508 13.999676,10.914221 14,12 v 3 h 4 v -3 c 0,-1.104569 -0.895431,-2 -2,-2 -0.01628,-1.987e-4 -0.03255,-1.987e-4 -0.04883,0 z M 26.230469,17.988281 26.242188,18 Z"
     sodipodi:nodetypes="cccccccccccccscccccc" />
  <path
     style="fill:#ffffff;fill-opacity:1;opacity:0.6"
     id="path21"
     d="M16 9a3 3 0 0 0-3 3v3h-2v6h10v-6h-2v-3a3 3 0 0 0-3-3zm0 1a2 2 0 0 1 2 2v3h-4v-3a2 2 0 0 1 2-2z" />
  <path
     style="fill:#000000;fill-opacity:1"
     id="path23"
     opacity=".2"
     d="M5.77 17.693v1c0 3.77 5.526 8.918 10.23 11.307 4.704-2.389 10.23-7.537 10.23-11.307v-1c0 3.77-5.526 8.918-10.23 11.307-4.704-2.389-10.23-7.537-10.23-11.307z" />
  <path
     d="M16 9a3 3 0 0 0-3 3v3h-2v6h10v-6h-2v-3a3 3 0 0 0-3-3zm0 1a2 2 0 0 1 2 2v3h-4v-3a2 2 0 0 1 2-2z"
     id="path858"
     style="fill:url(#linearGradient866);fill-opacity:1;opacity:0.6" />
</svg>
