<?xml version="1.0" encoding="UTF-8" standalone="no"?>
<svg
   xmlns:dc="http://purl.org/dc/elements/1.1/"
   xmlns:cc="http://creativecommons.org/ns#"
   xmlns:rdf="http://www.w3.org/1999/02/22-rdf-syntax-ns#"
   xmlns:svg="http://www.w3.org/2000/svg"
   xmlns="http://www.w3.org/2000/svg"
   xmlns:xlink="http://www.w3.org/1999/xlink"
   xmlns:sodipodi="http://sodipodi.sourceforge.net/DTD/sodipodi-0.dtd"
   xmlns:inkscape="http://www.inkscape.org/namespaces/inkscape"
   version="1.1"
   viewBox="0 0 32 32"
   id="svg40"
   sodipodi:docname="preferences-desktop-baloo.svg"
   inkscape:version="1.0 (1.0+r73+1)">
  <metadata
     id="metadata44">
    <rdf:RDF>
      <cc:Work
         rdf:about="">
        <dc:format>image/svg+xml</dc:format>
        <dc:type
           rdf:resource="http://purl.org/dc/dcmitype/StillImage" />
      </cc:Work>
    </rdf:RDF>
  </metadata>
  <sodipodi:namedview
     inkscape:document-rotation="0"
     pagecolor="#ffffff"
     bordercolor="#666666"
     borderopacity="1"
     objecttolerance="10"
     gridtolerance="10"
     guidetolerance="10"
     inkscape:pageopacity="0"
     inkscape:pageshadow="2"
     inkscape:window-width="1920"
     inkscape:window-height="1013"
     id="namedview42"
     showgrid="true"
     inkscape:zoom="19.136077"
     inkscape:cx="11.539388"
     inkscape:cy="12.583823"
     inkscape:window-x="0"
     inkscape:window-y="0"
     inkscape:window-maximized="1"
     inkscape:current-layer="svg40">
    <inkscape:grid
       type="xygrid"
       id="grid869" />
  </sodipodi:namedview>
  <defs
     id="defs17">
    <style
       type="text/css"
       id="current-color-scheme">
      .ColorScheme-Highlight {
        color:#3daee9;
      }
      </style>
    <linearGradient
       inkscape:collect="always"
       id="linearGradient901">
      <stop
         style="stop-color:#ffffff;stop-opacity:1;"
         offset="0"
         id="stop897" />
      <stop
         style="stop-color:#ffffff;stop-opacity:0;"
         offset="1"
         id="stop899" />
    </linearGradient>
    <linearGradient
       inkscape:collect="always"
       id="linearGradient888">
      <stop
         style="stop-color:#ffffff;stop-opacity:1;"
         offset="0"
         id="stop884" />
      <stop
         style="stop-color:#ffffff;stop-opacity:0;"
         offset="1"
         id="stop886" />
    </linearGradient>
    <linearGradient
       id="linearGradient862"
       x1="370.22"
       x2="370.03"
       y1="509.64"
       y2="479.76"
       gradientTransform="matrix(.93333 0 0 .93333 55.171 70.016)"
       gradientUnits="userSpaceOnUse">
      <stop
         stop-color="#197cf1"
         offset="0"
         id="stop2" />
      <stop
         stop-color="#21c9fb"
         offset="1"
         id="stop4" />
    </linearGradient>
    <linearGradient
       id="c"
       x2="0"
       y1="532.79"
       y2="514.8"
       gradientTransform="matrix(1.4173 0 0 1.4172 -177.73 -210.24)"
       gradientUnits="userSpaceOnUse">
      <stop
         stop-color="#7cbaf8"
         offset="0"
         id="stop7" />
      <stop
         stop-color="#f4fcff"
         offset="1"
         id="stop9" />
    </linearGradient>
    <linearGradient
       id="b"
       x1="24.263"
       x2="37.703"
       y1="26.227"
       y2="39.259"
       gradientTransform="matrix(0.77562,0,0,0.79718,-4.12,-6.48)"
       gradientUnits="userSpaceOnUse">
      <stop
         stop-color="#292c2f"
         offset="0"
         id="stop12" />
      <stop
         stop-color="#292c2f"
         stop-opacity="0"
         offset="1"
         id="stop14" />
    </linearGradient>
    <linearGradient
       inkscape:collect="always"
       xlink:href="#linearGradient888"
       id="linearGradient890"
       x1="13.919922"
       y1="3.5507812"
       x2="14"
       y2="26"
       gradientUnits="userSpaceOnUse" />
    <linearGradient
       inkscape:collect="always"
       xlink:href="#linearGradient901"
       id="linearGradient903"
       x1="394.57001"
       y1="517.79999"
       x2="394.57001"
       y2="545.79999"
       gradientUnits="userSpaceOnUse" />
  </defs>
  <g
     transform="translate(-384.57 -515.8)"
     id="g38">
    <circle
       cx="400.57"
       cy="531.8"
       r="14"
       fill="currentColor"
       stroke-width="1.3712"
       id="circle19"
       class="ColorScheme-Highlight" />
    <circle
       id="circle895"
       stroke-width="1.3712"
       r="14"
       cy="531.8"
       cx="400.57"
       style="fill:url(#linearGradient903);fill-opacity:1;opacity:0.24" />
    <path
       id="path21"
       d="M 13.919922 3.5507812 C 8.4438219 3.5507812 4.0039062 7.9888438 4.0039062 13.464844 C 4.0038963 18.940844 8.4438219 23.380859 13.919922 23.380859 C 16.058422 23.375859 18.138909 22.679704 19.849609 21.396484 L 24.332031 25.998047 L 26.333984 23.994141 L 21.851562 19.394531 C 23.134763 17.683931 23.831437 15.603244 23.835938 13.464844 C 23.835938 7.9888438 19.396022 3.5507812 13.919922 3.5507812 z M 13.919922 6.3828125 C 17.831422 6.3828025 21.001953 9.5533437 21.001953 13.464844 C 21.001953 17.398444 17.833269 20.548828 13.917969 20.548828 C 10.006469 20.548828 6.8359375 17.378197 6.8359375 13.466797 C 6.8359375 9.0580969 9.9423688 6.3847656 13.917969 6.3847656 L 13.919922 6.3828125 z M 14.107422 6.8164062 C 13.741852 7.9896062 13.673257 7.9335 13.560547 9.1875 C 12.978307 9.7084 12.900281 10.300893 12.925781 10.876953 C 12.953391 11.502463 13.384835 11.910753 13.890625 11.939453 C 14.518105 11.937453 14.883506 11.320173 14.941406 10.720703 C 15.009236 10.017873 14.888306 9.5609487 14.384766 9.1992188 C 14.371536 8.2482187 14.332022 8.0213062 14.107422 6.8164062 z M 11.705078 7.4824219 C 11.339508 8.6556219 11.270913 8.5995156 11.158203 9.8535156 C 10.575963 10.374416 10.497937 10.966909 10.523438 11.542969 C 10.551047 12.168479 10.980538 12.578722 11.486328 12.607422 L 11.486328 12.605469 C 12.113808 12.603469 12.479209 11.986189 12.537109 11.386719 C 12.604939 10.683889 12.485962 10.226964 11.982422 9.8652344 C 11.969192 8.9142344 11.929678 8.6873219 11.705078 7.4824219 z M 16.28125 7.78125 C 16.05665 8.98615 16.017136 9.2111094 16.003906 10.162109 C 15.500366 10.523839 15.381389 10.982717 15.449219 11.685547 C 15.507119 12.285017 15.87252 12.902297 16.5 12.904297 C 17.00579 12.875597 17.435281 12.465354 17.462891 11.839844 C 17.488391 11.263784 17.412318 10.673244 16.830078 10.152344 C 16.717368 8.8983437 16.64682 8.95445 16.28125 7.78125 z M 9.3964844 9.3476562 C 9.0309144 10.520856 8.9623194 10.46475 8.8496094 11.71875 C 8.2673694 12.23965 8.1893437 12.83019 8.2148438 13.40625 C 8.2424537 14.03176 8.6719444 14.442003 9.1777344 14.470703 C 9.8052144 14.468703 10.170616 13.84947 10.228516 13.25 C 10.296346 12.54717 10.177368 12.090246 9.6738281 11.728516 C 9.6605981 10.777516 9.6210844 10.552556 9.3964844 9.3476562 z M 18.541016 9.4023438 C 18.316416 10.607244 18.276902 10.834156 18.263672 11.785156 C 17.760132 12.146886 17.641154 12.603811 17.708984 13.306641 C 17.766884 13.906111 18.132286 14.523391 18.759766 14.525391 C 19.265556 14.496691 19.696999 14.088401 19.724609 13.462891 C 19.750109 12.886831 19.672084 12.294338 19.089844 11.773438 C 18.977134 10.519437 18.906586 10.575544 18.541016 9.4023438 z M 13.982422 12.451172 C 13.111022 12.408672 12.632556 12.814397 11.285156 13.904297 C 9.5409262 14.971497 9.0170875 15.5607 8.9921875 17.125 C 8.9645875 18.85442 11.202606 19.411131 13.003906 18.644531 C 13.553006 18.410821 14.736571 18.392092 15.369141 18.669922 C 16.683541 19.095322 19.015634 18.819681 19.052734 16.925781 C 19.127434 15.338781 18.115378 14.890767 16.580078 13.904297 C 15.662078 13.011617 15.205422 12.510772 13.982422 12.451172 z "
       transform="translate(384.57,515.8)"
       style="fill:#ffffff;fill-opacity:1;opacity:0.6" />
    <g
       fill="#ffffff"
       stroke-width="1.0326"
       id="g32" />
    <path
       transform="translate(384.57,515.8)"
       d="M 21.710938 7.34375 C 23.038261 9.0300092 23.835938 11.152272 23.835938 13.464844 C 23.831436 15.603244 23.134763 17.683931 21.851562 19.394531 L 26.333984 23.994141 L 24.332031 25.998047 L 19.849609 21.396484 C 18.138909 22.679704 16.058422 23.375859 13.919922 23.380859 C 11.422787 23.380859 9.1477509 22.451482 7.4042969 20.927734 L 16.5 30 C 22.3989 29.9823 29.959 22.4587 30 15.5 L 21.710938 7.34375 z "
       style="fill:url(#b);opacity:0.2"
       id="path34" />
    <path
       style="fill:url(#linearGradient890);fill-opacity:1;opacity:0.6"
       transform="translate(384.57,515.8)"
       d="M 13.919922 3.5507812 C 8.4438219 3.5507812 4.0039062 7.9888438 4.0039062 13.464844 C 4.0038963 18.940844 8.4438219 23.380859 13.919922 23.380859 C 16.058422 23.375859 18.138909 22.679704 19.849609 21.396484 L 24.332031 25.998047 L 26.333984 23.994141 L 21.851562 19.394531 C 23.134763 17.683931 23.831437 15.603244 23.835938 13.464844 C 23.835938 7.9888438 19.396022 3.5507812 13.919922 3.5507812 z M 13.919922 6.3828125 C 17.831422 6.3828025 21.001953 9.5533437 21.001953 13.464844 C 21.001953 17.398444 17.833269 20.548828 13.917969 20.548828 C 10.006469 20.548828 6.8359375 17.378197 6.8359375 13.466797 C 6.8359375 9.0580969 9.9423688 6.3847656 13.917969 6.3847656 L 13.919922 6.3828125 z M 14.107422 6.8164062 C 13.741852 7.9896062 13.673257 7.9335 13.560547 9.1875 C 12.978307 9.7084 12.900281 10.300893 12.925781 10.876953 C 12.953391 11.502463 13.384835 11.910753 13.890625 11.939453 C 14.518105 11.937453 14.883506 11.320173 14.941406 10.720703 C 15.009236 10.017873 14.888306 9.5609487 14.384766 9.1992188 C 14.371536 8.2482187 14.332022 8.0213062 14.107422 6.8164062 z M 11.705078 7.4824219 C 11.339508 8.6556219 11.270913 8.5995156 11.158203 9.8535156 C 10.575963 10.374416 10.497937 10.966909 10.523438 11.542969 C 10.551047 12.168479 10.980538 12.578722 11.486328 12.607422 L 11.486328 12.605469 C 12.113808 12.603469 12.479209 11.986189 12.537109 11.386719 C 12.604939 10.683889 12.485962 10.226964 11.982422 9.8652344 C 11.969192 8.9142344 11.929678 8.6873219 11.705078 7.4824219 z M 16.28125 7.78125 C 16.05665 8.98615 16.017136 9.2111094 16.003906 10.162109 C 15.500366 10.523839 15.381389 10.982717 15.449219 11.685547 C 15.507119 12.285017 15.87252 12.902297 16.5 12.904297 C 17.00579 12.875597 17.435281 12.465354 17.462891 11.839844 C 17.488391 11.263784 17.412318 10.673244 16.830078 10.152344 C 16.717368 8.8983437 16.64682 8.95445 16.28125 7.78125 z M 9.3964844 9.3476562 C 9.0309144 10.520856 8.9623194 10.46475 8.8496094 11.71875 C 8.2673694 12.23965 8.1893437 12.83019 8.2148438 13.40625 C 8.2424537 14.03176 8.6719444 14.442003 9.1777344 14.470703 C 9.8052144 14.468703 10.170616 13.84947 10.228516 13.25 C 10.296346 12.54717 10.177368 12.090246 9.6738281 11.728516 C 9.6605981 10.777516 9.6210844 10.552556 9.3964844 9.3476562 z M 18.541016 9.4023438 C 18.316416 10.607244 18.276902 10.834156 18.263672 11.785156 C 17.760132 12.146886 17.641154 12.603811 17.708984 13.306641 C 17.766884 13.906111 18.132286 14.523391 18.759766 14.525391 C 19.265556 14.496691 19.696999 14.088401 19.724609 13.462891 C 19.750109 12.886831 19.672084 12.294338 19.089844 11.773438 C 18.977134 10.519437 18.906586 10.575544 18.541016 9.4023438 z M 13.982422 12.451172 C 13.111022 12.408672 12.632556 12.814397 11.285156 13.904297 C 9.5409262 14.971497 9.0170875 15.5607 8.9921875 17.125 C 8.9645875 18.85442 11.202606 19.411131 13.003906 18.644531 C 13.553006 18.410821 14.736571 18.392092 15.369141 18.669922 C 16.683541 19.095322 19.015634 18.819681 19.052734 16.925781 C 19.127434 15.338781 18.115378 14.890767 16.580078 13.904297 C 15.662078 13.011617 15.205422 12.510772 13.982422 12.451172 z "
       id="path882" />
    <path
       id="path892"
       d="M 13.919922 3.5507812 C 8.4438219 3.5507812 4.0039062 7.9888438 4.0039062 13.464844 C 4.0038963 18.940844 8.4438219 23.380859 13.919922 23.380859 C 16.058422 23.375859 18.138909 22.679704 19.849609 21.396484 L 24.332031 25.998047 L 26.333984 23.994141 L 21.851562 19.394531 C 23.134763 17.683931 23.831437 15.603244 23.835938 13.464844 C 23.835938 7.9888438 19.396022 3.5507812 13.919922 3.5507812 z M 13.919922 6.3828125 C 17.831422 6.3828025 21.001953 9.5533437 21.001953 13.464844 C 21.001953 17.398444 17.833269 20.548828 13.917969 20.548828 C 10.006469 20.548828 6.8359375 17.378197 6.8359375 13.466797 C 6.8359375 9.0580969 9.9423688 6.3847656 13.917969 6.3847656 L 13.919922 6.3828125 z M 14.107422 6.8164062 C 13.741852 7.9896062 13.673257 7.9335 13.560547 9.1875 C 12.978307 9.7084 12.900281 10.300893 12.925781 10.876953 C 12.953391 11.502463 13.384835 11.910753 13.890625 11.939453 C 14.518105 11.937453 14.883506 11.320173 14.941406 10.720703 C 15.009236 10.017873 14.888306 9.5609487 14.384766 9.1992188 C 14.371536 8.2482187 14.332022 8.0213062 14.107422 6.8164062 z M 11.705078 7.4824219 C 11.339508 8.6556219 11.270913 8.5995156 11.158203 9.8535156 C 10.575963 10.374416 10.497937 10.966909 10.523438 11.542969 C 10.551047 12.168479 10.980538 12.578722 11.486328 12.607422 L 11.486328 12.605469 C 12.113808 12.603469 12.479209 11.986189 12.537109 11.386719 C 12.604939 10.683889 12.485962 10.226964 11.982422 9.8652344 C 11.969192 8.9142344 11.929678 8.6873219 11.705078 7.4824219 z M 16.28125 7.78125 C 16.05665 8.98615 16.017136 9.2111094 16.003906 10.162109 C 15.500366 10.523839 15.381389 10.982717 15.449219 11.685547 C 15.507119 12.285017 15.87252 12.902297 16.5 12.904297 C 17.00579 12.875597 17.435281 12.465354 17.462891 11.839844 C 17.488391 11.263784 17.412318 10.673244 16.830078 10.152344 C 16.717368 8.8983437 16.64682 8.95445 16.28125 7.78125 z M 9.3964844 9.3476562 C 9.0309144 10.520856 8.9623194 10.46475 8.8496094 11.71875 C 8.2673694 12.23965 8.1893437 12.83019 8.2148438 13.40625 C 8.2424537 14.03176 8.6719444 14.442003 9.1777344 14.470703 C 9.8052144 14.468703 10.170616 13.84947 10.228516 13.25 C 10.296346 12.54717 10.177368 12.090246 9.6738281 11.728516 C 9.6605981 10.777516 9.6210844 10.552556 9.3964844 9.3476562 z M 18.541016 9.4023438 C 18.316416 10.607244 18.276902 10.834156 18.263672 11.785156 C 17.760132 12.146886 17.641154 12.603811 17.708984 13.306641 C 17.766884 13.906111 18.132286 14.523391 18.759766 14.525391 C 19.265556 14.496691 19.696999 14.088401 19.724609 13.462891 C 19.750109 12.886831 19.672084 12.294338 19.089844 11.773438 C 18.977134 10.519437 18.906586 10.575544 18.541016 9.4023438 z M 13.982422 12.451172 C 13.111022 12.408672 12.632556 12.814397 11.285156 13.904297 C 9.5409262 14.971497 9.0170875 15.5607 8.9921875 17.125 C 8.9645875 18.85442 11.202606 19.411131 13.003906 18.644531 C 13.553006 18.410821 14.736571 18.392092 15.369141 18.669922 C 16.683541 19.095322 19.015634 18.819681 19.052734 16.925781 C 19.127434 15.338781 18.115378 14.890767 16.580078 13.904297 C 15.662078 13.011617 15.205422 12.510772 13.982422 12.451172 z "
       transform="translate(384.57,515.8)"
       style="fill:url(#linearGradient890);fill-opacity:1;opacity:0.6" />
  </g>
</svg>
