<?xml version="1.0" encoding="UTF-8" standalone="no"?>
<svg
   xmlns:dc="http://purl.org/dc/elements/1.1/"
   xmlns:cc="http://creativecommons.org/ns#"
   xmlns:rdf="http://www.w3.org/1999/02/22-rdf-syntax-ns#"
   xmlns:svg="http://www.w3.org/2000/svg"
   xmlns="http://www.w3.org/2000/svg"
   xmlns:xlink="http://www.w3.org/1999/xlink"
   xmlns:sodipodi="http://sodipodi.sourceforge.net/DTD/sodipodi-0.dtd"
   xmlns:inkscape="http://www.inkscape.org/namespaces/inkscape"
   width="32"
   version="1.1"
   height="32"
   id="svg20"
   sodipodi:docname="preferences-desktop-accessibility.svg"
   inkscape:version="1.0 (1.0+r73+1)">
  <sodipodi:namedview
     inkscape:document-rotation="0"
     pagecolor="#ffffff"
     bordercolor="#666666"
     borderopacity="1"
     objecttolerance="10"
     gridtolerance="10"
     guidetolerance="10"
     inkscape:pageopacity="0"
     inkscape:pageshadow="2"
     inkscape:window-width="1920"
     inkscape:window-height="1013"
     id="namedview22"
     showgrid="true"
     inkscape:zoom="19.136077"
     inkscape:cx="9.2085358"
     inkscape:cy="8.6955657"
     inkscape:window-x="0"
     inkscape:window-y="0"
     inkscape:window-maximized="1"
     inkscape:current-layer="layer1">
    <inkscape:grid
       type="xygrid"
       id="grid847" />
  </sodipodi:namedview>
  <defs
     id="defs5455">
    <style
       type="text/css"
       id="current-color-scheme">
      .ColorScheme-Highlight {
        color:#3daee9;
      }
      </style>
    <linearGradient
       inkscape:collect="always"
       id="linearGradient855">
      <stop
         style="stop-color:#ffffff;stop-opacity:1;"
         offset="0"
         id="stop851" />
      <stop
         style="stop-color:#ffffff;stop-opacity:0;"
         offset="1"
         id="stop853" />
    </linearGradient>
    <linearGradient
       inkscape:collect="always"
       xlink:href="#linearGradient4410"
       id="linearGradient4216"
       y1="8.999974"
       x1="9"
       y2="23"
       x2="23.00004"
       gradientUnits="userSpaceOnUse" />
    <linearGradient
       inkscape:collect="always"
       id="linearGradient4410">
      <stop
         style="stop-color:#383e51"
         id="stop4412" />
      <stop
         offset="1"
         style="stop-color:#655c6f;stop-opacity:0"
         id="stop4414" />
    </linearGradient>
    <linearGradient
       inkscape:collect="always"
       xlink:href="#linearGradient855"
       id="linearGradient857"
       x1="389.57144"
       y1="517.79797"
       x2="389.57144"
       y2="545.79797"
       gradientUnits="userSpaceOnUse" />
    <linearGradient
       inkscape:collect="always"
       xlink:href="#linearGradient855"
       id="linearGradient867"
       x1="397.57144"
       y1="524.79797"
       x2="397.57144"
       y2="538.79797"
       gradientUnits="userSpaceOnUse" />
  </defs>
  <metadata
     id="metadata5458">
    <rdf:RDF>
      <cc:Work
         rdf:about="">
        <dc:format>image/svg+xml</dc:format>
        <dc:type
           rdf:resource="http://purl.org/dc/dcmitype/StillImage" />
      </cc:Work>
    </rdf:RDF>
  </metadata>
  <g
     inkscape:label="Capa 1"
     inkscape:groupmode="layer"
     id="layer1"
     transform="matrix(1 0 0 1 -384.57143 -515.798)">
    <rect
       width="28.00001"
       x="386.57144"
       y="517.79797"
       rx="14.00001"
       height="28.00003"
       style="fill:currentColor"
       id="rect4130"
       class="ColorScheme-Highlight" />
    <rect
       id="rect849"
       style="fill:url(#linearGradient857);fill-opacity:1;opacity:0.24"
       height="28.00003"
       rx="14.00001"
       y="517.79797"
       x="386.57144"
       width="28.00001" />
    <path
       sodipodi:nodetypes="cccccccccccccccccccccccsc"
       transform="translate(384.57143,515.798)"
       d="m 17.59375,12.984375 -0.0098,0.01367 0.01563,0.0059 -0.203125,2.115235 L 21,18 l 1,4.601562 -0.6875,0.396485 V 23 l 3.712891,3.712891 c 1.143354,-0.963128 2.118879,-2.11166 2.904297,-3.392579 z M 21,18 17.353516,16.541016 17.300781,17.300781 Z M 11.007812,20.988281 11,21 l 0.09766,0.09766 c -0.02937,-0.03699 -0.06151,-0.07154 -0.08984,-0.109375 z m 0.894532,0.914063 7.632812,7.632812 c 1.500841,-0.388554 2.90529,-1.007986 4.164063,-1.835937 L 17.992188,21.992188 C 17.157447,22.617847 16.12807,23 15,23 13.82145,23 12.755224,22.579548 11.902344,21.902344 Z"
       style="opacity:0.2;fill:url(#linearGradient4216);fill-rule:evenodd"
       id="path4190" />
    <path
       inkscape:connector-curvature="0"
       style="fill:#ffffff;fill-opacity:1;opacity:0.6"
       id="rect4137"
       d="m 401.57145,524.798 c -0.831,0 -1.5,0.669 -1.5,1.5 0,0.831 0.669,1.5 1.5,1.5 0.831,0 1.5,-0.669 1.5,-1.5 0,-0.831 -0.669,-1.5 -1.5,-1.5 z m -1.16602,3.31445 -1.78906,5.98047 c -0.009,0.0207 -0.0111,0.0443 -0.0176,0.0664 l -0.0273,0.10351 0.006,0.002 c -8.7e-4,0.0114 -0.006,0.0215 -0.006,0.0332 0,0.277 0.223,0.5 0.5,0.5 l 1.5,0 2,0 1,0 2.30859,4 0.69141,-0.39844 -1,-4.60156 -3.69922,-0.69922 0.0527,-0.75976 3.64649,1.45898 -3.60352,-2.88086 0.20313,-2.11523 -1.76563,-0.68946 z m -0.83398,0.68555 c -2.77,0 -5,2.23 -5,5 0,2.77 2.23,5 5,5 1.12807,0 2.15745,-0.38215 2.99219,-1.00781 l -0.71875,-0.71875 c -0.64444,0.45127 -1.42197,0.72656 -2.27344,0.72656 -2.216,0 -4,-1.784 -4,-4 0,-2.216 1.784,-4 4,-4 l 0,-1 z" />
    <path
       d="m 401.57145,524.798 c -0.831,0 -1.5,0.669 -1.5,1.5 0,0.831 0.669,1.5 1.5,1.5 0.831,0 1.5,-0.669 1.5,-1.5 0,-0.831 -0.669,-1.5 -1.5,-1.5 z m -1.16602,3.31445 -1.78906,5.98047 c -0.009,0.0207 -0.0111,0.0443 -0.0176,0.0664 l -0.0273,0.10351 0.006,0.002 c -8.7e-4,0.0114 -0.006,0.0215 -0.006,0.0332 0,0.277 0.223,0.5 0.5,0.5 l 1.5,0 2,0 1,0 2.30859,4 0.69141,-0.39844 -1,-4.60156 -3.69922,-0.69922 0.0527,-0.75976 3.64649,1.45898 -3.60352,-2.88086 0.20313,-2.11523 -1.76563,-0.68946 z m -0.83398,0.68555 c -2.77,0 -5,2.23 -5,5 0,2.77 2.23,5 5,5 1.12807,0 2.15745,-0.38215 2.99219,-1.00781 l -0.71875,-0.71875 c -0.64444,0.45127 -1.42197,0.72656 -2.27344,0.72656 -2.216,0 -4,-1.784 -4,-4 0,-2.216 1.784,-4 4,-4 l 0,-1 z"
       id="path859"
       style="fill:url(#linearGradient867);fill-opacity:1;opacity:0.6"
       inkscape:connector-curvature="0" />
  </g>
</svg>
