<?xml version="1.0" encoding="UTF-8" standalone="no"?>
<svg
   xmlns:dc="http://purl.org/dc/elements/1.1/"
   xmlns:cc="http://creativecommons.org/ns#"
   xmlns:rdf="http://www.w3.org/1999/02/22-rdf-syntax-ns#"
   xmlns:svg="http://www.w3.org/2000/svg"
   xmlns="http://www.w3.org/2000/svg"
   xmlns:xlink="http://www.w3.org/1999/xlink"
   xmlns:sodipodi="http://sodipodi.sourceforge.net/DTD/sodipodi-0.dtd"
   xmlns:inkscape="http://www.inkscape.org/namespaces/inkscape"
   width="32"
   version="1.1"
   height="32"
   id="svg29"
   sodipodi:docname="preferences-desktop-filetype-association.svg"
   inkscape:version="1.0 (1.0+r73+1)">
  <sodipodi:namedview
     inkscape:document-rotation="0"
     pagecolor="#ffffff"
     bordercolor="#666666"
     borderopacity="1"
     objecttolerance="10"
     gridtolerance="10"
     guidetolerance="10"
     inkscape:pageopacity="0"
     inkscape:pageshadow="2"
     inkscape:window-width="1920"
     inkscape:window-height="1018"
     id="namedview31"
     showgrid="true"
     inkscape:zoom="19.136077"
     inkscape:cx="17.227315"
     inkscape:cy="19.634884"
     inkscape:window-x="0"
     inkscape:window-y="0"
     inkscape:window-maximized="1"
     inkscape:current-layer="layer1">
    <inkscape:grid
       type="xygrid"
       id="grid856" />
  </sodipodi:namedview>
  <defs
     id="defs5455">
    <style
       type="text/css"
       id="current-color-scheme">
      .ColorScheme-Highlight {
        color:#3daee9;
      }
      </style>
    <linearGradient
       inkscape:collect="always"
       id="linearGradient866">
      <stop
         style="stop-color:#ffffff;stop-opacity:1;"
         offset="0"
         id="stop862" />
      <stop
         style="stop-color:#ffffff;stop-opacity:0;"
         offset="1"
         id="stop864" />
    </linearGradient>
    <linearGradient
       inkscape:collect="always"
       id="linearGradient4298">
      <stop
         style="stop-color:#42a603"
         id="stop4300" />
      <stop
         offset="1"
         style="stop-color:#78da06"
         id="stop4302" />
    </linearGradient>
    <linearGradient
       inkscape:collect="always"
       xlink:href="#linearGradient4298"
       id="linearGradient4304"
       y1="545.79797"
       y2="517.79797"
       x2="0"
       gradientUnits="userSpaceOnUse" />
    <linearGradient
       inkscape:collect="always"
       id="linearGradient4227">
      <stop
         style="stop-color:#292c2f"
         id="stop4229" />
      <stop
         offset="1"
         style="stop-opacity:0"
         id="stop4231" />
    </linearGradient>
    <linearGradient
       inkscape:collect="always"
       xlink:href="#linearGradient4227"
       id="linearGradient4385"
       y1="524.79797"
       x1="409.57144"
       y2="531.79797"
       x2="409.57144"
       gradientUnits="userSpaceOnUse"
       gradientTransform="translate(-384.57143,-515.798)" />
    <linearGradient
       inkscape:collect="always"
       xlink:href="#linearGradient866"
       id="linearGradient868"
       x1="16"
       y1="10"
       x2="16"
       y2="22"
       gradientUnits="userSpaceOnUse" />
    <linearGradient
       inkscape:collect="always"
       xlink:href="#linearGradient866"
       id="linearGradient878"
       x1="389.57144"
       y1="517.79797"
       x2="389.57144"
       y2="545.79797"
       gradientUnits="userSpaceOnUse" />
  </defs>
  <metadata
     id="metadata5458">
    <rdf:RDF>
      <cc:Work
         rdf:about="">
        <dc:format>image/svg+xml</dc:format>
        <dc:type
           rdf:resource="http://purl.org/dc/dcmitype/StillImage" />
      </cc:Work>
    </rdf:RDF>
  </metadata>
  <g
     inkscape:label="Capa 1"
     inkscape:groupmode="layer"
     id="layer1"
     transform="matrix(1 0 0 1 -384.57143 -515.798)">
    <path
       inkscape:connector-curvature="0"
       style="fill:url(#linearGradient4304)"
       id="path4182"
       d="m 392.57143,517.798 0,28 21.99999,0 0,-21 -6.99999,-7 -15,0 z" />
    <path
       inkscape:connector-curvature="0"
       style="fill:currentColor"
       id="rect4144"
       d="m 386.57143,517.798 0,28 21.99999,0 0,-21 -6.99999,-7 -15,0 z"
       class="ColorScheme-Highlight" />
    <path
       style="fill:#ffffff;fill-opacity:1;opacity:0.6"
       id="rect4211"
       d="M 10 10 C 9.446 10 9 10.446 9 11 C 9 11.554 9.446 12 10 12 C 10.554 12 11 11.554 11 11 C 11 10.446 10.554 10 10 10 z M 15 10 L 13 12 L 15 14 L 13 16 L 15 18 L 17 16 L 19 14 L 17 12 L 15 10 z M 8 16 C 7.446 16 7 16.446 7 17 C 7 17.554 7.446 18 8 18 C 8.554 18 9 17.554 9 17 C 9 16.446 8.554 16 8 16 z M 12 20 C 11.446 20 11 20.446 11 21 C 11 21.554 11.446 22 12 22 C 12.554 22 13 21.554 13 21 C 13 20.446 12.554 20 12 20 z "
       transform="matrix(1 0 0 1 384.57143 515.798)" />
    <path
       d="m 386.57143,517.798 0,28 21.99999,0 0,-21 -6.99999,-7 -15,0 z"
       id="path870"
       style="fill:url(#linearGradient878);fill-opacity:1;opacity:0.24"
       inkscape:connector-curvature="0" />
    <path
       id="path4306"
       style="fill:url(#linearGradient4385);opacity:0.2;fill-rule:evenodd"
       d="M 17 9 L 24 16 L 24 10 L 30 16 L 30 9 L 24 9 L 23 9 L 17 9 z "
       transform="translate(384.57143,515.798)" />
    <path
       id="path4184"
       style="fill:#313437;fill-rule:evenodd;opacity:0.8;fill-opacity:1"
       d="M 17 2 L 17 9 L 23 9 L 24 9 L 30 9 L 23 2 L 23 8 L 17 2 z "
       transform="translate(384.57143,515.798)" />
    <path
       transform="matrix(1 0 0 1 384.57143 515.798)"
       d="M 10 10 C 9.446 10 9 10.446 9 11 C 9 11.554 9.446 12 10 12 C 10.554 12 11 11.554 11 11 C 11 10.446 10.554 10 10 10 z M 15 10 L 13 12 L 15 14 L 13 16 L 15 18 L 17 16 L 19 14 L 17 12 L 15 10 z M 8 16 C 7.446 16 7 16.446 7 17 C 7 17.554 7.446 18 8 18 C 8.554 18 9 17.554 9 17 C 9 16.446 8.554 16 8 16 z M 12 20 C 11.446 20 11 20.446 11 21 C 11 21.554 11.446 22 12 22 C 12.554 22 13 21.554 13 21 C 13 20.446 12.554 20 12 20 z "
       id="path860"
       style="fill:url(#linearGradient868);fill-opacity:1;opacity:0.6" />
  </g>
</svg>
