<?xml version="1.0" encoding="UTF-8" standalone="no"?>
<svg
   xmlns:dc="http://purl.org/dc/elements/1.1/"
   xmlns:cc="http://creativecommons.org/ns#"
   xmlns:rdf="http://www.w3.org/1999/02/22-rdf-syntax-ns#"
   xmlns:svg="http://www.w3.org/2000/svg"
   xmlns="http://www.w3.org/2000/svg"
   xmlns:xlink="http://www.w3.org/1999/xlink"
   xmlns:sodipodi="http://sodipodi.sourceforge.net/DTD/sodipodi-0.dtd"
   xmlns:inkscape="http://www.inkscape.org/namespaces/inkscape"
   height="32"
   width="32"
   version="1.1"
   id="svg49"
   sodipodi:docname="preferences-desktop-virtual.svg"
   inkscape:version="1.0 (1.0+r73+1)">
  <metadata
     id="metadata55">
    <rdf:RDF>
      <cc:Work
         rdf:about="">
        <dc:format>image/svg+xml</dc:format>
        <dc:type
           rdf:resource="http://purl.org/dc/dcmitype/StillImage" />
      </cc:Work>
    </rdf:RDF>
  </metadata>
  <defs
     id="defs53">
    <style
       type="text/css"
       id="current-color-scheme">
      .ColorScheme-Highlight {
        color:#3daee9;
      }
     </style>
    <linearGradient
       y2="13"
       y1="9"
       xlink:href="#b"
       x2="12"
       x1="8"
       gradientUnits="userSpaceOnUse"
       id="h-3"
       gradientTransform="translate(12,-13)" />
    <linearGradient
       id="linearGradient913">
      <stop
         id="stop2-6"
         stop-color="#292c2f"
         offset="0" />
      <stop
         id="stop4-7"
         stop-opacity="0"
         offset="1" />
    </linearGradient>
  </defs>
  <sodipodi:namedview
     inkscape:document-rotation="0"
     pagecolor="#ffffff"
     bordercolor="#666666"
     borderopacity="1"
     objecttolerance="10"
     gridtolerance="10"
     guidetolerance="10"
     inkscape:pageopacity="0"
     inkscape:pageshadow="2"
     inkscape:window-width="1920"
     inkscape:window-height="1013"
     id="namedview51"
     showgrid="true"
     inkscape:zoom="19.136078"
     inkscape:cx="10.431391"
     inkscape:cy="15.494897"
     inkscape:window-x="0"
     inkscape:window-y="0"
     inkscape:window-maximized="1"
     inkscape:current-layer="svg49">
    <inkscape:grid
       type="xygrid"
       id="grid880" />
  </sodipodi:namedview>
  <linearGradient
     id="b">
    <stop
       offset="0"
       stop-color="#292c2f"
       id="stop2" />
    <stop
       offset="1"
       stop-opacity="0"
       id="stop4" />
  </linearGradient>
  <linearGradient
     id="a">
    <stop
       offset="0"
       id="stop7" />
    <stop
       offset="1"
       stop-opacity="0"
       id="stop9" />
  </linearGradient>
  <linearGradient
     id="g"
     gradientUnits="userSpaceOnUse"
     x1="24"
     x2="31"
     xlink:href="#a"
     y1="23"
     y2="30" />
  <linearGradient
     id="e"
     gradientUnits="userSpaceOnUse"
     x1="8"
     x2="15"
     xlink:href="#a"
     y1="23"
     y2="30" />
  <linearGradient
     id="f"
     gradientUnits="userSpaceOnUse"
     x1="24"
     x2="32"
     xlink:href="#a"
     y1="9"
     y2="17" />
  <linearGradient
     id="d"
     gradientUnits="userSpaceOnUse"
     x1="8"
     x2="16"
     xlink:href="#a"
     y1="9"
     y2="17" />
  <linearGradient
     id="h"
     gradientUnits="userSpaceOnUse"
     x1="8"
     x2="12"
     xlink:href="#b"
     y1="9"
     y2="13" />
  <linearGradient
     id="i"
     gradientUnits="userSpaceOnUse"
     x1="24"
     x2="28"
     xlink:href="#b"
     y1="23"
     y2="27" />
  <linearGradient
     id="c"
     gradientUnits="userSpaceOnUse"
     x1="32"
     x2="32"
     y1="30"
     y2="2">
    <stop
       offset="0"
       stop-color="#171d25"
       id="stop18" />
    <stop
       offset="1"
       stop-color="#303236"
       id="stop20" />
  </linearGradient>
  <path
     d="M0 2h32v28H0z"
     fill="url(#c)"
     fill-rule="evenodd"
     id="path23" />
  <path
     d="M 15 3 L 15 15 L 1 15 L 3 17 L 15 17 L 17 19 L 19 17 L 17 15 L 17 5 L 15 3 z "
     style="fill:url(#d);opacity:0.2"
     id="path25" />
  <path
     d="M1 29l1 1h16l-1-1V19l-2-2z"
     fill="url(#e)"
     opacity=".2"
     id="path27" />
  <path
     d="M17 15l2 2h12l1 1V4l-1-1z"
     fill="url(#f)"
     opacity=".2"
     id="path29" />
  <path
     d="M17 29l1 1h14V18l-1-1z"
     fill="url(#g)"
     opacity=".2"
     id="path31" />
  <path
     class="ColorScheme-Highlight"
     d="M1 3h14v12H1z"
     fill="currentColor"
     fill-rule="evenodd"
     id="path33"
     style="opacity:0.6" />
  <path
     d="M1 17h14v12H1zM17 3h14v12H17zm0 14h14v12H17z"
     fill="#4a4a4f"
     fill-rule="evenodd"
     id="path35" />
  <path
     sodipodi:nodetypes="ccccccc"
     d="m 12,6 v 6 H 4 l 3,3 h 8 V 9 Z"
     style="fill:url(#h);opacity:0.2"
     id="path37" />
  <path
     d="m 5,7 h 6 v 4 H 5 Z"
     fill="#67aace"
     fill-rule="evenodd"
     id="path39"
     sodipodi:nodetypes="ccccc"
     style="fill:#ffffff;fill-opacity:1;opacity:0.3" />
  <path
     d="M4 6v6h8V6zm1 1h6v4H5z"
     fill="#85c9ec"
     fill-rule="evenodd"
     id="path41"
     style="fill:#ffffff;fill-opacity:1;opacity:0.6" />
  <path
     d="M20 26l3 3h8v-6l-3-3z"
     fill="url(#i)"
     opacity=".2"
     id="path43" />
  <path
     d="M20 20h8v6h-8z"
     fill="#636367"
     id="path45" />
  <path
     d="M20 20v6h8v-6zm1 1h6v4h-6z"
     fill="#9a9b9d"
     id="path47" />
</svg>
