<?xml version="1.0" encoding="UTF-8" standalone="no"?>
<svg
   xmlns:dc="http://purl.org/dc/elements/1.1/"
   xmlns:cc="http://creativecommons.org/ns#"
   xmlns:rdf="http://www.w3.org/1999/02/22-rdf-syntax-ns#"
   xmlns:svg="http://www.w3.org/2000/svg"
   xmlns="http://www.w3.org/2000/svg"
   xmlns:xlink="http://www.w3.org/1999/xlink"
   xmlns:sodipodi="http://sodipodi.sourceforge.net/DTD/sodipodi-0.dtd"
   xmlns:inkscape="http://www.inkscape.org/namespaces/inkscape"
   height="32"
   width="32"
   version="1.1"
   id="svg37"
   sodipodi:docname="preferences-system-user-sudo.svg"
   inkscape:version="1.0 (1.0+r73+1)">
  <metadata
     id="metadata43">
    <rdf:RDF>
      <cc:Work
         rdf:about="">
        <dc:format>image/svg+xml</dc:format>
        <dc:type
           rdf:resource="http://purl.org/dc/dcmitype/StillImage" />
      </cc:Work>
    </rdf:RDF>
  </metadata>
  <defs
     id="defs41">
    <linearGradient
       id="linearGradient1011"
       inkscape:collect="always">
      <stop
         id="stop1007"
         offset="0"
         style="stop-color:#ffffff;stop-opacity:1;" />
      <stop
         id="stop1009"
         offset="1"
         style="stop-color:#ffffff;stop-opacity:0;" />
    </linearGradient>
    <style
       type="text/css"
       id="current-color-scheme">
      .ColorScheme-Highlight {
        color:#3daee9;
      }
      </style>
    <linearGradient
       gradientTransform="matrix(1.42857,0,0,1.42857,-546.24053,-728.71032)"
       x2="407.57001"
       gradientUnits="userSpaceOnUse"
       x1="393.57001"
       y2="538.79999"
       y1="524.79999"
       id="b-3-0">
      <stop
         id="stop7-5-9"
         stop-color="#383e51"
         style="stop-color:#000000;stop-opacity:1" />
      <stop
         id="stop9-6-3"
         stop-opacity="0"
         stop-color="#655c6f"
         offset="1" />
    </linearGradient>
    <linearGradient
       id="highlight"
       inkscape:collect="always">
      <stop
         id="stop891"
         offset="0"
         style="stop-color:#ffffff;stop-opacity:1;" />
      <stop
         id="stop893"
         offset="1"
         style="stop-color:#ffffff;stop-opacity:0;" />
    </linearGradient>
    <linearGradient
       id="linearGradient4227"
       inkscape:collect="always">
      <stop
         id="stop4229"
         style="stop-color:#292c2f" />
      <stop
         id="stop4231"
         style="stop-opacity:0"
         offset="1" />
    </linearGradient>
    <linearGradient
       inkscape:collect="always"
       xlink:href="#highlight"
       id="linearGradient947"
       x1="10"
       y1="9"
       x2="10"
       y2="23"
       gradientUnits="userSpaceOnUse" />
    <linearGradient
       gradientUnits="userSpaceOnUse"
       y2="23"
       x2="24"
       y1="9"
       x1="9"
       id="linearGradient1003"
       xlink:href="#linearGradient4227"
       inkscape:collect="always" />
    <linearGradient
       gradientUnits="userSpaceOnUse"
       y2="546.79797"
       x2="388.57101"
       y1="517.79797"
       x1="388.57101"
       id="linearGradient1013"
       xlink:href="#linearGradient1011"
       inkscape:collect="always" />
  </defs>
  <sodipodi:namedview
     inkscape:document-rotation="0"
     pagecolor="#ffffff"
     bordercolor="#666666"
     borderopacity="1"
     objecttolerance="10"
     gridtolerance="10"
     guidetolerance="10"
     inkscape:pageopacity="0"
     inkscape:pageshadow="2"
     inkscape:window-width="1920"
     inkscape:window-height="1013"
     id="namedview39"
     showgrid="true"
     inkscape:zoom="9.5680386"
     inkscape:cx="17.555511"
     inkscape:cy="16.080362"
     inkscape:window-x="0"
     inkscape:window-y="0"
     inkscape:window-maximized="1"
     inkscape:current-layer="svg37">
    <inkscape:grid
       type="xygrid"
       id="grid868" />
  </sodipodi:namedview>
  <linearGradient
     id="b"
     gradientUnits="userSpaceOnUse"
     x2="0"
     y1="545.798"
     y2="517.798">
    <stop
       offset="0"
       stop-color="#197cf1"
       id="stop2" />
    <stop
       offset="1"
       stop-color="#20bcfa"
       id="stop4" />
  </linearGradient>
  <linearGradient
     id="a">
    <stop
       offset="0"
       stop-color="#7cbaf8"
       id="stop7" />
    <stop
       offset="1"
       stop-color="#f4fcff"
       id="stop9" />
  </linearGradient>
  <linearGradient
     id="d"
     gradientUnits="userSpaceOnUse"
     x2="0"
     xlink:href="#a"
     y1="23"
     y2="9" />
  <linearGradient
     id="e"
     gradientTransform="matrix(.5 0 0 1 395.071 515.798)"
     gradientUnits="userSpaceOnUse"
     x1="-21"
     x2="-21"
     xlink:href="#a"
     y1="23"
     y2="9" />
  <linearGradient
     xlink:href="#linearGradient4227"
     id="c"
     gradientUnits="userSpaceOnUse"
     x1="9"
     x2="23"
     y1="9"
     y2="23">
    <stop
       offset="0"
       stop-color="#292c2f"
       id="stop14" />
    <stop
       offset="1"
       stop-opacity="0"
       id="stop16" />
  </linearGradient>
  <g
     transform="translate(-384.571 -515.798)"
     id="g33">
    <rect
       fill="currentColor"
       height="28"
       rx="14"
       width="28"
       x="386.571"
       y="517.798"
       id="rect19"
       class="ColorScheme-Highlight" />
    <rect
       style="fill:url(#linearGradient1013);fill-opacity:1;opacity:0.24"
       id="rect1005"
       y="517.798"
       x="386.571"
       width="28"
       rx="14"
       height="28" />
    <path
       sodipodi:nodetypes="ssssscsccccccccccccccccccccccccccccccccccccccccccccc"
       id="path21"
       style="opacity:0.2;fill:url(#linearGradient1003);fill-opacity:1"
       d="m 16,10 c -1.385,0 -2.5,1.115 -2.5,2.5 0,1.385 1.115,2.5 2.5,2.5 1.385,0 2.5,-1.115 2.5,-2.5 C 18.5,11.115 17.385,10 16,10 Z m 2.587891,0.158203 C 19.14926,10.778565 19.5,11.593599 19.5,12.5 c 0,1.939 -1.561,3.5 -3.5,3.5 0.438144,5.59e-4 0.875161,0.04439 1.304688,0.130859 l -0.259766,0.972657 C 16.706922,17.037516 16.359,17 16,17 13.071391,16.9946 10.569779,19.110979 10.089844,22 H 17 v 1 H 9 l 7,7 c 6.09,0 11.230016,-3.855672 13.166016,-9.263672 z M 19,17 h 1 v 1 h 2 v -1 h 1 v 1 h 1 v 1 h -1 v 2 h 1 v 1 h -1 v 1 h -1 v -1 h -2 v 1 h -1 v -1 h -1 v -1 h 1 v -2 h -1 v -1 h 1 z m 1,2 v 2 h 2 v -2 z"
       transform="translate(384.571,515.798)" />
    <path
       id="path23"
       style="fill:#ffffff;fill-opacity:1;opacity:0.6"
       d="M 16 9 C 14.061 9 12.5 10.561 12.5 12.5 C 12.5 14.439 14.061 16 16 16 C 17.939 16 19.5 14.439 19.5 12.5 C 19.5 10.561 17.939 9 16 9 z M 16 16 C 12.122 16 9 19.122 9 23 L 17 23 L 17 22 L 10.089844 22 A 5.98 5.98 0 0 1 16 17 C 16.359 17 16.706922 17.037516 17.044922 17.103516 L 17.304688 16.130859 A 6.654 6.654 0 0 0 16 16 z M 16 10 C 17.385 10 18.5 11.115 18.5 12.5 C 18.5 13.885 17.385 15 16 15 C 14.615 15 13.5 13.885 13.5 12.5 C 13.5 11.115 14.615 10 16 10 z M 19 17 L 19 18 L 18 18 L 18 19 L 19 19 L 19 21 L 18 21 L 18 22 L 19 22 L 19 23 L 20 23 L 20 22 L 22 22 L 22 23 L 23 23 L 23 22 L 24 22 L 24 21 L 23 21 L 23 19 L 24 19 L 24 18 L 23 18 L 23 17 L 22 17 L 22 18 L 20 18 L 20 17 L 19 17 z M 20 19 L 22 19 L 22 21 L 20 21 L 20 19 z "
       transform="translate(384.571,515.798)" />
    <g
       fill="url(#e)"
       stroke-width=".707"
       id="g31" />
    <path
       transform="translate(384.571,515.798)"
       d="M 16 9 C 14.061 9 12.5 10.561 12.5 12.5 C 12.5 14.439 14.061 16 16 16 C 17.939 16 19.5 14.439 19.5 12.5 C 19.5 10.561 17.939 9 16 9 z M 16 16 C 12.122 16 9 19.122 9 23 L 17 23 L 17 22 L 10.089844 22 A 5.98 5.98 0 0 1 16 17 C 16.359 17 16.706922 17.037516 17.044922 17.103516 L 17.304688 16.130859 A 6.654 6.654 0 0 0 16 16 z M 16 10 C 17.385 10 18.5 11.115 18.5 12.5 C 18.5 13.885 17.385 15 16 15 C 14.615 15 13.5 13.885 13.5 12.5 C 13.5 11.115 14.615 10 16 10 z M 19 17 L 19 18 L 18 18 L 18 19 L 19 19 L 19 21 L 18 21 L 18 22 L 19 22 L 19 23 L 20 23 L 20 22 L 22 22 L 22 23 L 23 23 L 23 22 L 24 22 L 24 21 L 23 21 L 23 19 L 24 19 L 24 18 L 23 18 L 23 17 L 22 17 L 22 18 L 20 18 L 20 17 L 19 17 z M 20 19 L 22 19 L 22 21 L 20 21 L 20 19 z "
       style="fill:url(#linearGradient947);fill-opacity:1.0;opacity:0.6"
       id="path939" />
  </g>
  <path
     style="fill:#000000;fill-opacity:1"
     d="M29.979 15.414A14 14 0 0 1 16 29 14 14 0 0 1 2.021 15.586 14 14 0 0 0 2 16a14 14 0 0 0 14 14 14 14 0 0 0 14-14 14 14 0 0 0-.021-.586z"
     fill-rule="evenodd"
     opacity=".2"
     id="path35" />
</svg>
