<?xml version="1.0" encoding="UTF-8" standalone="no"?>
<svg
   xmlns:dc="http://purl.org/dc/elements/1.1/"
   xmlns:cc="http://creativecommons.org/ns#"
   xmlns:rdf="http://www.w3.org/1999/02/22-rdf-syntax-ns#"
   xmlns:svg="http://www.w3.org/2000/svg"
   xmlns="http://www.w3.org/2000/svg"
   xmlns:xlink="http://www.w3.org/1999/xlink"
   xmlns:sodipodi="http://sodipodi.sourceforge.net/DTD/sodipodi-0.dtd"
   xmlns:inkscape="http://www.inkscape.org/namespaces/inkscape"
   inkscape:version="1.0 (1.0+r73+1)"
   sodipodi:docname="preferences-desktop-user.svg"
   id="svg20"
   height="32"
   version="1.1"
   width="32">
  <sodipodi:namedview
     inkscape:current-layer="layer1"
     inkscape:window-maximized="1"
     inkscape:window-y="0"
     inkscape:window-x="0"
     inkscape:cy="19.198915"
     inkscape:cx="15.372462"
     inkscape:zoom="19.136077"
     showgrid="true"
     id="namedview22"
     inkscape:window-height="1013"
     inkscape:window-width="1920"
     inkscape:pageshadow="2"
     inkscape:pageopacity="0"
     guidetolerance="10"
     gridtolerance="10"
     objecttolerance="10"
     borderopacity="1"
     bordercolor="#666666"
     pagecolor="#ffffff">
    <inkscape:grid
       id="grid847"
       type="xygrid" />
  </sodipodi:namedview>
  <defs
     id="defs5455">
      <style
       id="current-color-scheme"
       type="text/css">
      .ColorScheme-Highlight {
        color:#3daee9;
      }
      </style>
    <linearGradient
       id="linearGradient865"
       inkscape:collect="always">
      <stop
         id="stop861"
         offset="0"
         style="stop-color:#ffffff;stop-opacity:1;" />
      <stop
         id="stop863"
         offset="1"
         style="stop-color:#ffffff;stop-opacity:0;" />
    </linearGradient>
    <linearGradient
       id="linearGradient855"
       inkscape:collect="always">
      <stop
         id="stop851"
         offset="0"
         style="stop-color:#ffffff;stop-opacity:1;" />
      <stop
         id="stop853"
         offset="1"
         style="stop-color:#ffffff;stop-opacity:0;" />
    </linearGradient>
    <linearGradient
       id="linearGradient4410"
       inkscape:collect="always">
      <stop
         id="stop4412"
         style="stop-color:#383e51" />
      <stop
         id="stop4414"
         style="stop-color:#655c6f;stop-opacity:0"
         offset="1" />
    </linearGradient>
    <linearGradient
       gradientTransform="matrix(1 0 0 1 -384.57143 -515.798)"
       gradientUnits="userSpaceOnUse"
       x2="407.57144"
       y2="538.79797"
       x1="393.57144"
       y1="524.79797"
       id="linearGradient4490"
       xlink:href="#linearGradient4410"
       inkscape:collect="always" />
    <linearGradient
       gradientUnits="userSpaceOnUse"
       y2="545.79797"
       x2="391.57144"
       y1="517.79797"
       x1="391.57144"
       id="linearGradient857"
       xlink:href="#linearGradient855"
       inkscape:collect="always" />
    <linearGradient
       gradientUnits="userSpaceOnUse"
       y2="23"
       x2="11"
       y1="9"
       x1="11"
       id="linearGradient867"
       xlink:href="#linearGradient865"
       inkscape:collect="always" />
  </defs>
  <metadata
     id="metadata5458">
    <rdf:RDF>
      <cc:Work
         rdf:about="">
        <dc:format>image/svg+xml</dc:format>
        <dc:type
           rdf:resource="http://purl.org/dc/dcmitype/StillImage" />
      </cc:Work>
    </rdf:RDF>
  </metadata>
  <g
     transform="matrix(1 0 0 1 -384.57143 -515.798)"
     id="layer1"
     inkscape:groupmode="layer"
     inkscape:label="Capa 1">
    <rect
       class="ColorScheme-Highlight"
       id="rect4130"
       style="fill:currentColor"
       height="28.00003"
       rx="14.00001"
       y="517.79797"
       x="386.57144"
       width="28.00001" />
    <rect
       width="28.00001"
       x="386.57144"
       y="517.79797"
       rx="14.00001"
       height="28.00003"
       style="fill:url(#linearGradient857);fill-opacity:1;opacity:0.24"
       id="rect849" />
    <path
       sodipodi:nodetypes="sssscccccscccscccccccccccccccccccss"
       transform="translate(384.57143,515.798)"
       d="m 16,10 c -1.211887,0 -2.216868,0.852874 -2.449219,1.994141 C 13.517588,12.157179 13.5,12.326873 13.5,12.5 c 0,1.385014 1.114986,2.5 2.5,2.5 0.58713,0 1.119212,-0.208554 1.544922,-0.544922 L 16,16 14.886719,17.113281 c -0.319334,0.0613 -0.631885,0.141782 -0.931641,0.25 h -0.002 c -0.221813,0.09575 -0.446186,0.18839 -0.666016,0.28711 -0.0682,0.03063 -0.131969,0.06756 -0.199218,0.09961 -0.569096,0.315139 -1.075943,0.723321 -1.511719,1.199219 l -0.002,0.002 c -0.243396,0.266045 -0.463198,0.554746 -0.65625,0.861328 -0.09398,0.149245 -0.180888,0.303192 -0.261719,0.460938 -0.0098,0.01918 -0.01772,0.0393 -0.02734,0.05859 -0.06945,0.139236 -0.134672,0.280597 -0.193359,0.425781 -0.02054,0.05119 -0.03748,0.104369 -0.05664,0.15625 -0.04562,0.122635 -0.09123,0.244761 -0.128906,0.371094 -0.01637,0.05528 -0.02816,0.112023 -0.04297,0.167969 -0.03409,0.127791 -0.06805,0.255637 -0.09375,0.386719 -0.0035,0.01794 -0.0048,0.03658 -0.0078,0.05469 L 9,23 16,30 H 30 V 20 l -1,1 -9,-9 -0.732422,-0.730469 c 0.07151,0.190705 0.13229,0.386721 0.169922,0.591797 2.44e-4,0.0012 -2.42e-4,0.0027 0,0.0039 C 19.47514,12.071631 19.5,12.282418 19.5,12.5 l -1.544922,1.544922 C 18.291446,13.619212 18.5,13.08713 18.5,12.5 18.5,11.114986 17.385014,10 16,10 Z"
       id="path4415"
       style="opacity:0.2;fill:url(#linearGradient4490);fill-rule:evenodd" />
    <path
       style="fill:#ffffff;fill-opacity:1;opacity:0.6"
       transform="matrix(1 0 0 1 384.57143 515.798)"
       d="m 16,9 c -1.939013,0 -3.5,1.560987 -3.5,3.5 0,1.939013 1.560987,3.5 3.5,3.5 1.939013,0 3.5,-1.560987 3.5,-3.5 C 19.5,10.560987 17.939013,9 16,9 Z m 0,7 c -3.87801,0 -7,3.12199 -7,7 l 1,0 9,0 0,-1 -8.910156,0 C 10.564039,19.15622 13.017526,17 16,17 c 1.146303,0 2.199057,0.339278 3.105469,0.894531 l 0.74414,-0.74414 C 18.746427,16.424444 17.424999,16 16,16 Z m 0,-6 c 1.385014,0 2.5,1.114986 2.5,2.5 0,1.385014 -1.114986,2.5 -2.5,2.5 -1.385014,0 -2.5,-1.114986 -2.5,-2.5 0,-1.385014 1.114986,-2.5 2.5,-2.5 z m 6,6 c -0.554,0 -1,0.446 -1,1 0,0.554 0.446,1 1,1 0.554,0 1,-0.446 1,-1 0,-0.554 -0.446,-1 -1,-1 z m -1,3 0,4 2,0 0,-4 z"
       id="rect4168"
       inkscape:connector-curvature="0" />
    <path
       inkscape:connector-curvature="0"
       id="path859"
       d="m 16,9 c -1.939013,0 -3.5,1.560987 -3.5,3.5 0,1.939013 1.560987,3.5 3.5,3.5 1.939013,0 3.5,-1.560987 3.5,-3.5 C 19.5,10.560987 17.939013,9 16,9 Z m 0,7 c -3.87801,0 -7,3.12199 -7,7 l 1,0 9,0 0,-1 -8.910156,0 C 10.564039,19.15622 13.017526,17 16,17 c 1.146303,0 2.199057,0.339278 3.105469,0.894531 l 0.74414,-0.74414 C 18.746427,16.424444 17.424999,16 16,16 Z m 0,-6 c 1.385014,0 2.5,1.114986 2.5,2.5 0,1.385014 -1.114986,2.5 -2.5,2.5 -1.385014,0 -2.5,-1.114986 -2.5,-2.5 0,-1.385014 1.114986,-2.5 2.5,-2.5 z m 6,6 c -0.554,0 -1,0.446 -1,1 0,0.554 0.446,1 1,1 0.554,0 1,-0.446 1,-1 0,-0.554 -0.446,-1 -1,-1 z m -1,3 0,4 2,0 0,-4 z"
       transform="matrix(1 0 0 1 384.57143 515.798)"
       style="fill:url(#linearGradient867);fill-opacity:1;opacity:0.6" />
  </g>
</svg>
