<?xml version="1.0" encoding="UTF-8" standalone="no"?>
<svg
   xmlns:dc="http://purl.org/dc/elements/1.1/"
   xmlns:cc="http://creativecommons.org/ns#"
   xmlns:rdf="http://www.w3.org/1999/02/22-rdf-syntax-ns#"
   xmlns:svg="http://www.w3.org/2000/svg"
   xmlns="http://www.w3.org/2000/svg"
   xmlns:xlink="http://www.w3.org/1999/xlink"
   xmlns:sodipodi="http://sodipodi.sourceforge.net/DTD/sodipodi-0.dtd"
   xmlns:inkscape="http://www.inkscape.org/namespaces/inkscape"
   width="32"
   version="1.1"
   height="32"
   id="svg20"
   sodipodi:docname="system-users.svg"
   inkscape:version="1.0 (1.0+r73+1)">
  <sodipodi:namedview
     inkscape:document-rotation="0"
     pagecolor="#ffffff"
     bordercolor="#666666"
     borderopacity="1"
     objecttolerance="10"
     gridtolerance="10"
     guidetolerance="10"
     inkscape:pageopacity="0"
     inkscape:pageshadow="2"
     inkscape:window-width="1920"
     inkscape:window-height="1013"
     id="namedview22"
     showgrid="true"
     inkscape:zoom="13.53125"
     inkscape:cx="22.777411"
     inkscape:cy="16.933528"
     inkscape:window-x="0"
     inkscape:window-y="0"
     inkscape:window-maximized="1"
     inkscape:current-layer="layer1">
    <inkscape:grid
       type="xygrid"
       id="grid847" />
  </sodipodi:namedview>
  <defs
     id="defs5455">
    <style
       type="text/css"
       id="current-color-scheme">
      .ColorScheme-Highlight {
        color:#3daee9;
      }
      </style>
    <linearGradient
       inkscape:collect="always"
       xlink:href="#linearGradient4227"
       id="linearGradient4309"
       y1="9"
       x1="9.00001"
       y2="22.999973"
       x2="22.999985"
       gradientUnits="userSpaceOnUse" />
    <linearGradient
       inkscape:collect="always"
       id="linearGradient4227">
      <stop
         style="stop-color:#292c2f"
         id="stop4229" />
      <stop
         offset="1"
         style="stop-opacity:0"
         id="stop4231" />
    </linearGradient>
    <linearGradient
       inkscape:collect="always"
       id="highlight">
      <stop
         style="stop-color:#ffffff;stop-opacity:1;"
         offset="0"
         id="stop891" />
      <stop
         style="stop-color:#ffffff;stop-opacity:0;"
         offset="1"
         id="stop893" />
    </linearGradient>
    <linearGradient
       gradientTransform="matrix(1.42857,0,0,1.42857,-134.6085,-223.91243)"
       x2="407.57001"
       gradientUnits="userSpaceOnUse"
       x1="393.57001"
       y2="538.79999"
       y1="524.79999"
       id="b-3-0">
      <stop
         id="stop7-5-9"
         stop-color="#383e51"
         style="stop-color:#000000;stop-opacity:1" />
      <stop
         id="stop9-6-3"
         stop-opacity="0"
         stop-color="#655c6f"
         offset="1" />
    </linearGradient>
    <linearGradient
       inkscape:collect="always"
       xlink:href="#highlight"
       id="linearGradient890"
       x1="24"
       y1="9"
       x2="24"
       y2="23"
       gradientUnits="userSpaceOnUse" />
    <linearGradient
       gradientUnits="userSpaceOnUse"
       y2="545.79797"
       x2="389.57144"
       y1="517.79797"
       x1="389.57144"
       id="linearGradient929"
       xlink:href="#highlight"
       inkscape:collect="always" />
  </defs>
  <metadata
     id="metadata5458">
    <rdf:RDF>
      <cc:Work
         rdf:about="">
        <dc:format>image/svg+xml</dc:format>
        <dc:type
           rdf:resource="http://purl.org/dc/dcmitype/StillImage" />
      </cc:Work>
    </rdf:RDF>
  </metadata>
  <g
     inkscape:label="Capa 1"
     inkscape:groupmode="layer"
     id="layer1"
     transform="matrix(1 0 0 1 -384.57143 -515.798)">
    <rect
       class="ColorScheme-Highlight"
       width="28.00001"
       x="386.57144"
       y="517.79797"
       rx="14.00001"
       height="28.00003"
       style="fill:currentColor"
       id="rect4130" />
    <rect
       id="rect921"
       style="fill:url(#linearGradient929);fill-opacity:1;opacity:0.24"
       height="28.00003"
       rx="14.00001"
       y="517.79797"
       x="386.57144"
       width="28.00001"
       class="ColorScheme-Highlight" />
    <path
       style="fill:url(#linearGradient4309);opacity:0.2;fill-rule:evenodd"
       id="path4297"
       d="M 18 10 L 17 11 L 17 13 L 18 14 L 19 15 L 19 16 L 15 12 L 14 12 L 12 12 L 11 13 L 11 15 L 12 16 L 13 17 L 13 18 L 11 18 L 10 19 L 9 21 L 8 23 L 14.947266 29.947266 C 15.295937 29.973043 15.644521 30 16 30 C 22.820439 30 28.466359 25.169592 29.730469 18.730469 L 21 10 L 20 10 L 18 10 z "
       transform="matrix(1 0 0 1 384.57143 515.798)" />
    <path
       style="fill:#ffffff;fill-opacity:1;opacity:0.6"
       id="path4202"
       d="M 19 9.0996094 C 17.338 9.0996094 16 10.437609 16 12.099609 C 16 13.553859 17.02502 14.760238 18.394531 15.039062 C 17.230356 15.179342 16.192931 15.715879 15.417969 16.511719 A 6 6 0 0 1 16.347656 17.023438 C 17.05393 16.394217 17.975308 16 19 16 C 21.21602 16 23 17.78398 23 20 L 18.650391 20 A 6 6 0 0 1 18.914062 21 L 24 21 L 24 20 C 24 17.43566 22.08694 15.337009 19.605469 15.039062 C 20.97498 14.760238 22 13.553859 22 12.099609 C 22 10.437609 20.662 9.0996094 19 9.0996094 z M 19 10.099609 C 20.108 10.099609 21 10.991609 21 12.099609 C 21 13.207609 20.108 14.099609 19 14.099609 C 17.892 14.099609 17 13.207609 17 12.099609 C 17 10.991609 17.892 10.099609 19 10.099609 z M 13 11 C 11.338 11 10 12.338 10 14 C 10 15.662 11.338 17 13 17 C 14.662 17 16 15.662 16 14 C 16 12.338 14.662 11 13 11 z M 13 17 C 10.22998 17 8 19.22998 8 22 L 8 23 L 18 23 L 18 22 C 18 19.22998 15.77002 17 13 17 z M 13 12 C 14.108 12 15 12.892 15 14 C 15 15.108 14.108 16 13 16 C 11.892 16 11 15.108 11 14 C 11 12.892 11.892 12 13 12 z M 13 18 C 15.21602 18 17 19.78398 17 22 L 9 22 C 9 19.78398 10.78398 18 13 18 z "
       transform="matrix(1 0 0 1 384.57143 515.798)" />
    <path
       transform="matrix(1 0 0 1 384.57143 515.798)"
       d="M 19 9.0996094 C 17.338 9.0996094 16 10.437609 16 12.099609 C 16 13.553859 17.02502 14.760238 18.394531 15.039062 C 17.230356 15.179342 16.192931 15.715879 15.417969 16.511719 A 6 6 0 0 1 16.347656 17.023438 C 17.05393 16.394217 17.975308 16 19 16 C 21.21602 16 23 17.78398 23 20 L 18.650391 20 A 6 6 0 0 1 18.914062 21 L 24 21 L 24 20 C 24 17.43566 22.08694 15.337009 19.605469 15.039062 C 20.97498 14.760238 22 13.553859 22 12.099609 C 22 10.437609 20.662 9.0996094 19 9.0996094 z M 19 10.099609 C 20.108 10.099609 21 10.991609 21 12.099609 C 21 13.207609 20.108 14.099609 19 14.099609 C 17.892 14.099609 17 13.207609 17 12.099609 C 17 10.991609 17.892 10.099609 19 10.099609 z M 13 11 C 11.338 11 10 12.338 10 14 C 10 15.662 11.338 17 13 17 C 14.662 17 16 15.662 16 14 C 16 12.338 14.662 11 13 11 z M 13 17 C 10.22998 17 8 19.22998 8 22 L 8 23 L 18 23 L 18 22 C 18 19.22998 15.77002 17 13 17 z M 13 12 C 14.108 12 15 12.892 15 14 C 15 15.108 14.108 16 13 16 C 11.892 16 11 15.108 11 14 C 11 12.892 11.892 12 13 12 z M 13 18 C 15.21602 18 17 19.78398 17 22 L 9 22 C 9 19.78398 10.78398 18 13 18 z "
       id="path882"
       style="fill:url(#linearGradient890);fill-opacity:1.0;opacity:0.6" />
  </g>
</svg>
