<?xml version="1.0" encoding="UTF-8" standalone="no"?>
<svg
   xmlns:dc="http://purl.org/dc/elements/1.1/"
   xmlns:cc="http://creativecommons.org/ns#"
   xmlns:rdf="http://www.w3.org/1999/02/22-rdf-syntax-ns#"
   xmlns:svg="http://www.w3.org/2000/svg"
   xmlns="http://www.w3.org/2000/svg"
   xmlns:xlink="http://www.w3.org/1999/xlink"
   xmlns:sodipodi="http://sodipodi.sourceforge.net/DTD/sodipodi-0.dtd"
   xmlns:inkscape="http://www.inkscape.org/namespaces/inkscape"
   width="64"
   version="1.1"
   height="64"
   id="svg2"
   inkscape:version="1.0 (1.0+r73+1)"
   sodipodi:docname="system-file-manager.svg">
  <sodipodi:namedview
     pagecolor="#ffffff"
     bordercolor="#666666"
     borderopacity="1"
     objecttolerance="10"
     gridtolerance="10"
     guidetolerance="10"
     inkscape:pageopacity="0"
     inkscape:pageshadow="2"
     inkscape:window-width="1920"
     inkscape:window-height="1013"
     id="namedview17"
     showgrid="true"
     inkscape:snap-bbox="true"
     inkscape:bbox-nodes="true"
     inkscape:zoom="11.313708"
     inkscape:cx="32.202321"
     inkscape:cy="28.128825"
     inkscape:current-layer="layer1"
     showguides="false"
     inkscape:guide-bbox="true"
     inkscape:object-nodes="true"
     inkscape:document-rotation="0"
     inkscape:snap-smooth-nodes="true"
     inkscape:window-x="0"
     inkscape:window-y="0"
     inkscape:window-maximized="1">
    <inkscape:grid
       type="xygrid"
       id="grid4145" />
    <sodipodi:guide
       position="26,40"
       orientation="0.70710678,0.70710678"
       id="guide4381" />
    <sodipodi:guide
       position="3,35"
       orientation="0.70710678,0.70710678"
       id="guide4401" />
  </sodipodi:namedview>
  <defs
     id="defs5455">
    <style
       type="text/css"
       id="current-color-scheme">
      .ColorScheme-Highlight {
        color:#3daee9;
      }
      </style>
    <linearGradient
       inkscape:collect="always"
       id="shadow">
      <stop
         style="stop-color:#000000;stop-opacity:1;"
         offset="0"
         id="stop4395" />
      <stop
         style="stop-color:#000000;stop-opacity:0;"
         offset="1"
         id="stop4397" />
    </linearGradient>
    <linearGradient
       id="paper"
       inkscape:collect="always">
      <stop
         id="stop4229"
         offset="0"
         style="stop-color:#f5f5f5;stop-opacity:1" />
      <stop
         id="stop4231"
         offset="1"
         style="stop-color:#f9f9f9;stop-opacity:1" />
    </linearGradient>
    <linearGradient
       id="paperEdge"
       inkscape:collect="always">
      <stop
         id="stop4276"
         offset="0"
         style="stop-color:#ffffff;stop-opacity:1;" />
      <stop
         id="stop4278"
         offset="1"
         style="stop-color:#ffffff;stop-opacity:0.48760331" />
    </linearGradient>
    <linearGradient
       inkscape:collect="always"
       xlink:href="#highlight"
       id="linearGradient4178"
       y1="548.88599"
       y2="495.30789"
       x2="397.2283"
       gradientUnits="userSpaceOnUse"
       gradientTransform="matrix(1,0,0,0.99967455,-384.57143,-483.62155)"
       x1="434.16153" />
    <linearGradient
       inkscape:collect="always"
       id="highlight">
      <stop
         style="stop-color:#fefefe;stop-opacity:0"
         id="stop4174-6" />
      <stop
         offset="1"
         style="stop-color:#ffffff;stop-opacity:1"
         id="stop4176-6" />
    </linearGradient>
    <linearGradient
       gradientTransform="translate(-390.57144,-497.798)"
       inkscape:collect="always"
       xlink:href="#paperEdge"
       id="linearGradient4272-3"
       x1="390.57144"
       y1="498.298"
       x2="442.57144"
       y2="498.298"
       gradientUnits="userSpaceOnUse" />
    <linearGradient
       gradientTransform="translate(-390.57144,-501.798)"
       inkscape:collect="always"
       xlink:href="#paperEdge"
       id="linearGradient4272-1"
       x1="390.57144"
       y1="498.298"
       x2="442.57144"
       y2="498.298"
       gradientUnits="userSpaceOnUse" />
    <linearGradient
       gradientTransform="translate(-6,-14)"
       inkscape:collect="always"
       xlink:href="#paperEdge"
       id="linearGradient4272-36"
       x1="390.57144"
       y1="498.298"
       x2="442.57144"
       y2="498.298"
       gradientUnits="userSpaceOnUse" />
    <linearGradient
       inkscape:collect="always"
       xlink:href="#paperEdge"
       id="linearGradient4217"
       gradientUnits="userSpaceOnUse"
       gradientTransform="translate(0,3)"
       x1="390.57144"
       y1="498.298"
       x2="442.57144"
       y2="498.298" />
    <linearGradient
       inkscape:collect="always"
       xlink:href="#paper"
       id="linearGradient4225"
       gradientUnits="userSpaceOnUse"
       x1="396.57144"
       y1="498.798"
       x2="426.57144"
       y2="511.798"
       gradientTransform="translate(-384.57143,-482.798)" />
    <linearGradient
       inkscape:collect="always"
       xlink:href="#shadow"
       id="linearGradient4399"
       x1="443.57144"
       y1="510.798"
       x2="443.57144"
       y2="526.79797"
       gradientUnits="userSpaceOnUse"
       gradientTransform="translate(-23,5)" />
  </defs>
  <metadata
     id="metadata5458">
    <rdf:RDF>
      <cc:Work
         rdf:about="">
        <dc:format>image/svg+xml</dc:format>
        <dc:type
           rdf:resource="http://purl.org/dc/dcmitype/StillImage" />
      </cc:Work>
    </rdf:RDF>
  </metadata>
  <g
     inkscape:label="Capa 1"
     inkscape:groupmode="layer"
     id="layer1"
     transform="matrix(1 0 0 1 -384.57143 -483.798)">
    <path
       class="ColorScheme-Highlight"
       id="base"
       style="fill:currentColor"
       d="M 5 6 C 4.446 6 4 6.446 4 7 L 4 11 L 4 28 L 3 28 L 3 57 C 3 57.55373 3.446 58 4 58 L 60 58 C 60.55399 58 61.012037 57.553599 61 57 L 61 24 L 60 24 L 60 11 C 60 10.446 59.554 10 59 10 L 32 10 L 28 6 L 5 6 z "
       transform="translate(384.57143,483.798)" />
    <path
       sodipodi:nodetypes="sscccccssccs"
       transform="translate(384.57143,483.798)"
       d="M 5,6 C 4.446,6 4,6.446 4,7 v 4 17 h 18 l 4,-4 H 60 V 11 c 0,-0.554 -0.446,-1 -1,-1 H 32 L 28,6 Z"
       style="opacity:0.3;fill:#000000;fill-opacity:1"
       id="path1013"
       class="ColorScheme-Highlight" />
    <path
       transform="translate(384.57143,483.798)"
       d="M 7 15 C 6.446 15 6 15.446 6 16 L 6 28 L 22 28 L 26 24 L 58 24 L 58 16 C 58 15.446 57.55401 15 57 15 L 7 15 z "
       style="color:#000000;clip-rule:nonzero;display:inline;overflow:visible;visibility:visible;opacity:1;isolation:auto;mix-blend-mode:normal;color-interpolation:sRGB;color-interpolation-filters:linearRGB;solid-color:#000000;solid-opacity:1;fill:url(#linearGradient4225);fill-opacity:1;fill-rule:nonzero;stroke:none;stroke-width:1;stroke-linecap:butt;stroke-linejoin:miter;stroke-miterlimit:4;stroke-dasharray:none;stroke-dashoffset:0;stroke-opacity:1;marker:none;color-rendering:auto;image-rendering:auto;shape-rendering:auto;text-rendering:auto;enable-background:accumulate"
       id="rect4223" />
    <path
       style="fill:url(#linearGradient4178);opacity:0.2"
       d="M 26 24 L 22 28 L 3 28 L 3 29 L 3.0019531 29 C 3.0019031 29.004 3 29.008019 3 29.011719 L 3 56 L 3 57 C 3 57.554 3.44599 58 4 58 L 60 58 C 60.55401 58 61 57.554 61 57 L 61 56 L 61 29.011719 L 61 29 L 61 24 L 26 24 z "
       transform="translate(384.57143,483.798)"
       id="rect4113" />
    <path
       inkscape:connector-curvature="0"
       style="opacity:0.3;fill:#ffffff;fill-opacity:1;fill-rule:evenodd"
       id="path4224"
       d="m 387.57144,511.79812 0,1 19.99999,0 3,-5 -4,4 z" />
    <path
       id="path4196"
       style="opacity:0.3;fill:#ffffff;fill-opacity:1;fill-rule:evenodd"
       d="M 28 6 L 31 11 L 33 11 L 59 11 A 1 1 0 0 1 60 12 L 60 11 C 60 10.446 59.554 10 59 10 L 33 10 L 32 10 L 28 6 z "
       transform="translate(384.57143,483.798)" />
    <path
       inkscape:connector-curvature="0"
       id="path4215"
       d="m 391.57143,498.798 c -0.55401,0 -1,0.446 -1,1 l 0,1 c 0,-0.554 0.44599,-1 1,-1 l 50,0 c 0.55401,0 1,0.446 1,1 l 0,-1 c 0,-0.554 -0.44599,-1 -1,-1 l -50,0 z"
       style="color:#000000;clip-rule:nonzero;display:inline;overflow:visible;visibility:visible;opacity:0.85;isolation:auto;mix-blend-mode:normal;color-interpolation:sRGB;color-interpolation-filters:linearRGB;solid-color:#000000;solid-opacity:1;fill:url(#linearGradient4217);fill-opacity:1;fill-rule:nonzero;stroke:none;stroke-width:1;stroke-linecap:butt;stroke-linejoin:miter;stroke-miterlimit:4;stroke-dasharray:none;stroke-dashoffset:0;stroke-opacity:1;marker:none;color-rendering:auto;image-rendering:auto;shape-rendering:auto;text-rendering:auto;enable-background:accumulate" />
    <path
       style="color:#000000;clip-rule:nonzero;display:inline;overflow:visible;visibility:visible;opacity:0.3;isolation:auto;mix-blend-mode:normal;color-interpolation:sRGB;color-interpolation-filters:linearRGB;solid-color:#000000;solid-opacity:1;fill:#000000;fill-opacity:1;fill-rule:nonzero;stroke:none;stroke-width:1;stroke-linecap:butt;stroke-linejoin:miter;stroke-miterlimit:4;stroke-dasharray:none;stroke-dashoffset:0;stroke-opacity:1;marker:none;color-rendering:auto;image-rendering:auto;shape-rendering:auto;text-rendering:auto;enable-background:accumulate"
       d="m 388.57143,541.798 c -0.55401,0 -1,-0.446 -1,-1 l 0,-1 c 0,0.554 0.44599,1 1,1 l 56,0 c 0.55401,0 1,-0.446 1,-1 l 0,1 c 0,0.554 -0.44599,1 -1,1 z"
       id="path4233"
       inkscape:connector-curvature="0"
       sodipodi:nodetypes="sscsscsss" />
    <path
       style="opacity:0.109;fill:url(#linearGradient4399);fill-opacity:1;fill-rule:evenodd;stroke:none;stroke-width:1px;stroke-linecap:butt;stroke-linejoin:miter;stroke-opacity:1"
       d="m 387.57143,512.798 20,0 3,-5 35,0 0,33 -30,0 z"
       id="path4383"
       inkscape:connector-curvature="0"
       sodipodi:nodetypes="ccccccc" />
  </g>
</svg>
