<?xml version="1.0" encoding="UTF-8" standalone="no"?>
<svg
   xmlns:dc="http://purl.org/dc/elements/1.1/"
   xmlns:cc="http://creativecommons.org/ns#"
   xmlns:rdf="http://www.w3.org/1999/02/22-rdf-syntax-ns#"
   xmlns:svg="http://www.w3.org/2000/svg"
   xmlns="http://www.w3.org/2000/svg"
   xmlns:sodipodi="http://sodipodi.sourceforge.net/DTD/sodipodi-0.dtd"
   xmlns:inkscape="http://www.inkscape.org/namespaces/inkscape"
   id="svg4306"
   width="22"
   height="22"
   version="1.1"
   style="enable-background:new"
   sodipodi:docname="maximize.svg"
   inkscape:version="1.0 (1.0+r73+1)">
  <metadata
     id="metadata28">
    <rdf:RDF>
      <cc:Work
         rdf:about="">
        <dc:format>image/svg+xml</dc:format>
        <dc:type
           rdf:resource="http://purl.org/dc/dcmitype/StillImage" />
        <dc:title />
      </cc:Work>
    </rdf:RDF>
  </metadata>
  <defs
     id="defs26" />
  <sodipodi:namedview
     inkscape:document-rotation="0"
     pagecolor="#ffffff"
     bordercolor="#666666"
     borderopacity="1"
     objecttolerance="10"
     gridtolerance="10"
     guidetolerance="10"
     inkscape:pageopacity="0"
     inkscape:pageshadow="2"
     inkscape:window-width="1920"
     inkscape:window-height="1022"
     id="namedview24"
     showgrid="true"
     inkscape:zoom="8"
     inkscape:cx="54.070602"
     inkscape:cy="15.124883"
     inkscape:window-x="0"
     inkscape:window-y="0"
     inkscape:window-maximized="1"
     inkscape:current-layer="svg4306"
     inkscape:snap-bbox="true"
     inkscape:bbox-nodes="true">
    <inkscape:grid
       type="xygrid"
       id="grid853" />
  </sodipodi:namedview>
  <style
     type="text/css"
     id="current-color-scheme">
        .ColorScheme-Text {
            color:#232629;
        }
        .ColorScheme-ButtonFocus{
            color:#3daee9;
        }
            .ColorScheme-NegativeText {
            color:#da4453;
        }
    </style>
  <g
     transform="rotate(180,11,11)"
     id="active-center">
    <rect
       id="rect4266"
       width="22"
       height="22"
       x="0"
       y="0"
       style="opacity:0.00100002;fill:#000000;fill-opacity:1;fill-rule:nonzero;stroke:none;stroke-width:2;stroke-linecap:round;stroke-linejoin:round;stroke-miterlimit:4;stroke-dasharray:none;stroke-opacity:1" />
    <circle
       r="9"
       cy="11"
       cx="11"
       id="path867-5-6-5"
       style="opacity:0.003;fill:#000000;fill-opacity:1;stroke-width:1.001;enable-background:new" />
    <path
       id="rect909-7-3-7-3-5-2-0"
       style="opacity:1;fill:#ffffff;fill-opacity:.9"
       d="M 16.656853,8.995106 15.949745,8.288 10.999999,13.237745 6.05025,8.288 5.3431422,8.995108 10.999999,14.65196 Z"
       sodipodi:nodetypes="ccccccc"
       class="ColorScheme-Text" />
  </g>
  <g
     transform="rotate(180,22,11)"
     style="enable-background:new"
     id="hover-center">
    <rect
       style="opacity:0.00100002;fill:#000000;fill-opacity:1;fill-rule:nonzero;stroke:none;stroke-width:2;stroke-linecap:round;stroke-linejoin:round;stroke-miterlimit:4;stroke-dasharray:none;stroke-opacity:1"
       y="0"
       x="0"
       height="22"
       width="22"
       id="rect4266-3" />
    <path
       class="ColorScheme-Text"
       transform="translate(-22)"
       d="M 32.990234,2 A 9,9 0 0 0 24,11 a 9,9 0 0 0 9,9 9,9 0 0 0 9,-9 9,9 0 0 0 -9,-9 9,9 0 0 0 -0.0098,0 z M 28.050781,8.2871094 33,13.238281 37.949219,8.2871094 38.65625,8.9941406 33,14.652344 27.34375,8.9941406 Z"
       style="fill:#ffffff;fill-opacity:.9"
       id="path867-5-6-5-6" />
  </g>
  <g
     id="inactive-center"
     style="enable-background:new"
     transform="rotate(180,11,22)">
    <rect
       style="opacity:0.00100002;fill:#000000;fill-opacity:1;fill-rule:nonzero;stroke:none;stroke-width:2;stroke-linecap:round;stroke-linejoin:round;stroke-miterlimit:4;stroke-dasharray:none;stroke-opacity:1"
       y="0"
       x="0"
       height="22"
       width="22"
       id="rect4266-9" />
    <circle
       style="opacity:0.003;fill:#000000;fill-opacity:1;stroke-width:1.001;enable-background:new"
       id="path867-5-6-5-1"
       cx="11"
       cy="11"
       r="9" />
    <path
       class="ColorScheme-Text"
       sodipodi:nodetypes="ccccccc"
       d="M 16.656853,8.995106 15.949745,8.288 10.999999,13.237745 6.05025,8.288 5.3431422,8.995108 10.999999,14.65196 Z"
       style="opacity:1;fill:#ffffff;fill-opacity:.5"
       id="rect909-7-3-7-3-5-2-0-2" />
  </g>
  <g
     id="deactivated-center"
     style="enable-background:new"
     transform="rotate(180,44,11)">
    <rect
       style="opacity:0.00100002;fill:#000000;fill-opacity:1;fill-rule:nonzero;stroke:none;stroke-width:2;stroke-linecap:round;stroke-linejoin:round;stroke-miterlimit:4;stroke-dasharray:none;stroke-opacity:1"
       y="0"
       x="0"
       height="22"
       width="22"
       id="rect4266-0" />
    <circle
       style="opacity:0.003;fill:#000000;fill-opacity:1;stroke-width:1.001;enable-background:new"
       id="path867-5-6-5-93"
       cx="11"
       cy="11"
       r="9" />
    <path
       class="ColorScheme-Text"
       sodipodi:nodetypes="ccccccc"
       d="M 16.656853,8.995106 15.949745,8.288 10.999999,13.237745 6.05025,8.288 5.3431422,8.995108 10.999999,14.65196 Z"
       style="opacity:0.3;fill:#ffffff;fill-opacity:.9"
       id="rect909-7-3-7-3-5-2-0-6" />
  </g>
  <g
     transform="rotate(-180,33,11)"
     id="pressed-center"
     style="enable-background:new">
    <rect
       id="rect4266-3-6"
       width="22"
       height="22"
       x="0"
       y="0"
       style="opacity:0.00100002;fill:#000000;fill-opacity:1;fill-rule:nonzero;stroke:none;stroke-width:2;stroke-linecap:round;stroke-linejoin:round;stroke-miterlimit:4;stroke-dasharray:none;stroke-opacity:1" />
    <path
       class="ColorScheme-Text"
       id="path867-5-6-5-6-7"
       style="opacity:0.3;fill:#ffffff;fill-opacity:.9"
       d="M 32.990234,2 A 9,9 0 0 0 24,11 9,9 0 0 0 33,20 9,9 0 0 0 42,11 9,9 0 0 0 33,2 9,9 0 0 0 32.9902,2 Z M 28.050781,8.2871094 33,13.238281 37.949219,8.2871094 38.65625,8.9941406 33,14.652344 27.34375,8.9941406 Z"
       transform="translate(-22)" />
  </g>
  <g
     id="hover-inactive-center"
     style="enable-background:new"
     transform="rotate(180,22,22)">
    <rect
       id="rect4266-3-67"
       width="22"
       height="22"
       x="0"
       y="0"
       style="opacity:0.00100002;fill:#000000;fill-opacity:1;fill-rule:nonzero;stroke:none;stroke-width:2;stroke-linecap:round;stroke-linejoin:round;stroke-miterlimit:4;stroke-dasharray:none;stroke-opacity:1" />
    <path
       id="path867-5-6-5-6-5"
       style="fill:#ffffff;fill-opacity:.5"
       d="M 32.990234,2 A 9,9 0 0 0 24,11 9,9 0 0 0 33,20 9,9 0 0 0 42,11 9,9 0 0 0 33,2 9,9 0 0 0 32.9902,2 Z M 28.050781,8.2871094 33,13.238281 37.949219,8.2871094 38.65625,8.9941406 33,14.652344 27.34375,8.9941406 Z"
       transform="translate(-22)"
       class="ColorScheme-Text" />
  </g>
  <g
     style="enable-background:new"
     id="pressed-inactive-center"
     transform="rotate(180,33,22)">
    <rect
       style="opacity:0.00100002;fill:#000000;fill-opacity:1;fill-rule:nonzero;stroke:none;stroke-width:2;stroke-linecap:round;stroke-linejoin:round;stroke-miterlimit:4;stroke-dasharray:none;stroke-opacity:1"
       y="0"
       x="0"
       height="22"
       width="22"
       id="rect4266-3-6-5" />
    <path
       transform="translate(-22)"
       d="M 32.990234,2 A 9,9 0 0 0 24,11 9,9 0 0 0 33,20 9,9 0 0 0 42,11 9,9 0 0 0 33,2 9,9 0 0 0 32.9902,2 Z M 28.050781,8.2871094 33,13.238281 37.949219,8.2871094 38.65625,8.9941406 33,14.652344 27.34375,8.9941406 Z"
       style="opacity:0.3;fill:#ffffff;fill-opacity:.5"
       id="path867-5-6-5-6-7-6"
       class="ColorScheme-Text" />
  </g>
  <g
     transform="rotate(180,44,22)"
     style="enable-background:new"
     id="deactivated-inactive-center">
    <rect
       id="rect4266-0-9"
       width="22"
       height="22"
       x="0"
       y="0"
       style="opacity:0.00100002;fill:#000000;fill-opacity:1;fill-rule:nonzero;stroke:none;stroke-width:2;stroke-linecap:round;stroke-linejoin:round;stroke-miterlimit:4;stroke-dasharray:none;stroke-opacity:1" />
    <circle
       r="9"
       cy="11"
       cx="11"
       id="path867-5-6-5-93-1"
       style="opacity:0.003;fill:#000000;fill-opacity:1;stroke-width:1.001;enable-background:new" />
    <path
       id="rect909-7-3-7-3-5-2-0-6-2"
       style="opacity:0.3;fill:#ffffff;fill-opacity:.5"
       d="M 16.656853,8.995106 15.949745,8.288 10.999999,13.237745 6.05025,8.288 5.3431422,8.995108 10.999999,14.65196 Z"
       sodipodi:nodetypes="ccccccc"
       class="ColorScheme-Text" />
  </g>
</svg>
