<?xml version="1.0" encoding="UTF-8" standalone="no"?>
<svg
   xmlns:dc="http://purl.org/dc/elements/1.1/"
   xmlns:cc="http://creativecommons.org/ns#"
   xmlns:rdf="http://www.w3.org/1999/02/22-rdf-syntax-ns#"
   xmlns:svg="http://www.w3.org/2000/svg"
   xmlns="http://www.w3.org/2000/svg"
   xmlns:xlink="http://www.w3.org/1999/xlink"
   xmlns:sodipodi="http://sodipodi.sourceforge.net/DTD/sodipodi-0.dtd"
   xmlns:inkscape="http://www.inkscape.org/namespaces/inkscape"
   inkscape:version="1.0 (1.0+r73+1)"
   sodipodi:docname="drive-removable-media.svg"
   id="svg35"
   height="64"
   version="1.1"
   width="64">
  <sodipodi:namedview
     inkscape:current-layer="layer1"
     inkscape:window-maximized="1"
     inkscape:window-y="0"
     inkscape:window-x="0"
     inkscape:cy="43.613457"
     inkscape:cx="28.671469"
     inkscape:zoom="13.53125"
     showgrid="true"
     id="namedview37"
     inkscape:window-height="1013"
     inkscape:window-width="1920"
     inkscape:pageshadow="2"
     inkscape:pageopacity="0"
     guidetolerance="10"
     gridtolerance="10"
     objecttolerance="10"
     borderopacity="1"
     bordercolor="#666666"
     pagecolor="#ffffff">
    <inkscape:grid
       id="grid862"
       type="xygrid" />
  </sodipodi:namedview>
  <defs
     id="defs5455">
      <style
       id="current-color-scheme"
       type="text/css">
      .ColorScheme-Highlight {
        color:#3daee9;
      }
      </style>
    <linearGradient
       id="linearGradient880"
       inkscape:collect="always">
      <stop
         id="stop876"
         offset="0"
         style="stop-color:#ffffff;stop-opacity:1;" />
      <stop
         id="stop878"
         offset="1"
         style="stop-color:#ffffff;stop-opacity:0;" />
    </linearGradient>
    <linearGradient
       id="linearGradient870"
       inkscape:collect="always">
      <stop
         id="stop866"
         offset="0"
         style="stop-color:#ffffff;stop-opacity:1;" />
      <stop
         id="stop868"
         offset="1"
         style="stop-color:#ffffff;stop-opacity:0;" />
    </linearGradient>
    <linearGradient
       id="linearGradient4400"
       inkscape:collect="always">
      <stop
         id="stop4402"
         style="stop-color:#020303" />
      <stop
         id="stop4404"
         style="stop-color:#424649;stop-opacity:0"
         offset="1" />
    </linearGradient>
    <linearGradient
       gradientTransform="translate(10,22)"
       gradientUnits="userSpaceOnUse"
       x2="33.999985"
       y2="34.00002"
       x1="13.999987"
       y1="14.00002"
       id="linearGradient4231"
       xlink:href="#linearGradient4400"
       inkscape:collect="always" />
    <linearGradient
       gradientTransform="matrix(0.63587062 0 0 1 144.25118 -30.99993)"
       x2="0"
       gradientUnits="userSpaceOnUse"
       y2="528.79791"
       y1="551.79791"
       id="linearGradient4319"
       xlink:href="#linearGradient4303"
       inkscape:collect="always" />
    <linearGradient
       id="linearGradient4303"
       inkscape:collect="always">
      <stop
         id="stop4305"
         style="stop-color:#c6cdd1" />
      <stop
         id="stop4307"
         style="stop-color:#e0e5e7"
         offset="1" />
    </linearGradient>
    <linearGradient
       gradientTransform="matrix(2 0 0 2 -384.5714 -537.79802)"
       x2="400.57144"
       gradientUnits="userSpaceOnUse"
       x1="398.57144"
       id="linearGradient4375"
       xlink:href="#linearGradient4143-8"
       inkscape:collect="always" />
    <linearGradient
       id="linearGradient4143-8"
       inkscape:collect="always">
      <stop
         id="stop4145-7"
         style="stop-color:#faae2a" />
      <stop
         id="stop4147-4"
         style="stop-color:#ffc35a"
         offset="1" />
    </linearGradient>
    <linearGradient
       gradientTransform="matrix(2 0 0 2 -396.57143 -537.79802)"
       gradientUnits="userSpaceOnUse"
       x2="400.57144"
       x1="398.57144"
       id="linearGradient4371"
       xlink:href="#linearGradient4143-8"
       inkscape:collect="always" />
    <linearGradient
       gradientUnits="userSpaceOnUse"
       y2="52"
       x2="32"
       y1="36"
       x1="32"
       id="linearGradient872"
       xlink:href="#linearGradient870"
       inkscape:collect="always" />
    <linearGradient
       gradientUnits="userSpaceOnUse"
       y2="549.79797"
       x2="396.57144"
       y1="520.79797"
       x1="396.57144"
       id="linearGradient882"
       xlink:href="#linearGradient880"
       inkscape:collect="always" />
  </defs>
  <metadata
     id="metadata5458">
    <rdf:RDF>
      <cc:Work
         rdf:about="">
        <dc:format>image/svg+xml</dc:format>
        <dc:type
           rdf:resource="http://purl.org/dc/dcmitype/StillImage" />
      </cc:Work>
    </rdf:RDF>
  </metadata>
  <g
     transform="matrix(1 0 0 1 -376.57144 -491.79797)"
     id="layer1"
     inkscape:groupmode="layer"
     inkscape:label="Capa 1">
    <rect
       id="rect4317"
       style="fill:url(#linearGradient4319)"
       height="23.999866"
       rx="0"
       y="497.79813"
       x="395.57144"
       width="26" />
    <rect
       class="ColorScheme-Highlight"
       id="rect4139"
       style="fill:currentColor"
       height="28.999859"
       rx="0"
       y="520.79797"
       x="392.57144"
       width="32" />
    <rect
       width="32"
       x="392.57144"
       y="520.79797"
       rx="0"
       height="28.999859"
       style="fill:url(#linearGradient882);fill-opacity:1;opacity:0.2"
       id="rect874" />
    <path
       transform="translate(376.57144,491.79797)"
       d="M 28.707031 36.292969 C 28.887781 36.473719 29 36.723 29 37 C 29 37.554 28.554 38 28 38 C 27.723 38 27.473719 37.887781 27.292969 37.707031 L 33.292969 43.707031 L 34.707031 42.292969 L 28.707031 36.292969 z M 40 41 L 38 43 L 36.707031 44.292969 L 35.292969 45.707031 L 35 46 L 47 58 L 48 58 L 48 49 L 40 41 z M 26.580078 42.458984 C 26.839723 42.728422 27 43.094535 27 43.5 C 27 44.331 26.331 45 25.5 45 C 25.094535 45 24.728422 44.839723 24.458984 44.580078 L 28.529297 48.650391 C 28.894378 48.252577 29.415002 48 30 48 C 31.108 48 32 48.892 32 50 C 32 51.108 31.108 52 30 52 C 29.456002 52 28.965326 51.783629 28.605469 51.433594 L 35.171875 58 L 42.123047 58 L 26.580078 42.458984 z "
       style="fill:url(#linearGradient4231);opacity:0.2"
       id="rect4200" />
    <path
       transform="matrix(1 0 0 1 376.57144 491.79797)"
       d="M 28 36 C 27.446 36 27 36.446 27 37 C 27 37.554 27.446 38 28 38 C 28.554 38 29 37.554 29 37 C 29 36.446 28.554 36 28 36 z M 35 36 L 33 38 L 36 41 L 33 44 L 35 46 L 38 43 L 40 41 L 35 36 z M 25.5 42 C 24.669 42 24 42.669 24 43.5 C 24 44.331 24.669 45 25.5 45 C 26.331 45 27 44.331 27 43.5 C 27 42.669 26.331 42 25.5 42 z M 30 48 C 28.892 48 28 48.892 28 50 C 28 51.108 28.892 52 30 52 C 31.108 52 32 51.108 32 50 C 32 48.892 31.108 48 30 48 z "
       id="path4292"
       style="fill:#ffffff;fill-opacity:1;opacity:0.6" />
    <rect
       style="fill:#000000;fill-opacity:1;opacity:0.2"
       id="rect4492"
       height="1.00002"
       y="548.79797"
       x="392.57144"
       width="32" />
    <rect
       id="rect4359"
       style="fill:#23262c"
       height="8.00005"
       y="501.79794"
       x="398.57144"
       width="8.00005" />
    <rect
       id="rect4361"
       style="fill:#23262c"
       height="8.00005"
       y="501.79794"
       x="410.57153"
       width="8.00005" />
    <rect
       id="rect4363"
       style="fill:url(#linearGradient4371)"
       height="8"
       y="501.79794"
       x="400.57144"
       width="4.00002" />
    <rect
       id="rect4373"
       style="fill:url(#linearGradient4375)"
       height="8"
       y="501.79794"
       x="412.57153"
       width="4.00002" />
    <path
       style="fill:url(#linearGradient872);fill-opacity:1;opacity:0.6"
       id="path864"
       d="M 28 36 C 27.446 36 27 36.446 27 37 C 27 37.554 27.446 38 28 38 C 28.554 38 29 37.554 29 37 C 29 36.446 28.554 36 28 36 z M 35 36 L 33 38 L 36 41 L 33 44 L 35 46 L 38 43 L 40 41 L 35 36 z M 25.5 42 C 24.669 42 24 42.669 24 43.5 C 24 44.331 24.669 45 25.5 45 C 26.331 45 27 44.331 27 43.5 C 27 42.669 26.331 42 25.5 42 z M 30 48 C 28.892 48 28 48.892 28 50 C 28 51.108 28.892 52 30 52 C 31.108 52 32 51.108 32 50 C 32 48.892 31.108 48 30 48 z "
       transform="matrix(1 0 0 1 376.57144 491.79797)" />
  </g>
</svg>
