<?xml version="1.0" encoding="UTF-8" standalone="no"?>
<svg
   xmlns:dc="http://purl.org/dc/elements/1.1/"
   xmlns:cc="http://creativecommons.org/ns#"
   xmlns:rdf="http://www.w3.org/1999/02/22-rdf-syntax-ns#"
   xmlns:svg="http://www.w3.org/2000/svg"
   xmlns="http://www.w3.org/2000/svg"
   xmlns:sodipodi="http://sodipodi.sourceforge.net/DTD/sodipodi-0.dtd"
   xmlns:inkscape="http://www.inkscape.org/namespaces/inkscape"
   id="svg4306"
   width="22"
   height="22"
   version="1.1"
   style="enable-background:new"
   sodipodi:docname="alldesktops.svg"
   inkscape:version="1.0 (1.0+r73+1)">
  <metadata
     id="metadata28">
    <rdf:RDF>
      <cc:Work
         rdf:about="">
        <dc:format>image/svg+xml</dc:format>
        <dc:type
           rdf:resource="http://purl.org/dc/dcmitype/StillImage" />
        <dc:title></dc:title>
      </cc:Work>
    </rdf:RDF>
  </metadata>
  <defs
     id="defs26" />
  <sodipodi:namedview
     inkscape:snap-intersection-paths="true"
     inkscape:document-rotation="0"
     pagecolor="#ffffff"
     bordercolor="#666666"
     borderopacity="1"
     objecttolerance="10"
     gridtolerance="10"
     guidetolerance="10"
     inkscape:pageopacity="0"
     inkscape:pageshadow="2"
     inkscape:window-width="1920"
     inkscape:window-height="1014"
     id="namedview24"
     showgrid="true"
     inkscape:zoom="11.313709"
     inkscape:cx="65.176952"
     inkscape:cy="14.035202"
     inkscape:window-x="0"
     inkscape:window-y="0"
     inkscape:window-maximized="1"
     inkscape:current-layer="svg4306">
    <inkscape:grid
       type="xygrid"
       id="grid853" />
  </sodipodi:namedview>
  <style
     type="text/css"
     id="current-color-scheme">
        .ColorScheme-Text {
            color:#232629;
        }
        .ColorScheme-ButtonFocus{
            color:#3daee9;
        }
            .ColorScheme-NegativeText {
            color:#da4453;
        }
    </style>
  <g
     id="active-center">
    <rect
       style="opacity:0.00100002;fill:#000000;fill-opacity:1;fill-rule:nonzero;stroke:none;stroke-width:2;stroke-linecap:round;stroke-linejoin:round;stroke-miterlimit:4;stroke-dasharray:none;stroke-opacity:1"
       y="-22"
       x="-22"
       height="22"
       width="22"
       id="rect4266"
       transform="scale(-1)" />
    <circle
       style="opacity:0.003;fill:#ffffff;fill-opacity:1;stroke-width:1.001;enable-background:new"
       id="path867-5-6-5"
       cx="-11"
       cy="-11"
       r="9"
       transform="scale(-1)" />
    <path
       sodipodi:nodetypes="ccccccccccccc"
       id="path3"
       fill="currentColor"
       class="ColorScheme-Text"
       d="M 14,5 8.854,10.146 7.7151012,9 7.0071012,9.708 9.293,12 6,15.292672 6.708,16.000672 10,12.707 12.292,15.002383 13,14.294383 11.854,13.146 17,8 Z" />
  </g>
  <g
     transform="translate(22)"
     style="enable-background:new"
     id="hover-center">
    <rect
       transform="scale(-1)"
       id="rect4266-29"
       width="22"
       height="22"
       x="-22"
       y="-22"
       style="opacity:0.00100002;fill:#000000;fill-opacity:1;fill-rule:nonzero;stroke:none;stroke-width:2;stroke-linecap:round;stroke-linejoin:round;stroke-miterlimit:4;stroke-dasharray:none;stroke-opacity:1" />
    <circle
       transform="scale(-1)"
       r="9"
       cy="-11"
       cx="-11"
       id="path867-5-6-5-1"
       style="opacity:0.003;fill:#ffffff;fill-opacity:1;stroke-width:1.001;enable-background:new" />
    <path
       sodipodi:nodetypes="ccccccccccccccccccccccc"
       fill="currentColor"
       class="ColorScheme-Text"
       transform="translate(-22)"
       d="M 35,6 29.853516,11.146484 28.714844,10 28.007812,10.707031 30.292969,13 27,16.292969 27.707031,17 31,13.707031 33.292969,16.001953 34,15.294922 32.853516,14.146484 38,9 Z m -9,4 -1,2 1,2 1,-2 z m 6,7 -2,1 2,1 2,-1 z"
       id="path3-2" />
  </g>
  <g
     id="pressed-center">
    <rect
       transform="scale(-1)"
       id="rect4266-6"
       width="22"
       height="22"
       x="-66"
       y="-22"
       style="opacity:0.00100002;fill:#000000;fill-opacity:1;fill-rule:nonzero;stroke:none;stroke-width:2;stroke-linecap:round;stroke-linejoin:round;stroke-miterlimit:4;stroke-dasharray:none;stroke-opacity:1" />
    <path
       class="ColorScheme-Text"
       id="path1165"
       style="opacity:1;fill:currentColor"
       d="M 54.990234 2 A 9 9 0 0 0 46 11 A 9 9 0 0 0 55 20 A 9 9 0 0 0 64 11 A 9 9 0 0 0 55 2 A 9 9 0 0 0 54.990234 2 z M 58 5 L 61 8 L 55.853516 13.146484 L 57 14.294922 L 56.292969 15.001953 L 54 12.707031 L 50.707031 16 L 50 15.292969 L 53.292969 12 L 51.007812 9.7070312 L 51.714844 9 L 52.853516 10.146484 L 58 5 z " />
  </g>
  <g
     transform="translate(66)"
     style="enable-background:new"
     id="inactive-center">
    <rect
       transform="scale(-1)"
       id="rect4266-8"
       width="22"
       height="22"
       x="-22"
       y="-22"
       style="opacity:0.00100002;fill:#000000;fill-opacity:1;fill-rule:nonzero;stroke:none;stroke-width:2;stroke-linecap:round;stroke-linejoin:round;stroke-miterlimit:4;stroke-dasharray:none;stroke-opacity:1" />
    <circle
       transform="scale(-1)"
       r="9"
       cy="-11"
       cx="-11"
       id="path867-5-6-5-7"
       style="opacity:0.003;fill:#ffffff;fill-opacity:1;stroke-width:1.001;enable-background:new" />
    <path
       d="M 14,5 8.854,10.146 7.7151012,9 7.0071012,9.708 9.293,12 6,15.292672 6.708,16.000672 10,12.707 12.292,15.002383 13,14.294383 11.854,13.146 17,8 Z"
       class="ColorScheme-Text"
       fill="currentColor"
       id="path3-9"
       sodipodi:nodetypes="ccccccccccccc" />
  </g>
  <g
     transform="translate(88)"
     style="enable-background:new"
     id="deactivated-center">
    <rect
       transform="scale(-1)"
       id="rect4266-0"
       width="22"
       height="22"
       x="-22"
       y="-22"
       style="opacity:0.00100002;fill:#000000;fill-opacity:1;fill-rule:nonzero;stroke:none;stroke-width:2;stroke-linecap:round;stroke-linejoin:round;stroke-miterlimit:4;stroke-dasharray:none;stroke-opacity:1" />
    <circle
       transform="scale(-1)"
       r="9"
       cy="-11"
       cx="-11"
       id="path867-5-6-5-2"
       style="opacity:0.003;fill:#ffffff;fill-opacity:1;stroke-width:1.001;enable-background:new" />
    <path
       d="M 14,5 8.854,10.146 7.7151012,9 7.0071012,9.708 9.293,12 6,15.292672 6.708,16.000672 10,12.707 12.292,15.002383 13,14.294383 11.854,13.146 17,8 Z"
       class="ColorScheme-Text"
       fill="currentColor"
       id="path3-3"
       sodipodi:nodetypes="ccccccccccccc" />
  </g>
</svg>
