<?xml version="1.0" encoding="UTF-8" standalone="no"?>
<svg
   xmlns:dc="http://purl.org/dc/elements/1.1/"
   xmlns:cc="http://creativecommons.org/ns#"
   xmlns:rdf="http://www.w3.org/1999/02/22-rdf-syntax-ns#"
   xmlns:svg="http://www.w3.org/2000/svg"
   xmlns="http://www.w3.org/2000/svg"
   xmlns:sodipodi="http://sodipodi.sourceforge.net/DTD/sodipodi-0.dtd"
   xmlns:inkscape="http://www.inkscape.org/namespaces/inkscape"
   id="svg4306"
   width="22"
   height="22"
   version="1.1"
   style="enable-background:new"
   sodipodi:docname="close.svg"
   inkscape:version="1.0 (1.0+r73+1)">
  <metadata
     id="metadata40">
    <rdf:RDF>
      <cc:Work
         rdf:about="">
        <dc:format>image/svg+xml</dc:format>
        <dc:type
           rdf:resource="http://purl.org/dc/dcmitype/StillImage" />
      </cc:Work>
    </rdf:RDF>
  </metadata>
  <defs
     id="defs38" />
  <sodipodi:namedview
     inkscape:document-rotation="0"
     pagecolor="#ffffff"
     bordercolor="#666666"
     borderopacity="1"
     objecttolerance="10"
     gridtolerance="10"
     guidetolerance="10"
     inkscape:pageopacity="0"
     inkscape:pageshadow="2"
     inkscape:window-width="1920"
     inkscape:window-height="1015"
     id="namedview36"
     showgrid="true"
     inkscape:snap-bbox="true"
     inkscape:bbox-nodes="true"
     inkscape:zoom="9.659091"
     inkscape:cx="6.0759519"
     inkscape:cy="0.61120123"
     inkscape:window-x="0"
     inkscape:window-y="0"
     inkscape:window-maximized="1"
     inkscape:current-layer="svg4306">
    <inkscape:grid
       type="xygrid"
       id="grid865" />
  </sodipodi:namedview>
  <style
     type="text/css"
     id="current-color-scheme">
        .ColorScheme-Text {
            color:#232629;
        }
        .ColorScheme-ButtonFocus{
            color:#3daee9;
        }
            .ColorScheme-NegativeText {
            color:#da4453;
        }
    </style>
  <g
     id="g1078"
     transform="translate(58.998427,42.562427)">
    <rect
       id="rect4225"
       width="22"
       height="22"
       x="0"
       y="0"
       style="opacity:0.00100002;fill:#000000;fill-opacity:1;fill-rule:nonzero;stroke:none;stroke-width:2;stroke-linecap:round;stroke-linejoin:round;stroke-miterlimit:4;stroke-dasharray:none;stroke-opacity:1" />
    <g
       id="g4227"
       transform="matrix(0.99960695,0,0,0.99997077,-56.9717,-514.98451)"
       style="fill:#cfd8dc;fill-opacity:1">
      <g
         id="g4229"
         transform="translate(19,-242)"
         style="display:inline;fill:#cfd8dc;fill-opacity:1">
        <path
           id="path4231"
           d="m 45,764 h 1 c 0.01037,-1.2e-4 0.02079,-4.6e-4 0.03125,0 0.254951,0.0112 0.50987,0.12858 0.6875,0.3125 L 49,766.59375 51.3125,764.3125 C 51.578125,764.082 51.759172,764.007 52,764 h 1 v 1 c 0,0.28647 -0.03434,0.55065 -0.25,0.75 l -2.28125,2.28125 2.25,2.25 C 52.906938,770.46942 52.999992,770.7347 53,771 v 1 h -1 c -0.265301,-10e-6 -0.530586,-0.0931 -0.71875,-0.28125 L 49,769.4375 46.71875,771.71875 C 46.530586,771.90694 46.26529,772 46,772 h -1 v -1 c -3e-6,-0.26529 0.09306,-0.53058 0.28125,-0.71875 l 2.28125,-2.25 L 45.28125,765.75 C 45.070508,765.55537 44.97809,765.28075 45,765 Z"
           style="color:#bebebe;font-style:normal;font-variant:normal;font-weight:normal;font-stretch:normal;font-size:medium;line-height:normal;font-family:'Andale Mono';-inkscape-font-specification:'Andale Mono';text-indent:0;text-align:start;text-decoration:none;text-decoration-line:none;letter-spacing:normal;word-spacing:normal;text-transform:none;writing-mode:lr-tb;direction:ltr;text-anchor:start;display:inline;overflow:visible;visibility:visible;opacity:0.3;fill:#cfd8dc;fill-opacity:1;fill-rule:nonzero;stroke:none;stroke-width:1.78125;marker:none;enable-background:new" />
      </g>
    </g>
  </g>
  <g
     id="g1101"
     transform="translate(81.998427,42.562427)">
    <rect
       id="rect4235"
       width="22"
       height="22"
       x="0"
       y="0"
       style="opacity:0.00100002;fill:#000000;fill-opacity:1;fill-rule:nonzero;stroke:none;stroke-width:2;stroke-linecap:round;stroke-linejoin:round;stroke-miterlimit:4;stroke-dasharray:none;stroke-opacity:1" />
    <g
       id="g4237"
       transform="matrix(0.99960695,0,0,0.99997077,-56.9717,-514.98451)"
       style="fill:#cfd8dc;fill-opacity:1">
      <g
         id="g4239"
         transform="translate(19,-242)"
         style="display:inline;fill:#cfd8dc;fill-opacity:1">
        <path
           id="path4241"
           d="m 45,764 h 1 c 0.01037,-1.2e-4 0.02079,-4.6e-4 0.03125,0 0.254951,0.0112 0.50987,0.12858 0.6875,0.3125 L 49,766.59375 51.3125,764.3125 C 51.578125,764.082 51.759172,764.007 52,764 h 1 v 1 c 0,0.28647 -0.03434,0.55065 -0.25,0.75 l -2.28125,2.28125 2.25,2.25 C 52.906938,770.46942 52.999992,770.7347 53,771 v 1 h -1 c -0.265301,-10e-6 -0.530586,-0.0931 -0.71875,-0.28125 L 49,769.4375 46.71875,771.71875 C 46.530586,771.90694 46.26529,772 46,772 h -1 v -1 c -3e-6,-0.26529 0.09306,-0.53058 0.28125,-0.71875 l 2.28125,-2.25 L 45.28125,765.75 C 45.070508,765.55537 44.97809,765.28075 45,765 Z"
           style="color:#bebebe;font-style:normal;font-variant:normal;font-weight:normal;font-stretch:normal;font-size:medium;line-height:normal;font-family:'Andale Mono';-inkscape-font-specification:'Andale Mono';text-indent:0;text-align:start;text-decoration:none;text-decoration-line:none;letter-spacing:normal;word-spacing:normal;text-transform:none;writing-mode:lr-tb;direction:ltr;text-anchor:start;display:inline;overflow:visible;visibility:visible;opacity:0.3;fill:#cfd8dc;fill-opacity:1;fill-rule:nonzero;stroke:none;stroke-width:1.78125;marker:none;enable-background:new" />
      </g>
    </g>
  </g>
  <path
     class="ColorScheme-Text"
     id="path867"
     style="fill:currentColor"
     d="m 14.394531,39.111328 a 9,9 0 0 0 -8.990234,9 9,9 0 0 0 9,9 9,9 0 0 0 9,-9 9,9 0 0 0 -9,-9 9,9 0 0 0 -0.0098,0 z m -3.878906,4.404297 3.888672,3.888672 3.888672,-3.888672 L 19,44.222656 15.111328,48.111328 19,52 18.292969,52.707031 14.404297,48.818359 10.515625,52.707031 9.8085939,52 13.697266,48.111328 9.8085939,44.222656 Z" />
  <g
     id="22-22-window-close"
     transform="translate(22,-9.708)">
    <rect
       style="opacity:0.003;fill:#000000;stroke-width:2"
       id="rect903"
       width="22"
       height="22"
       x="-22"
       y="32" />
    <path
       id="path3-35"
       fill="currentColor"
       class="ColorScheme-NegativeText"
       d="m -11,35 a 8,8 0 0 0 -8,8 8,8 0 0 0 8,8 8,8 0 0 0 8,-8 8,8 0 0 0 -8,-8 M -14.293,39 -11,42.294 -7.707,39.001 -7,39.708 -10.293,43.001 -7,46.294 -7.707,47.001 -11,43.708 -14.293,47.001 -15,46.294 -11.707,43.001 -15,39.708 l 0.707,-0.707" />
  </g>
  <path
     d="m -11,2 a 9,9 0 0 0 -9,9 9,9 0 0 0 9,9 9,9 0 0 0 9,-9 9,9 0 0 0 -9,-9 M -14.704625,6.5 -11,10.20575 -7.295375,6.501125 -6.5,7.2965 -10.204625,11.001125 -6.5,14.70575 -7.295375,15.501125 -11,11.7965 -14.704625,15.501125 -15.5,14.70575 -11.795375,11.001125 -15.5,7.2965 -14.704625,6.501125"
     class="ColorScheme-NegativeText"
     fill="currentColor"
     id="path3-35-3"
     style="opacity:0.540144;stroke-width:1.125;enable-background:new" />
  <path
     style="opacity:0.540144;stroke-width:1.125;enable-background:new"
     id="path3-35-3-6"
     fill="currentColor"
     class="ColorScheme-NegativeText"
     d="m -17.363961,26.636039 a 9,9 0 0 0 0,12.727922 9,9 0 0 0 12.727922,0 9,9 0 0 0 0,-12.727922 9,9 0 0 0 -12.727922,0 m 0.562415,5.801546 5.239926,7.95e-4 0,-5.23913 1.124831,0 v 5.23913 h 5.2391305 l 0,1.124831 h -5.2391305 v 5.23913 h -1.124831 l 0,-5.23913 h -5.23913 V 32.43838" />
  <path
     id="rect909"
     style="opacity:0.540144;fill:#5e5e5e;stroke-width:1.001"
     d="M -11.5 27 L -11.5 32.5 L -17 32.5 L -17 33.5 L -11.5 33.5 L -11.5 39 L -10.5 39 L -10.5 33.5 L -5 33.5 L -5 32.5 L -10.5 32.5 L -10.5 27 L -11.5 27 z " />
  <circle
     r="9"
     cy="40.889088"
     cx="34.596195"
     id="path867-5"
     style="opacity:0.5;fill:#5e5e5e;stroke-width:1.001;enable-background:new" />
  <path
     id="rect909-7-3"
     style="opacity:0.540144;fill:#5e5e5e;stroke-width:1.001;enable-background:new"
     d="M 38.485281,36.292893 34.596194,40.18198 30.707107,36.292893 30,37 33.889087,40.889087 30,44.778174 l 0.707107,0.707107 3.889087,-3.889087 3.889087,3.889087 0.707107,-0.707107 L 35.303301,40.889087 39.192388,37 Z" />
  <circle
     style="opacity:0.5;fill:#5e5e5e;stroke-width:1.001;enable-background:new"
     id="path867-5-3"
     cx="9"
     cy="-11"
     r="9" />
  <path
     sodipodi:nodetypes="ccccccccccccc"
     d="M 14.5,-11.5 H 9.4999989 v -5 H 8.4999986 v 5 H 3.5 v 1 h 4.9999986 l 3e-7,5 h 1.0000003 l -3e-7,-5 H 14.5 Z"
     style="opacity:0.540144;fill:#5e5e5e;stroke-width:1.001;enable-background:new"
     id="rect909-7-3-6" />
  <circle
     r="9"
     cy="-11"
     cx="32"
     id="path867-5-3-3"
     style="opacity:0.5;fill:#5e5e5e;stroke-width:1.001;enable-background:new" />
  <path
     id="rect909-7-3-6-5"
     style="opacity:0.540144;fill:#5e5e5e;stroke-width:1.001;enable-background:new"
     d="m 37.75,-11.5 h -5.250001 v -5.25 h -1 v 5.25 H 26.25 v 1 h 5.249999 v 5.25 h 1 V -10.5 H 37.75 Z"
     sodipodi:nodetypes="ccccccccccccc" />
  <g
     transform="translate(22)"
     style="enable-background:new"
     id="g1023" />
  <g
     transform="translate(66)"
     style="enable-background:new"
     id="inactive-center">
    <rect
       style="opacity:0.003;fill:#050505;fill-opacity:1;stroke-width:1.001"
       id="rect953-2"
       width="22"
       height="22"
       x="0"
       y="0" />
    <path
       class="ColorScheme-Text"
       d="M 10.990234,2.0000013 A 9,9 0 0 0 2,11.000001 a 9,9 0 0 0 9,9 9,9 0 0 0 9,-9 9,9 0 0 0 -9,-8.9999997 9,9 0 0 0 -0.0098,0 z M 7.287109,6.5800793 11,10.29297 l 3.712891,-3.7128907 0.707031,0.707031 -3.712891,3.7128907 3.712891,3.712891 -0.707031,0.707031 L 11,11.707032 7.287109,15.419923 6.580078,14.712892 10.292969,11.000001 6.580078,7.2871103 Z"
       style="opacity:1;fill:currentColor"
       id="path867-5-3-3-6-6" />
  </g>
  <g
     transform="translate(88)"
     id="deactivated-center"
     style="enable-background:new">
    <rect
       y="0"
       x="0"
       height="22"
       width="22"
       id="rect953-2-8"
       style="opacity:0.003;fill:#050505;fill-opacity:1;stroke-width:1.001" />
    <path
       id="path867-5-3-3-6-6-7"
       style="opacity:1;fill:currentColor"
       d="M 10.990234,2.0000013 A 9,9 0 0 0 2,11.000001 a 9,9 0 0 0 9,9 9,9 0 0 0 9,-9 9,9 0 0 0 -9,-8.9999997 9,9 0 0 0 -0.0098,0 z M 7.287109,6.5800793 11,10.29297 l 3.712891,-3.7128907 0.707031,0.707031 -3.712891,3.7128907 3.712891,3.712891 -0.707031,0.707031 L 11,11.707032 7.287109,15.419923 6.580078,14.712892 10.292969,11.000001 6.580078,7.2871103 Z"
       class="ColorScheme-Text" />
  </g>
  <g
     transform="translate(-43.580078,52.712891)"
     style="enable-background:new"
     id="g891">
    <rect
       style="opacity:0.003;fill:#050505;fill-opacity:1;stroke-width:1.001"
       id="rect953-1-6"
       width="22"
       height="22"
       x="22"
       y="0" />
    <path
       class="ColorScheme-Text"
       transform="translate(22)"
       d="M 10.980469,1 A 10,10 0 0 0 1,11 10,10 0 0 0 11,21 10,10 0 0 0 21,11 10,10 0 0 0 11,1 10,10 0 0 0 10.980469,1 Z M 11,3 a 8,8 0 0 1 8,8 8,8 0 0 1 -8,8 8,8 0 0 1 -8,-8 8,8 0 0 1 8,-8 z M 7.2871094,6.5800781 6.5800781,7.2871094 10.292969,11 6.5800781,14.712891 7.2871094,15.419922 11,11.707031 14.712891,15.419922 15.419922,14.712891 11.707031,11 15.419922,7.2871094 14.712891,6.5800781 11,10.292969 Z"
       style="opacity:1;fill:currentColor"
       id="path867-5-3-3-7-7" />
  </g>
  <g
     id="g1076"
     style="enable-background:new"
     transform="translate(-22)" />
  <circle
     style="opacity:0.5;fill:#5e5e5e;stroke-width:1.001;enable-background:new"
     id="path867-5-3-3-3"
     cx="-17"
     cy="-11"
     r="9" />
  <path
     sodipodi:nodetypes="ccccccccccccc"
     d="M -11.25,-12 H -16 v -4.75 h -2.000002 V -12 H -22.75 v 2 h 4.749998 v 4.75 H -16 V -10 h 4.75 z"
     style="opacity:0.540144;fill:#5e5e5e;stroke-width:1.001;enable-background:new"
     id="rect909-7-3-6-5-5" />
  <circle
     r="9"
     cy="-17.67767"
     cx="-24.748737"
     id="path867-5-3-3-3-6"
     style="opacity:0.5;fill:#5e5e5e;stroke-width:1.001;enable-background:new"
     transform="rotate(45)" />
  <path
     id="rect909-7-3-6-5-5-2"
     style="opacity:0.540144;fill:#5e5e5e;stroke-width:1.001;enable-background:new"
     d="M -0.22702923,-26.641243 -3.5857864,-30 l 3.35875717,-3.358757 -1.41421497,-1.414215 -3.3587572,3.358757 -3.3587558,-3.358756 -1.4142136,1.414214 3.3587558,3.358756 -3.3587572,3.358757 1.414215,1.414215 L -5,-28.585786 l 3.3587572,3.358757 z"
     sodipodi:nodetypes="ccccccccccccc" />
  <g
     id="active-center-3"
     style="enable-background:new"
     transform="translate(8,60)">
    <rect
       style="opacity:0.003;fill:#050505;fill-opacity:1;stroke-width:1.001"
       id="rect953-1-60"
       width="22"
       height="22"
       x="22"
       y="0" />
    <path
       class="ColorScheme-Text"
       d="M 32.990234,2 A 9,9 0 0 0 24,11 9,9 0 0 0 33,20 9,9 0 0 0 42,11 9,9 0 0 0 33,2 9,9 0 0 0 32.9902,2 Z M 33,3 a 8,8 0 0 1 8,8 8,8 0 0 1 -8,8 8,8 0 0 1 -8,-8 8,8 0 0 1 8,-8 z M 29.287109,6.5800781 28.580078,7.2871094 32.292969,11 28.580078,14.712891 29.287109,15.419922 33,11.707031 36.712891,15.419922 37.419922,14.712891 33.707031,11 37.419922,7.2871094 36.712891,6.5800781 33,10.292969 Z"
       style="opacity:1;fill:currentColor"
       id="path867-5-3-3-7-6" />
  </g>
  <g
     transform="translate(-14,60)"
     style="enable-background:new"
     id="hover-center-2">
    <rect
       y="0"
       x="22"
       height="22"
       width="22"
       id="rect953-1-67-6"
       style="opacity:0.003;fill:#050505;fill-opacity:1;stroke-width:1.001" />
    <path
       class="ColorScheme-Text"
       sodipodi:nodetypes="ccssscsssssccccccccccccc"
       transform="translate(22)"
       d="M 10.990234,2 C 6.0234855,2.0053895 1.9999971,6.0332486 2,11 c 0,4.970563 4.0294373,9 9,9 4.970563,0 9,-4.029437 9,-9 C 20,6.0294373 15.970563,2 11,2 Z M 11,3 c 4.418278,0 8,3.581722 8,8 0,4.418278 -3.581722,8 -8,8 C 6.581722,19 3,15.418278 3,11 3,6.581722 6.581722,3 11,3 Z M 7.640625,6.2265625 6.2265625,7.640625 9.5859375,11 6.2265625,14.359375 7.640625,15.773438 11,12.414062 14.359375,15.773438 15.773438,14.359375 12.414062,11 15.773438,7.640625 14.359375,6.2265625 11,9.5859375 Z"
       style="opacity:1;fill:currentColor"
       id="path867-5-3-3-7-5-1" />
  </g>
  <g
     id="active-center"
     style="enable-background:new"
     transform="translate(22)">
    <rect
       y="0"
       x="0"
       height="22"
       width="22"
       id="rect953-2-7"
       style="opacity:0.003;fill:#050505;fill-opacity:1;stroke-width:1.001" />
    <path
       id="path867-5-3-3-6-6-9"
       style="opacity:1;fill:currentColor"
       d="M 10.990234,2.0000013 A 9,9 0 0 0 2,11.000001 a 9,9 0 0 0 9,9 9,9 0 0 0 9,-9 9,9 0 0 0 -9,-8.9999997 9,9 0 0 0 -0.0098,0 z M 7.287109,6.5800793 11,10.29297 l 3.712891,-3.7128907 0.707031,0.707031 -3.712891,3.7128907 3.712891,3.712891 -0.707031,0.707031 L 11,11.707032 7.287109,15.419923 6.580078,14.712892 10.292969,11.000001 6.580078,7.2871103 Z"
       class="ColorScheme-Text" />
  </g>
  <g
     transform="translate(22)"
     style="enable-background:new"
     id="pressed-center">
    <rect
       y="0"
       x="22"
       height="22"
       width="22"
       id="rect953-1-60-0"
       style="opacity:0.003;fill:#050505;fill-opacity:1;stroke-width:1.001" />
    <path
       id="path867-5-3-3-7-6-2"
       style="opacity:1;fill:currentColor"
       d="M 32.990234,2 A 9,9 0 0 0 24,11 9,9 0 0 0 33,20 9,9 0 0 0 42,11 9,9 0 0 0 33,2 9,9 0 0 0 32.9902,2 Z M 33,3 a 8,8 0 0 1 8,8 8,8 0 0 1 -8,8 8,8 0 0 1 -8,-8 8,8 0 0 1 8,-8 z M 29.287109,6.5800781 28.580078,7.2871094 32.292969,11 28.580078,14.712891 29.287109,15.419922 33,11.707031 36.712891,15.419922 37.419922,14.712891 33.707031,11 37.419922,7.2871094 36.712891,6.5800781 33,10.292969 Z"
       class="ColorScheme-Text" />
  </g>
  <g
     style="enable-background:new"
     id="hover-center">
    <rect
       style="opacity:0.003;fill:#050505;fill-opacity:1;stroke-width:1.001"
       id="rect953-2-7-2"
       width="22"
       height="22"
       x="0"
       y="0" />
    <path
       id="path1158"
       style="opacity:1;fill:currentColor"
       d="M 10.990234,2.0000013 A 9,9 0 0 0 2,11.000001 a 9,9 0 0 0 9,9 9,9 0 0 0 9,-9 9,9 0 0 0 -9,-8.9999997 9,9 0 0 0 -0.0098,0 z M 7.287109,6.5800793 11,10.29297 l 3.712891,-3.7128907 0.707031,0.707031 -3.712891,3.7128907 3.712891,3.712891 -0.707031,0.707031 L 11,11.707032 7.287109,15.419923 6.580078,14.712892 10.292969,11.000001 6.580078,7.2871103 Z"
       class="ColorScheme-NegativeText" />
    <path
       class="ColorScheme-Text"
       d="M 10.990234,2.0000013 A 9,9 0 0 0 2,11.000001 a 9,9 0 0 0 9,9 9,9 0 0 0 9,-9 9,9 0 0 0 -9,-8.9999997 9,9 0 0 0 -0.0098,0 z M 7.287109,6.5800793 11,10.29297 l 3.712891,-3.7128907 0.707031,0.707031 -3.712891,3.7128907 3.712891,3.712891 -0.707031,0.707031 L 11,11.707032 7.287109,15.419923 6.580078,14.712892 10.292969,11.000001 6.580078,7.2871103 Z"
       style="opacity:0.4;fill:currentColor"
       id="path867-5-3-3-6-6-9-8" />
  </g>
</svg>
