<?xml version="1.0" encoding="UTF-8" standalone="no"?>
<svg
   xmlns:dc="http://purl.org/dc/elements/1.1/"
   xmlns:cc="http://creativecommons.org/ns#"
   xmlns:rdf="http://www.w3.org/1999/02/22-rdf-syntax-ns#"
   xmlns:svg="http://www.w3.org/2000/svg"
   xmlns="http://www.w3.org/2000/svg"
   xmlns:sodipodi="http://sodipodi.sourceforge.net/DTD/sodipodi-0.dtd"
   xmlns:inkscape="http://www.inkscape.org/namespaces/inkscape"
   id="svg4306"
   width="22"
   height="22"
   version="1.1"
   style="enable-background:new"
   sodipodi:docname="shade.svg"
   inkscape:version="1.0 (1.0+r73+1)">
  <metadata
     id="metadata28">
    <rdf:RDF>
      <cc:Work
         rdf:about="">
        <dc:format>image/svg+xml</dc:format>
        <dc:type
           rdf:resource="http://purl.org/dc/dcmitype/StillImage" />
        <dc:title></dc:title>
      </cc:Work>
    </rdf:RDF>
  </metadata>
  <defs
     id="defs26" />
  <sodipodi:namedview
     inkscape:document-rotation="0"
     pagecolor="#ffffff"
     bordercolor="#666666"
     borderopacity="1"
     objecttolerance="10"
     gridtolerance="10"
     guidetolerance="10"
     inkscape:pageopacity="0"
     inkscape:pageshadow="2"
     inkscape:window-width="1920"
     inkscape:window-height="1014"
     id="namedview24"
     showgrid="true"
     inkscape:zoom="6.8300087"
     inkscape:cx="49.884382"
     inkscape:cy="0.22865128"
     inkscape:window-x="0"
     inkscape:window-y="0"
     inkscape:window-maximized="1"
     inkscape:current-layer="svg4306">
    <inkscape:grid
       type="xygrid"
       id="grid853" />
  </sodipodi:namedview>
  <style
     type="text/css"
     id="current-color-scheme">
        .ColorScheme-Text {
            color:#232629;
        }
        .ColorScheme-ButtonFocus{
            color:#3daee9;
        }
            .ColorScheme-NegativeText {
            color:#da4453;
        }
    </style>
  <g
     id="pressed-center">
    <rect
       id="rect4266-06"
       width="22"
       height="22"
       x="-66"
       y="-22"
       style="opacity:0.00100002;fill:#000000;fill-opacity:1;fill-rule:nonzero;stroke:none;stroke-width:2;stroke-linecap:round;stroke-linejoin:round;stroke-miterlimit:4;stroke-dasharray:none;stroke-opacity:1"
       transform="scale(-1)" />
    <path
       class="ColorScheme-Text"
       d="M 54.990234 2 A 9 9 0 0 0 46 11 A 9 9 0 0 0 55 20 A 9 9 0 0 0 64 11 A 9 9 0 0 0 55 2 A 9 9 0 0 0 54.990234 2 z M 49.34375 7 L 60.65625 7 L 60.65625 8 L 49.34375 8 L 49.34375 7 z M 50.050781 9.3476562 L 55 14.298828 L 59.949219 9.3476562 L 60.65625 10.054688 L 55 15.712891 L 49.34375 10.054688 L 50.050781 9.3476562 z "
       style="opacity:1;fill:currentColor"
       id="path1045" />
  </g>
  <g
     transform="rotate(180,11,11)"
     style="enable-background:new"
     id="active-center">
    <rect
       style="opacity:0.00100002;fill:#000000;fill-opacity:1;fill-rule:nonzero;stroke:none;stroke-width:2;stroke-linecap:round;stroke-linejoin:round;stroke-miterlimit:4;stroke-dasharray:none;stroke-opacity:1"
       y="0"
       x="0"
       height="22"
       width="22"
       id="rect4266" />
    <circle
       style="opacity:0.003;fill:#000000;fill-opacity:1;stroke-width:1.001;enable-background:new"
       id="path867-5-6-5"
       cx="11"
       cy="11"
       r="9" />
    <path
       sodipodi:nodetypes="cccccccccccc"
       class="ColorScheme-Text"
       d="M 16.656,15 V 14 H 5.344 v 1 z M 11,12.652344 16.656,6.994141 15.949219,6.287109 11,11.238281 6.050781,6.287109 5.344,6.994141 Z"
       style="opacity:1;fill:currentColor"
       id="rect909-7-3-7-3-5-2-0" />
  </g>
  <g
     id="hover-center"
     style="enable-background:new"
     transform="rotate(180,22,11)">
    <rect
       id="rect4266-3"
       width="22"
       height="22"
       x="0"
       y="0"
       style="opacity:0.00100002;fill:#000000;fill-opacity:1;fill-rule:nonzero;stroke:none;stroke-width:2;stroke-linecap:round;stroke-linejoin:round;stroke-miterlimit:4;stroke-dasharray:none;stroke-opacity:1" />
    <circle
       r="9"
       cy="11"
       cx="11"
       id="path867-5-6-5-6"
       style="opacity:0.003;fill:#000000;fill-opacity:1;stroke-width:1.001;enable-background:new" />
    <path
       id="rect909-7-3-7-3-5-2-0-0"
       style="opacity:0.4;fill:currentColor"
       d="M 16.656853,6.994716 15.949745,6.28761 10.999999,11.237355 6.05025,6.28761 5.3431422,6.994718 10.999999,12.65157 Z"
       sodipodi:nodetypes="ccccccc"
       class="ColorScheme-Text" />
    <path
       class="ColorScheme-Text"
       sodipodi:nodetypes="ccccccc"
       d="M 16.656853,8.408931 15.949745,7.701825 10.999999,12.65157 6.05025,7.701825 5.3431422,8.408933 10.999999,14.065785 Z"
       style="opacity:0.4;fill:currentColor"
       id="path1106" />
    <path
       class="ColorScheme-Text"
       sodipodi:nodetypes="ccccccccccccc"
       transform="rotate(180,22,11)"
       d="m 27.34375,7 v 1 h 4.175781 L 27.34375,12.177734 28.050781,12.884766 32.933594,8 h 0.132812 L 37.949219,12.884766 38.65625,12.177734 34.480469,8 H 38.65625 V 7 Z"
       style="opacity:1;fill:currentColor"
       id="path1111" />
  </g>
  <g
     id="inactive-center"
     style="enable-background:new"
     transform="rotate(180,44,11)">
    <rect
       id="rect4266-9"
       width="22"
       height="22"
       x="0"
       y="0"
       style="opacity:0.00100002;fill:#000000;fill-opacity:1;fill-rule:nonzero;stroke:none;stroke-width:2;stroke-linecap:round;stroke-linejoin:round;stroke-miterlimit:4;stroke-dasharray:none;stroke-opacity:1" />
    <circle
       r="9"
       cy="11"
       cx="11"
       id="path867-5-6-5-1"
       style="opacity:0.003;fill:#000000;fill-opacity:1;stroke-width:1.001;enable-background:new" />
    <path
       id="rect909-7-3-7-3-5-2-0-2"
       style="opacity:0.5;fill:currentColor"
       d="M 16.656,15 V 14 H 5.344 v 1 z M 11,12.652344 16.656,6.994141 15.949219,6.287109 11,11.238281 6.050781,6.287109 5.344,6.994141 Z"
       class="ColorScheme-Text"
       sodipodi:nodetypes="cccccccccccc" />
  </g>
  <g
     id="deactivated-center"
     style="enable-background:new"
     transform="rotate(180,55,11)">
    <rect
       id="rect4266-0"
       width="22"
       height="22"
       x="0"
       y="0"
       style="opacity:0.00100002;fill:#000000;fill-opacity:1;fill-rule:nonzero;stroke:none;stroke-width:2;stroke-linecap:round;stroke-linejoin:round;stroke-miterlimit:4;stroke-dasharray:none;stroke-opacity:1" />
    <circle
       r="9"
       cy="11"
       cx="11"
       id="path867-5-6-5-9"
       style="opacity:0.003;fill:#000000;fill-opacity:1;stroke-width:1.001;enable-background:new" />
    <path
       id="rect909-7-3-7-3-5-2-0-3"
       style="opacity:0.5;fill:currentColor"
       d="M 16.656,15 V 14 H 5.344 v 1 z M 11,12.652344 16.656,6.994141 15.949219,6.287109 11,11.238281 6.050781,6.287109 5.344,6.994141 Z"
       class="ColorScheme-Text"
       sodipodi:nodetypes="cccccccccccc" />
  </g>
</svg>
