<?xml version="1.0" encoding="UTF-8" standalone="no"?>
<svg
   xmlns:dc="http://purl.org/dc/elements/1.1/"
   xmlns:cc="http://creativecommons.org/ns#"
   xmlns:rdf="http://www.w3.org/1999/02/22-rdf-syntax-ns#"
   xmlns:svg="http://www.w3.org/2000/svg"
   xmlns="http://www.w3.org/2000/svg"
   xmlns:xlink="http://www.w3.org/1999/xlink"
   xmlns:sodipodi="http://sodipodi.sourceforge.net/DTD/sodipodi-0.dtd"
   xmlns:inkscape="http://www.inkscape.org/namespaces/inkscape"
   width="32"
   height="32"
   viewBox="0 0 32 32"
   version="1.1"
   id="svg850"
   inkscape:version="1.0 (1.0+r73+1)"
   sodipodi:docname="folder-games.svg">
  <defs
     id="defs844">
    <style
       type="text/css"
       id="current-color-scheme">
      .ColorScheme-Highlight {
        color:#3daee9;
      }
      </style>
    <linearGradient
       inkscape:collect="always"
       id="linearGradient867">
      <stop
         style="stop-color:#ffffff;stop-opacity:0.23999999"
         offset="0"
         id="stop863" />
      <stop
         style="stop-color:#ffffff;stop-opacity:0"
         offset="1"
         id="stop865" />
    </linearGradient>
    <linearGradient
       gradientUnits="userSpaceOnUse"
       y2="29"
       x2="32"
       y1="8"
       x1="32"
       id="linearGradient897"
       xlink:href="#linearGradient867"
       inkscape:collect="always" />
  </defs>
  <sodipodi:namedview
     id="namedview899"
     pagecolor="#ffffff"
     bordercolor="#666666"
     borderopacity="1.0"
     inkscape:pageopacity="0.0"
     inkscape:pageshadow="2"
     inkscape:zoom="31.678384"
     inkscape:cx="19.008003"
     inkscape:cy="17.053363"
     inkscape:document-units="px"
     inkscape:current-layer="layer1"
     inkscape:document-rotation="0"
     showgrid="true"
     units="px"
     inkscape:window-width="1920"
     inkscape:window-height="1015"
     inkscape:window-x="0"
     inkscape:window-y="0"
     inkscape:window-maximized="1">
    <inkscape:grid
       type="xygrid"
       id="grid1413" />
  </sodipodi:namedview>
  <metadata
     id="metadata847">
    <rdf:RDF>
      <cc:Work
         rdf:about="">
        <dc:format>image/svg+xml</dc:format>
        <dc:type
           rdf:resource="http://purl.org/dc/dcmitype/StillImage" />
        <dc:title></dc:title>
      </cc:Work>
    </rdf:RDF>
  </metadata>
  <g
     inkscape:label="Layer 1"
     inkscape:groupmode="layer"
     id="layer1">
    <path
       sodipodi:nodetypes="ccccccccccc"
       d="m 2,3 h 12 l 2,2 h 14 v 3 h 1 V 28.99995 H 1.00001 L 1,10 h 1 z"
       style="opacity:1;fill:currentColor"
       id="base"
       class="ColorScheme-Highlight" />
    <path
       d="M 13 8 L 11 10 L 2 10 L 1 10 L 1 29 L 31 29 L 31 8 L 13 8 z M 12 15 L 20 15 A 2 4 0 0 1 22 19 L 22 21.5 A 1.5 1.5 0 0 1 19.439453 22.560547 L 18.498047 21.619141 A 1.5 1.5 0 0 1 16 20.5 A 1.5 1.5 0 0 1 14.5 22 A 1.5 1.5 0 0 1 13.503906 21.617188 L 12.560547 22.560547 A 1.5 1.5 0 0 1 10 21.5 L 10 19 A 2 4 0 0 1 12 15 z M 12 16 A 1 3 0 0 0 11 19 L 11 21.5 A 0.5 0.5 0 0 0 11.853516 21.853516 L 13.707031 20 L 13 20 L 13 19 L 12 19 L 12 18 L 13 18 L 13 17 L 14 17 L 14 18 L 15 18 L 15 19 L 14 19 L 14 20 L 14 20.5 A 0.5 0.5 0 0 0 15 20.5 L 15 20 L 17 20 L 17 20.5 A 0.5 0.5 0 0 0 18 20.5 L 18 20 L 18.169922 20 A 0.6 0.6 0 0 1 17.900391 19.5 A 0.6 0.6 0 0 1 18.5 18.900391 A 0.6 0.6 0 0 1 19.099609 19.5 A 0.6 0.6 0 0 1 18.5 20.099609 A 0.6 0.6 0 0 1 18.380859 20.087891 L 20.146484 21.853516 A 0.5 0.5 0 0 0 21 21.5 L 21 19 A 1 3 0 0 0 20 16 L 12 16 z M 18.470703 16.900391 A 0.6 0.6 0 0 1 18.5 16.900391 A 0.6 0.6 0 0 1 19.099609 17.5 A 0.6 0.6 0 0 1 18.5 18.099609 A 0.6 0.6 0 0 1 17.900391 17.5 A 0.6 0.6 0 0 1 18.470703 16.900391 z M 17.470703 17.900391 A 0.6 0.6 0 0 1 17.5 17.900391 A 0.6 0.6 0 0 1 18.099609 18.5 A 0.6 0.6 0 0 1 17.5 19.099609 A 0.6 0.6 0 0 1 16.900391 18.5 A 0.6 0.6 0 0 1 17.470703 17.900391 z M 19.470703 17.900391 A 0.6 0.6 0 0 1 19.5 17.900391 A 0.6 0.6 0 0 1 20.099609 18.5 A 0.6 0.6 0 0 1 19.5 19.099609 A 0.6 0.6 0 0 1 18.900391 18.5 A 0.6 0.6 0 0 1 19.470703 17.900391 z "
       style="opacity:1;fill:url(#linearGradient897);fill-opacity:1"
       id="gradient" />
    <path
       d="M 14,3 H 2 v 7 h 9 L 13,8 H 30 V 5 H 16 Z"
       style="opacity:0.3;fill:#000000;fill-opacity:1;fill-rule:evenodd"
       id="back"
       sodipodi:nodetypes="ccccccccc" />
    <path
       id="highlight"
       style="fill:#ffffff;fill-opacity:1;fill-rule:evenodd;opacity:0.23"
       d="M 14 3 L 15 6 L 30 6 L 30 5 L 16 5 L 14 3 z M 13 8 L 11 10 L 1 10 L 1 11 L 12 11 L 13 8 z " />
    <path
       id="shadow"
       style="fill-opacity:1;fill-rule:evenodd;fill:#000000;opacity:0.23"
       d="M 13,8 11,9 H 2 v 1 h 9 z M 1,28 v 1 h 30 v -1 z"
       sodipodi:nodetypes="ccccccccccc" />
    <g
       style="fill:#000000;fill-opacity:1;opacity:0.3"
       fill="#1272a5"
       id="g23">
      <path
         style="fill:#000000;fill-opacity:1"
         d="m 13,17 v 1 h -1 v 1 h 1 v 1 h 1 v -1 h 1 v -1 h -1 v -1 z m 5.5,-0.1 a 0.6,0.6 0 0 0 -0.6,0.6 0.6,0.6 0 0 0 0.6,0.6 0.6,0.6 0 0 0 0.6,-0.6 0.6,0.6 0 0 0 -0.6,-0.6 z m -1,1 a 0.6,0.6 0 0 0 -0.6,0.6 0.6,0.6 0 0 0 0.6,0.6 0.6,0.6 0 0 0 0.6,-0.6 0.6,0.6 0 0 0 -0.6,-0.6 z m 2,0 a 0.6,0.6 0 0 0 -0.6,0.6 0.6,0.6 0 0 0 0.6,0.6 0.6,0.6 0 0 0 0.6,-0.6 0.6,0.6 0 0 0 -0.6,-0.6 z m -1,1 a 0.6,0.6 0 0 0 -0.6,0.6 0.6,0.6 0 0 0 0.6,0.6 0.6,0.6 0 0 0 0.6,-0.6 0.6,0.6 0 0 0 -0.6,-0.6 z"
         id="path19" />
      <path
         style="fill:#000000;fill-opacity:1"
         d="m 12,15 a 2,4 0 0 0 -2,4 v 2.5 a 1.5,1.5 0 0 0 2.56,1.06 l 0.944,-0.943 A 1.5,1.5 0 0 0 14.5,22 1.5,1.5 0 0 0 16,20.5 a 1.5,1.5 0 0 0 2.498,1.12 l 0.941,0.94 A 1.5,1.5 0 0 0 22,21.5 V 19 a 2,4 0 0 0 -2,-4 z m 0,1 h 8 a 1,3 0 0 1 1,3 v 2.5 a 0.5,0.5 0 0 1 -0.854,0.354 L 18.293,20 H 18 v 0.5 a 0.5,0.5 0 0 1 -1,0 V 20 h -2 v 0.5 a 0.5,0.5 0 0 1 -1,0 V 20 h -0.293 l -1.853,1.854 A 0.5,0.5 0 0 1 11,21.5 V 19 a 1,3 0 0 1 1,-3 z"
         id="path21" />
    </g>
    <g
       id="g1050"
       fill="#1272a5"
       style="fill:#000000;fill-opacity:1;opacity:0.3" />
  </g>
</svg>
