<?xml version="1.0" encoding="UTF-8" standalone="no"?>
<svg
   xmlns:dc="http://purl.org/dc/elements/1.1/"
   xmlns:cc="http://creativecommons.org/ns#"
   xmlns:rdf="http://www.w3.org/1999/02/22-rdf-syntax-ns#"
   xmlns:svg="http://www.w3.org/2000/svg"
   xmlns="http://www.w3.org/2000/svg"
   xmlns:xlink="http://www.w3.org/1999/xlink"
   xmlns:sodipodi="http://sodipodi.sourceforge.net/DTD/sodipodi-0.dtd"
   xmlns:inkscape="http://www.inkscape.org/namespaces/inkscape"
   width="22"
   height="22"
   viewBox="0 0 22 22"
   id="svg7925"
   version="1.1"
   inkscape:version="1.0 (1.0+r73+1)"
   sodipodi:docname="system-file-manager.svg">
  <defs
     id="defs7927">
      <style
       id="current-color-scheme"
       type="text/css">
      .ColorScheme-Highlight {
        color:#3daee9;
      }
      </style>
    <linearGradient
       id="paperEdge"
       inkscape:collect="always">
      <stop
         id="stop4276"
         offset="0"
         style="stop-color:#ffffff;stop-opacity:1;" />
      <stop
         id="stop4278"
         offset="1"
         style="stop-color:#ffffff;stop-opacity:0.48760331" />
    </linearGradient>
    <linearGradient
       inkscape:collect="always"
       xlink:href="#paperEdge"
       id="linearGradient8485"
       gradientUnits="userSpaceOnUse"
       gradientTransform="matrix(0.69224711,0,0,0.69224711,-264.27155,1668.4354)"
       x1="390.57144"
       y1="498.298"
       x2="442.57144"
       y2="498.298" />
    <linearGradient
       inkscape:collect="always"
       id="shadow">
      <stop
         style="stop-color:#000000;stop-opacity:1;"
         offset="0"
         id="stop4395" />
      <stop
         style="stop-color:#000000;stop-opacity:0;"
         offset="1"
         id="stop4397" />
    </linearGradient>
    <linearGradient
       id="paper"
       inkscape:collect="always">
      <stop
         id="stop4229"
         offset="0"
         style="stop-color:#f5f5f5;stop-opacity:1" />
      <stop
         id="stop4231"
         offset="1"
         style="stop-color:#f9f9f9;stop-opacity:1" />
    </linearGradient>
    <linearGradient
       inkscape:collect="always"
       xlink:href="#paperEdge"
       id="linearGradient8603-0"
       gradientUnits="userSpaceOnUse"
       gradientTransform="matrix(0.34616832,0,0,0.34616832,-135.15325,827.3248)"
       x1="390.57144"
       y1="498.298"
       x2="442.57144"
       y2="498.298" />
    <linearGradient
       inkscape:collect="always"
       xlink:href="#paper"
       id="linearGradient4225-7"
       gradientUnits="userSpaceOnUse"
       x1="396.57144"
       y1="498.798"
       x2="426.57144"
       y2="511.798"
       gradientTransform="matrix(0.34616832,0,0,0.34616832,-133.24271,864.50374)" />
    <linearGradient
       inkscape:collect="always"
       xlink:href="#paperEdge"
       id="linearGradient8603-6"
       gradientUnits="userSpaceOnUse"
       gradientTransform="matrix(0.34616832,0,0,0.34616832,-133.24271,2893.0497)"
       x1="390.57144"
       y1="498.298"
       x2="442.57144"
       y2="498.298" />
    <linearGradient
       inkscape:collect="always"
       xlink:href="#highlight"
       id="linearGradient4178-0"
       y1="548.88599"
       y2="495.30789"
       x2="397.2283"
       gradientUnits="userSpaceOnUse"
       gradientTransform="matrix(0.34616832,0,0,0.34605565,-133.24271,862.87242)"
       x1="434.16153" />
    <linearGradient
       inkscape:collect="always"
       id="highlight">
      <stop
         style="stop-color:#fffcfc;stop-opacity:0"
         id="stop1004" />
      <stop
         offset="1"
         style="stop-color:#ffffff;stop-opacity:1"
         id="stop1006" />
    </linearGradient>
    <linearGradient
       inkscape:collect="always"
       xlink:href="#shadow"
       id="linearGradient4399-6"
       x1="419.4624"
       y1="499.23697"
       x2="432.57144"
       y2="523.79797"
       gradientUnits="userSpaceOnUse"
       gradientTransform="matrix(0.34616832,0,0,0.34616832,-141.20459,864.54108)" />
  </defs>
  <sodipodi:namedview
     id="base"
     pagecolor="#ffffff"
     bordercolor="#666666"
     borderopacity="1.0"
     inkscape:pageopacity="0.0"
     inkscape:pageshadow="2"
     inkscape:zoom="22.627417"
     inkscape:cx="11.611847"
     inkscape:cy="7.5547657"
     inkscape:document-units="px"
     inkscape:current-layer="layer1"
     showgrid="true"
     units="px"
     inkscape:snap-bbox="true"
     inkscape:bbox-nodes="true"
     inkscape:object-nodes="true"
     inkscape:document-rotation="0"
     inkscape:window-width="1920"
     inkscape:window-height="1013"
     inkscape:window-x="0"
     inkscape:window-y="0"
     inkscape:window-maximized="1">
    <inkscape:grid
       type="xygrid"
       id="grid8605" />
  </sodipodi:namedview>
  <metadata
     id="metadata7930">
    <rdf:RDF>
      <cc:Work
         rdf:about="">
        <dc:format>image/svg+xml</dc:format>
        <dc:type
           rdf:resource="http://purl.org/dc/dcmitype/StillImage" />
        <dc:title />
      </cc:Work>
    </rdf:RDF>
  </metadata>
  <g
     inkscape:label="Livello 1"
     inkscape:groupmode="layer"
     id="layer1"
     transform="translate(0,-1030.3622)">
    <path
       id="rect907"
       style="opacity:1;fill:currentColor"
       d="m 2,1032.3622 h 7 l 2,2 h 9 c 0.553951,0 1,0.446 1,1 v 14 c 0,0.554 -0.446,1 -1,1 H 2 c -0.554,0 -1,-0.446 -1,-1 v -16 c 0,-0.554 0.446001,-1 1,-1 z"
       sodipodi:nodetypes="sccssssssss"
       class="ColorScheme-Highlight" />
    <path
       sodipodi:nodetypes="ssccccssccscsssscssc"
       d="m 2,1032.3622 c -0.553978,0 -1,0.446 -1,1 v 6 h 6 l 2,-1 h 12 v -3 c 0,-0.554 -0.446089,-1.0066 -1,-1 h -9 l -2,-2 z m -1,16 v 1 c 0,0.554 0.446,1 1,1 h 18 c 0.554,0 1,-0.446 1,-1 v -1 c 0,0.554 -0.446,1 -1,1 H 2 c -0.554,0 -1,-0.446 -1,-1 z"
       style="opacity:0.3;fill:#000000;fill-opacity:1;stroke-width:1.001"
       id="rect907-3" />
    <path
       d="m 9,1032.3622 1,3 h 10 c 0.552285,0 1,0.4477 1,1 v -1 c 0,-0.554 -0.446049,-1 -1,-1 h -9 z"
       style="opacity:0.3;fill:#ffffff;fill-opacity:1;fill-rule:evenodd;stroke-width:0.981998"
       id="path4224-5"
       sodipodi:nodetypes="ccscsscc" />
    <path
       sodipodi:nodetypes="ssccccsss"
       d="m 2.912109,1036.3622 c -0.505729,0 -0.912109,0.446 -0.912109,1 v 2 h 5 l 2,-1 h 11 v -1 c 0,-0.554 -0.40638,-1 -0.912109,-1 z"
       style="color:#000000;clip-rule:nonzero;display:inline;overflow:visible;visibility:visible;opacity:1;isolation:auto;mix-blend-mode:normal;color-interpolation:sRGB;color-interpolation-filters:linearRGB;solid-color:#000000;solid-opacity:1;fill:url(#linearGradient4225-7);fill-opacity:1;fill-rule:nonzero;stroke:none;stroke-width:1;stroke-linecap:butt;stroke-linejoin:miter;stroke-miterlimit:4;stroke-dasharray:none;stroke-dashoffset:0;stroke-opacity:1;marker:none;color-rendering:auto;image-rendering:auto;shape-rendering:auto;text-rendering:auto;enable-background:accumulate"
       id="rect4223-5" />
    <path
       style="color:#000000;clip-rule:nonzero;display:inline;overflow:visible;visibility:visible;opacity:0.85;isolation:auto;mix-blend-mode:normal;color-interpolation:sRGB;color-interpolation-filters:linearRGB;solid-color:#000000;solid-opacity:1;fill:url(#linearGradient8603-6);fill-opacity:1;fill-rule:nonzero;stroke:none;stroke-width:1;stroke-linecap:butt;stroke-linejoin:miter;stroke-miterlimit:4;stroke-dasharray:none;stroke-dashoffset:0;stroke-opacity:1;marker:none;color-rendering:auto;image-rendering:auto;shape-rendering:auto;text-rendering:auto;enable-background:accumulate"
       d="m 2.912109,1036.3622 c -0.505729,0 -0.912109,0.446 -0.912109,1 v 1 c 0,-0.554 0.40638,-1 0.912109,-1 H 19 c 0.505729,0 1,0.446 1,1 v -1 c 0,-0.554 -0.494271,-1 -1,-1 z"
       id="rect8607-1"
       inkscape:connector-curvature="0"
       sodipodi:nodetypes="sscsscsss" />
    <path
       inkscape:connector-curvature="0"
       style="opacity:0.3;fill:#ffffff;fill-opacity:1;fill-rule:evenodd"
       id="path4224-2"
       d="m 1,1039.3622 v 1 h 7 l 1,-2 -2,1 z"
       sodipodi:nodetypes="cccccc" />
    <path
       sodipodi:nodetypes="cccccccsccc"
       d="m 9,1038.3622 -2,1 H 1 v 1 9 c 0,0.5477 0.437136,0.9862 0.982422,0.9961 H 9.005859 20 c 0.554,0 1,-0.446 1,-1 v -11 z"
       style="opacity:0.24;fill:url(#linearGradient4178-0)"
       id="rect4113-6" />
    <path
       sodipodi:nodetypes="ccccsscc"
       d="m 9,1038.3622 -1,2 H 1 l 10,10 h 9 c 0.554,0 1,-0.446 1,-1 v -11 z"
       style="opacity:0.099;fill:url(#linearGradient4399-6);fill-opacity:1;fill-rule:evenodd;stroke:none;stroke-width:1px;stroke-linecap:butt;stroke-linejoin:miter;stroke-opacity:1"
       id="path4383-1" />
  </g>
</svg>
