<?xml version="1.0" encoding="UTF-8" standalone="no"?>
<svg
   xmlns:dc="http://purl.org/dc/elements/1.1/"
   xmlns:cc="http://creativecommons.org/ns#"
   xmlns:rdf="http://www.w3.org/1999/02/22-rdf-syntax-ns#"
   xmlns:svg="http://www.w3.org/2000/svg"
   xmlns="http://www.w3.org/2000/svg"
   xmlns:xlink="http://www.w3.org/1999/xlink"
   xmlns:sodipodi="http://sodipodi.sourceforge.net/DTD/sodipodi-0.dtd"
   xmlns:inkscape="http://www.inkscape.org/namespaces/inkscape"
   width="32"
   height="32"
   viewBox="0 0 32 32"
   version="1.1"
   id="svg850"
   inkscape:version="1.0 (1.0+r73+1)"
   sodipodi:docname="folder-sound.svg">
  <defs
     id="defs844">
    <style
       type="text/css"
       id="current-color-scheme">
      .ColorScheme-Highlight {
        color:#3daee9;
      }
      </style>
    <linearGradient
       inkscape:collect="always"
       id="linearGradient867">
      <stop
         style="stop-color:#ffffff;stop-opacity:0.23999999"
         offset="0"
         id="stop863" />
      <stop
         style="stop-color:#ffffff;stop-opacity:0"
         offset="1"
         id="stop865" />
    </linearGradient>
    <linearGradient
       gradientUnits="userSpaceOnUse"
       y2="29"
       x2="32"
       y1="8"
       x1="32"
       id="linearGradient897"
       xlink:href="#linearGradient867"
       inkscape:collect="always" />
  </defs>
  <sodipodi:namedview
     id="namedview899"
     pagecolor="#ffffff"
     bordercolor="#666666"
     borderopacity="1.0"
     inkscape:pageopacity="0.0"
     inkscape:pageshadow="2"
     inkscape:zoom="22.627417"
     inkscape:cx="21.473164"
     inkscape:cy="16.559508"
     inkscape:document-units="px"
     inkscape:current-layer="layer1"
     inkscape:document-rotation="0"
     showgrid="true"
     units="px"
     inkscape:window-width="1920"
     inkscape:window-height="1015"
     inkscape:window-x="0"
     inkscape:window-y="0"
     inkscape:window-maximized="1">
    <inkscape:grid
       type="xygrid"
       id="grid1413" />
  </sodipodi:namedview>
  <metadata
     id="metadata847">
    <rdf:RDF>
      <cc:Work
         rdf:about="">
        <dc:format>image/svg+xml</dc:format>
        <dc:type
           rdf:resource="http://purl.org/dc/dcmitype/StillImage" />
        <dc:title></dc:title>
      </cc:Work>
    </rdf:RDF>
  </metadata>
  <g
     inkscape:label="Layer 1"
     inkscape:groupmode="layer"
     id="layer1">
    <path
       sodipodi:nodetypes="ccccccccccc"
       d="m 2,3 h 12 l 2,2 h 14 v 3 h 1 V 28.99995 H 1.00001 L 1,10 h 1 z"
       style="opacity:1;fill:currentColor"
       id="base"
       class="ColorScheme-Highlight" />
    <path
       d="M 13 8 L 11 10 L 2 10 L 1 10 L 1 29 L 31 29 L 31 8 L 13 8 z M 14 13 L 21 13 L 21 20 C 21 21.10457 20.10457 22 19 22 C 17.89543 22 17 21.10457 17 20 C 17 18.89543 17.89543 18 19 18 C 19.351395 18.001073 19.696304 18.094713 20 18.271484 L 20 16 L 15 16 L 15 21 C 15 22.10457 14.10457 23 13 23 C 11.89543 23 11 22.10457 11 21 C 11 19.89543 11.89543 19 13 19 C 13.351217 19.00048 13.696115 19.093442 14 19.269531 L 14 13 z M 15 14 L 15 15 L 20 15 L 20 14 L 15 14 z "
       style="opacity:1;fill:url(#linearGradient897);fill-opacity:1"
       id="gradient" />
    <path
       d="M 14,3 H 2 v 7 h 9 L 13,8 H 30 V 5 H 16 Z"
       style="opacity:0.3;fill:#000000;fill-opacity:1;fill-rule:evenodd"
       id="back"
       sodipodi:nodetypes="ccccccccc" />
    <path
       id="highlight"
       style="fill:#ffffff;fill-opacity:1;fill-rule:evenodd;opacity:0.23"
       d="M 14 3 L 15 6 L 30 6 L 30 5 L 16 5 L 14 3 z M 13 8 L 11 10 L 1 10 L 1 11 L 12 11 L 13 8 z " />
    <path
       id="shadow"
       style="fill-opacity:1;fill-rule:evenodd;fill:#000000;opacity:0.23"
       d="M 13,8 11,9 H 2 v 1 h 9 z M 1,28 v 1 h 30 v -1 z"
       sodipodi:nodetypes="ccccccccccc" />
    <path
       sodipodi:nodetypes="cccsssccccsscccccccc"
       style="opacity:0.3;fill:#000000;fill-opacity:1;stroke-width:1.33333"
       id="path4183"
       d="m 14,13 v 6.26953 C 13.696115,19.093441 13.351217,19.00048 13,19 c -1.10457,0 -2,0.89543 -2,2 0,1.10457 0.89543,2 2,2 1.10457,0 2,-0.89543 2,-2 v -5 h 5 v 2.27148 C 19.696304,18.094709 19.351395,18.001073 19,18 c -1.10457,0 -2,0.89543 -2,2 0,1.10457 0.89543,2 2,2 1.10457,0 2,-0.89543 2,-2 v -7 z m 1,1 h 5 v 1 h -5 z" />
  </g>
</svg>
