<?xml version="1.0" encoding="UTF-8" standalone="no"?>
<svg
   xmlns:dc="http://purl.org/dc/elements/1.1/"
   xmlns:cc="http://creativecommons.org/ns#"
   xmlns:rdf="http://www.w3.org/1999/02/22-rdf-syntax-ns#"
   xmlns:svg="http://www.w3.org/2000/svg"
   xmlns="http://www.w3.org/2000/svg"
   xmlns:xlink="http://www.w3.org/1999/xlink"
   xmlns:sodipodi="http://sodipodi.sourceforge.net/DTD/sodipodi-0.dtd"
   xmlns:inkscape="http://www.inkscape.org/namespaces/inkscape"
   width="32"
   height="32"
   viewBox="0 0 32 32"
   version="1.1"
   id="svg850"
   inkscape:version="1.0 (1.0+r73+1)"
   sodipodi:docname="folder-publicshare.svg">
  <defs
     id="defs844">
    <style
       type="text/css"
       id="current-color-scheme">
      .ColorScheme-Highlight {
        color:#3daee9;
      }
      </style>
    <linearGradient
       inkscape:collect="always"
       id="linearGradient867">
      <stop
         style="stop-color:#ffffff;stop-opacity:0.23999999"
         offset="0"
         id="stop863" />
      <stop
         style="stop-color:#ffffff;stop-opacity:0"
         offset="1"
         id="stop865" />
    </linearGradient>
    <linearGradient
       gradientUnits="userSpaceOnUse"
       y2="29"
       x2="32"
       y1="8"
       x1="32"
       id="linearGradient897"
       xlink:href="#linearGradient867"
       inkscape:collect="always" />
  </defs>
  <sodipodi:namedview
     id="namedview899"
     pagecolor="#ffffff"
     bordercolor="#666666"
     borderopacity="1.0"
     inkscape:pageopacity="0.0"
     inkscape:pageshadow="2"
     inkscape:zoom="32"
     inkscape:cx="16.708565"
     inkscape:cy="15.013928"
     inkscape:document-units="px"
     inkscape:current-layer="layer1"
     inkscape:document-rotation="0"
     showgrid="true"
     units="px"
     inkscape:window-width="1920"
     inkscape:window-height="1015"
     inkscape:window-x="0"
     inkscape:window-y="0"
     inkscape:window-maximized="1">
    <inkscape:grid
       type="xygrid"
       id="grid1413" />
  </sodipodi:namedview>
  <metadata
     id="metadata847">
    <rdf:RDF>
      <cc:Work
         rdf:about="">
        <dc:format>image/svg+xml</dc:format>
        <dc:type
           rdf:resource="http://purl.org/dc/dcmitype/StillImage" />
        <dc:title></dc:title>
      </cc:Work>
    </rdf:RDF>
  </metadata>
  <g
     inkscape:label="Layer 1"
     inkscape:groupmode="layer"
     id="layer1">
    <path
       sodipodi:nodetypes="ccccccccccc"
       d="m 2,3 h 12 l 2,2 h 14 v 3 h 1 V 28.99995 H 1.00001 L 1,10 h 1 z"
       style="opacity:1;fill:currentColor"
       id="base"
       class="ColorScheme-Highlight" />
    <path
       d="M 13 8 L 11 10 L 2 10 L 1 10 L 1 29 L 31 29 L 31 8 L 13 8 z M 18 13 C 19.10457 13 20 13.89543 20 15 C 20 16.10457 19.10457 17 18 17 C 16.89543 17 16 16.10457 16 15 C 16 13.89543 16.89543 13 18 13 z M 14 14 C 15.10457 14 16 14.89543 16 16 C 16 17.10457 15.10457 18 14 18 C 12.89543 18 12 17.10457 12 16 C 12 14.89543 12.89543 14 14 14 z M 18 18 C 20.20914 18 22 19.34314 22 21 L 22 22 L 19 22 C 18.99854 21.66397 18.963231 21.32894 18.894531 21 L 21 21 C 21 19.89543 19.65685 19 18 19 L 17.992188 19 C 17.734018 18.65678 17.432723 18.348251 17.095703 18.082031 C 17.391993 18.029031 17.69539 18.001 18 18 z M 14 19 C 16.20914 19 18 20.34314 18 22 L 18 23 L 10 23 L 10 22 C 10 20.34314 11.79086 19 14 19 z M 14 20 C 12.34315 20 11 20.89543 11 22 L 17 22 C 17 20.89543 15.65685 20 14 20 z "
       style="opacity:1;fill:url(#linearGradient897);fill-opacity:1"
       id="gradient" />
    <path
       d="M 14,3 H 2 v 7 h 9 L 13,8 H 30 V 5 H 16 Z"
       style="opacity:0.3;fill:#000000;fill-opacity:1;fill-rule:evenodd"
       id="back"
       sodipodi:nodetypes="ccccccccc" />
    <path
       id="highlight"
       style="fill:#ffffff;fill-opacity:1;fill-rule:evenodd;opacity:0.23"
       d="M 14 3 L 15 6 L 30 6 L 30 5 L 16 5 L 14 3 z M 13 8 L 11 10 L 1 10 L 1 11 L 12 11 L 13 8 z " />
    <path
       id="shadow"
       style="fill-opacity:1;fill-rule:evenodd;fill:#000000;opacity:0.23"
       d="M 13,8 11,9 H 2 v 1 h 9 z M 1,28 v 1 h 30 v -1 z"
       sodipodi:nodetypes="ccccccccccc" />
    <path
       sodipodi:nodetypes="sssssssssscccsccccsccssccsssccs"
       inkscape:connector-curvature="0"
       style="fill:#000000;stroke-width:1.1547;fill-opacity:1;opacity:0.3"
       id="rect4214"
       d="m 18,13 c -1.10457,0 -2,0.89543 -2,2 0,1.10457 0.89543,2 2,2 1.10457,0 2,-0.89543 2,-2 0,-1.10457 -0.89543,-2 -2,-2 z m -4,1 c -1.10457,0 -2,0.89543 -2,2 0,1.10457 0.89543,2 2,2 1.10457,0 2,-0.89543 2,-2 0,-1.10457 -0.89543,-2 -2,-2 z m 4,4 c -0.30461,0.001 -0.60801,0.029 -0.9043,0.082 0.33702,0.26622 0.63832,0.57475 0.89649,0.91797 h 0.008 c 1.65685,0 3,0.89543 3,2 h -2.10547 c 0.0687,0.32894 0.10401,0.66397 0.10547,1 h 3 v -1 c 0,-1.65686 -1.79086,-3 -4,-3 z m -4,1 c -2.20914,0 -4,1.34314 -4,3 v 1 h 8 v -1 c 0,-1.65686 -1.79086,-3 -4,-3 z m 0,1 c 1.65685,0 3,0.89543 3,2 h -6 c 0,-1.10457 1.34315,-2 3,-2 z" />
  </g>
</svg>
