<?xml version="1.0" encoding="UTF-8" standalone="no"?>
<svg
   xmlns:dc="http://purl.org/dc/elements/1.1/"
   xmlns:cc="http://creativecommons.org/ns#"
   xmlns:rdf="http://www.w3.org/1999/02/22-rdf-syntax-ns#"
   xmlns:svg="http://www.w3.org/2000/svg"
   xmlns="http://www.w3.org/2000/svg"
   xmlns:xlink="http://www.w3.org/1999/xlink"
   xmlns:sodipodi="http://sodipodi.sourceforge.net/DTD/sodipodi-0.dtd"
   xmlns:inkscape="http://www.inkscape.org/namespaces/inkscape"
   width="32"
   height="32"
   viewBox="0 0 32 32"
   version="1.1"
   id="svg850"
   inkscape:version="1.0 (1.0+r73+1)"
   sodipodi:docname="folder-cloud.svg">
  <defs
     id="defs844">
    <style
       type="text/css"
       id="current-color-scheme">
      .ColorScheme-Highlight {
        color:#3daee9;
      }
      </style>
    <linearGradient
       inkscape:collect="always"
       id="linearGradient867">
      <stop
         style="stop-color:#ffffff;stop-opacity:0.23999999"
         offset="0"
         id="stop863" />
      <stop
         style="stop-color:#ffffff;stop-opacity:0"
         offset="1"
         id="stop865" />
    </linearGradient>
    <linearGradient
       gradientUnits="userSpaceOnUse"
       y2="29"
       x2="32"
       y1="8"
       x1="32"
       id="linearGradient897"
       xlink:href="#linearGradient867"
       inkscape:collect="always" />
  </defs>
  <sodipodi:namedview
     id="namedview899"
     pagecolor="#ffffff"
     bordercolor="#666666"
     borderopacity="1.0"
     inkscape:pageopacity="0.0"
     inkscape:pageshadow="2"
     inkscape:zoom="22.4"
     inkscape:cx="21.471684"
     inkscape:cy="17.398979"
     inkscape:document-units="px"
     inkscape:current-layer="layer1"
     inkscape:document-rotation="0"
     showgrid="true"
     units="px"
     inkscape:window-width="1920"
     inkscape:window-height="1015"
     inkscape:window-x="0"
     inkscape:window-y="0"
     inkscape:window-maximized="1">
    <inkscape:grid
       type="xygrid"
       id="grid1413" />
  </sodipodi:namedview>
  <metadata
     id="metadata847">
    <rdf:RDF>
      <cc:Work
         rdf:about="">
        <dc:format>image/svg+xml</dc:format>
        <dc:type
           rdf:resource="http://purl.org/dc/dcmitype/StillImage" />
        <dc:title></dc:title>
      </cc:Work>
    </rdf:RDF>
  </metadata>
  <g
     inkscape:label="Layer 1"
     inkscape:groupmode="layer"
     id="layer1">
    <path
       sodipodi:nodetypes="ccccccccccc"
       d="m 2,3 h 12 l 2,2 h 14 v 3 h 1 V 28.99995 H 1.00001 L 1,10 h 1 z"
       style="opacity:1;fill:currentColor"
       id="base"
       class="ColorScheme-Highlight" />
    <path
       d="M 13 8 L 11 10 L 2 10 L 1 10 L 1 29 L 31 29 L 31 8 L 13 8 z M 16 13 A 4 4 0 0 1 19.939453 16.3125 A 3.5 3.5 0 0 1 22 19.5 A 3.5 3.5 0 0 1 18.5 23 L 13 23 A 2.9999869 2.9999869 0 0 1 10 20 A 2.9999869 2.9999869 0 0 1 12.005859 17.171875 A 4 4 0 0 1 12 17 A 4 4 0 0 1 16 13 z M 15.947266 14 A 3 3 0 0 0 13 17 A 3 3 0 0 0 13.177734 18.007812 A 1.999994 2 0 0 0 13 18 A 1.999994 2 0 0 0 11 20 A 1.999994 2 0 0 0 13 22 L 18.5 22 A 2.5 2.5 0 0 0 21 19.5 A 2.5 2.5 0 0 0 18.998047 17.050781 A 3 3 0 0 0 19 17 A 3 3 0 0 0 16 14 A 3 3 0 0 0 15.947266 14 z "
       style="opacity:1;fill:url(#linearGradient897);fill-opacity:1"
       id="gradient" />
    <path
       d="M 14,3 H 2 v 7 h 9 L 13,8 H 30 V 5 H 16 Z"
       style="opacity:0.3;fill:#000000;fill-opacity:1;fill-rule:evenodd"
       id="back"
       sodipodi:nodetypes="ccccccccc" />
    <path
       id="highlight"
       style="fill:#ffffff;fill-opacity:1;fill-rule:evenodd;opacity:0.23"
       d="M 14 3 L 15 6 L 30 6 L 30 5 L 16 5 L 14 3 z M 13 8 L 11 10 L 1 10 L 1 11 L 12 11 L 13 8 z " />
    <path
       id="shadow"
       style="fill-opacity:1;fill-rule:evenodd;fill:#000000;opacity:0.23"
       d="M 13,8 11,9 H 2 v 1 h 9 z M 1,28 v 1 h 30 v -1 z"
       sodipodi:nodetypes="ccccccccccc" />
    <path
       inkscape:connector-curvature="0"
       style="fill:#000000;stroke-linejoin:round;fill-opacity:1;opacity:0.3"
       id="path4218"
       d="m 15.99986,13 a 4,4 0 0 0 -4,4 4,4 0 0 0 0.006,0.17187 A 2.9999869,2.9999869 0 0 0 10,20 a 2.9999869,2.9999869 0 0 0 3,3 h 5.5 A 3.5,3.5 0 0 0 22,19.5 3.5,3.5 0 0 0 19.93945,16.3125 4,4 0 0 0 16,13 Z m 0,1 a 3,3 0 0 1 3,3 3,3 0 0 1 -0.002,0.0508 2.5,2.5 0 0 1 2.00195,2.44922 2.5,2.5 0 0 1 -2.5,2.5 h -5.5 a 1.999994,2 0 0 1 -2,-2 1.999994,2 0 0 1 2,-2 1.999994,2 0 0 1 0.17773,0.008 3,3 0 0 1 -0.17773,-1.00781 3,3 0 0 1 3,-3 z" />
  </g>
</svg>
