<?xml version="1.0" encoding="UTF-8" standalone="no"?>
<svg
   xmlns:dc="http://purl.org/dc/elements/1.1/"
   xmlns:cc="http://creativecommons.org/ns#"
   xmlns:rdf="http://www.w3.org/1999/02/22-rdf-syntax-ns#"
   xmlns:svg="http://www.w3.org/2000/svg"
   xmlns="http://www.w3.org/2000/svg"
   xmlns:xlink="http://www.w3.org/1999/xlink"
   xmlns:sodipodi="http://sodipodi.sourceforge.net/DTD/sodipodi-0.dtd"
   xmlns:inkscape="http://www.inkscape.org/namespaces/inkscape"
   sodipodi:docname="folder-root.svg"
   inkscape:version="1.0 (1.0+r73+1)"
   id="svg850"
   version="1.1"
   viewBox="0 0 32 32"
   height="32"
   width="32">
  <defs
     id="defs844">
    <style
       id="current-color-scheme"
       type="text/css">
      .ColorScheme-Highlight {
        color:#3daee9;
      }
      </style>
    <linearGradient
       id="linearGradient867"
       inkscape:collect="always">
      <stop
         id="stop863"
         offset="0"
         style="stop-color:#ffffff;stop-opacity:0.23999999" />
      <stop
         id="stop865"
         offset="1"
         style="stop-color:#ffffff;stop-opacity:0" />
    </linearGradient>
    <linearGradient
       inkscape:collect="always"
       xlink:href="#linearGradient867"
       id="linearGradient897"
       x1="32"
       y1="8"
       x2="32"
       y2="29"
       gradientUnits="userSpaceOnUse" />
  </defs>
  <sodipodi:namedview
     inkscape:window-maximized="1"
     inkscape:window-y="0"
     inkscape:window-x="0"
     inkscape:window-height="1015"
     inkscape:window-width="1920"
     units="px"
     showgrid="true"
     inkscape:document-rotation="0"
     inkscape:current-layer="layer1"
     inkscape:document-units="px"
     inkscape:cy="18.677191"
     inkscape:cx="19.303664"
     inkscape:zoom="32"
     inkscape:pageshadow="2"
     inkscape:pageopacity="0.0"
     borderopacity="1.0"
     bordercolor="#666666"
     pagecolor="#ffffff"
     id="namedview899">
    <inkscape:grid
       id="grid1413"
       type="xygrid" />
  </sodipodi:namedview>
  <metadata
     id="metadata847">
    <rdf:RDF>
      <cc:Work
         rdf:about="">
        <dc:format>image/svg+xml</dc:format>
        <dc:type
           rdf:resource="http://purl.org/dc/dcmitype/StillImage" />
        <dc:title />
      </cc:Work>
    </rdf:RDF>
  </metadata>
  <g
     id="layer1"
     inkscape:groupmode="layer"
     inkscape:label="Layer 1">
    <path
       class="ColorScheme-Highlight"
       id="base"
       style="opacity:1;fill:currentColor"
       d="m 2,3 h 12 l 2,2 h 14 v 3 h 1 V 28.99995 H 1.00001 L 1,10 h 1 z"
       sodipodi:nodetypes="ccccccccccc" />
    <path
       id="gradient"
       style="opacity:1;fill:url(#linearGradient897);fill-opacity:1"
       d="M 13 8 L 11 10 L 2 10 L 1 10 L 1 29 L 31 29 L 31 8 L 13 8 z M 16 13 L 18 13 L 13 23 L 11 23 L 16 13 z M 16 22 L 21 22 L 21 23 L 16 23 L 16 22 z " />
    <path
       sodipodi:nodetypes="ccccccccc"
       id="back"
       style="opacity:0.3;fill:#000000;fill-opacity:1;fill-rule:evenodd"
       d="M 14,3 H 2 v 7 h 9 L 13,8 H 30 V 5 H 16 Z" />
    <path
       d="M 14 3 L 15 6 L 30 6 L 30 5 L 16 5 L 14 3 z M 13 8 L 11 10 L 1 10 L 1 11 L 12 11 L 13 8 z "
       style="fill:#ffffff;fill-opacity:1;fill-rule:evenodd;opacity:0.23"
       id="highlight" />
    <path
       sodipodi:nodetypes="ccccccccccc"
       d="M 13,8 11,9 H 2 v 1 h 9 z M 1,28 v 1 h 30 v -1 z"
       style="fill-opacity:1;fill-rule:evenodd;fill:#000000;opacity:0.23"
       id="shadow" />
    <path
       id="path21"
       d="m 18,13 h -2 l -5,10 h 2 z m -2,9 h 5 v 1 h -5 z"
       style="fill:#000000;fill-opacity:1;opacity:0.3" />
  </g>
</svg>
