<?xml version="1.0" encoding="UTF-8" standalone="no"?>
<svg
   xmlns:dc="http://purl.org/dc/elements/1.1/"
   xmlns:cc="http://creativecommons.org/ns#"
   xmlns:rdf="http://www.w3.org/1999/02/22-rdf-syntax-ns#"
   xmlns:svg="http://www.w3.org/2000/svg"
   xmlns="http://www.w3.org/2000/svg"
   xmlns:sodipodi="http://sodipodi.sourceforge.net/DTD/sodipodi-0.dtd"
   xmlns:inkscape="http://www.inkscape.org/namespaces/inkscape"
   inkscape:version="1.0 (1.0+r73+1)"
   sodipodi:docname="folder-sound.svg"
   id="svg6"
   version="1.1"
   viewBox="0 0 16 16">
  <metadata
     id="metadata10">
    <rdf:RDF>
      <cc:Work
         rdf:about="">
        <dc:format>image/svg+xml</dc:format>
        <dc:type
           rdf:resource="http://purl.org/dc/dcmitype/StillImage" />
      </cc:Work>
    </rdf:RDF>
  </metadata>
  <sodipodi:namedview
     inkscape:current-layer="svg6"
     inkscape:window-maximized="1"
     inkscape:window-y="0"
     inkscape:window-x="0"
     inkscape:cy="8"
     inkscape:cx="8"
     inkscape:zoom="53.125"
     showgrid="false"
     id="namedview8"
     inkscape:window-height="1015"
     inkscape:window-width="1920"
     inkscape:pageshadow="2"
     inkscape:pageopacity="0"
     guidetolerance="10"
     gridtolerance="10"
     objecttolerance="10"
     borderopacity="1"
     bordercolor="#666666"
     pagecolor="#ffffff" />
  <defs
     id="defs3051">
    <style
       id="current-color-scheme"
       type="text/css">
      .ColorScheme-Text {
        color:#232629;
      }
      </style>
  </defs>
  <path
     sodipodi:nodetypes="ccsssscccssssccccccc"
     id="path4"
     class="ColorScheme-Text"
     d="m 5,2 v 8.275391 C 4.705,10.104292 4.3669285,10 4,10 c -1.1079952,0 -2,0.892005 -2,2 0,1.107995 0.8920048,2 2,2 1.1079952,0 2,-0.892005 2,-2 V 6 h 7 V 8.2753906 C 12.705,8.1042919 12.366929,8 12,8 c -1.107995,0 -2,0.8920048 -2,2 0,1.107995 0.892005,2 2,2 1.107995,0 2,-0.892005 2,-2 V 2 Z m 1,2 h 7 V 5 H 6 Z"
     style="fill:currentColor;fill-opacity:1;stroke:none" />
</svg>
