<?xml version="1.0" encoding="UTF-8" standalone="no"?>
<svg
   xmlns:dc="http://purl.org/dc/elements/1.1/"
   xmlns:cc="http://creativecommons.org/ns#"
   xmlns:rdf="http://www.w3.org/1999/02/22-rdf-syntax-ns#"
   xmlns:svg="http://www.w3.org/2000/svg"
   xmlns="http://www.w3.org/2000/svg"
   xmlns:sodipodi="http://sodipodi.sourceforge.net/DTD/sodipodi-0.dtd"
   xmlns:inkscape="http://www.inkscape.org/namespaces/inkscape"
   inkscape:version="1.0 (1.0+r73+1)"
   sodipodi:docname="input-keyboard.svg"
   id="svg9"
   version="1.1"
   width="16"
   height="16">
  <metadata
     id="metadata15">
    <rdf:RDF>
      <cc:Work
         rdf:about="">
        <dc:format>image/svg+xml</dc:format>
        <dc:type
           rdf:resource="http://purl.org/dc/dcmitype/StillImage" />
      </cc:Work>
    </rdf:RDF>
  </metadata>
  <defs
     id="defs13" />
  <sodipodi:namedview
     inkscape:current-layer="svg9"
     inkscape:window-maximized="1"
     inkscape:window-y="0"
     inkscape:window-x="0"
     inkscape:cy="5.7614603"
     inkscape:cx="8.9306514"
     inkscape:zoom="38.272155"
     showgrid="true"
     id="namedview11"
     inkscape:window-height="1013"
     inkscape:window-width="1920"
     inkscape:pageshadow="2"
     inkscape:pageopacity="0"
     guidetolerance="10"
     gridtolerance="10"
     objecttolerance="10"
     borderopacity="1"
     bordercolor="#666666"
     pagecolor="#ffffff">
    <inkscape:grid
       id="grid840"
       type="xygrid" />
  </sodipodi:namedview>
  <style
     id="current-color-scheme"
     type="text/css">
        .ColorScheme-Text {
            color:#eff0f1;
        }
    </style>
  <g
     id="g7"
     fill="currentColor"
     class="ColorScheme-Text">
    <path
       sodipodi:nodetypes="sccccccsscsccccc"
       id="path3"
       d="M 9,1 C 7.8954305,1 7,1.8954305 7,3 H 1 V 13 H 15 V 3 H 8 C 8,2.4477153 8.4477153,2 9,2 h 2 c 0.552285,0 1,-0.4477153 1,-1 z M 2,5 h 12 v 7 H 2 Z" />
    <path
       id="path5"
       d="M 3,6 V 7 H 4 V 6 Z M 5,6 V 7 H 6 V 6 Z M 7,6 V 7 H 8 V 6 Z m 2,0 v 1 h 1 V 6 Z m 2,0 v 1 h 2 V 6 Z M 3,8 V 9 H 5 V 8 Z M 6,8 V 9 H 7 V 8 Z M 8,8 V 9 H 9 V 8 Z m 2,0 v 1 h 3 V 8 Z m -7,2 v 1 h 1 v -1 z m 2,0 v 1 h 6 v -1 z m 7,0 v 1 h 1 v -1 z" />
  </g>
</svg>
