<?xml version="1.0" encoding="UTF-8" standalone="no"?>
<svg
   xmlns:dc="http://purl.org/dc/elements/1.1/"
   xmlns:cc="http://creativecommons.org/ns#"
   xmlns:rdf="http://www.w3.org/1999/02/22-rdf-syntax-ns#"
   xmlns:svg="http://www.w3.org/2000/svg"
   xmlns="http://www.w3.org/2000/svg"
   xmlns:xlink="http://www.w3.org/1999/xlink"
   xmlns:sodipodi="http://sodipodi.sourceforge.net/DTD/sodipodi-0.dtd"
   xmlns:inkscape="http://www.inkscape.org/namespaces/inkscape"
   width="16"
   height="16"
   viewBox="0 0 16 16"
   id="svg8694"
   version="1.1"
   inkscape:version="1.0 (1.0+r73+1)"
   sodipodi:docname="system-file-manager.svg">
  <defs
     id="defs8696">
    <style
       type="text/css"
       id="current-color-scheme">
      .ColorScheme-Highlight {
        color:#3daee9;
      }
      </style>
    <linearGradient
       id="linearGradient1060"
       inkscape:collect="always">
      <stop
         id="stop1056"
         style="stop-color:#ffffff;stop-opacity:0" />
      <stop
         id="stop1058"
         style="stop-color:#ffffff;stop-opacity:1"
         offset="1" />
    </linearGradient>
    <linearGradient
       inkscape:collect="always"
       id="linearGradient4154">
      <stop
         style="stop-color:#000000;stop-opacity:1;"
         offset="0"
         id="stop4156" />
      <stop
         style="stop-color:#000000;stop-opacity:0;"
         offset="1"
         id="stop4158" />
    </linearGradient>
    <linearGradient
       id="linearGradient4227"
       inkscape:collect="always">
      <stop
         id="stop4229"
         offset="0"
         style="stop-color:#f5f5f5;stop-opacity:1" />
      <stop
         id="stop4231"
         offset="1"
         style="stop-color:#f9f9f9;stop-opacity:1" />
    </linearGradient>
    <linearGradient
       gradientTransform="matrix(0.26437134,0,0,0.26378351,-102.28583,909.42683)"
       y2="511.798"
       x2="426.57144"
       y1="498.798"
       x1="396.57144"
       gradientUnits="userSpaceOnUse"
       id="linearGradient4225-6"
       xlink:href="#linearGradient4227"
       inkscape:collect="always" />
    <linearGradient
       inkscape:collect="always"
       xlink:href="#linearGradient1060"
       id="linearGradient4178-2-3"
       y1="548.88599"
       y2="495.30789"
       x2="397.2283"
       gradientUnits="userSpaceOnUse"
       gradientTransform="matrix(0.2756997,0,0,0.27560997,-106.8439,-134.32262)"
       x1="434.16153" />
    <linearGradient
       gradientUnits="userSpaceOnUse"
       y2="1051.3622"
       x2="8"
       y1="1037.3622"
       x1="5"
       id="linearGradient4160-6"
       xlink:href="#linearGradient4154"
       inkscape:collect="always" />
  </defs>
  <sodipodi:namedview
     id="base"
     pagecolor="#ffffff"
     bordercolor="#666666"
     borderopacity="1.0"
     inkscape:pageopacity="0.0"
     inkscape:pageshadow="2"
     inkscape:zoom="22.627417"
     inkscape:cx="1.7524411"
     inkscape:cy="6.0072364"
     inkscape:document-units="px"
     inkscape:current-layer="layer1"
     showgrid="true"
     units="px"
     inkscape:snap-bbox="true"
     inkscape:bbox-nodes="true"
     inkscape:object-nodes="true"
     inkscape:snap-global="true"
     inkscape:showpageshadow="false"
     showborder="false"
     inkscape:document-rotation="0"
     inkscape:snap-smooth-nodes="true"
     inkscape:window-width="1920"
     inkscape:window-height="1013"
     inkscape:window-x="0"
     inkscape:window-y="0"
     inkscape:window-maximized="1">
    <inkscape:grid
       type="xygrid"
       id="grid9302" />
  </sodipodi:namedview>
  <metadata
     id="metadata8699">
    <rdf:RDF>
      <cc:Work
         rdf:about="">
        <dc:format>image/svg+xml</dc:format>
        <dc:type
           rdf:resource="http://purl.org/dc/dcmitype/StillImage" />
        <dc:title />
      </cc:Work>
    </rdf:RDF>
  </metadata>
  <g
     inkscape:label="Livello 1"
     inkscape:groupmode="layer"
     id="layer1"
     transform="translate(0,-1036.3622)">
    <path
       class="ColorScheme-Highlight"
       sodipodi:nodetypes="sccssssssss"
       d="m 1,1037.3622 h 5 l 2,1 h 7 c 0.553951,0 1,0.446 1,1 v 12 c 0,0.554 -0.446,1 -1,1 H 1 c -0.554,0 -1,-0.446 -1,-1 v -13 c 0,-0.554 0.44603393,-0.9939 1,-1 z"
       style="opacity:1;fill:currentColor"
       id="rect907" />
    <path
       transform="translate(0,1036.3622)"
       d="M 0 6 L 0 7.0371094 L 0 15.011719 C 0 15.516819 0.50733537 15.998047 1.0058594 15.998047 L 14.996094 15.998047 C 15.500831 16.008047 16 15.5196 16 15 L 16 6 L 0 6 z "
       style="fill:url(#linearGradient4178-2-3);opacity:0.24"
       id="rect4113-9-6" />
    <path
       sodipodi:nodetypes="ssccssccscsssscssc"
       id="rect907-3"
       style="opacity:0.3;fill:#000000;fill-opacity:1;stroke-width:1.001"
       d="m 1,1037.3622 c -0.554,0 -1,0.446 -1,1 v 4 h 16 v -3 c 0,-0.554 -0.446049,-1 -1,-1 H 8 l -2,-1 z m -1,13 v 1 c 0,0.554 0.446,1 1,1 h 14 c 0.554,0 1,-0.446 1,-1 v -1 c 0,0.554 -0.446,1 -1,1 H 1 c -0.554,0 -1,-0.446 -1,-1 z" />
    <path
       id="rect4223-3"
       style="color:#000000;clip-rule:nonzero;display:inline;overflow:visible;visibility:visible;opacity:1;isolation:auto;mix-blend-mode:normal;color-interpolation:sRGB;color-interpolation-filters:linearRGB;solid-color:#000000;solid-opacity:1;fill:url(#linearGradient4225-6);fill-opacity:1;fill-rule:nonzero;stroke:none;stroke-width:1;stroke-linecap:butt;stroke-linejoin:miter;stroke-miterlimit:4;stroke-dasharray:none;stroke-dashoffset:0;stroke-opacity:1;marker:none;color-rendering:auto;image-rendering:auto;shape-rendering:auto;text-rendering:auto;enable-background:accumulate"
       d="m 0.917969,1040.3622 c -0.386229,0 -0.697266,0.3395 -0.697266,0.7617 v 1.2383 h 15.580078 v -1.2383 c 0,-0.4222 -0.311036,-0.7617 -0.697265,-0.7617 z" />
    <path
       sodipodi:nodetypes="cccsccccccc"
       id="path4224-5"
       style="opacity:0.3;fill:#ffffff;fill-opacity:1;fill-rule:evenodd;stroke-width:0.981998"
       d="m 6,1037.3622 1,2 h 9 c 0,-0.554 -0.446049,-1 -1,-1 H 8 Z m -6,5 v 1 l 16,-0.035 v -0.9648 z" />
    <path
       sodipodi:nodetypes="ccccc"
       inkscape:connector-curvature="0"
       id="path4152-7"
       d="m 0,1043.3622 9,9 h 7 v -9 z"
       style="opacity:0.181;fill:url(#linearGradient4160-6);fill-opacity:1;fill-rule:evenodd;stroke:none;stroke-width:1px;stroke-linecap:butt;stroke-linejoin:miter;stroke-opacity:1" />
  </g>
</svg>
