<?xml version="1.0" encoding="UTF-8" standalone="no"?>
<svg
   xmlns:dc="http://purl.org/dc/elements/1.1/"
   xmlns:cc="http://creativecommons.org/ns#"
   xmlns:rdf="http://www.w3.org/1999/02/22-rdf-syntax-ns#"
   xmlns:svg="http://www.w3.org/2000/svg"
   xmlns="http://www.w3.org/2000/svg"
   xmlns:sodipodi="http://sodipodi.sourceforge.net/DTD/sodipodi-0.dtd"
   xmlns:inkscape="http://www.inkscape.org/namespaces/inkscape"
   height="16"
   viewBox="0 0 16 16"
   width="16"
   version="1.1"
   id="svg34"
   sodipodi:docname="systemsettings.svg"
   inkscape:version="1.0 (1.0+r73+1)">
  <metadata
     id="metadata40">
    <rdf:RDF>
      <cc:Work
         rdf:about="">
        <dc:format>image/svg+xml</dc:format>
        <dc:type
           rdf:resource="http://purl.org/dc/dcmitype/StillImage" />
      </cc:Work>
    </rdf:RDF>
  </metadata>
  <defs
     id="defs38" />
  <style
     id="current-color-scheme"
     type="text/css">
      .ColorScheme-Highlight {
        color:#3daee9;
      }
      </style>
  <sodipodi:namedview
     inkscape:document-rotation="0"
     pagecolor="#ffffff"
     bordercolor="#666666"
     borderopacity="1"
     objecttolerance="10"
     gridtolerance="10"
     guidetolerance="10"
     inkscape:pageopacity="0"
     inkscape:pageshadow="2"
     inkscape:window-width="1920"
     inkscape:window-height="1013"
     id="namedview36"
     showgrid="false"
     inkscape:zoom="53"
     inkscape:cx="8"
     inkscape:cy="8"
     inkscape:window-x="0"
     inkscape:window-y="0"
     inkscape:window-maximized="1"
     inkscape:current-layer="svg34" />
  <linearGradient
     id="a"
     gradientUnits="userSpaceOnUse"
     x1="4"
     x2="16"
     y1="3.99999"
     y2="16">
    <stop
       offset="0"
       id="stop2" />
    <stop
       offset="1"
       stop-opacity="0"
       id="stop4" />
  </linearGradient>
  <linearGradient
     id="b"
     gradientUnits="userSpaceOnUse"
     x1="-1.14285"
     x2="8.57143"
     y1="-1.71429"
     y2="9.14285">
    <stop
       offset="0"
       stop-color="#fff"
       id="stop7" />
    <stop
       offset="1"
       stop-color="#fff"
       stop-opacity="0"
       id="stop9" />
  </linearGradient>
  <path
     d="m15 .0000002h-14c-.552284 0-1 .447715-1 1v13.9999998c0 .5523.447715 1 1 1h14c.5523 0 1-.4477 1-1v-13.9999998c0-.552285-.4477-1-1-1z"
     fill="#2d3033"
     id="path12" />
  <path
     d="m15 .0000002h-14c-.552285 0-1 .447715-1 1v13.9999998c0 .5523.447715 1 1 1h14c.5523 0 1-.4477 1-1v-13.9999998c0-.552285-.4477-1-1-1z"
     fill="url(#b)"
     opacity=".276"
     id="path14" />
  <path
     d="m12.5 4.5000002-1.0714 1.2142802-9.4285999-.21428 4.4999998 4.4999996-4.4999998.5 4.9999998 5.5h8.0000001c.5523 0 1-.4477 1-1v-6.9999999z"
     fill="url(#a)"
     opacity=".4"
     id="path16" />
  <path
     id="path18"
     d="M 2.5 5 C 2.22385 5 2 5.22386 2 5.5 C 2 5.77615 2.22385 6 2.5 6 L 11 6 L 11 5 L 2.5 5 z M 2.5 10 C 2.22386 10 2 10.2239 2 10.5 C 2 10.7762 2.22386 11 2.5 11 L 6 11 L 6 10 L 2.5 10 z "
     class="ColorScheme-Highlight"
     fill="currentColor" />
  <path
     d="M 2.5 5 C 2.22385 5 2 5.22386 2 5.5 C 2 5.77615 2.22385 6 2.5 6 L 11 6 L 11 5 L 2.5 5 z M 2.5 10 C 2.22386 10 2 10.2239 2 10.5 C 2 10.7762 2.22386 11 2.5 11 L 6 11 L 6 10 L 2.5 10 z "
     id="path866"
     style="fill:#ffffff;opacity:0.2" />
  <path
     d="m11.5 7.0000001c.8284 0 1.5-.6715697 1.5-1.4999997 0-.8284302-.6716-1.5000002-1.5-1.5000002s-1.5000001.67157-1.5000001 1.5000002c0 .82843.6716001 1.4999997 1.5000001 1.4999997z"
     fill="#fafafa"
     id="path20" />
  <path
     d="m11 5.0000704v.99985l2.5.00006c.2762 0 .5-.21632.5-.49244 0-.27613-.2238-.50748-.5-.50748z"
     fill="#fcfcfc"
     opacity=".2"
     id="path22" />
  <path
     d="m6.4999999 12c.82843 0 1.5-.6716 1.5-1.5 0-.8284299-.67157-1.4999999-1.5-1.4999999-.8284298 0-1.4999998.67157-1.4999998 1.4999999 0 .8284.67157 1.5 1.4999998 1.5z"
     fill="#fafafa"
     id="path26" />
  <path
     d="m6.0000001 10.0002v.9998h7.4999999c.2761 0 .5-.2238.5-.5 0-.2761-.2239-.5-.5-.5z"
     fill="#fcfcfc"
     opacity=".2"
     id="path28" />
  <path
     d="m1 16c-.554 0-1-.446-1-1v-1c0 .554.446 1 1 1h14c.554 0 1-.446 1-1v1c0 .554-.446 1-1 1z"
     opacity=".3"
     id="path30" />
  <path
     d="m1 .0000002c-.554 0-1 .44599-1 1v1c0-.55401.446-1 1-1h14c.554 0 1 .44599 1 1v-1c0-.55401-.446-1-1-1z"
     fill="#fff"
     opacity=".3"
     id="path32" />
</svg>
