<?xml version="1.0" encoding="UTF-8" standalone="no"?>
<svg
   xmlns:dc="http://purl.org/dc/elements/1.1/"
   xmlns:cc="http://creativecommons.org/ns#"
   xmlns:rdf="http://www.w3.org/1999/02/22-rdf-syntax-ns#"
   xmlns:svg="http://www.w3.org/2000/svg"
   xmlns="http://www.w3.org/2000/svg"
   xmlns:sodipodi="http://sodipodi.sourceforge.net/DTD/sodipodi-0.dtd"
   xmlns:inkscape="http://www.inkscape.org/namespaces/inkscape"
   inkscape:version="1.0 (1.0+r73+1)"
   sodipodi:docname="keepbelow.svg"
   style="enable-background:new"
   version="1.1"
   height="22"
   width="22"
   id="svg4306">
  <metadata
     id="metadata24">
    <rdf:RDF>
      <cc:Work
         rdf:about="">
        <dc:format>image/svg+xml</dc:format>
        <dc:type
           rdf:resource="http://purl.org/dc/dcmitype/StillImage" />
        <dc:title />
      </cc:Work>
    </rdf:RDF>
  </metadata>
  <defs
     id="defs22" />
  <sodipodi:namedview
     inkscape:current-layer="svg4306"
     inkscape:window-maximized="1"
     inkscape:window-y="0"
     inkscape:window-x="0"
     inkscape:cy="15.699186"
     inkscape:cx="46.035601"
     inkscape:zoom="6.830009"
     showgrid="true"
     id="namedview20"
     inkscape:window-height="1015"
     inkscape:window-width="1920"
     inkscape:pageshadow="2"
     inkscape:pageopacity="0"
     guidetolerance="10"
     gridtolerance="10"
     objecttolerance="10"
     borderopacity="1"
     bordercolor="#666666"
     pagecolor="#ffffff"
     inkscape:document-rotation="0"
     inkscape:snap-bbox="true"
     inkscape:bbox-nodes="true">
    <inkscape:grid
       id="grid849"
       type="xygrid" />
  </sodipodi:namedview>
  <style
     id="current-color-scheme"
     type="text/css">
        .ColorScheme-Text {
            color:#232629;
        }
        .ColorScheme-ButtonFocus{
            color:#3daee9;
        }
            .ColorScheme-NegativeText {
            color:#da4453;
        }
    </style>
  <g
     style="enable-background:new"
     id="active-center">
    <rect
       style="opacity:0.00100002;fill:#000000;fill-opacity:1;fill-rule:nonzero;stroke:none;stroke-width:2;stroke-linecap:round;stroke-linejoin:round;stroke-miterlimit:4;stroke-dasharray:none;stroke-opacity:1"
       y="0"
       x="0"
       height="22"
       width="22"
       id="rect4266" />
    <circle
       style="opacity:0.003;fill:#000000;fill-opacity:1;stroke-width:1.001;enable-background:new"
       id="path867-5-6-5"
       cx="11"
       cy="11"
       r="9" />
    <path
       class="ColorScheme-Text"
       sodipodi:nodetypes="ccccccc"
       d="M 16.656853,6.995146 15.949745,6.28804 10.999999,11.237785 6.05025,6.28804 5.3431422,6.995148 10.999999,12.652 Z"
       style="opacity:1;fill:#232627;fill-opacity:1"
       id="rect909-7-3-7-3-5-2-0" />
    <path
       id="path872"
       style="opacity:1;fill:#232627;fill-opacity:1"
       d="M 16.656853,10.995146 15.949745,10.28804 10.999999,15.237785 6.05025,10.28804 5.3431422,10.995148 10.999999,16.652 Z"
       sodipodi:nodetypes="ccccccc"
       class="ColorScheme-Text" />
  </g>
  <g
     id="inactive-center"
     style="enable-background:new"
     transform="translate(66)">
    <rect
       id="rect4266-62"
       width="22"
       height="22"
       x="0"
       y="0"
       style="opacity:0.00100002;fill:#000000;fill-opacity:1;fill-rule:nonzero;stroke:none;stroke-width:2;stroke-linecap:round;stroke-linejoin:round;stroke-miterlimit:4;stroke-dasharray:none;stroke-opacity:1" />
    <circle
       r="9"
       cy="11"
       cx="11"
       id="path867-5-6-5-9"
       style="opacity:0.003;fill:#000000;fill-opacity:1;stroke-width:1.001;enable-background:new" />
    <path
       id="rect909-7-3-7-3-5-2-0-1"
       style="opacity:1;fill:#898e92;fill-opacity:1"
       d="M 16.656853,6.995146 15.949745,6.28804 10.999999,11.237785 6.05025,6.28804 5.3431422,6.995148 10.999999,12.652 Z"
       sodipodi:nodetypes="ccccccc"
       class="ColorScheme-Text" />
    <path
       class="ColorScheme-Text"
       sodipodi:nodetypes="ccccccc"
       d="M 16.656853,10.995146 15.949745,10.28804 10.999999,15.237785 6.05025,10.28804 5.3431422,10.995148 10.999999,16.652 Z"
       style="opacity:1;fill:#898e92;fill-opacity:1"
       id="path872-2" />
  </g>
  <g
     transform="translate(88)"
     style="enable-background:new"
     id="deactivated-center">
    <rect
       style="opacity:0.00100002;fill:#000000;fill-opacity:1;fill-rule:nonzero;stroke:none;stroke-width:2;stroke-linecap:round;stroke-linejoin:round;stroke-miterlimit:4;stroke-dasharray:none;stroke-opacity:1"
       y="0"
       x="0"
       height="22"
       width="22"
       id="rect4266-62-8" />
    <circle
       style="opacity:0.003;fill:#000000;fill-opacity:1;stroke-width:1.001;enable-background:new"
       id="path867-5-6-5-9-7"
       cx="11"
       cy="11"
       r="9" />
    <path
       class="ColorScheme-Text"
       sodipodi:nodetypes="ccccccc"
       d="M 16.656853,6.995146 15.949745,6.28804 10.999999,11.237785 6.05025,6.28804 5.3431422,6.995148 10.999999,12.652 Z"
       style="opacity:0.3;fill:#232627;fill-opacity:1"
       id="rect909-7-3-7-3-5-2-0-1-9" />
    <path
       id="path872-2-2"
       style="opacity:0.3;fill:#232627;fill-opacity:1"
       d="M 16.656853,10.995146 15.949745,10.28804 10.999999,15.237785 6.05025,10.28804 5.3431422,10.995148 10.999999,16.652 Z"
       sodipodi:nodetypes="ccccccc"
       class="ColorScheme-Text" />
  </g>
  <g
     transform="translate(44)"
     style="enable-background:new"
     id="pressed-center">
    <rect
       style="opacity:0.00100002;fill:#000000;fill-opacity:1;fill-rule:nonzero;stroke:none;stroke-width:2;stroke-linecap:round;stroke-linejoin:round;stroke-miterlimit:4;stroke-dasharray:none;stroke-opacity:1"
       y="0"
       x="0"
       height="22"
       width="22"
       id="rect4266-6-2" />
    <path
       id="path867-5-6-5-7-3"
       style="opacity:1;fill:#232627;fill-opacity:1"
       d="m 55,2 a 9,9 0 0 0 -9,9 9,9 0 0 0 9,9 9,9 0 0 0 9,-9 9,9 0 0 0 -9,-9 z m 0,3.3476562 5.65625,5.6562498 -0.707031,0.708985 L 55,6.7617188 50.050781,11.712891 49.34375,11.003906 Z m 0,4 5.65625,5.6562498 -0.707031,0.708985 L 55,10.761719 50.050781,15.712891 49.34375,15.003906 Z"
       transform="rotate(180,33,11)"
       class="ColorScheme-Text" />
  </g>
  <g
     id="hover-center"
     style="enable-background:new"
     transform="translate(22)">
    <rect
       id="rect4266-6-2-6"
       width="22"
       height="22"
       x="0"
       y="0"
       style="opacity:0.00100002;fill:#000000;fill-opacity:1;fill-rule:nonzero;stroke:none;stroke-width:2;stroke-linecap:round;stroke-linejoin:round;stroke-miterlimit:4;stroke-dasharray:none;stroke-opacity:1" />
    <path
       class="ColorScheme-Text"
       transform="rotate(180,33,11)"
       d="m 55,2 a 9,9 0 0 0 -9,9 9,9 0 0 0 9,9 9,9 0 0 0 9,-9 9,9 0 0 0 -9,-9 z m 0,3.3476562 5.65625,5.6562498 -0.707031,0.708985 L 55,6.7617188 50.050781,11.712891 49.34375,11.003906 Z m 0,4 5.65625,5.6562498 -0.707031,0.708985 L 55,10.761719 50.050781,15.712891 49.34375,15.003906 Z"
       style="opacity:1;fill:#232627;fill-opacity:1"
       id="path867-5-6-5-7-3-7" />
  </g>
</svg>
