<?xml version="1.0" encoding="UTF-8" standalone="no"?>
<svg
   xmlns:dc="http://purl.org/dc/elements/1.1/"
   xmlns:cc="http://creativecommons.org/ns#"
   xmlns:rdf="http://www.w3.org/1999/02/22-rdf-syntax-ns#"
   xmlns:svg="http://www.w3.org/2000/svg"
   xmlns="http://www.w3.org/2000/svg"
   xmlns:sodipodi="http://sodipodi.sourceforge.net/DTD/sodipodi-0.dtd"
   xmlns:inkscape="http://www.inkscape.org/namespaces/inkscape"
   id="svg4306"
   width="22"
   height="22"
   version="1.1"
   style="enable-background:new"
   sodipodi:docname="shade.svg"
   inkscape:version="1.0 (1.0+r73+1)">
  <metadata
     id="metadata28">
    <rdf:RDF>
      <cc:Work
         rdf:about="">
        <dc:format>image/svg+xml</dc:format>
        <dc:type
           rdf:resource="http://purl.org/dc/dcmitype/StillImage" />
        <dc:title />
      </cc:Work>
    </rdf:RDF>
  </metadata>
  <defs
     id="defs26" />
  <sodipodi:namedview
     inkscape:document-rotation="0"
     pagecolor="#ffffff"
     bordercolor="#666666"
     borderopacity="1"
     objecttolerance="10"
     gridtolerance="10"
     guidetolerance="10"
     inkscape:pageopacity="0"
     inkscape:pageshadow="2"
     inkscape:window-width="1920"
     inkscape:window-height="1013"
     id="namedview24"
     showgrid="true"
     inkscape:zoom="9.6590906"
     inkscape:cx="47.052628"
     inkscape:cy="16.089091"
     inkscape:window-x="0"
     inkscape:window-y="0"
     inkscape:window-maximized="1"
     inkscape:current-layer="svg4306"
     inkscape:snap-bbox="true"
     inkscape:bbox-nodes="true">
    <inkscape:grid
       type="xygrid"
       id="grid853" />
  </sodipodi:namedview>
  <style
     type="text/css"
     id="current-color-scheme">
        .ColorScheme-Text {
            color:#232629;
        }
        .ColorScheme-ButtonFocus{
            color:#3daee9;
        }
            .ColorScheme-NegativeText {
            color:#da4453;
        }
    </style>
  <g
     id="pressed-center">
    <rect
       id="rect4266-06"
       width="22"
       height="22"
       x="-66"
       y="-22"
       style="opacity:0.00100002;fill:#000000;fill-opacity:1;fill-rule:nonzero;stroke:none;stroke-width:2;stroke-linecap:round;stroke-linejoin:round;stroke-miterlimit:4;stroke-dasharray:none;stroke-opacity:1"
       transform="scale(-1)" />
    <path
       class="ColorScheme-Text"
       d="M 54.990234 2 A 9 9 0 0 0 46 11 A 9 9 0 0 0 55 20 A 9 9 0 0 0 64 11 A 9 9 0 0 0 55 2 A 9 9 0 0 0 54.990234 2 z M 49.34375 7 L 60.65625 7 L 60.65625 8 L 49.34375 8 L 49.34375 7 z M 50.050781 9.3476562 L 55 14.298828 L 59.949219 9.3476562 L 60.65625 10.054688 L 55 15.712891 L 49.34375 10.054688 L 50.050781 9.3476562 z "
       style="opacity:1;fill:#232627;fill-opacity:1"
       id="path1045" />
  </g>
  <g
     transform="rotate(180,11,11)"
     style="enable-background:new"
     id="active-center">
    <rect
       style="opacity:0.00100002;fill:#000000;fill-opacity:1;fill-rule:nonzero;stroke:none;stroke-width:2;stroke-linecap:round;stroke-linejoin:round;stroke-miterlimit:4;stroke-dasharray:none;stroke-opacity:1"
       y="0"
       x="0"
       height="22"
       width="22"
       id="rect4266" />
    <circle
       style="opacity:0.003;fill:#000000;fill-opacity:1;stroke-width:1.001;enable-background:new"
       id="path867-5-6-5"
       cx="11"
       cy="11"
       r="9" />
    <path
       sodipodi:nodetypes="cccccccccccc"
       class="ColorScheme-Text"
       d="M 16.656,15 V 14 H 5.344 v 1 z M 11,12.652344 16.656,6.994141 15.949219,6.287109 11,11.238281 6.050781,6.287109 5.344,6.994141 Z"
       style="opacity:1;fill:#232627;fill-opacity:1"
       id="rect909-7-3-7-3-5-2-0" />
  </g>
  <g
     id="inactive-center"
     style="enable-background:new"
     transform="rotate(180,11,22)">
    <rect
       id="rect4266-9"
       width="22"
       height="22"
       x="0"
       y="0"
       style="opacity:0.00100002;fill:#000000;fill-opacity:1;fill-rule:nonzero;stroke:none;stroke-width:2;stroke-linecap:round;stroke-linejoin:round;stroke-miterlimit:4;stroke-dasharray:none;stroke-opacity:1" />
    <circle
       r="9"
       cy="11"
       cx="11"
       id="path867-5-6-5-1"
       style="opacity:0.003;fill:#000000;fill-opacity:1;stroke-width:1.001;enable-background:new" />
    <path
       id="rect909-7-3-7-3-5-2-0-2"
       style="opacity:1;fill:#898e92;fill-opacity:1"
       d="M 16.656,15 V 14 H 5.344 v 1 z M 11,12.652344 16.656,6.994141 15.949219,6.287109 11,11.238281 6.050781,6.287109 5.344,6.994141 Z"
       class="ColorScheme-Text"
       sodipodi:nodetypes="cccccccccccc" />
  </g>
  <g
     id="deactivated-center"
     style="enable-background:new"
     transform="rotate(180,44,11)">
    <rect
       id="rect4266-0"
       width="22"
       height="22"
       x="0"
       y="0"
       style="opacity:0.00100002;fill:#000000;fill-opacity:1;fill-rule:nonzero;stroke:none;stroke-width:2;stroke-linecap:round;stroke-linejoin:round;stroke-miterlimit:4;stroke-dasharray:none;stroke-opacity:1" />
    <circle
       r="9"
       cy="11"
       cx="11"
       id="path867-5-6-5-9"
       style="opacity:0.003;fill:#000000;fill-opacity:1;stroke-width:1.001;enable-background:new" />
    <path
       id="rect909-7-3-7-3-5-2-0-3"
       style="opacity:0.3;fill:#232627;fill-opacity:1"
       d="M 16.656,15 V 14 H 5.344 v 1 z M 11,12.652344 16.656,6.994141 15.949219,6.287109 11,11.238281 6.050781,6.287109 5.344,6.994141 Z"
       class="ColorScheme-Text"
       sodipodi:nodetypes="cccccccccccc" />
  </g>
  <g
     id="hover-center">
    <rect
       transform="scale(-1)"
       id="rect4266-6"
       width="22"
       height="22"
       x="-44"
       y="-22"
       style="opacity:0.00100002;fill:#000000;fill-opacity:1;fill-rule:nonzero;stroke:none;stroke-width:2;stroke-linecap:round;stroke-linejoin:round;stroke-miterlimit:4;stroke-dasharray:none;stroke-opacity:1" />
    <path
       d="M 32.990234 2 A 9 9 0 0 0 24 11 A 9 9 0 0 0 33 20 A 9 9 0 0 0 42 11 A 9 9 0 0 0 33 2 A 9 9 0 0 0 32.990234 2 z M 27.34375 7 L 38.65625 7 L 38.65625 8 L 27.34375 8 L 27.34375 7 z M 33 9.3476562 L 38.65625 15.005859 L 37.949219 15.712891 L 33 10.761719 L 28.050781 15.712891 L 27.34375 15.005859 L 33 9.3476562 z "
       style="opacity:1;fill:#232627;fill-opacity:1"
       id="path887"
       class="ColorScheme-Text" />
  </g>
  <g
     transform="translate(0,22)"
     style="enable-background:new"
     id="hover-inactive-center">
    <rect
       style="opacity:0.00100002;fill:#000000;fill-opacity:1;fill-rule:nonzero;stroke:none;stroke-width:2;stroke-linecap:round;stroke-linejoin:round;stroke-miterlimit:4;stroke-dasharray:none;stroke-opacity:1"
       y="-22"
       x="-44"
       height="22"
       width="22"
       id="rect4266-6-6"
       transform="scale(-1)" />
    <path
       class="ColorScheme-Text"
       id="path887-7"
       style="opacity:1;fill:#898e92;fill-opacity:1"
       d="M 32.990234,2 A 9,9 0 0 0 24,11 9,9 0 0 0 33,20 9,9 0 0 0 42,11 9,9 0 0 0 33,2 9,9 0 0 0 32.9902,2 Z M 27.34375,7 h 11.3125 V 8 H 27.34375 Z M 33,9.3476562 38.65625,15.005859 37.949219,15.712891 33,10.761719 28.050781,15.712891 27.34375,15.005859 Z" />
  </g>
  <g
     transform="translate(0,22)"
     style="enable-background:new"
     id="pressed-inactive-center">
    <rect
       transform="scale(-1)"
       style="opacity:0.00100002;fill:#000000;fill-opacity:1;fill-rule:nonzero;stroke:none;stroke-width:2;stroke-linecap:round;stroke-linejoin:round;stroke-miterlimit:4;stroke-dasharray:none;stroke-opacity:1"
       y="-22"
       x="-66"
       height="22"
       width="22"
       id="rect4266-06-3" />
    <path
       id="path1045-5"
       style="opacity:1;fill:#898e92;fill-opacity:1"
       d="M 54.990234,2 A 9,9 0 0 0 46,11 9,9 0 0 0 55,20 9,9 0 0 0 64,11 9,9 0 0 0 55,2 9,9 0 0 0 54.9902,2 Z M 49.34375,7 h 11.3125 V 8 H 49.34375 Z M 50.050781,9.3476562 55,14.298828 59.949219,9.3476562 60.65625,10.054688 55,15.712891 49.34375,10.054688 Z"
       class="ColorScheme-Text" />
  </g>
  <g
     transform="rotate(180,44,22)"
     style="enable-background:new"
     id="deactivated-inactive-center">
    <rect
       style="opacity:0.00100002;fill:#000000;fill-opacity:1;fill-rule:nonzero;stroke:none;stroke-width:2;stroke-linecap:round;stroke-linejoin:round;stroke-miterlimit:4;stroke-dasharray:none;stroke-opacity:1"
       y="0"
       x="0"
       height="22"
       width="22"
       id="rect4266-0-2" />
    <circle
       style="opacity:0.003;fill:#000000;fill-opacity:1;stroke-width:1.001;enable-background:new"
       id="path867-5-6-5-9-9"
       cx="11"
       cy="11"
       r="9" />
    <path
       sodipodi:nodetypes="cccccccccccc"
       class="ColorScheme-Text"
       d="M 16.656,15 V 14 H 5.344 v 1 z M 11,12.652344 16.656,6.994141 15.949219,6.287109 11,11.238281 6.050781,6.287109 5.344,6.994141 Z"
       style="opacity:0.3;fill:#898e92;fill-opacity:1"
       id="rect909-7-3-7-3-5-2-0-3-1" />
  </g>
</svg>
