<?xml version="1.0" encoding="UTF-8" standalone="no"?>
<svg
   xmlns:dc="http://purl.org/dc/elements/1.1/"
   xmlns:cc="http://creativecommons.org/ns#"
   xmlns:rdf="http://www.w3.org/1999/02/22-rdf-syntax-ns#"
   xmlns:svg="http://www.w3.org/2000/svg"
   xmlns="http://www.w3.org/2000/svg"
   xmlns:xlink="http://www.w3.org/1999/xlink"
   xmlns:sodipodi="http://sodipodi.sourceforge.net/DTD/sodipodi-0.dtd"
   xmlns:inkscape="http://www.inkscape.org/namespaces/inkscape"
   width="32"
   height="32"
   viewBox="0 0 32 32"
   version="1.1"
   id="svg850"
   inkscape:version="1.0 (1.0+r73+1)"
   sodipodi:docname="folder-important.svg">
  <defs
     id="defs844">
    <style
       type="text/css"
       id="current-color-scheme">
      .ColorScheme-Highlight {
        color:#3daee9;
      }
      </style>
    <linearGradient
       inkscape:collect="always"
       id="linearGradient867">
      <stop
         style="stop-color:#ffffff;stop-opacity:0.23999999"
         offset="0"
         id="stop863" />
      <stop
         style="stop-color:#ffffff;stop-opacity:0"
         offset="1"
         id="stop865" />
    </linearGradient>
    <linearGradient
       gradientUnits="userSpaceOnUse"
       y2="29"
       x2="32"
       y1="8"
       x1="32"
       id="linearGradient897"
       xlink:href="#linearGradient867"
       inkscape:collect="always" />
  </defs>
  <sodipodi:namedview
     id="namedview899"
     pagecolor="#ffffff"
     bordercolor="#666666"
     borderopacity="1.0"
     inkscape:pageopacity="0.0"
     inkscape:pageshadow="2"
     inkscape:zoom="32"
     inkscape:cx="18.108419"
     inkscape:cy="19.972866"
     inkscape:document-units="px"
     inkscape:current-layer="layer1"
     inkscape:document-rotation="0"
     showgrid="true"
     units="px"
     inkscape:window-width="1920"
     inkscape:window-height="1015"
     inkscape:window-x="0"
     inkscape:window-y="0"
     inkscape:window-maximized="1">
    <inkscape:grid
       type="xygrid"
       id="grid1413" />
  </sodipodi:namedview>
  <metadata
     id="metadata847">
    <rdf:RDF>
      <cc:Work
         rdf:about="">
        <dc:format>image/svg+xml</dc:format>
        <dc:type
           rdf:resource="http://purl.org/dc/dcmitype/StillImage" />
        <dc:title></dc:title>
      </cc:Work>
    </rdf:RDF>
  </metadata>
  <g
     inkscape:label="Layer 1"
     inkscape:groupmode="layer"
     id="layer1">
    <path
       sodipodi:nodetypes="ccccccccccc"
       d="m 2,3 h 12 l 2,2 h 14 v 3 h 1 V 28.99995 H 1.00001 L 1,10 h 1 z"
       style="opacity:1;fill:currentColor"
       id="base"
       class="ColorScheme-Highlight" />
    <path
       d="M 13 8 L 11 10 L 2 10 L 1 10 L 1 29 L 31 29 L 31 8 L 13 8 z M 16 13 C 16.55228 13 17 13.44772 17 14 C 17 14.55228 16.55228 20 16 20 C 15.44772 20 15 14.55228 15 14 C 15 13.44772 15.44772 13 16 13 z M 16 21 A 0.99999997 0.99998683 0 0 1 17 22 A 0.99999997 0.99998683 0 0 1 16 23 A 0.99999997 0.99998683 0 0 1 15 22 A 0.99999997 0.99998683 0 0 1 16 21 z "
       style="opacity:1;fill:url(#linearGradient897);fill-opacity:1"
       id="gradient" />
    <path
       d="M 14,3 H 2 v 7 h 9 L 13,8 H 30 V 5 H 16 Z"
       style="opacity:0.3;fill:#000000;fill-opacity:1;fill-rule:evenodd"
       id="back"
       sodipodi:nodetypes="ccccccccc" />
    <path
       id="highlight"
       style="fill:#ffffff;fill-opacity:1;fill-rule:evenodd;opacity:0.23"
       d="M 14 3 L 15 6 L 30 6 L 30 5 L 16 5 L 14 3 z M 13 8 L 11 10 L 1 10 L 1 11 L 12 11 L 13 8 z " />
    <path
       id="shadow"
       style="fill-opacity:1;fill-rule:evenodd;fill:#000000;opacity:0.23"
       d="M 13,8 11,9 H 2 v 1 h 9 z M 1,28 v 1 h 30 v -1 z"
       sodipodi:nodetypes="ccccccccccc" />
    <path
       style="fill:#000000;stroke-width:1;fill-opacity:1;opacity:0.3"
       id="path4184"
       d="m 16,13 c -0.55228,0 -1,0.44772 -1,1 0,0.55228 0.44772,6 1,6 0.55228,0 1,-5.44772 1,-6 0,-0.55228 -0.44772,-1 -1,-1 z m 0,8 a 0.99999997,0.99998683 0 0 0 -1,1 0.99999997,0.99998683 0 0 0 1,1 0.99999997,0.99998683 0 0 0 1,-1 0.99999997,0.99998683 0 0 0 -1,-1 z" />
  </g>
</svg>
