<?xml version="1.0" encoding="UTF-8" standalone="no"?>
<svg
   xmlns:dc="http://purl.org/dc/elements/1.1/"
   xmlns:cc="http://creativecommons.org/ns#"
   xmlns:rdf="http://www.w3.org/1999/02/22-rdf-syntax-ns#"
   xmlns:svg="http://www.w3.org/2000/svg"
   xmlns="http://www.w3.org/2000/svg"
   xmlns:sodipodi="http://sodipodi.sourceforge.net/DTD/sodipodi-0.dtd"
   xmlns:inkscape="http://www.inkscape.org/namespaces/inkscape"
   viewBox="0 0 22 22"
   version="1.1"
   id="svg5"
   sodipodi:docname="folder-locked.svg"
   inkscape:version="1.0 (1.0+r73+1)">
  <metadata
     id="metadata9">
    <rdf:RDF>
      <cc:Work
         rdf:about="">
        <dc:format>image/svg+xml</dc:format>
        <dc:type
           rdf:resource="http://purl.org/dc/dcmitype/StillImage" />
      </cc:Work>
    </rdf:RDF>
  </metadata>
  <sodipodi:namedview
     inkscape:document-rotation="0"
     pagecolor="#ffffff"
     bordercolor="#666666"
     borderopacity="1"
     objecttolerance="10"
     gridtolerance="10"
     guidetolerance="10"
     inkscape:pageopacity="0"
     inkscape:pageshadow="2"
     inkscape:window-width="1920"
     inkscape:window-height="1015"
     id="namedview7"
     showgrid="true"
     inkscape:zoom="54.64007"
     inkscape:cx="13.292014"
     inkscape:cy="11.444081"
     inkscape:window-x="0"
     inkscape:window-y="0"
     inkscape:window-maximized="1"
     inkscape:current-layer="svg5">
    <inkscape:grid
       id="grid831"
       type="xygrid" />
  </sodipodi:namedview>
  <defs
     id="defs3051">
    <style
       type="text/css"
       id="current-color-scheme">
      .ColorScheme-Text {
        color:#232629;
      }
      </style>
  </defs>
  <path
     class="ColorScheme-Text"
     d="M 10.939453 3 C 8.7539952 3.0330845 6.9997496 4.8142917 7 7 L 7 11 L 5 11 L 5 19 L 17 19 L 17 11 L 15 11 L 15 7 C 15 4.790861 13.209139 3 11 3 C 10.97982 2.9998473 10.959643 2.9998473 10.939453 3 z M 10.949219 4 C 10.966146 3.9998567 10.983073 3.9998567 11 4 C 12.656854 4 14 5.3431458 14 7 L 14 11 L 8 11 L 8 7 C 7.9997654 5.3627761 9.3122293 4.0277133 10.949219 4 z M 6 12 L 16 12 L 16 18 L 6 18 L 6 12 z "
     style="opacity:1;fill:currentColor;fill-opacity:1;stroke:none"
     id="rect4136" />
</svg>
