<?xml version="1.0" encoding="UTF-8" standalone="no"?>
<svg
   xmlns:dc="http://purl.org/dc/elements/1.1/"
   xmlns:cc="http://creativecommons.org/ns#"
   xmlns:rdf="http://www.w3.org/1999/02/22-rdf-syntax-ns#"
   xmlns:svg="http://www.w3.org/2000/svg"
   xmlns="http://www.w3.org/2000/svg"
   xmlns:sodipodi="http://sodipodi.sourceforge.net/DTD/sodipodi-0.dtd"
   xmlns:inkscape="http://www.inkscape.org/namespaces/inkscape"
   inkscape:version="1.0 (1.0+r73+1)"
   sodipodi:docname="folder-unlocked.svg"
   id="svg6"
   version="1.1"
   viewBox="0 0 22 22">
  <metadata
     id="metadata10">
    <rdf:RDF>
      <cc:Work
         rdf:about="">
        <dc:format>image/svg+xml</dc:format>
        <dc:type
           rdf:resource="http://purl.org/dc/dcmitype/StillImage" />
      </cc:Work>
    </rdf:RDF>
  </metadata>
  <sodipodi:namedview
     inkscape:current-layer="svg6"
     inkscape:window-maximized="1"
     inkscape:window-y="0"
     inkscape:window-x="0"
     inkscape:cy="9.7298715"
     inkscape:cx="13.151975"
     inkscape:zoom="32"
     showgrid="true"
     id="namedview8"
     inkscape:window-height="1015"
     inkscape:window-width="1920"
     inkscape:pageshadow="2"
     inkscape:pageopacity="0"
     guidetolerance="10"
     gridtolerance="10"
     objecttolerance="10"
     borderopacity="1"
     bordercolor="#666666"
     pagecolor="#ffffff">
    <inkscape:grid
       id="grid835"
       type="xygrid" />
  </sodipodi:namedview>
  <defs
     id="defs3051">
    <style
       id="current-color-scheme"
       type="text/css">
      .ColorScheme-Text {
        color:#232629;
      }
      </style>
  </defs>
  <path
     class="ColorScheme-Text"
     d="M 10.939453 3 A 4 4 0 0 0 7 7 L 8 7 A 3 3 0 0 1 10.949219 4 A 3 3 0 0 1 11 4 A 3 3 0 0 1 14 7 L 14 11 L 5 11 L 5 19 L 17 19 L 17 11 L 15 11 L 15 7 A 4 4 0 0 0 11 3 A 4 4 0 0 0 10.939453 3 z M 6 12 L 16 12 L 16 18 L 6 18 L 6 12 z "
     style="fill:currentColor;fill-opacity:1;stroke:none"
     id="path4" />
</svg>
