<?xml version="1.0" encoding="UTF-8" standalone="no"?>
<svg
   xmlns:dc="http://purl.org/dc/elements/1.1/"
   xmlns:cc="http://creativecommons.org/ns#"
   xmlns:rdf="http://www.w3.org/1999/02/22-rdf-syntax-ns#"
   xmlns:svg="http://www.w3.org/2000/svg"
   xmlns="http://www.w3.org/2000/svg"
   xmlns:xlink="http://www.w3.org/1999/xlink"
   xmlns:sodipodi="http://sodipodi.sourceforge.net/DTD/sodipodi-0.dtd"
   xmlns:inkscape="http://www.inkscape.org/namespaces/inkscape"
   sodipodi:docname="folder-development.svg"
   inkscape:version="1.0 (1.0+r73+1)"
   id="svg850"
   version="1.1"
   viewBox="0 0 64 64"
   height="64"
   width="64">
  <defs
     id="defs844">
    <style
       id="current-color-scheme"
       type="text/css">
      .ColorScheme-Highlight {
        color:#3daee9;
      }
      </style>
    <linearGradient
       inkscape:collect="always"
       xlink:href="#linearGradient867"
       id="linearGradient853"
       x1="62"
       y1="16"
       x2="62"
       y2="58"
       gradientUnits="userSpaceOnUse" />
    <linearGradient
       id="linearGradient867"
       inkscape:collect="always">
      <stop
         id="stop863"
         offset="0"
         style="stop-color:#ffffff;stop-opacity:0.23999999" />
      <stop
         id="stop865"
         offset="1"
         style="stop-color:#ffffff;stop-opacity:0" />
    </linearGradient>
  </defs>
  <sodipodi:namedview
     inkscape:window-maximized="1"
     inkscape:window-y="0"
     inkscape:window-x="0"
     inkscape:window-height="1015"
     inkscape:window-width="1920"
     units="px"
     showgrid="true"
     inkscape:document-rotation="0"
     inkscape:current-layer="layer1"
     inkscape:document-units="px"
     inkscape:cy="35.811712"
     inkscape:cx="32.731429"
     inkscape:zoom="15.839192"
     inkscape:pageshadow="2"
     inkscape:pageopacity="0.0"
     borderopacity="1.0"
     bordercolor="#666666"
     pagecolor="#ffffff"
     id="namedview1431">
    <inkscape:grid
       id="grid1413"
       type="xygrid" />
  </sodipodi:namedview>
  <metadata
     id="metadata847">
    <rdf:RDF>
      <cc:Work
         rdf:about="">
        <dc:format>image/svg+xml</dc:format>
        <dc:type
           rdf:resource="http://purl.org/dc/dcmitype/StillImage" />
        <dc:title></dc:title>
      </cc:Work>
    </rdf:RDF>
  </metadata>
  <g
     id="layer1"
     inkscape:groupmode="layer"
     inkscape:label="Layer 1">
    <path
       sodipodi:nodetypes="ccccccccccccc"
       id="base"
       style="fill:currentColor;fill-opacity:1"
       d="M 4,6 V 20 H 3 V 58 H 61 V 21.011719 21 16 H 60 V 10 H 32 L 28,6 Z"
       class="ColorScheme-Highlight" />
    <path
       d="M 26 16 L 22 20 L 3 20 L 3 58 L 61 58 L 61 16 L 26 16 z M 22 27 L 42 27 L 42 32 L 42 39.5 L 42 45.75 L 42 47 L 22 47 L 22 45.75 L 22 32 L 22 27 z M 23 32 L 23 46 C 28.916145 45.871391 35.081782 45.938727 41 46 L 41 32 L 23 32 z M 30 36 L 35 39 L 30 42 L 30 36 z "
       style="fill:url(#linearGradient853);fill-opacity:1;fill-rule:evenodd"
       id="gradient" />
    <path
       d="M 32,10 28,6 H 4 v 14 h 18 l 4,-4 h 34 v -6 z"
       style="fill-opacity:1;fill-rule:evenodd;fill:#000000;opacity:0.3"
       id="back"
       sodipodi:nodetypes="ccccccccc" />
    <path
       sodipodi:nodetypes="ccccccccccc"
       id="shadow"
       style="fill-opacity:1;fill-rule:evenodd;fill:#000000;opacity:0.23"
       d="m 26,16 -6,3 H 4 v 1 H 22 Z M 3,57 v 1 h 58 v -1 z" />
    <path
       sodipodi:nodetypes="cccccccccccc"
       d="m 28,6 3,5 H 60 V 10 H 32 Z m -2,10 -4,4 H 3 v 1 h 20 z"
       style="opacity:0.23;fill:#ffffff;fill-opacity:1;fill-rule:evenodd"
       id="highlight" />
    <g
       style="fill:#000000;fill-opacity:1;opacity:0.3"
       id="g3889"
       transform="matrix(0.90909091,0,0,0.90909091,-316.7013,-436.45273)">
      <path
         style="fill:#000000;fill-opacity:1"
         inkscape:connector-curvature="0"
         id="rect4138"
         d="m 372.57143,509.798 v 5.5 15.125 1.375 c 7.33333,0 14.66667,0 22,0 v -1.375 -6.875 -8.25 -5.5 z m 1.09998,5.5 h 19.8 c 0,5.5 0,9.9 0,15.4 -6.51004,-0.0674 -13.29224,-0.14147 -19.8,0 z" />
      <path
         style="fill:#000000;fill-opacity:1"
         inkscape:connector-curvature="0"
         id="rect4144"
         d="m 381.37141,519.698 v 6.6 l 5.5,-3.3 z" />
    </g>
    <g
       transform="matrix(0.90909091,0,0,0.90909091,-316.7013,-436.45273)"
       id="g1101"
       style="fill:#000000;fill-opacity:1;opacity:0.3" />
  </g>
</svg>
