<?xml version="1.0" encoding="UTF-8" standalone="no"?>
<svg
   xmlns:dc="http://purl.org/dc/elements/1.1/"
   xmlns:cc="http://creativecommons.org/ns#"
   xmlns:rdf="http://www.w3.org/1999/02/22-rdf-syntax-ns#"
   xmlns:svg="http://www.w3.org/2000/svg"
   xmlns="http://www.w3.org/2000/svg"
   xmlns:xlink="http://www.w3.org/1999/xlink"
   xmlns:sodipodi="http://sodipodi.sourceforge.net/DTD/sodipodi-0.dtd"
   xmlns:inkscape="http://www.inkscape.org/namespaces/inkscape"
   width="64"
   height="64"
   viewBox="0 0 64 64"
   version="1.1"
   id="svg850"
   inkscape:version="1.0 (1.0+r73+1)"
   sodipodi:docname="folder-html.svg">
  <defs
     id="defs844">
    <style
       type="text/css"
       id="current-color-scheme">
      .ColorScheme-Highlight {
        color:#3daee9;
      }
      </style>
    <linearGradient
       gradientUnits="userSpaceOnUse"
       y2="58"
       x2="62"
       y1="16"
       x1="62"
       id="linearGradient853"
       xlink:href="#linearGradient867"
       inkscape:collect="always" />
    <linearGradient
       inkscape:collect="always"
       id="linearGradient867">
      <stop
         style="stop-color:#ffffff;stop-opacity:0.23999999"
         offset="0"
         id="stop863" />
      <stop
         style="stop-color:#ffffff;stop-opacity:0"
         offset="1"
         id="stop865" />
    </linearGradient>
  </defs>
  <sodipodi:namedview
     id="namedview1431"
     pagecolor="#ffffff"
     bordercolor="#666666"
     borderopacity="1.0"
     inkscape:pageopacity="0.0"
     inkscape:pageshadow="2"
     inkscape:zoom="15.839192"
     inkscape:cx="34.782943"
     inkscape:cy="34.418034"
     inkscape:document-units="px"
     inkscape:current-layer="layer1"
     inkscape:document-rotation="0"
     showgrid="true"
     units="px"
     inkscape:window-width="1920"
     inkscape:window-height="1015"
     inkscape:window-x="0"
     inkscape:window-y="0"
     inkscape:window-maximized="1">
    <inkscape:grid
       type="xygrid"
       id="grid1413" />
  </sodipodi:namedview>
  <metadata
     id="metadata847">
    <rdf:RDF>
      <cc:Work
         rdf:about="">
        <dc:format>image/svg+xml</dc:format>
        <dc:type
           rdf:resource="http://purl.org/dc/dcmitype/StillImage" />
        <dc:title></dc:title>
      </cc:Work>
    </rdf:RDF>
  </metadata>
  <g
     inkscape:label="Layer 1"
     inkscape:groupmode="layer"
     id="layer1">
    <path
       class="ColorScheme-Highlight"
       d="M 4,6 V 20 H 3 V 58 H 61 V 21.011719 21 16 H 60 V 10 H 32 L 28,6 Z"
       style="fill:currentColor;fill-opacity:1"
       id="base"
       sodipodi:nodetypes="ccccccccccccc" />
    <path
       d="M 26 16 L 22 20 L 3 20 L 3 58 L 61 58 L 61 16 L 26 16 z M 32 27 C 32.34625 27 32.694263 27.028481 33.03125 27.0625 C 33.705225 27.130537 34.341729 27.243291 34.96875 27.4375 C 35.28188 27.534893 35.607154 27.654743 35.90625 27.78125 C 37.103437 28.285938 38.15875 29.03375 39.0625 29.9375 C 39.288706 30.163706 39.514956 30.378059 39.71875 30.625 C 40.532637 31.612012 41.174082 32.777207 41.5625 34.03125 C 41.756709 34.658271 41.869463 35.294775 41.9375 35.96875 C 41.97164 36.304921 42 36.654822 42 37 C 42 37.34625 41.971519 37.694263 41.9375 38.03125 C 41.869463 38.705225 41.756709 39.341729 41.5625 39.96875 C 40.785664 42.476836 39.048711 44.552539 36.78125 45.78125 C 36.214477 46.08914 35.595009 46.367713 34.96875 46.5625 C 34.341729 46.756709 33.705225 46.86946 33.03125 46.9375 C 32.694263 46.97152 32.34625 47 32 47 C 31.65375 47 31.305737 46.971519 30.96875 46.9375 C 30.294775 46.869463 29.658271 46.756709 29.03125 46.5625 C 25.896143 45.591455 23.408545 43.103857 22.4375 39.96875 C 22.243291 39.341729 22.13054 38.705225 22.0625 38.03125 C 22.02848 37.694263 22 37.34625 22 37 C 22 36.65375 22.028481 36.305737 22.0625 35.96875 C 22.130537 35.294775 22.243291 34.658271 22.4375 34.03125 C 23.408545 30.896143 25.896143 28.408545 29.03125 27.4375 C 29.658271 27.243291 30.294775 27.13054 30.96875 27.0625 C 31.305737 27.02848 31.65375 27 32 27 z M 32 28 C 31.135895 28 30.290994 28.116421 29.5 28.34375 C 29.4951 28.35081 29.5047 28.3683 29.5 28.375 C 29.47984 28.4035 29.46425 28.4206 29.46875 28.46875 C 29.47421 28.5523 29.55015 28.58475 29.59375 28.59375 C 29.66101 28.60655 29.77835 28.5934 29.84375 28.5625 C 29.96556 28.50616 30.02319 28.32195 30.125 28.34375 C 30.20496 28.36193 30.2998 28.62605 30.3125 28.71875 C 30.3252 28.81689 30.3075 28.87785 30.3125 28.96875 C 30.32341 29.12144 30.49925 29.1075 30.59375 29.1875 C 30.62095 29.21113 30.63265 29.2798 30.65625 29.3125 C 30.70172 29.37424 30.77225 29.372 30.78125 29.4375 C 30.79943 29.59563 30.64175 29.60677 30.65625 29.78125 C 30.62351 29.85033 30.52425 29.87785 30.53125 29.96875 C 30.54216 30.11229 30.7561 29.98106 30.8125 30.09375 C 30.8435 30.15374 30.80305 30.227 30.78125 30.3125 C 30.8522 30.39611 30.84238 30.5 30.71875 30.5 C 30.6424 30.5 30.6389 30.3932 30.5625 30.375 C 30.51886 30.366 30.46085 30.384 30.40625 30.375 C 30.36079 30.3678 30.2936 30.34875 30.25 30.34375 C 30.13728 30.33105 30.03605 30.378 29.96875 30.3125 C 30.07783 30.16892 30.20376 30.02984 30.34375 29.90625 C 30.38545 29.86808 30.4593 29.8245 30.4375 29.75 C 30.36114 29.68089 30.29145 29.73945 30.21875 29.78125 C 30.14057 29.82308 30.05605 29.89355 29.96875 29.90625 C 29.81785 29.92625 29.59237 29.88875 29.46875 29.96875 C 29.45057 30.036 29.61555 29.99015 29.59375 30.09375 C 29.53194 30.10275 29.45355 30.13555 29.40625 30.09375 C 29.36454 30.0555 29.4023 29.99235 29.375 29.96875 C 29.32773 29.93095 29.1407 29.89355 29.0625 29.90625 C 28.96615 29.92262 28.91895 30.01195 28.90625 30.09375 C 29.0226 30.14825 29.2082 30.01811 29.25 30.15625 C 29.1882 30.26894 29.01125 30.31608 29.03125 30.46875 C 29.03852 30.52691 29.10715 30.616 29.15625 30.625 C 29.20539 30.6341 29.23215 30.59175 29.28125 30.59375 C 29.33212 30.59735 29.34625 30.634 29.40625 30.625 C 29.49351 30.58864 29.525 30.493 29.625 30.5 C 29.74498 30.64722 29.53351 30.73585 29.40625 30.78125 C 29.2608 30.83399 29.0484 30.85895 28.9375 30.90625 C 28.87932 30.92985 28.68715 31.13415 28.65625 30.96875 C 28.63261 30.85059 28.75395 30.87935 28.78125 30.78125 C 28.63944 30.75398 28.50226 30.85715 28.375 30.90625 C 28.19138 30.97533 27.88735 30.98212 27.84375 31.1875 C 27.83675 31.22931 27.87105 31.3477 27.84375 31.375 C 27.82193 31.39675 27.6814 31.38625 27.625 31.40625 C 27.53774 31.43705 27.46085 31.4855 27.40625 31.5 C 27.3662 31.5109 27.30675 31.52225 27.28125 31.53125 C 27.2085 31.56034 27.2086 31.65325 27.125 31.71875 C 27.09224 31.74595 26.99605 31.75395 26.96875 31.78125 C 26.92147 31.8285 26.8961 31.95055 26.8125 31.96875 C 26.75983 31.97375 26.7366 31.93785 26.6875 31.96875 C 26.6825 32.08507 26.7366 32.22562 26.6875 32.34375 C 26.58023 32.43282 26.45066 32.51555 26.3125 32.59375 C 26.23614 32.63735 26.18645 32.642 26.09375 32.6875 C 26.0283 32.72022 25.9495 32.80015 25.875 32.84375 C 25.70047 32.94554 25.5 33.05259 25.5 33.3125 C 25.5 33.36884 25.52225 33.4346 25.53125 33.5 C 25.53625 33.53824 25.52925 33.5832 25.53125 33.625 C 25.54395 33.71952 25.61125 33.872 25.53125 33.9375 C 25.40944 33.88661 25.24175 33.8373 25.15625 33.75 C 25.13255 33.65912 25.1965 33.5818 25.1875 33.5 C 25.17841 33.43456 25.08575 33.3215 25.03125 33.3125 C 24.9767 33.3034 24.96445 33.377 24.90625 33.375 C 24.83717 33.36955 24.7123 33.259 24.625 33.25 C 24.49592 33.2355 24.42306 33.27 24.28125 33.25 C 24.14307 33.3227 24.13601 33.4502 23.96875 33.4375 C 23.90876 33.432 23.85035 33.3877 23.78125 33.375 C 23.518453 33.969954 23.316813 34.595726 23.1875 35.25 C 23.26386 35.2373 23.3702 35.2093 23.4375 35.1875 C 23.63567 35.12571 23.58491 34.87035 23.78125 34.78125 C 23.86852 34.74165 23.9741 34.72775 24.125 34.71875 C 24.174 34.75874 24.22575 34.84445 24.21875 34.90625 C 24.21325 34.95351 24.1486 34.997 24.125 35.0625 C 24.105 35.12067 24.11375 35.2027 24.09375 35.25 C 24.06649 35.3118 23.99055 35.34805 23.96875 35.40625 C 23.95605 35.44445 23.98145 35.4655 23.96875 35.5 C 23.94695 35.55999 23.8386 35.59445 23.875 35.65625 C 24.06953 35.73265 24.29785 35.62535 24.46875 35.65625 C 24.54147 35.66898 24.72075 35.76413 24.71875 35.875 C 24.71705 35.95861 24.634 36.0341 24.625 36.125 C 24.6141 36.2395 24.5675 36.37605 24.5625 36.46875 C 24.55523 36.61962 24.77751 36.877 24.9375 36.875 C 25.11021 36.8732 25.22843 36.7216 25.4375 36.8125 C 25.50659 36.84157 25.57985 36.9425 25.65625 36.9375 C 25.71988 36.93386 25.80195 36.8264 25.84375 36.75 C 25.89647 36.6573 25.9091 36.57855 26 36.53125 C 26.09817 36.48045 26.18705 36.4848 26.3125 36.4375 C 26.36885 36.4176 26.41785 36.37825 26.46875 36.34375 C 26.51241 36.3147 26.53925 36.258 26.59375 36.3125 C 26.66651 36.38516 26.5007 36.39055 26.5625 36.46875 C 26.68794 36.536 26.75285 36.34575 26.84375 36.34375 C 26.87284 36.34194 26.97855 36.43415 27.03125 36.46875 C 27.10211 36.51609 27.1093 36.6105 27.1875 36.625 C 27.23659 36.6359 27.33535 36.5535 27.40625 36.5625 C 27.49897 36.57522 27.5541 36.6895 27.625 36.6875 C 27.71045 36.68569 27.77105 36.577 27.84375 36.5625 C 28.00373 36.5316 28.0541 36.5875 28.125 36.6875 C 28.20317 36.7021 28.1773 36.61985 28.25 36.65625 C 28.21 36.73618 28.2798 36.747 28.3125 36.8125 C 28.3307 36.8542 28.32375 36.88805 28.34375 36.90625 C 28.38738 36.94795 28.4989 36.96 28.5625 37 C 28.62976 37.0418 28.64235 37.12965 28.71875 37.21875 C 28.79874 37.30961 28.92581 37.368 29.03125 37.375 C 29.13124 37.382 29.2289 37.366 29.3125 37.375 C 29.49976 37.39862 29.6191 37.49196 29.75 37.59375 C 29.82455 37.65008 29.88265 37.6827 29.90625 37.75 C 29.92445 37.79726 29.88805 37.8848 29.90625 37.9375 C 29.94625 38.052 30.15375 38.08495 30.09375 38.28125 C 30.12102 38.33761 30.15335 38.36625 30.21875 38.40625 C 30.27147 38.43895 30.3186 38.491 30.375 38.5 C 30.41133 38.505 30.49855 38.498 30.53125 38.5 C 30.63488 38.5073 30.69215 38.528 30.78125 38.5625 C 30.8376 38.5825 30.9011 38.5995 30.9375 38.625 C 30.9829 38.6559 30.97485 38.75395 31.03125 38.78125 C 31.06761 38.79945 31.1882 38.77425 31.25 38.78125 C 31.34817 38.79215 31.44395 38.873 31.53125 38.875 C 31.58399 38.877 31.60895 38.873 31.65625 38.875 C 31.87986 38.89317 32.03547 39.13875 32.25 39.21875 C 32.31727 39.2441 32.42325 39.23 32.46875 39.25 C 32.54871 39.28454 32.58675 39.51594 32.59375 39.625 C 32.61193 39.95579 32.36601 40.06314 32.21875 40.28125 C 32.18795 40.32668 32.1686 40.4364 32.125 40.5 C 32.03775 40.62904 31.95605 40.63872 31.96875 40.875 C 31.97055 40.94043 32 40.95855 32 41.03125 C 32 41.11849 31.98875 41.26555 31.96875 41.34375 C 31.95425 41.40373 31.9465 41.4455 31.9375 41.5 C 31.9285 41.55456 31.9445 41.60895 31.9375 41.65625 C 31.9302 41.70896 31.88375 41.77105 31.84375 41.84375 C 31.76011 42.00005 31.70215 42.1882 31.53125 42.25 C 31.42944 42.2863 31.29658 42.2743 31.1875 42.3125 C 31.14205 42.3288 31.08575 42.38075 31.03125 42.40625 C 30.87309 42.48077 30.63735 42.58642 30.59375 42.75 C 30.55375 42.8954 30.68355 43.0221 30.65625 43.1875 C 30.62725 43.23665 30.6061 43.2561 30.5625 43.3125 C 30.52427 43.36521 30.4793 43.41785 30.4375 43.46875 C 30.38295 43.536 30.2827 43.5948 30.25 43.6875 C 30.2391 43.7183 30.2627 43.73215 30.25 43.78125 C 30.2445 43.79935 30.2039 43.80925 30.1875 43.84375 C 30.173 43.8747 30.2002 43.9745 30.1875 44 C 30.14568 44.0836 29.99535 44.25575 29.90625 44.28125 C 29.71718 44.33399 29.53715 44.1621 29.40625 44.1875 C 29.42443 44.28026 29.48765 44.3114 29.53125 44.375 C 29.5548 44.41137 29.528 44.46 29.5625 44.5 C 29.6042 44.54724 29.65125 44.5723 29.65625 44.625 C 29.66716 44.73769 29.59125 44.8368 29.53125 44.875 C 29.47671 44.90955 29.37765 44.88985 29.28125 44.90625 C 29.21399 44.91715 29.00145 44.9564 28.96875 45 C 28.92325 45.06362 29.00335 45.1864 28.96875 45.25 C 28.89967 45.3827 28.7195 45.2725 28.625 45.3125 C 28.6285 45.31392 28.6215 45.34235 28.625 45.34375 C 29.66687 45.765291 30.807001 46 32 46 C 34.548632 46 36.862545 44.95242 38.5 43.25 C 38.418288 43.25908 38.35581 43.251 38.28125 43.21875 C 38.31579 43.09879 38.3757 43.05493 38.4375 42.875 C 38.4793 42.72414 38.54988 42.5102 38.40625 42.4375 C 38.4391 42.21031 38.4048 42.14406 38.4375 41.71875 C 38.45205 41.40249 38.27425 41.23341 38.28125 40.90625 C 38.27943 40.76994 38.37425 40.6403 38.46875 40.53125 C 38.66873 40.19318 38.7725 39.99286 38.8125 39.6875 C 38.7907 39.62387 38.8361 39.6134 38.8125 39.5625 C 38.71978 39.36074 38.66397 39.15267 38.53125 39 C 38.45853 38.91639 38.3725 38.85765 38.3125 38.78125 C 38.26336 38.71945 38.1875 38.6098 38.1875 38.5625 C 38.1857 38.50979 38.20425 38.45895 38.21875 38.40625 C 38.23685 38.339 38.25585 38.19917 38.28125 38.09375 C 38.29215 38.04468 38.35275 37.98445 38.34375 37.90625 C 38.33466 37.82992 38.2214 37.6486 38.125 37.625 C 37.99774 37.5941 37.87873 37.6395 37.71875 37.625 C 37.57876 37.53594 37.57498 37.31035 37.375 37.28125 C 37.11321 37.24308 36.83624 37.39055 36.65625 37.46875 C 36.55263 37.51415 36.43465 37.5575 36.34375 37.5625 C 36.25649 37.568 36.17735 37.509 36.09375 37.5 C 35.98467 37.4891 35.85726 37.5443 35.75 37.5625 C 35.64637 37.5806 35.56145 37.618 35.46875 37.625 C 35.29239 37.63773 35.14215 37.4623 35.03125 37.375 C 34.96398 37.32226 34.8761 37.2991 34.8125 37.25 C 34.74524 37.19733 34.64645 37.1759 34.59375 37.125 C 34.5229 37.05593 34.50695 36.9052 34.46875 36.8125 C 34.42331 36.70344 34.32238 36.63486 34.21875 36.53125 C 34.1424 36.45491 33.9575 36.31695 33.9375 36.21875 C 33.9266 36.16786 33.97275 36.117 33.96875 36.0625 C 33.96335 35.98257 33.873 35.9314 33.875 35.875 C 33.87682 35.79503 33.9782 35.7548 34 35.6875 C 34.0109 35.65297 33.9873 35.6061 34 35.5625 C 34.0254 35.4698 34.10645 35.41575 34.09375 35.28125 C 34.08835 35.22672 34.0645 35.1941 34.0625 35.125 C 34.0607 35.07773 34.09875 35.0436 34.09375 35 C 34.0883 34.92184 33.97775 34.9016 33.96875 34.8125 C 33.95784 34.71981 34.03555 34.63667 34.09375 34.53125 C 34.11915 34.48391 34.1639 34.44265 34.1875 34.40625 C 34.2384 34.32991 34.30375 34.2639 34.34375 34.1875 C 34.371 34.13116 34.3495 34.0418 34.375 34 C 34.40954 33.94547 34.4989 33.91465 34.5625 33.84375 C 34.61345 33.78551 34.6511 33.74415 34.6875 33.71875 C 34.73295 33.68605 34.79465 33.6468 34.84375 33.625 C 35.01282 33.54684 35.1057 33.44301 35.1875 33.28125 C 35.16383 33.13585 35.22125 33.10178 35.28125 33 C 35.33761 32.90548 35.37425 32.77325 35.46875 32.71875 C 35.58329 32.65331 35.7325 32.68245 35.8125 32.5625 C 35.8525 32.5007 35.875 32.3761 35.875 32.3125 C 35.875 32.22344 35.79875 32.10645 35.71875 32.09375 C 35.63512 32.07925 35.51605 32.18285 35.46875 32.09375 C 35.45415 32.06472 35.47575 32.00145 35.46875 31.96875 C 35.45785 31.90876 35.377 31.82485 35.375 31.78125 C 35.36954 31.69582 35.4746 31.62935 35.5 31.53125 C 35.5346 31.39675 35.509 31.31074 35.5 31.15625 C 35.62727 30.95452 35.90571 31.0443 36.1875 31.0625 C 36.22935 31.0665 36.267 31.0625 36.3125 31.0625 C 36.47975 31.06614 36.6311 31.0829 36.6875 30.9375 C 36.7093 30.88298 36.702 30.70715 36.6875 30.65625 C 36.67296 30.59445 36.58765 30.4114 36.53125 30.375 C 36.44035 30.31867 36.26965 30.3536 36.21875 30.25 C 36.26056 30.0701 36.47376 30.2311 36.59375 30.1875 C 36.65545 30.16569 36.6329 30.0789 36.6875 30.0625 C 36.72568 30.0498 36.8223 30.09375 36.875 30.09375 C 36.91864 30.09375 37.0207 29.99785 37.0625 29.96875 C 37.12073 29.93059 37.1366 29.87825 37.1875 29.84375 C 37.22205 29.82195 37.30555 29.79765 37.34375 29.78125 C 37.278709 29.732991 37.22262 29.67153 37.15625 29.625 C 37.12356 29.68125 37.04925 29.70347 37.0625 29.78125 C 36.93705 29.8793 36.76612 29.8495 36.5625 29.875 C 36.46978 29.8877 36.37945 29.9514 36.28125 29.875 C 36.2594 29.81503 36.33475 29.8082 36.34375 29.75 C 36.33655 29.6955 36.29765 29.70175 36.28125 29.65625 C 36.30845 29.58537 36.35075 29.60542 36.34375 29.5 C 36.39465 29.44544 36.51675 29.4495 36.53125 29.375 C 36.54215 29.32405 36.4902 29.2791 36.4375 29.25 C 36.4067 29.2337 36.37645 29.2057 36.34375 29.1875 C 36.29924 29.16296 36.30659 29.12728 36.28125 29.09375 C 36.24842 29.07591 36.22058 29.04869 36.1875 29.03125 C 34.935817 28.371409 33.513307 28 32 28 z M 28.28125 28.8125 C 27.878877 28.995578 27.493045 29.19953 27.125 29.4375 C 27.11291 29.482727 27.0625 29.54162 27.0625 29.59375 C 27.0625 29.65736 27.1827 29.745 27.25 29.75 C 27.34271 29.75728 27.4618 29.68645 27.5 29.59375 C 27.5454 29.48287 27.51015 29.33 27.59375 29.25 C 27.935719 29.258803 28.19253 29.096611 28.28125 28.8125 z M 35.9375 29.125 C 36.05022 29.1141 36.1805 29.1827 36.1875 29.25 C 36.1966 29.31724 36.11925 29.2986 36.09375 29.375 C 36.0701 29.44407 36.0934 29.54465 36.0625 29.59375 C 36.03523 29.6334 35.9884 29.6105 35.9375 29.625 C 35.82297 29.65785 35.5927 29.80711 35.5 29.65625 C 35.5146 29.5744 35.56645 29.5673 35.59375 29.5 C 35.59565 29.44912 35.52225 29.4314 35.53125 29.375 C 35.54216 29.3078 35.64425 29.30855 35.71875 29.28125 C 35.77149 29.26126 35.77465 29.19805 35.84375 29.15625 C 35.87325 29.13895 35.904 29.131 35.9375 29.125 z M 26.03125 30.28125 C 25.931643 30.369794 25.81432 30.43842 25.71875 30.53125 C 25.7309 30.53969 25.73646 30.5606 25.75 30.5625 C 25.79363 30.5716 26.01305 30.54025 26.03125 30.53125 C 26.153711 30.478596 26.09791 30.36171 26.03125 30.28125 z M 26.28125 30.59375 C 26.20849 30.58835 26.1523 30.653 26.125 30.6875 C 26.1213 30.74205 26.15825 30.7579 26.15625 30.8125 C 26.06712 30.87612 26.13145 31.0535 26.21875 31.0625 C 26.31147 31.06977 26.34512 30.8343 26.46875 30.8125 C 26.51232 30.8034 26.53375 30.882 26.59375 30.875 C 26.66651 30.81865 26.6389 30.67625 26.5625 30.65625 C 26.53336 30.64715 26.45535 30.6915 26.40625 30.6875 C 26.35531 30.6839 26.32485 30.59575 26.28125 30.59375 z M 25.875 30.65625 C 25.79865 30.65255 25.6686 30.6566 25.625 30.6875 C 25.5851 30.71658 25.57305 30.8241 25.53125 30.875 C 25.48948 30.92595 25.44265 30.9545 25.40625 31 C 25.37355 31.0418 25.16887 31.31285 25.3125 31.34375 C 25.37431 31.35646 25.51855 31.20535 25.53125 31.15625 C 25.57307 30.98903 25.65217 30.8907 25.78125 30.8125 C 25.85572 30.76706 25.89355 30.75255 25.90625 30.65625 C 25.89715 30.64535 25.9005 30.65625 25.875 30.65625 z M 38.1875 30.90625 C 38.12926 30.90985 38.07855 30.9745 38.03125 31 C 37.98761 31.0218 37.94985 31.06465 37.90625 31.09375 C 37.85353 31.1286 37.7991 31.123 37.75 31.125 C 37.63547 31.1305 37.5357 31.07195 37.4375 31.09375 C 37.4048 31.10095 37.415 31.11985 37.375 31.15625 C 37.373 31.20899 37.382 31.22305 37.375 31.28125 C 37.34591 31.33205 37.21985 31.3405 37.15625 31.375 C 37.06171 31.42407 37.0139 31.51735 36.9375 31.59375 C 36.88842 31.64282 36.8195 31.68055 36.8125 31.71875 C 36.807 31.74778 36.85075 31.80375 36.84375 31.84375 C 36.83466 31.88738 36.742 31.9618 36.6875 32 C 36.6548 32.0218 36.62835 32.0425 36.59375 32.0625 C 36.521 32.10427 36.4975 32.1748 36.4375 32.1875 C 36.27752 32.21654 35.96675 32.14347 35.96875 32.3125 C 35.97057 32.42334 36.12605 32.4425 36.21875 32.4375 C 36.34783 32.4325 36.4291 32.4557 36.5 32.4375 C 36.54909 32.4248 36.6366 32.36735 36.6875 32.34375 C 36.7203 32.32925 36.75585 32.3252 36.78125 32.3125 C 36.8358 32.2853 36.86445 32.23875 36.90625 32.21875 C 36.98988 32.18065 37.1609 32.13 37.25 32.125 C 37.37363 32.116 37.46683 32.1377 37.625 32.125 C 37.68136 32.1214 37.72125 32.09875 37.78125 32.09375 C 37.88124 32.08465 38.045 32.127 38.125 32.125 C 38.18136 32.125 38.247 32.09375 38.3125 32.09375 C 38.38702 32.09555 38.45605 32.1402 38.46875 32.1875 C 38.47775 32.21296 38.46175 32.2725 38.46875 32.3125 C 38.47785 32.37793 38.53525 32.3939 38.53125 32.4375 C 38.52762 32.49385 38.355 32.58895 38.375 32.65625 C 38.38773 32.69809 38.5134 32.75035 38.5625 32.78125 C 38.6134 32.81215 38.71945 32.8055 38.78125 32.8125 C 38.83211 32.8195 38.85715 32.8075 38.90625 32.8125 C 38.98443 32.8215 39.10715 32.87165 39.15625 32.90625 C 39.24171 32.96623 39.2125 33.0905 39.3125 33.125 C 39.35613 33.1395 39.4455 33.1123 39.5 33.125 C 39.63271 33.15404 39.74745 33.2627 39.84375 33.25 C 39.99645 33.23183 39.9193 33.10178 39.9375 33 C 39.94525 32.95316 39.96172 32.92996 40 32.90625 C 39.811319 32.538592 39.610639 32.179878 39.375 31.84375 C 39.34565 31.9149 39.31298 31.979 39.25 31.96875 C 39.2409 31.91422 39.28325 31.8707 39.28125 31.8125 C 39.27852 31.75434 39.22602 31.65785 39.15625 31.59375 C 39.086475 31.52965 38.99658 31.4951 38.9375 31.46875 C 38.88114 31.44335 38.83215 31.4023 38.78125 31.375 C 38.69215 31.32592 38.52325 31.22715 38.46875 31.15625 C 38.4033 31.069 38.33112 30.89725 38.1875 30.90625 z M 26.71875 31 C 26.69469 31.00384 26.65875 31.0085 26.65625 31.03125 C 26.75079 31.07495 27.0334 31.11996 27.0625 31 C 27.04432 30.9818 26.983 31 26.9375 31 C 26.89205 31 26.8543 30.998 26.8125 31 C 26.78338 31.0027 26.74281 30.9962 26.71875 31 z M 26.375 31.21875 C 26.28228 31.22055 26.1425 31.241 26.0625 31.25 C 26.00066 31.259 25.9229 31.24925 25.9375 31.34375 C 25.95023 31.42005 26.0559 31.3968 26.125 31.375 C 26.27045 31.32956 26.38515 31.28965 26.46875 31.21875 C 26.43605 31.20605 26.4059 31.21875 26.375 31.21875 z M 38.21875 31.21875 C 38.23685 31.21175 38.2264 31.19335 38.25 31.21875 C 38.261 31.2951 38.26055 31.3496 38.21875 31.375 C 38.12965 31.35865 38.15875 31.23875 38.21875 31.21875 z M 38.1875 31.46875 C 38.27476 31.44512 38.3471 31.52972 38.3125 31.71875 C 38.28342 31.79505 38.15195 31.86269 38.09375 31.75 C 38.11375 31.66094 38.09575 31.60178 38.09375 31.5 C 38.12455 31.46715 38.1584 31.47775 38.1875 31.46875 z M 38.96875 31.96875 L 39 31.96875 C 39.07999 31.97275 39.122 31.96875 39.1875 31.96875 C 39.1621 32.03782 39.1795 32.1475 39.125 32.1875 C 38.9741 32.16023 38.84855 32.14031 38.78125 32.03125 C 38.82852 31.99345 38.88875 31.96475 38.96875 31.96875 z M 23.09375 35.8125 C 23.04119 36.205995 23 36.592124 23 37 C 23 40.18145 24.664537 42.961964 27.15625 44.5625 C 27.16325 44.52073 27.15125 44.483 27.15625 44.4375 C 27.16355 44.37934 27.1805 44.3027 27.1875 44.25 C 27.1984 44.15003 27.17445 43.9586 27.15625 43.875 C 27.13443 43.76958 27.0127 43.67701 27 43.5625 C 26.9945 43.5207 27.0665 43.45895 27.0625 43.40625 C 27.0589 43.35719 27.005 43.33765 27 43.28125 C 26.996 43.22854 26.995 43.15555 27 43.09375 C 27.009 42.97925 26.998 42.86269 27 42.75 C 27.002 42.71727 27 42.6577 27 42.625 C 27 42.53048 26.97375 42.4695 26.96875 42.375 C 26.96175 42.20232 26.99605 42.0662 26.96875 41.90625 C 26.94695 41.78448 26.9186 41.60765 26.875 41.53125 C 26.82592 41.44583 26.62765 41.33585 26.53125 41.28125 C 26.46763 41.24485 26.41285 41.2221 26.34375 41.1875 C 26.19649 41.1148 25.8779 40.95973 25.8125 40.8125 C 25.7943 40.76889 25.8325 40.6723 25.8125 40.625 C 25.7725 40.53049 25.65375 40.4641 25.59375 40.375 C 25.48105 40.20233 25.42703 39.9888 25.3125 39.8125 C 25.25432 39.72162 25.1886 39.6334 25.125 39.5625 C 25.08682 39.52069 24.98325 39.46985 24.96875 39.40625 C 24.94885 39.32082 24.866 39.1886 24.875 39.125 C 24.88773 39.03776 25.0625 39.0175 25.0625 38.9375 C 25.0625 38.87026 24.98695 38.8064 24.96875 38.75 C 24.92327 38.61004 25.0079 38.52257 25.0625 38.40625 C 25.0788 38.36809 25.07555 38.30855 25.09375 38.28125 C 25.12652 38.23221 25.17515 38.21075 25.21875 38.15625 C 25.24415 38.12721 25.2798 38.07485 25.3125 38.03125 C 25.38159 37.94037 25.50215 37.8961 25.53125 37.8125 C 25.55485 37.74525 25.55855 37.42519 25.53125 37.3125 C 25.51495 37.24707 25.4611 37.1868 25.4375 37.125 C 25.39568 37.01414 25.36271 36.873 25.25 36.875 C 25.17904 36.875 25.13925 36.9509 25.09375 37 C 25.08285 37.06543 25.0673 37.1675 25 37.1875 C 24.89637 37.21839 24.86999 37.0364 24.75 37 C 24.70266 36.9855 24.6559 37.0127 24.625 37 C 24.53774 36.96001 24.49895 36.83215 24.40625 36.78125 C 24.32988 36.73949 24.2348 36.71985 24.1875 36.65625 C 24.1693 36.61263 24.1925 36.5582 24.1875 36.5 C 24.0875 36.44183 24.02261 36.2384 23.90625 36.1875 C 23.8299 36.153 23.69015 36.1577 23.59375 36.125 C 23.54832 36.1105 23.51605 36.0715 23.46875 36.0625 C 23.41057 36.0498 23.358 36.05485 23.3125 36.03125 C 23.226645 35.988767 23.15761 35.89387 23.09375 35.8125 z M 26.53125 36.71875 C 26.46585 36.7497 26.46395 36.85275 26.53125 36.84375 C 26.60215 36.83284 26.61855 36.67875 26.53125 36.71875 z "
       style="fill:url(#linearGradient853);fill-opacity:1;fill-rule:evenodd"
       id="gradient" />
    <path
       sodipodi:nodetypes="ccccccccc"
       id="back"
       style="fill-opacity:1;fill-rule:evenodd;fill:#000000;opacity:0.3"
       d="M 32,10 28,6 H 4 v 14 h 18 l 4,-4 h 34 v -6 z" />
    <path
       d="m 26,16 -6,3 H 4 v 1 H 22 Z M 3,57 v 1 h 58 v -1 z"
       style="fill-opacity:1;fill-rule:evenodd;fill:#000000;opacity:0.23"
       id="shadow"
       sodipodi:nodetypes="ccccccccccc" />
    <path
       id="highlight"
       style="opacity:0.23;fill:#ffffff;fill-opacity:1;fill-rule:evenodd"
       d="m 28,6 3,5 H 60 V 10 H 32 Z m -2,10 -4,4 H 3 v 1 h 20 z"
       sodipodi:nodetypes="cccccccccccc" />
    <g
       style="fill:#000000;fill-opacity:1;opacity:0.3"
       id="g1101"
       transform="matrix(0.90909091,0,0,0.90909091,-316.7013,-436.45273)" />
    <path
       style="color:#000000;fill:#000000;fill-opacity:1;opacity:0.3"
       id="path26"
       d="m 32,27 c -0.34625,0 -0.694263,0.02848 -1.03125,0.0625 -0.673975,0.06804 -1.310479,0.180791 -1.9375,0.375 -3.135107,0.971045 -5.622705,3.458643 -6.59375,6.59375 -0.194209,0.627021 -0.306963,1.263525 -0.375,1.9375 C 22.028481,36.305737 22,36.65375 22,37 c 0,0.34625 0.02848,0.694263 0.0625,1.03125 0.06804,0.673975 0.180791,1.310479 0.375,1.9375 0.971045,3.135107 3.458643,5.622705 6.59375,6.59375 0.627021,0.194209 1.263525,0.306963 1.9375,0.375 C 31.305737,46.971519 31.65375,47 32,47 c 0.34625,0 0.694263,-0.02848 1.03125,-0.0625 0.673975,-0.06804 1.310479,-0.180791 1.9375,-0.375 0.626259,-0.194787 1.245727,-0.47336 1.8125,-0.78125 2.267461,-1.228711 4.004414,-3.304414 4.78125,-5.8125 0.194209,-0.627021 0.306963,-1.263525 0.375,-1.9375 C 41.971519,37.694263 42,37.34625 42,37 42,36.654822 41.97164,36.304921 41.9375,35.96875 41.869463,35.294775 41.756709,34.658271 41.5625,34.03125 41.174082,32.777207 40.532637,31.612012 39.71875,30.625 39.514956,30.378059 39.288706,30.163706 39.0625,29.9375 38.15875,29.03375 37.103437,28.285938 35.90625,27.78125 35.607154,27.654743 35.28188,27.534893 34.96875,27.4375 34.341729,27.243291 33.705225,27.130537 33.03125,27.0625 32.694263,27.028481 32.34625,27 32,27 Z m 0,1 c 1.513307,0 2.935817,0.371409 4.1875,1.03125 0.03308,0.01744 0.06092,0.04466 0.09375,0.0625 0.02534,0.03353 0.01799,0.06921 0.0625,0.09375 0.0327,0.0182 0.06295,0.0462 0.09375,0.0625 0.0527,0.0291 0.10465,0.07405 0.09375,0.125 -0.0145,0.0745 -0.1366,0.07044 -0.1875,0.125 0.007,0.10542 -0.0353,0.08537 -0.0625,0.15625 0.0164,0.0455 0.0553,0.03925 0.0625,0.09375 -0.009,0.0582 -0.08435,0.06503 -0.0625,0.125 0.0982,0.0764 0.18853,0.0127 0.28125,0 0.20362,-0.0255 0.37455,0.0043 0.5,-0.09375 -0.01325,-0.07778 0.06106,-0.1 0.09375,-0.15625 0.06637,0.04653 0.122459,0.107991 0.1875,0.15625 -0.0382,0.0164 -0.1217,0.0407 -0.15625,0.0625 -0.0509,0.0345 -0.06677,0.08684 -0.125,0.125 -0.0418,0.0291 -0.14386,0.125 -0.1875,0.125 -0.0527,0 -0.14932,-0.04395 -0.1875,-0.03125 -0.0546,0.0164 -0.03205,0.10319 -0.09375,0.125 -0.11999,0.0436 -0.33319,-0.1174 -0.375,0.0625 0.0509,0.1036 0.2216,0.06867 0.3125,0.125 0.0564,0.0364 0.14171,0.21945 0.15625,0.28125 0.0145,0.0509 0.0218,0.22673 0,0.28125 -0.0564,0.1454 -0.20775,0.12864 -0.375,0.125 -0.0455,0 -0.08315,0.004 -0.125,0 -0.28179,-0.0182 -0.56023,-0.10798 -0.6875,0.09375 0.009,0.15449 0.0346,0.2405 0,0.375 -0.0254,0.0981 -0.13046,0.16457 -0.125,0.25 0.002,0.0436 0.08285,0.12751 0.09375,0.1875 0.007,0.0327 -0.0146,0.09597 0,0.125 0.0473,0.0891 0.16637,-0.0145 0.25,0 0.08,0.0127 0.15625,0.12969 0.15625,0.21875 0,0.0636 -0.0225,0.1882 -0.0625,0.25 -0.08,0.11995 -0.22921,0.09081 -0.34375,0.15625 -0.0945,0.0545 -0.13114,0.18673 -0.1875,0.28125 -0.06,0.10178 -0.11742,0.13585 -0.09375,0.28125 -0.0818,0.16176 -0.17468,0.26559 -0.34375,0.34375 -0.0491,0.0218 -0.1108,0.06105 -0.15625,0.09375 -0.0364,0.0254 -0.07405,0.06676 -0.125,0.125 -0.0636,0.0709 -0.15296,0.10172 -0.1875,0.15625 -0.0255,0.0418 -0.004,0.13116 -0.03125,0.1875 -0.04,0.0764 -0.10535,0.14241 -0.15625,0.21875 -0.0236,0.0364 -0.06835,0.07766 -0.09375,0.125 -0.0582,0.10542 -0.13591,0.18856 -0.125,0.28125 0.009,0.0891 0.11955,0.10934 0.125,0.1875 0.005,0.0436 -0.03305,0.07773 -0.03125,0.125 0.002,0.0691 0.02585,0.10172 0.03125,0.15625 0.0127,0.1345 -0.06835,0.18855 -0.09375,0.28125 -0.0127,0.0436 0.0109,0.09047 0,0.125 -0.0218,0.0673 -0.12318,0.10753 -0.125,0.1875 -0.002,0.0564 0.08835,0.10757 0.09375,0.1875 0.004,0.0545 -0.04215,0.10536 -0.03125,0.15625 0.02,0.0982 0.2049,0.23616 0.28125,0.3125 0.10363,0.10361 0.20456,0.17219 0.25,0.28125 0.0382,0.0927 0.05415,0.24343 0.125,0.3125 0.0527,0.0509 0.15149,0.07233 0.21875,0.125 0.0636,0.0491 0.15148,0.07226 0.21875,0.125 0.1109,0.0873 0.26114,0.26273 0.4375,0.25 0.0927,-0.007 0.17762,-0.0444 0.28125,-0.0625 0.10726,-0.0182 0.23467,-0.0734 0.34375,-0.0625 0.0836,0.009 0.16274,0.068 0.25,0.0625 0.0909,-0.005 0.20888,-0.04835 0.3125,-0.09375 0.17999,-0.0782 0.45696,-0.22567 0.71875,-0.1875 0.19998,0.0291 0.20376,0.25469 0.34375,0.34375 0.15998,0.0145 0.27899,-0.0309 0.40625,0 0.0964,0.0236 0.20966,0.20492 0.21875,0.28125 0.009,0.0782 -0.0516,0.13843 -0.0625,0.1875 -0.0254,0.10542 -0.0444,0.24525 -0.0625,0.3125 -0.0145,0.0527 -0.03305,0.10354 -0.03125,0.15625 0,0.0473 0.07586,0.15695 0.125,0.21875 0.06,0.0764 0.14603,0.13514 0.21875,0.21875 0.13272,0.15267 0.18853,0.36074 0.28125,0.5625 0.0236,0.0509 -0.0218,0.06137 0,0.125 -0.04,0.30536 -0.14377,0.50568 -0.34375,0.84375 -0.0945,0.10905 -0.18932,0.23869 -0.1875,0.375 -0.007,0.32716 0.1708,0.49624 0.15625,0.8125 -0.0327,0.42531 0.0016,0.49156 -0.03125,0.71875 0.14363,0.0727 0.07305,0.28664 0.03125,0.4375 -0.0618,0.17993 -0.12171,0.22379 -0.15625,0.34375 C 38.35581,43.251 38.418288,43.25908 38.5,43.25 36.862545,44.95242 34.548632,46 32,46 c -1.192999,0 -2.33313,-0.234709 -3.375,-0.65625 -0.0035,-0.0014 0.0035,-0.02983 0,-0.03125 0.0945,-0.04 0.27467,0.0702 0.34375,-0.0625 0.0346,-0.0636 -0.0455,-0.18638 0,-0.25 0.0327,-0.0436 0.24524,-0.08285 0.3125,-0.09375 0.0964,-0.0164 0.19546,0.0033 0.25,-0.03125 0.06,-0.0382 0.13591,-0.13731 0.125,-0.25 -0.005,-0.0527 -0.05205,-0.07776 -0.09375,-0.125 -0.0345,-0.04 -0.0077,-0.08863 -0.03125,-0.125 -0.0436,-0.0636 -0.10682,-0.09474 -0.125,-0.1875 0.1309,-0.0254 0.31093,0.14649 0.5,0.09375 0.0891,-0.0255 0.23943,-0.19765 0.28125,-0.28125 0.0127,-0.0255 -0.0145,-0.1253 0,-0.15625 0.0164,-0.0345 0.057,-0.0444 0.0625,-0.0625 0.0127,-0.0491 -0.0109,-0.06295 0,-0.09375 0.0327,-0.0927 0.13295,-0.1515 0.1875,-0.21875 0.0418,-0.0509 0.08677,-0.10354 0.125,-0.15625 0.0436,-0.0564 0.06475,-0.07585 0.09375,-0.125 0.0273,-0.1654 -0.1025,-0.2921 -0.0625,-0.4375 0.0436,-0.16358 0.27934,-0.26923 0.4375,-0.34375 0.0545,-0.0255 0.1108,-0.07745 0.15625,-0.09375 0.10908,-0.0382 0.24194,-0.0262 0.34375,-0.0625 0.1709,-0.0618 0.22886,-0.24995 0.3125,-0.40625 0.04,-0.0727 0.08645,-0.13479 0.09375,-0.1875 0.007,-0.0473 -0.009,-0.10169 0,-0.15625 0.009,-0.0545 0.01675,-0.09627 0.03125,-0.15625 0.02,-0.0782 0.03125,-0.22526 0.03125,-0.3125 0,-0.0727 -0.02945,-0.09082 -0.03125,-0.15625 -0.0127,-0.23628 0.069,-0.24596 0.15625,-0.375 0.0436,-0.0636 0.06295,-0.17332 0.09375,-0.21875 0.14726,-0.21811 0.39318,-0.32546 0.375,-0.65625 -0.007,-0.10906 -0.04504,-0.34046 -0.125,-0.375 -0.0455,-0.02 -0.15148,-0.0059 -0.21875,-0.03125 -0.21453,-0.08 -0.37014,-0.32558 -0.59375,-0.34375 -0.0473,-0.002 -0.07226,0.002 -0.125,0 -0.0873,-0.002 -0.18308,-0.08285 -0.28125,-0.09375 -0.0618,-0.007 -0.18239,0.0182 -0.21875,0 -0.0564,-0.0273 -0.04835,-0.12535 -0.09375,-0.15625 -0.0364,-0.0255 -0.0999,-0.0425 -0.15625,-0.0625 -0.0891,-0.0345 -0.14637,-0.0552 -0.25,-0.0625 -0.0327,-0.002 -0.11992,0.005 -0.15625,0 -0.0564,-0.009 -0.10353,-0.06105 -0.15625,-0.09375 -0.0654,-0.04 -0.09773,-0.06864 -0.125,-0.125 0.06,-0.1963 -0.1475,-0.22925 -0.1875,-0.34375 -0.0182,-0.0527 0.0182,-0.14024 0,-0.1875 -0.0236,-0.0673 -0.0817,-0.09992 -0.15625,-0.15625 -0.1309,-0.10179 -0.25024,-0.19513 -0.4375,-0.21875 -0.0836,-0.009 -0.18126,0.007 -0.28125,0 -0.10544,-0.007 -0.23251,-0.06539 -0.3125,-0.15625 C 28.64235,37.12965 28.62976,37.0418 28.5625,37 28.4989,36.96 28.38738,36.94795 28.34375,36.90625 28.32375,36.88805 28.3307,36.8542 28.3125,36.8125 28.2798,36.747 28.21,36.73618 28.25,36.65625 c -0.0727,-0.0364 -0.04683,0.04585 -0.125,0.03125 -0.0709,-0.1 -0.12127,-0.1559 -0.28125,-0.125 -0.0727,0.0145 -0.1333,0.12319 -0.21875,0.125 -0.0709,0.002 -0.12603,-0.11228 -0.21875,-0.125 -0.0709,-0.009 -0.16966,0.0734 -0.21875,0.0625 -0.0782,-0.0145 -0.08539,-0.10891 -0.15625,-0.15625 -0.0527,-0.0346 -0.15841,-0.12681 -0.1875,-0.125 -0.0909,0.002 -0.15581,0.19225 -0.28125,0.125 -0.0618,-0.0782 0.10401,-0.08359 0.03125,-0.15625 -0.0545,-0.0545 -0.08134,0.0022 -0.125,0.03125 -0.0509,0.0345 -0.0999,0.07385 -0.15625,0.09375 -0.12545,0.0473 -0.21433,0.04295 -0.3125,0.09375 -0.0909,0.0473 -0.10353,0.12605 -0.15625,0.21875 -0.0418,0.0764 -0.12387,0.18386 -0.1875,0.1875 -0.0764,0.005 -0.14966,-0.09593 -0.21875,-0.125 -0.20907,-0.0909 -0.32729,0.0607 -0.5,0.0625 -0.15999,0.002 -0.38227,-0.25538 -0.375,-0.40625 0.005,-0.0927 0.0516,-0.22925 0.0625,-0.34375 0.009,-0.0909 0.09205,-0.16639 0.09375,-0.25 0.002,-0.11087 -0.17728,-0.20602 -0.25,-0.21875 -0.1709,-0.0309 -0.39922,0.0764 -0.59375,0 -0.0364,-0.0618 0.07195,-0.09626 0.09375,-0.15625 0.0127,-0.0345 -0.0127,-0.05555 0,-0.09375 0.0218,-0.0582 0.09774,-0.09445 0.125,-0.15625 0.02,-0.0473 0.01125,-0.12933 0.03125,-0.1875 0.0236,-0.0655 0.08825,-0.10899 0.09375,-0.15625 0.007,-0.0618 -0.04475,-0.14751 -0.09375,-0.1875 -0.1509,0.009 -0.25648,0.0229 -0.34375,0.0625 -0.19634,0.0891 -0.14558,0.34446 -0.34375,0.40625 -0.0673,0.0218 -0.17364,0.0498 -0.25,0.0625 0.129313,-0.654274 0.330953,-1.280046 0.59375,-1.875 0.0691,0.0127 0.12751,0.057 0.1875,0.0625 0.16726,0.0127 0.17432,-0.1148 0.3125,-0.1875 0.14181,0.02 0.21467,-0.0145 0.34375,0 0.0873,0.009 0.21217,0.11955 0.28125,0.125 0.0582,0.002 0.07045,-0.0716 0.125,-0.0625 0.0545,0.009 0.14716,0.12206 0.15625,0.1875 0.009,0.0818 -0.05495,0.15912 -0.03125,0.25 0.0855,0.0873 0.25319,0.13661 0.375,0.1875 0.08,-0.0655 0.0127,-0.21798 0,-0.3125 -0.002,-0.0418 0.005,-0.08676 0,-0.125 C 25.52225,33.4346 25.5,33.36884 25.5,33.3125 c 0,-0.25991 0.20047,-0.36696 0.375,-0.46875 0.0745,-0.0436 0.1533,-0.12353 0.21875,-0.15625 0.0927,-0.0455 0.14239,-0.05015 0.21875,-0.09375 0.13816,-0.0782 0.26773,-0.16093 0.375,-0.25 0.0491,-0.11813 -0.005,-0.25868 0,-0.375 0.0491,-0.0309 0.07233,0.005 0.125,0 0.0836,-0.0182 0.10897,-0.14025 0.15625,-0.1875 0.0273,-0.0273 0.12349,-0.0353 0.15625,-0.0625 0.0836,-0.0655 0.0835,-0.15841 0.15625,-0.1875 0.0255,-0.009 0.08495,-0.02035 0.125,-0.03125 0.0546,-0.0145 0.13149,-0.06295 0.21875,-0.09375 0.0564,-0.02 0.19693,-0.0095 0.21875,-0.03125 0.0273,-0.0273 -0.007,-0.14569 0,-0.1875 0.0436,-0.20538 0.34763,-0.21217 0.53125,-0.28125 0.12726,-0.0491 0.26444,-0.15227 0.40625,-0.125 -0.0273,0.0981 -0.14864,0.06934 -0.125,0.1875 0.0309,0.1654 0.22307,-0.0389 0.28125,-0.0625 0.1109,-0.0473 0.3233,-0.07226 0.46875,-0.125 0.12726,-0.0454 0.33873,-0.13403 0.21875,-0.28125 -0.1,-0.007 -0.13149,0.08864 -0.21875,0.125 -0.06,0.009 -0.07413,-0.02765 -0.125,-0.03125 -0.0491,-0.002 -0.07586,0.04035 -0.125,0.03125 -0.0491,-0.009 -0.11773,-0.09809 -0.125,-0.15625 -0.02,-0.15267 0.15695,-0.19981 0.21875,-0.3125 -0.0418,-0.13814 -0.2274,-0.008 -0.34375,-0.0625 0.0127,-0.0818 0.0599,-0.17113 0.15625,-0.1875 0.0782,-0.0127 0.26523,0.0247 0.3125,0.0625 0.0273,0.0236 -0.01046,0.08675 0.03125,0.125 0.0473,0.0418 0.12569,0.009 0.1875,0 0.0218,-0.1036 -0.14318,-0.05775 -0.125,-0.125 0.12362,-0.08 0.3491,-0.0425 0.5,-0.0625 0.0873,-0.0127 0.17182,-0.08317 0.25,-0.125 0.0727,-0.0418 0.14239,-0.10036 0.21875,-0.03125 0.0218,0.0745 -0.05205,0.11808 -0.09375,0.15625 -0.13999,0.12359 -0.26592,0.26267 -0.375,0.40625 0.0673,0.0655 0.16853,0.01855 0.28125,0.03125 0.0436,0.005 0.11079,0.02405 0.15625,0.03125 0.0546,0.009 0.11261,-0.009 0.15625,0 0.0764,0.0182 0.0799,0.125 0.15625,0.125 0.12363,0 0.13345,-0.10389 0.0625,-0.1875 0.0218,-0.0855 0.06225,-0.15876 0.03125,-0.21875 -0.0564,-0.11269 -0.27034,0.01854 -0.28125,-0.125 -0.007,-0.0909 0.09226,-0.11842 0.125,-0.1875 -0.0145,-0.17448 0.14318,-0.18562 0.125,-0.34375 -0.009,-0.0655 -0.07953,-0.06326 -0.125,-0.125 -0.0236,-0.0327 -0.0353,-0.10137 -0.0625,-0.125 -0.0945,-0.08 -0.27034,-0.06606 -0.28125,-0.21875 -0.005,-0.0909 0.0127,-0.15186 0,-0.25 -0.0127,-0.0927 -0.10754,-0.35682 -0.1875,-0.375 -0.10181,-0.0218 -0.15944,0.16241 -0.28125,0.21875 -0.0654,0.0309 -0.18274,0.04405 -0.25,0.03125 -0.0436,-0.009 -0.11954,-0.04145 -0.125,-0.125 C 29.46425,28.4206 29.47984,28.4035 29.5,28.375 29.5047,28.3683 29.4951,28.35081 29.5,28.34375 30.290994,28.116421 31.135895,28 32,28 Z m -3.71875,0.8125 c -0.08872,0.284111 -0.345531,0.446303 -0.6875,0.4375 -0.0836,0.08 -0.04835,0.23287 -0.09375,0.34375 -0.0382,0.0927 -0.15729,0.16353 -0.25,0.15625 -0.0673,-0.005 -0.1875,-0.09264 -0.1875,-0.15625 0,-0.05213 0.05041,-0.111023 0.0625,-0.15625 0.368045,-0.23797 0.753877,-0.441922 1.15625,-0.625 z m 7.65625,0.3125 c -0.0335,0.006 -0.06425,0.01395 -0.09375,0.03125 -0.0691,0.0418 -0.07226,0.10501 -0.125,0.125 -0.0745,0.0273 -0.17659,0.02655 -0.1875,0.09375 -0.009,0.0564 0.0644,0.07412 0.0625,0.125 -0.0273,0.0673 -0.07915,0.0744 -0.09375,0.15625 0.0927,0.15086 0.32297,0.0016 0.4375,-0.03125 0.0509,-0.0145 0.09773,0.0084 0.125,-0.03125 0.0309,-0.0491 0.0076,-0.14968 0.03125,-0.21875 0.0255,-0.0764 0.10285,-0.05776 0.09375,-0.125 -0.007,-0.0673 -0.13728,-0.1359 -0.25,-0.125 z m -9.90625,1.15625 c 0.06666,0.08046 0.122461,0.197346 0,0.25 -0.0182,0.009 -0.23762,0.04035 -0.28125,0.03125 -0.01354,-0.0019 -0.0191,-0.02281 -0.03125,-0.03125 0.09557,-0.09283 0.212893,-0.161456 0.3125,-0.25 z m 0.25,0.3125 c 0.0436,0.002 0.07406,0.09015 0.125,0.09375 0.0491,0.004 0.12711,-0.04035 0.15625,-0.03125 0.0764,0.02 0.10401,0.1624 0.03125,0.21875 -0.06,0.007 -0.08143,-0.0716 -0.125,-0.0625 -0.12363,0.0218 -0.15728,0.25727 -0.25,0.25 -0.0873,-0.009 -0.15163,-0.18638 -0.0625,-0.25 0.002,-0.0546 -0.03495,-0.07045 -0.03125,-0.125 0.0273,-0.0345 0.08349,-0.09915 0.15625,-0.09375 z m -0.40625,0.0625 c 0.0255,0 0.02215,-0.0109 0.03125,0 -0.0127,0.0963 -0.05053,0.11081 -0.125,0.15625 -0.12908,0.0782 -0.20818,0.17653 -0.25,0.34375 -0.0127,0.0491 -0.15694,0.20021 -0.21875,0.1875 -0.14363,-0.0309 0.06105,-0.30195 0.09375,-0.34375 0.0364,-0.0455 0.08323,-0.07405 0.125,-0.125 0.0418,-0.0509 0.05385,-0.15842 0.09375,-0.1875 0.0436,-0.0309 0.17365,-0.03495 0.25,-0.03125 z m 12.3125,0.25 c 0.14362,-0.009 0.2158,0.16275 0.28125,0.25 0.0545,0.0709 0.2234,0.16967 0.3125,0.21875 0.0509,0.0273 0.09989,0.06835 0.15625,0.09375 0.05908,0.02635 0.148975,0.0609 0.21875,0.125 0.06977,0.0641 0.12227,0.16059 0.125,0.21875 0.002,0.0582 -0.04035,0.10172 -0.03125,0.15625 0.06298,0.01025 0.09565,-0.05385 0.125,-0.125 0.235639,0.336128 0.436319,0.694842 0.625,1.0625 -0.03828,0.02371 -0.05475,0.04691 -0.0625,0.09375 -0.0182,0.10178 0.05895,0.23183 -0.09375,0.25 -0.0963,0.0127 -0.21104,-0.09596 -0.34375,-0.125 -0.0545,-0.0127 -0.14387,0.0145 -0.1875,0 -0.1,-0.0345 -0.07079,-0.15877 -0.15625,-0.21875 -0.0491,-0.0346 -0.17182,-0.08475 -0.25,-0.09375 -0.0491,-0.005 -0.07414,0.007 -0.125,0 -0.0618,-0.007 -0.16785,-3.5e-4 -0.21875,-0.03125 -0.0491,-0.0309 -0.17477,-0.08316 -0.1875,-0.125 -0.02,-0.0673 0.15262,-0.1624 0.15625,-0.21875 0.004,-0.0436 -0.0534,-0.05957 -0.0625,-0.125 -0.007,-0.04 0.009,-0.09954 0,-0.125 -0.0127,-0.0473 -0.08173,-0.09195 -0.15625,-0.09375 -0.0655,0 -0.13114,0.03125 -0.1875,0.03125 -0.08,0.002 -0.24376,-0.04035 -0.34375,-0.03125 -0.06,0.005 -0.09989,0.02765 -0.15625,0.03125 -0.15817,0.0127 -0.25137,-0.009 -0.375,0 -0.0891,0.005 -0.26012,0.05565 -0.34375,0.09375 -0.0418,0.02 -0.07045,0.06655 -0.125,0.09375 -0.0254,0.0127 -0.06095,0.01675 -0.09375,0.03125 -0.0509,0.0236 -0.13841,0.08105 -0.1875,0.09375 -0.0709,0.0182 -0.15217,-0.005 -0.28125,0 -0.0927,0.005 -0.24818,-0.01416 -0.25,-0.125 -0.002,-0.16903 0.30877,-0.09596 0.46875,-0.125 0.06,-0.0127 0.0835,-0.08323 0.15625,-0.125 0.0346,-0.02 0.06105,-0.0407 0.09375,-0.0625 0.0545,-0.0382 0.14716,-0.11262 0.15625,-0.15625 0.007,-0.04 -0.03675,-0.09597 -0.03125,-0.125 0.007,-0.0382 0.07592,-0.07593 0.125,-0.125 0.0764,-0.0764 0.12421,-0.16968 0.21875,-0.21875 0.0636,-0.0345 0.18966,-0.04295 0.21875,-0.09375 0.007,-0.0582 -0.002,-0.07226 0,-0.125 0.04,-0.0364 0.0298,-0.0553 0.0625,-0.0625 0.0982,-0.0218 0.19797,0.03675 0.3125,0.03125 0.0491,-0.002 0.10353,0.0036 0.15625,-0.03125 0.0436,-0.0291 0.08136,-0.07195 0.125,-0.09375 0.0473,-0.0255 0.09801,-0.09015 0.15625,-0.09375 z M 26.71875,31 c 0.02406,-0.0038 0.06463,0.0027 0.09375,0 0.0418,-0.002 0.07955,0 0.125,0 0.0455,0 0.10682,-0.0182 0.125,0 -0.0291,0.11996 -0.31171,0.07495 -0.40625,0.03125 C 26.65875,31.0085 26.69469,31.00384 26.71875,31 Z M 26.375,31.21875 c 0.0309,0 0.06105,-0.0127 0.09375,0 -0.0836,0.0709 -0.1983,0.11081 -0.34375,0.15625 -0.0691,0.0218 -0.17477,0.04505 -0.1875,-0.03125 -0.0146,-0.0945 0.06316,-0.08475 0.125,-0.09375 0.08,-0.009 0.21978,-0.02945 0.3125,-0.03125 z m 11.84375,0 c -0.06,0.02 -0.0891,0.1399 0,0.15625 0.0418,-0.0254 0.04225,-0.0799 0.03125,-0.15625 -0.0236,-0.0254 -0.01315,-0.007 -0.03125,0 z m -0.03125,0.25 c -0.0291,0.009 -0.06295,-0.0016 -0.09375,0.03125 0.002,0.10178 0.02,0.16094 0,0.25 0.0582,0.11269 0.18967,0.04505 0.21875,-0.03125 0.0346,-0.18903 -0.03774,-0.27363 -0.125,-0.25 z m 0.78125,0.5 c -0.08,-0.004 -0.14023,0.0247 -0.1875,0.0625 0.0673,0.10906 0.19285,0.12898 0.34375,0.15625 0.0545,-0.04 0.0371,-0.14968 0.0625,-0.21875 -0.0655,0 -0.10751,0.004 -0.1875,0 z m -15.875,3.84375 c 0.06386,0.08137 0.132895,0.176267 0.21875,0.21875 0.0455,0.0236 0.09807,0.01855 0.15625,0.03125 0.0473,0.009 0.07957,0.048 0.125,0.0625 0.0964,0.0327 0.23615,0.028 0.3125,0.0625 0.11636,0.0509 0.18125,0.25433 0.28125,0.3125 0.005,0.0582 -0.0182,0.11263 0,0.15625 0.0473,0.0636 0.14238,0.08324 0.21875,0.125 0.0927,0.0509 0.13149,0.17876 0.21875,0.21875 0.0309,0.0127 0.07766,-0.0145 0.125,0 0.11999,0.0364 0.14637,0.21839 0.25,0.1875 0.0673,-0.02 0.08285,-0.12207 0.09375,-0.1875 0.0455,-0.0491 0.08529,-0.125 0.15625,-0.125 0.11271,-0.002 0.14568,0.13914 0.1875,0.25 0.0236,0.0618 0.07745,0.12207 0.09375,0.1875 0.0273,0.11269 0.0236,0.43275 0,0.5 -0.0291,0.0836 -0.14966,0.12787 -0.21875,0.21875 -0.0327,0.0436 -0.06835,0.09596 -0.09375,0.125 -0.0436,0.0545 -0.09223,0.07596 -0.125,0.125 -0.0182,0.0273 -0.01495,0.08684 -0.03125,0.125 -0.0546,0.11632 -0.13923,0.20379 -0.09375,0.34375 0.0182,0.0564 0.09375,0.12026 0.09375,0.1875 0,0.08 -0.17477,0.10026 -0.1875,0.1875 -0.009,0.0636 0.07385,0.19582 0.09375,0.28125 0.0145,0.0636 0.11807,0.11444 0.15625,0.15625 0.0636,0.0709 0.12932,0.15912 0.1875,0.25 0.11453,0.1763 0.16855,0.38983 0.28125,0.5625 0.06,0.0891 0.17875,0.15549 0.21875,0.25 0.02,0.0473 -0.0182,0.14389 0,0.1875 0.0654,0.14723 0.38399,0.3023 0.53125,0.375 0.0691,0.0346 0.12388,0.05735 0.1875,0.09375 0.0964,0.0546 0.29467,0.16458 0.34375,0.25 0.0436,0.0764 0.07195,0.25323 0.09375,0.375 0.0273,0.15995 -0.007,0.29607 0,0.46875 0.005,0.0945 0.03125,0.15548 0.03125,0.25 0,0.0327 0.002,0.09227 0,0.125 -0.002,0.11269 0.009,0.22925 0,0.34375 -0.005,0.0618 -0.004,0.13479 0,0.1875 0.005,0.0564 0.0589,0.07594 0.0625,0.125 0.004,0.0527 -0.068,0.11445 -0.0625,0.15625 0.0127,0.11451 0.13443,0.20708 0.15625,0.3125 0.0182,0.0836 0.04215,0.27503 0.03125,0.375 -0.007,0.0527 -0.02395,0.12934 -0.03125,0.1875 -0.005,0.0455 0.007,0.08323 0,0.125 C 24.664537,42.961964 23,40.18145 23,37 c 0,-0.407876 0.04119,-0.794005 0.09375,-1.1875 z m 3.4375,0.90625 c 0.0873,-0.04 0.0709,0.11409 0,0.125 -0.0673,0.009 -0.0654,-0.09405 0,-0.125 z" />
  </g>
</svg>
