<?xml version="1.0" encoding="UTF-8" standalone="no"?>
<svg
   xmlns:dc="http://purl.org/dc/elements/1.1/"
   xmlns:cc="http://creativecommons.org/ns#"
   xmlns:rdf="http://www.w3.org/1999/02/22-rdf-syntax-ns#"
   xmlns:svg="http://www.w3.org/2000/svg"
   xmlns="http://www.w3.org/2000/svg"
   xmlns:xlink="http://www.w3.org/1999/xlink"
   xmlns:sodipodi="http://sodipodi.sourceforge.net/DTD/sodipodi-0.dtd"
   xmlns:inkscape="http://www.inkscape.org/namespaces/inkscape"
   width="64"
   height="64"
   viewBox="0 0 64 64"
   version="1.1"
   id="svg850"
   inkscape:version="1.0 (1.0+r73+1)"
   sodipodi:docname="folder-publicshare.svg">
  <defs
     id="defs844">
    <style
       type="text/css"
       id="current-color-scheme">
      .ColorScheme-Highlight {
        color:#3daee9;
      }
      </style>
    <linearGradient
       gradientUnits="userSpaceOnUse"
       y2="58"
       x2="62"
       y1="16"
       x1="62"
       id="linearGradient853"
       xlink:href="#linearGradient867"
       inkscape:collect="always" />
    <linearGradient
       inkscape:collect="always"
       id="linearGradient867">
      <stop
         style="stop-color:#ffffff;stop-opacity:0.23999999"
         offset="0"
         id="stop863" />
      <stop
         style="stop-color:#ffffff;stop-opacity:0"
         offset="1"
         id="stop865" />
    </linearGradient>
  </defs>
  <sodipodi:namedview
     id="namedview1431"
     pagecolor="#ffffff"
     bordercolor="#666666"
     borderopacity="1.0"
     inkscape:pageopacity="0.0"
     inkscape:pageshadow="2"
     inkscape:zoom="16"
     inkscape:cx="37.474241"
     inkscape:cy="34.426237"
     inkscape:document-units="px"
     inkscape:current-layer="layer1"
     inkscape:document-rotation="0"
     showgrid="true"
     units="px"
     inkscape:window-width="1920"
     inkscape:window-height="1015"
     inkscape:window-x="0"
     inkscape:window-y="0"
     inkscape:window-maximized="1">
    <inkscape:grid
       type="xygrid"
       id="grid1413" />
  </sodipodi:namedview>
  <metadata
     id="metadata847">
    <rdf:RDF>
      <cc:Work
         rdf:about="">
        <dc:format>image/svg+xml</dc:format>
        <dc:type
           rdf:resource="http://purl.org/dc/dcmitype/StillImage" />
        <dc:title></dc:title>
      </cc:Work>
    </rdf:RDF>
  </metadata>
  <g
     inkscape:label="Layer 1"
     inkscape:groupmode="layer"
     id="layer1">
    <path
       class="ColorScheme-Highlight"
       d="M 4,6 V 20 H 3 V 58 H 61 V 21.011719 21 16 H 60 V 10 H 32 L 28,6 Z"
       style="fill:currentColor;fill-opacity:1"
       id="base"
       sodipodi:nodetypes="ccccccccccccc" />
    <path
       d="M 26 16 L 22 20 L 3 20 L 3 58 L 61 58 L 61 16 L 26 16 z M 29 27 C 31.21599 27 33 28.78401 33 31 C 33 33.21599 31.21599 35 29 35 C 26.78401 35 25 33.21599 25 31 C 25 28.78401 26.78401 27 29 27 z M 29 28 C 27.33801 28 26 29.33801 26 31 C 26 32.66199 27.33801 34 29 34 C 30.66199 34 32 32.66199 32 31 C 32 29.33801 30.66199 28 29 28 z M 38 28 C 39.662 28 41 29.338 41 31 C 41 32.662 39.662 34 38 34 C 36.338 34 35 32.662 35 31 C 35 29.338 36.338 28 38 28 z M 38 29 C 36.892 29 36 29.892 36 31 C 36 32.108 36.892 33 38 33 C 39.108 33 40 32.108 40 31 C 40 29.892 39.108 29 38 29 z M 38 35 C 40.216 35 42 36.784 42 39 L 42 43 L 38 43 L 38 42 L 41 42 L 41 39 C 41 37.338 39.662 36 38 36 C 37.169 36 36.419203 36.334703 35.876953 36.876953 L 35.169922 36.169922 C 35.892922 35.446922 36.892 35 38 35 z M 29 36 C 32.878 36 36 39.122 36 43 L 36 47 L 22 47 L 22 43 C 22 39.122 25.122 36 29 36 z M 29 37 C 25.676 37 23 39.676 23 43 L 23 46 L 35 46 L 35 43 C 35 39.676 32.324 37 29 37 z "
       style="fill:url(#linearGradient853);fill-opacity:1;fill-rule:evenodd"
       id="gradient" />
    <path
       sodipodi:nodetypes="ccccccccc"
       id="back"
       style="fill-opacity:1;fill-rule:evenodd;fill:#000000;opacity:0.3"
       d="M 32,10 28,6 H 4 v 14 h 18 l 4,-4 h 34 v -6 z" />
    <path
       d="m 26,16 -6,3 H 4 v 1 H 22 Z M 3,57 v 1 h 58 v -1 z"
       style="fill-opacity:1;fill-rule:evenodd;fill:#000000;opacity:0.23"
       id="shadow"
       sodipodi:nodetypes="ccccccccccc" />
    <path
       id="highlight"
       style="opacity:0.23;fill:#ffffff;fill-opacity:1;fill-rule:evenodd"
       d="m 28,6 3,5 H 60 V 10 H 32 Z m -2,10 -4,4 H 3 v 1 h 20 z"
       sodipodi:nodetypes="cccccccccccc" />
    <g
       style="fill:#000000;fill-opacity:1;opacity:0.3"
       id="g1101"
       transform="matrix(0.90909091,0,0,0.90909091,-316.7013,-436.45273)" />
    <path
       style="fill:#000000;fill-opacity:1;opacity:0.3"
       id="rect4129"
       d="m 29,27 c -2.21599,0 -4,1.78401 -4,4 0,2.21599 1.78401,4 4,4 2.21599,0 4,-1.78401 4,-4 0,-2.21599 -1.78401,-4 -4,-4 z m 0,1 c 1.66199,0 3,1.33801 3,3 0,1.66199 -1.33801,3 -3,3 -1.66199,0 -3,-1.33801 -3,-3 0,-1.66199 1.33801,-3 3,-3 z m 9,0 c -1.662,0 -3,1.338 -3,3 0,1.662 1.338,3 3,3 1.662,0 3,-1.338 3,-3 0,-1.662 -1.338,-3 -3,-3 z m 0,1 c 1.108,0 2,0.892 2,2 0,1.108 -0.892,2 -2,2 -1.108,0 -2,-0.892 -2,-2 0,-1.108 0.892,-2 2,-2 z m 0,6 c -1.108,0 -2.107078,0.446922 -2.830078,1.169922 l 0.707031,0.707031 C 36.419203,36.334703 37.169,36 38,36 c 1.662,0 3,1.338 3,3 v 3 h -3 v 1 h 4 v -4 c 0,-2.216 -1.784,-4 -4,-4 z m -9,1 c -3.878,0 -7,3.122 -7,7 v 4 h 14 v -4 c 0,-3.878 -3.122,-7 -7,-7 z m 0,1 c 3.324,0 6,2.676 6,6 v 3 H 23 v -3 c 0,-3.324 2.676,-6 6,-6 z" />
  </g>
</svg>
