<?xml version="1.0" encoding="UTF-8" standalone="no"?>
<svg
   xmlns:dc="http://purl.org/dc/elements/1.1/"
   xmlns:cc="http://creativecommons.org/ns#"
   xmlns:rdf="http://www.w3.org/1999/02/22-rdf-syntax-ns#"
   xmlns:svg="http://www.w3.org/2000/svg"
   xmlns="http://www.w3.org/2000/svg"
   xmlns:xlink="http://www.w3.org/1999/xlink"
   xmlns:sodipodi="http://sodipodi.sourceforge.net/DTD/sodipodi-0.dtd"
   xmlns:inkscape="http://www.inkscape.org/namespaces/inkscape"
   width="64"
   height="64"
   viewBox="0 0 64 64"
   version="1.1"
   id="svg850"
   inkscape:version="1.0 (1.0+r73+1)"
   sodipodi:docname="folder-games.svg">
  <defs
     id="defs844">
    <style
       type="text/css"
       id="current-color-scheme">
      .ColorScheme-Highlight {
        color:#3daee9;
      }
      </style>
    <linearGradient
       gradientUnits="userSpaceOnUse"
       y2="58"
       x2="62"
       y1="16"
       x1="62"
       id="linearGradient853"
       xlink:href="#linearGradient867"
       inkscape:collect="always" />
    <linearGradient
       inkscape:collect="always"
       id="linearGradient867">
      <stop
         style="stop-color:#ffffff;stop-opacity:0.23999999"
         offset="0"
         id="stop863" />
      <stop
         style="stop-color:#ffffff;stop-opacity:0"
         offset="1"
         id="stop865" />
    </linearGradient>
  </defs>
  <sodipodi:namedview
     id="namedview1431"
     pagecolor="#ffffff"
     bordercolor="#666666"
     borderopacity="1.0"
     inkscape:pageopacity="0.0"
     inkscape:pageshadow="2"
     inkscape:zoom="15.839192"
     inkscape:cx="34.782943"
     inkscape:cy="34.418034"
     inkscape:document-units="px"
     inkscape:current-layer="layer1"
     inkscape:document-rotation="0"
     showgrid="true"
     units="px"
     inkscape:window-width="1920"
     inkscape:window-height="1015"
     inkscape:window-x="0"
     inkscape:window-y="0"
     inkscape:window-maximized="1">
    <inkscape:grid
       type="xygrid"
       id="grid1413" />
  </sodipodi:namedview>
  <metadata
     id="metadata847">
    <rdf:RDF>
      <cc:Work
         rdf:about="">
        <dc:format>image/svg+xml</dc:format>
        <dc:type
           rdf:resource="http://purl.org/dc/dcmitype/StillImage" />
        <dc:title></dc:title>
      </cc:Work>
    </rdf:RDF>
  </metadata>
  <g
     inkscape:label="Layer 1"
     inkscape:groupmode="layer"
     id="layer1">
    <path
       class="ColorScheme-Highlight"
       d="M 4,6 V 20 H 3 V 58 H 61 V 21.011719 21 16 H 60 V 10 H 32 L 28,6 Z"
       style="fill:currentColor;fill-opacity:1"
       id="base"
       sodipodi:nodetypes="ccccccccccccc" />
    <path
       d="M 26 16 L 22 20 L 3 20 L 3 58 L 61 58 L 61 16 L 26 16 z M 25 30 L 39 30 C 41.21 30 43 32.684047 43 35.998047 L 43 42.996094 C 43 44.776094 40.845937 45.670156 39.585938 44.410156 L 37.171875 41.996094 L 36.386719 41.996094 A 2.5 2.5 0 0 1 34.394531 42.996094 A 2.5 2.5 0 0 1 32.398438 41.996094 L 31.492188 41.996094 A 2.5 2.5 0 0 1 29.5 42.996094 A 2.5 2.5 0 0 1 27.503906 41.996094 L 26.828125 41.996094 L 24.414062 44.410156 C 23.154062 45.670156 21 44.776094 21 42.996094 L 21 35.998047 C 21 32.684047 22.79 30 25 30 z M 25 30.998047 C 23.343 30.998047 22 33.238047 22 35.998047 L 22 42.996094 C 22 43.887094 23.077031 44.333125 23.707031 43.703125 L 26.414062 40.996094 L 28.087891 40.996094 A 1.5 1.5 0 0 0 29.5 41.996094 A 1.5 1.5 0 0 0 30.912109 40.996094 L 33 40.996094 L 33 41.042969 A 1.5 1.5 0 0 0 34.394531 41.996094 A 1.5 1.5 0 0 0 35.806641 40.996094 L 37.585938 40.996094 L 40.292969 43.703125 C 40.922969 44.332125 42 43.886094 42 42.996094 L 42 35.998047 C 42 33.237047 40.657 31 39 31 L 25 31 L 25 30.998047 z M 25 31.996094 L 27 31.996094 L 27 33.996094 L 29 33.996094 L 29 35.996094 L 27 35.996094 L 27 37.996094 L 25 37.996094 L 25 35.996094 L 23 35.996094 L 23 33.996094 L 25 33.996094 L 25 31.996094 z M 38 31.996094 A 1 1 0 0 1 39 32.996094 A 1 1 0 0 1 38 33.996094 A 1 1 0 0 1 37 32.996094 A 1 1 0 0 1 38 31.996094 z M 36 33.996094 A 1 1 0 0 1 37 34.996094 A 1 1 0 0 1 36 35.996094 A 1 1 0 0 1 35 34.996094 A 1 1 0 0 1 36 33.996094 z M 40 33.996094 A 1 1 0 0 1 41 34.996094 A 1 1 0 0 1 40 35.996094 A 1 1 0 0 1 39 34.996094 A 1 1 0 0 1 40 33.996094 z M 38 35.996094 A 1 1 0 0 1 39 36.996094 A 1 1 0 0 1 38 37.996094 A 1 1 0 0 1 37 36.996094 A 1 1 0 0 1 38 35.996094 z M 29.5 37.996094 A 1.5 1.5 0 0 1 31 39.496094 A 1.5 1.5 0 0 1 29.5 40.996094 A 1.5 1.5 0 0 1 28 39.496094 A 1.5 1.5 0 0 1 29.5 37.996094 z M 34.5 37.996094 A 1.5 1.5 0 0 1 36 39.496094 A 1.5 1.5 0 0 1 34.5 40.996094 A 1.5 1.5 0 0 1 33 39.496094 A 1.5 1.5 0 0 1 34.5 37.996094 z "
       style="fill:url(#linearGradient853);fill-opacity:1;fill-rule:evenodd"
       id="gradient" />
    <path
       sodipodi:nodetypes="ccccccccc"
       id="back"
       style="fill-opacity:1;fill-rule:evenodd;fill:#000000;opacity:0.3"
       d="M 32,10 28,6 H 4 v 14 h 18 l 4,-4 h 34 v -6 z" />
    <path
       d="m 26,16 -6,3 H 4 v 1 H 22 Z M 3,57 v 1 h 58 v -1 z"
       style="fill-opacity:1;fill-rule:evenodd;fill:#000000;opacity:0.23"
       id="shadow"
       sodipodi:nodetypes="ccccccccccc" />
    <path
       id="highlight"
       style="opacity:0.23;fill:#ffffff;fill-opacity:1;fill-rule:evenodd"
       d="m 28,6 3,5 H 60 V 10 H 32 Z m -2,10 -4,4 H 3 v 1 h 20 z"
       sodipodi:nodetypes="cccccccccccc" />
    <g
       style="fill:#000000;fill-opacity:1;opacity:0.3"
       id="g1101"
       transform="matrix(0.90909091,0,0,0.90909091,-316.7013,-436.45273)" />
    <g
       style="fill:#000000;fill-opacity:1;opacity:0.3"
       fill="#1272a5"
       id="g25">
      <path
         style="fill:#000000;fill-opacity:1"
         d="m 25,30 c -2.21,0 -4,2.685 -4,5.999 v 6.998 c 0,1.78 2.154,2.673 3.414,1.413 l 2.414,-2.413 h 0.676 a 2.5,2.5 0 0 0 1.996,1 2.5,2.5 0 0 0 1.992,-1 h 0.906 a 2.5,2.5 0 0 0 1.997,1 2.5,2.5 0 0 0 1.992,-1 h 0.785 l 2.414,2.413 C 40.846,45.67 43,44.777 43,42.997 V 35.999 C 43,32.685 41.21,30 39,30 Z m 0,1 h 14 c 1.657,0 3,2.238 3,4.999 v 6.998 c 0,0.89 -1.077,1.336 -1.707,0.707 l -2.707,-2.707 h -1.779 a 1.5,1.5 0 0 1 -1.412,1 A 1.5,1.5 0 0 1 33,41.042 v -0.045 h -2.088 a 1.5,1.5 0 0 1 -1.412,1 1.5,1.5 0 0 1 -1.412,-1 h -1.674 l -2.707,2.707 C 23.077,44.334 22,43.888 22,42.997 v -6.998 c 0,-2.76 1.343,-5 3,-5 z"
         id="path21" />
      <path
         style="fill:#000000;fill-opacity:1"
         d="m 25,31.996 v 2 h -2 v 2 h 2 v 2 h 2 v -2 h 2 v -2 h -2 v -2 z m 11,7.5 a 1.5,1.5 0 0 1 -1.5,1.5 1.5,1.5 0 0 1 -1.5,-1.5 1.5,1.5 0 0 1 1.5,-1.5 1.5,1.5 0 0 1 1.5,1.5 z m -5,0 a 1.5,1.5 0 0 1 -1.5,1.5 1.5,1.5 0 0 1 -1.5,-1.5 1.5,1.5 0 0 1 1.5,-1.5 1.5,1.5 0 0 1 1.5,1.5 z m 8,-2.5 a 1,1 0 0 1 -1,1 1,1 0 0 1 -1,-1 1,1 0 0 1 1,-1 1,1 0 0 1 1,1 z m 2,-2 a 1,1 0 0 1 -1,1 1,1 0 0 1 -1,-1 1,1 0 0 1 1,-1 1,1 0 0 1 1,1 z m -2,-2 a 1,1 0 0 1 -1,1 1,1 0 0 1 -1,-1 1,1 0 0 1 1,-1 1,1 0 0 1 1,1 z m -2,2 a 1,1 0 0 1 -1,1 1,1 0 0 1 -1,-1 1,1 0 0 1 1,-1 1,1 0 0 1 1,1 z"
         id="path23" />
    </g>
    <g
       id="g958"
       fill="#1272a5"
       style="fill:#000000;fill-opacity:1;opacity:0.3" />
  </g>
</svg>
