<?xml version="1.0" encoding="UTF-8" standalone="no"?>
<svg
   xmlns:dc="http://purl.org/dc/elements/1.1/"
   xmlns:cc="http://creativecommons.org/ns#"
   xmlns:rdf="http://www.w3.org/1999/02/22-rdf-syntax-ns#"
   xmlns:svg="http://www.w3.org/2000/svg"
   xmlns="http://www.w3.org/2000/svg"
   xmlns:xlink="http://www.w3.org/1999/xlink"
   xmlns:sodipodi="http://sodipodi.sourceforge.net/DTD/sodipodi-0.dtd"
   xmlns:inkscape="http://www.inkscape.org/namespaces/inkscape"
   sodipodi:docname="folder-activities.svg"
   inkscape:version="1.0 (1.0+r73+1)"
   id="svg850"
   version="1.1"
   viewBox="0 0 64 64"
   height="64"
   width="64">
  <defs
     id="defs844">
    <style
       id="current-color-scheme"
       type="text/css">
      .ColorScheme-Highlight {
        color:#3daee9;
      }
      </style>
    <linearGradient
       inkscape:collect="always"
       xlink:href="#linearGradient867"
       id="linearGradient853"
       x1="62"
       y1="16"
       x2="62"
       y2="58"
       gradientUnits="userSpaceOnUse" />
    <linearGradient
       id="linearGradient867"
       inkscape:collect="always">
      <stop
         id="stop863"
         offset="0"
         style="stop-color:#ffffff;stop-opacity:0.23999999" />
      <stop
         id="stop865"
         offset="1"
         style="stop-color:#ffffff;stop-opacity:0" />
    </linearGradient>
  </defs>
  <sodipodi:namedview
     inkscape:window-maximized="1"
     inkscape:window-y="0"
     inkscape:window-x="0"
     inkscape:window-height="1015"
     inkscape:window-width="1920"
     units="px"
     showgrid="true"
     inkscape:document-rotation="0"
     inkscape:current-layer="layer1"
     inkscape:document-units="px"
     inkscape:cy="29.41334"
     inkscape:cx="37.422285"
     inkscape:zoom="15.839192"
     inkscape:pageshadow="2"
     inkscape:pageopacity="0.0"
     borderopacity="1.0"
     bordercolor="#666666"
     pagecolor="#ffffff"
     id="namedview1431">
    <inkscape:grid
       id="grid1413"
       type="xygrid" />
  </sodipodi:namedview>
  <metadata
     id="metadata847">
    <rdf:RDF>
      <cc:Work
         rdf:about="">
        <dc:format>image/svg+xml</dc:format>
        <dc:type
           rdf:resource="http://purl.org/dc/dcmitype/StillImage" />
        <dc:title></dc:title>
      </cc:Work>
    </rdf:RDF>
  </metadata>
  <g
     id="layer1"
     inkscape:groupmode="layer"
     inkscape:label="Layer 1">
    <path
       sodipodi:nodetypes="ccccccccccccc"
       id="base"
       style="fill:currentColor;fill-opacity:1"
       d="M 4,6 V 20 H 3 V 58 H 61 V 21.011719 21 16 H 60 V 10 H 32 L 28,6 Z"
       class="ColorScheme-Highlight" />
    <path
       d="M 26 16 L 22 20 L 3 20 L 3 58 L 61 58 L 61 16 L 26 16 z M 26.5 27 A 1.5000025 1.499995 0 0 1 28 28.5 A 1.5000025 1.499995 0 0 1 26.5 30 A 1.5000025 1.499995 0 0 1 25 28.5 A 1.5000025 1.499995 0 0 1 26.5 27 z M 35 27 L 42 34 L 35 42 L 32 39.375 L 36.53125 34.21875 L 32.15625 29.84375 L 35 27 z M 24.5 34 A 2.4999926 2.5 0 0 1 27 36.5 A 2.4999926 2.5 0 0 1 24.5 39 A 2.4999926 2.5 0 0 1 22 36.5 A 2.4999926 2.5 0 0 1 24.5 34 z M 29 41 A 2.9999924 3 0 0 1 32 44 A 2.9999924 3 0 0 1 29 47 A 2.9999924 3 0 0 1 26 44 A 2.9999924 3 0 0 1 29 41 z "
       style="fill:url(#linearGradient853);fill-opacity:1;fill-rule:evenodd"
       id="gradient" />
    <path
       d="M 32,10 28,6 H 4 v 14 h 18 l 4,-4 h 34 v -6 z"
       style="fill-opacity:1;fill-rule:evenodd;fill:#000000;opacity:0.3"
       id="back"
       sodipodi:nodetypes="ccccccccc" />
    <path
       sodipodi:nodetypes="ccccccccccc"
       id="shadow"
       style="fill-opacity:1;fill-rule:evenodd;fill:#000000;opacity:0.23"
       d="m 26,16 -6,3 H 4 v 1 H 22 Z M 3,57 v 1 h 58 v -1 z" />
    <path
       sodipodi:nodetypes="cccccccccccc"
       d="m 28,6 3,5 H 60 V 10 H 32 Z m -2,10 -4,4 H 3 v 1 h 20 z"
       style="opacity:0.23;fill:#ffffff;fill-opacity:1;fill-rule:evenodd"
       id="highlight" />
    <path
       style="color:#000000;fill:#000000;stroke-width:1.4;fill-opacity:1;opacity:0.3"
       id="path3023"
       d="M 26.5,27 A 1.5000025,1.499995 0 0 0 25,28.5 1.5000025,1.499995 0 0 0 26.5,30 1.5000025,1.499995 0 0 0 28,28.5 1.5000025,1.499995 0 0 0 26.5,27 Z m 8.5,0 -2.84375,2.84375 4.375,4.375 L 32,39.375 35,42 42,34 Z M 24.5,34 A 2.4999926,2.5 0 0 0 22,36.5 2.4999926,2.5 0 0 0 24.5,39 2.4999926,2.5 0 0 0 27,36.5 2.4999926,2.5 0 0 0 24.5,34 Z m 4.5,7 a 2.9999924,3 0 0 0 -3,3 2.9999924,3 0 0 0 3,3 2.9999924,3 0 0 0 3,-3 2.9999924,3 0 0 0 -3,-3 z" />
  </g>
</svg>
