<?xml version="1.0" encoding="UTF-8" standalone="no"?>
<svg
   xmlns:dc="http://purl.org/dc/elements/1.1/"
   xmlns:cc="http://creativecommons.org/ns#"
   xmlns:rdf="http://www.w3.org/1999/02/22-rdf-syntax-ns#"
   xmlns:svg="http://www.w3.org/2000/svg"
   xmlns="http://www.w3.org/2000/svg"
   xmlns:xlink="http://www.w3.org/1999/xlink"
   xmlns:sodipodi="http://sodipodi.sourceforge.net/DTD/sodipodi-0.dtd"
   xmlns:inkscape="http://www.inkscape.org/namespaces/inkscape"
   width="64"
   height="64"
   viewBox="0 0 64 64"
   version="1.1"
   id="svg850"
   inkscape:version="1.0 (1.0+r73+1)"
   sodipodi:docname="network-workgroup.svg">
  <defs
     id="defs844">
    <style
       type="text/css"
       id="current-color-scheme">
      .ColorScheme-Highlight {
        color:#3daee9;
      }
      </style>
    <linearGradient
       gradientUnits="userSpaceOnUse"
       y2="58"
       x2="62"
       y1="16"
       x1="62"
       id="linearGradient853"
       xlink:href="#linearGradient867"
       inkscape:collect="always" />
    <linearGradient
       inkscape:collect="always"
       id="linearGradient867">
      <stop
         style="stop-color:#ffffff;stop-opacity:0.23999999"
         offset="0"
         id="stop863" />
      <stop
         style="stop-color:#ffffff;stop-opacity:0"
         offset="1"
         id="stop865" />
    </linearGradient>
  </defs>
  <sodipodi:namedview
     id="namedview1431"
     pagecolor="#ffffff"
     bordercolor="#666666"
     borderopacity="1.0"
     inkscape:pageopacity="0.0"
     inkscape:pageshadow="2"
     inkscape:zoom="16"
     inkscape:cx="37.474241"
     inkscape:cy="34.426237"
     inkscape:document-units="px"
     inkscape:current-layer="layer1"
     inkscape:document-rotation="0"
     showgrid="true"
     units="px"
     inkscape:window-width="1920"
     inkscape:window-height="1015"
     inkscape:window-x="0"
     inkscape:window-y="0"
     inkscape:window-maximized="1">
    <inkscape:grid
       type="xygrid"
       id="grid1413" />
  </sodipodi:namedview>
  <metadata
     id="metadata847">
    <rdf:RDF>
      <cc:Work
         rdf:about="">
        <dc:format>image/svg+xml</dc:format>
        <dc:type
           rdf:resource="http://purl.org/dc/dcmitype/StillImage" />
        <dc:title></dc:title>
      </cc:Work>
    </rdf:RDF>
  </metadata>
  <g
     inkscape:label="Layer 1"
     inkscape:groupmode="layer"
     id="layer1">
    <path
       class="ColorScheme-Highlight"
       d="M 4,6 V 20 H 3 V 58 H 61 V 21.011719 21 16 H 60 V 10 H 32 L 28,6 Z"
       style="fill:currentColor;fill-opacity:1"
       id="base"
       sodipodi:nodetypes="ccccccccccccc" />
    <path
       d="M 26 16 L 22 20 L 3 20 L 3 58 L 61 58 L 61 16 L 26 16 z M 22 27 L 42 27 L 42 47 L 22 47 L 22 27 z M 23 28 L 23 30 L 41 30 L 41 28 L 23 28 z M 24 31 L 24 35 L 25 35 L 25 31 L 24 31 z M 26 31 L 26 35 L 27 35 L 27 31 L 26 31 z M 28 31 L 28 35 L 29 35 L 29 31 L 28 31 z M 30 31 L 30 35 L 31 35 L 31 31 L 30 31 z M 32 31 L 32 35 L 33 35 L 33 31 L 32 31 z M 34 31 L 34 35 L 35 35 L 35 31 L 34 31 z M 36 31 L 36 35 L 37 35 L 37 31 L 36 31 z M 39 32 L 39 33 L 41 33 L 41 32 L 39 32 z M 23 36 L 23 38 L 41 38 L 41 36 L 23 36 z M 24 39 L 24 43 L 25 43 L 25 39 L 24 39 z M 26 39 L 26 43 L 27 43 L 27 39 L 26 39 z M 28 39 L 28 43 L 29 43 L 29 39 L 28 39 z M 30 39 L 30 43 L 31 43 L 31 39 L 30 39 z M 32 39 L 32 43 L 33 43 L 33 39 L 32 39 z M 34 39 L 34 43 L 35 43 L 35 39 L 34 39 z M 36 39 L 36 43 L 37 43 L 37 39 L 36 39 z M 39 40 L 39 41 L 41 41 L 41 40 L 39 40 z M 23 44 L 23 46 L 41 46 L 41 44 L 23 44 z "
       style="fill:url(#linearGradient853);fill-opacity:1;fill-rule:evenodd"
       id="gradient" />
    <path
       sodipodi:nodetypes="ccccccccc"
       id="back"
       style="fill-opacity:1;fill-rule:evenodd;fill:#000000;opacity:0.3"
       d="M 32,10 28,6 H 4 v 14 h 18 l 4,-4 h 34 v -6 z" />
    <path
       d="m 26,16 -6,3 H 4 v 1 H 22 Z M 3,57 v 1 h 58 v -1 z"
       style="fill-opacity:1;fill-rule:evenodd;fill:#000000;opacity:0.23"
       id="shadow"
       sodipodi:nodetypes="ccccccccccc" />
    <path
       id="highlight"
       style="opacity:0.23;fill:#ffffff;fill-opacity:1;fill-rule:evenodd"
       d="m 28,6 3,5 H 60 V 10 H 32 Z m -2,10 -4,4 H 3 v 1 h 20 z"
       sodipodi:nodetypes="cccccccccccc" />
    <g
       style="fill:#000000;fill-opacity:1;opacity:0.3"
       id="g1101"
       transform="matrix(0.90909091,0,0,0.90909091,-316.7013,-436.45273)" />
    <path
       style="fill:#000000;fill-opacity:1;opacity:0.3"
       id="rect4173"
       d="M 22,27 V 47 H 42 V 27 Z m 1,1 h 18 v 2 H 23 Z m 1,3 h 1 v 4 h -1 z m 2,0 h 1 v 4 h -1 z m 2,0 h 1 v 4 h -1 z m 2,0 h 1 v 4 h -1 z m 2,0 h 1 v 4 h -1 z m 2,0 h 1 v 4 h -1 z m 2,0 h 1 v 4 h -1 z m 3,1 h 2 v 1 h -2 z m -16,4 h 18 v 2 H 23 Z m 1,3 h 1 v 4 h -1 z m 2,0 h 1 v 4 h -1 z m 2,0 h 1 v 4 h -1 z m 2,0 h 1 v 4 h -1 z m 2,0 h 1 v 4 h -1 z m 2,0 h 1 v 4 h -1 z m 2,0 h 1 v 4 h -1 z m 3,1 h 2 v 1 h -2 z m -16,4 h 18 v 2 H 23 Z" />
  </g>
</svg>
