<?xml version="1.0" encoding="UTF-8" standalone="no"?>
<svg
   xmlns:dc="http://purl.org/dc/elements/1.1/"
   xmlns:cc="http://creativecommons.org/ns#"
   xmlns:rdf="http://www.w3.org/1999/02/22-rdf-syntax-ns#"
   xmlns:svg="http://www.w3.org/2000/svg"
   xmlns="http://www.w3.org/2000/svg"
   xmlns:sodipodi="http://sodipodi.sourceforge.net/DTD/sodipodi-0.dtd"
   xmlns:inkscape="http://www.inkscape.org/namespaces/inkscape"
   inkscape:version="1.0 (1.0+r73+1)"
   sodipodi:docname="folder-sound.svg"
   id="svg5"
   version="1.1"
   viewBox="0 0 22 22">
  <metadata
     id="metadata9">
    <rdf:RDF>
      <cc:Work
         rdf:about="">
        <dc:format>image/svg+xml</dc:format>
        <dc:type
           rdf:resource="http://purl.org/dc/dcmitype/StillImage" />
      </cc:Work>
    </rdf:RDF>
  </metadata>
  <sodipodi:namedview
     inkscape:current-layer="svg5"
     inkscape:window-maximized="1"
     inkscape:window-y="0"
     inkscape:window-x="0"
     inkscape:cy="11"
     inkscape:cx="11"
     inkscape:zoom="38.636364"
     showgrid="false"
     id="namedview7"
     inkscape:window-height="1015"
     inkscape:window-width="1920"
     inkscape:pageshadow="2"
     inkscape:pageopacity="0"
     guidetolerance="10"
     gridtolerance="10"
     objecttolerance="10"
     borderopacity="1"
     bordercolor="#666666"
     pagecolor="#ffffff" />
  <defs
     id="defs3051">
    <style
       id="current-color-scheme"
       type="text/css">
      .ColorScheme-Text {
        color:#232629;
      }
      </style>
  </defs>
  <path
     sodipodi:nodetypes="cccsssccccsscccccccc"
     id="path4867"
     class="ColorScheme-Text"
     d="M 7,3 V 14.503906 C 6.567749,14.177956 6.0413714,14.001126 5.5,14 4.1192881,14 3,15.119288 3,16.5 3,17.880712 4.1192881,19 5.5,19 6.8807119,19 8,17.880712 8,16.5 V 7 h 10 v 5.503906 C 17.567749,12.177956 17.041371,12.001126 16.5,12 15.119288,12 14,13.119288 14,14.5 14,15.880712 15.119288,17 16.5,17 17.880712,17 19,15.880712 19,14.5 V 3 Z M 8,4 H 18 V 6 H 8 Z"
     style="opacity:1;fill:currentColor;fill-opacity:1;stroke:none" />
</svg>
