<?xml version="1.0" encoding="UTF-8" standalone="no"?>
<svg
   xmlns:dc="http://purl.org/dc/elements/1.1/"
   xmlns:cc="http://creativecommons.org/ns#"
   xmlns:rdf="http://www.w3.org/1999/02/22-rdf-syntax-ns#"
   xmlns:svg="http://www.w3.org/2000/svg"
   xmlns="http://www.w3.org/2000/svg"
   xmlns:xlink="http://www.w3.org/1999/xlink"
   xmlns:sodipodi="http://sodipodi.sourceforge.net/DTD/sodipodi-0.dtd"
   xmlns:inkscape="http://www.inkscape.org/namespaces/inkscape"
   inkscape:version="1.0 (1.0+r73+1)"
   sodipodi:docname="applications-office.svg"
   id="svg29"
   viewBox="0 0 32 32"
   height="32"
   version="1.1"
   width="32">
  <sodipodi:namedview
     inkscape:current-layer="layer1"
     inkscape:window-maximized="1"
     inkscape:window-y="0"
     inkscape:window-x="0"
     inkscape:cy="9.8555346"
     inkscape:cx="7.9678289"
     inkscape:zoom="13.53125"
     showgrid="true"
     id="namedview31"
     inkscape:window-height="1018"
     inkscape:window-width="1920"
     inkscape:pageshadow="2"
     inkscape:pageopacity="0"
     guidetolerance="10"
     gridtolerance="10"
     objecttolerance="10"
     borderopacity="1"
     bordercolor="#666666"
     pagecolor="#ffffff"
     inkscape:document-rotation="0">
    <inkscape:grid
       id="grid856"
       type="xygrid" />
  </sodipodi:namedview>
  <defs
     id="defs5455">
    <style
       id="current-color-scheme"
       type="text/css">
      .ColorScheme-Highlight {
        color:#3daee9;
      }
      </style>
    <linearGradient
       id="linearGradient865"
       inkscape:collect="always">
      <stop
         id="stop861"
         offset="0"
         style="stop-color:#ffffff;stop-opacity:1;" />
      <stop
         id="stop863"
         offset="1"
         style="stop-color:#ffffff;stop-opacity:0;" />
    </linearGradient>
    <linearGradient
       id="linearGradient4298"
       inkscape:collect="always">
      <stop
         id="stop4300"
         style="stop-color:#42a603" />
      <stop
         id="stop4302"
         style="stop-color:#78da06"
         offset="1" />
    </linearGradient>
    <linearGradient
       gradientUnits="userSpaceOnUse"
       x2="0"
       y2="517.79797"
       y1="545.79797"
       id="linearGradient4304"
       xlink:href="#linearGradient4298"
       inkscape:collect="always" />
    <linearGradient
       id="linearGradient4227"
       inkscape:collect="always">
      <stop
         id="stop4229"
         style="stop-color:#292c2f" />
      <stop
         id="stop4231"
         style="stop-opacity:0"
         offset="1" />
    </linearGradient>
    <linearGradient
       gradientUnits="userSpaceOnUse"
       x2="409.57144"
       y2="531.79797"
       x1="409.57144"
       y1="524.79797"
       id="linearGradient4385"
       xlink:href="#linearGradient4227"
       inkscape:collect="always"
       gradientTransform="translate(-384.57143,-515.798)" />
    <linearGradient
       gradientUnits="userSpaceOnUse"
       y2="545.79797"
       x2="388.57144"
       y1="517.79797"
       x1="388.57144"
       id="linearGradient867"
       xlink:href="#linearGradient865"
       inkscape:collect="always" />
    <linearGradient
       gradientUnits="userSpaceOnUse"
       y2="537.79797"
       x2="395.57144"
       y1="525.79797"
       x1="395.57144"
       id="linearGradient877"
       xlink:href="#linearGradient865"
       inkscape:collect="always" />
  </defs>
  <metadata
     id="metadata5458">
    <rdf:RDF>
      <cc:Work
         rdf:about="">
        <dc:format>image/svg+xml</dc:format>
        <dc:type
           rdf:resource="http://purl.org/dc/dcmitype/StillImage" />
      </cc:Work>
    </rdf:RDF>
  </metadata>
  <g
     transform="matrix(1 0 0 1 -384.57143 -515.798)"
     id="layer1"
     inkscape:groupmode="layer"
     inkscape:label="Capa 1">
    <path
       d="m 392.57143,517.798 0,28 21.99999,0 0,-21 -6.99999,-7 -15,0 z"
       id="path4182"
       style="fill:url(#linearGradient4304)"
       inkscape:connector-curvature="0" />
    <path
       class="ColorScheme-Highlight"
       d="m 386.57143,517.798 0,28 21.99999,0 0,-21 -6.99999,-7 -15,0 z"
       id="rect4144"
       style="fill:currentColor" />
    <path
       style="fill:url(#linearGradient867);fill-opacity:1;opacity:0.24"
       id="path859"
       d="m 386.57143,517.798 0,28 21.99999,0 0,-21 -6.99999,-7 -15,0 z" />
    <path
       id="path4306"
       style="fill:url(#linearGradient4385);opacity:0.2;fill-rule:evenodd"
       d="M 17 9 L 24 16 L 24 10 L 30 16 L 30 9 L 24 9 L 23 9 L 17 9 z "
       transform="translate(384.57143,515.798)" />
    <path
       d="m 392.57143,525.798 0,1 0,11 1,0 5,0 4,-4 0,-8 -9,0 -1,0 z m 1,1 8,0 0,7 -3,0 0,3 -5,0 0,-10 z"
       id="rect4074"
       style="fill:#ffffff;fill-opacity:1;opacity:0.6"
       inkscape:connector-curvature="0" />
    <path
       transform="translate(384.57143,515.798)"
       d="M 17 2 L 17 9 L 23 9 L 24 9 L 30 9 L 23 2 L 23 8 L 17 2 z "
       style="fill:#313437;fill-rule:evenodd;fill-opacity:1;opacity:0.8"
       id="path4184" />
    <path
       inkscape:connector-curvature="0"
       style="fill:url(#linearGradient877);fill-opacity:1;opacity:0.6"
       id="path869"
       d="m 392.57143,525.798 0,1 0,11 1,0 5,0 4,-4 0,-8 -9,0 -1,0 z m 1,1 8,0 0,7 -3,0 0,3 -5,0 0,-10 z" />
  </g>
</svg>
