<?xml version="1.0" encoding="UTF-8" standalone="no"?>
<svg
   xmlns:dc="http://purl.org/dc/elements/1.1/"
   xmlns:cc="http://creativecommons.org/ns#"
   xmlns:rdf="http://www.w3.org/1999/02/22-rdf-syntax-ns#"
   xmlns:svg="http://www.w3.org/2000/svg"
   xmlns="http://www.w3.org/2000/svg"
   xmlns:xlink="http://www.w3.org/1999/xlink"
   xmlns:sodipodi="http://sodipodi.sourceforge.net/DTD/sodipodi-0.dtd"
   xmlns:inkscape="http://www.inkscape.org/namespaces/inkscape"
   width="32"
   version="1.1"
   height="32"
   viewBox="0 0 32 32"
   id="svg60"
   sodipodi:docname="applications-graphics.svg"
   inkscape:version="1.0 (1.0+r73+1)">
  <sodipodi:namedview
     inkscape:document-rotation="0"
     pagecolor="#ffffff"
     bordercolor="#666666"
     borderopacity="1"
     objecttolerance="10"
     gridtolerance="10"
     guidetolerance="10"
     inkscape:pageopacity="0"
     inkscape:pageshadow="2"
     inkscape:window-width="1920"
     inkscape:window-height="1013"
     id="namedview62"
     showgrid="true"
     inkscape:zoom="19.136077"
     inkscape:cx="9.4934422"
     inkscape:cy="16.807016"
     inkscape:window-x="0"
     inkscape:window-y="0"
     inkscape:window-maximized="1"
     inkscape:current-layer="layer1">
    <inkscape:grid
       id="grid956"
       type="xygrid" />
  </sodipodi:namedview>
  <defs
     id="defs5455">
    <linearGradient
       id="linearGradient952"
       inkscape:collect="always">
      <stop
         id="stop948"
         offset="0"
         style="stop-color:#ffffff;stop-opacity:1;" />
      <stop
         id="stop950"
         offset="1"
         style="stop-color:#000000;stop-opacity:0.5" />
    </linearGradient>
    <style
       type="text/css"
       id="current-color-scheme">
      .ColorScheme-Highlight {
        color:#3daee9;
      }
      </style>
    <linearGradient
       inkscape:collect="always"
       id="linearGradient4508">
      <stop
         style="stop-color:#ffffff"
         id="stop4510" />
      <stop
         offset="1"
         style="stop-color:#ffffff;stop-opacity:0"
         id="stop4512" />
    </linearGradient>
    <linearGradient
       inkscape:collect="always"
       id="linearGradient4496">
      <stop
         style="stop-color:#b83564"
         id="stop4498" />
      <stop
         offset="0.5"
         style="stop-color:#ff6a5a"
         id="stop4504" />
      <stop
         offset="1"
         style="stop-color:#ffb350"
         id="stop4500" />
    </linearGradient>
    <linearGradient
       inkscape:collect="always"
       xlink:href="#linearGradient4303"
       id="linearGradient4378"
       y1="31"
       y2="2"
       x2="0"
       gradientUnits="userSpaceOnUse" />
    <linearGradient
       inkscape:collect="always"
       id="linearGradient4303">
      <stop
         style="stop-color:#c6cdd1"
         id="stop4305" />
      <stop
         offset="1"
         style="stop-color:#e0e5e7"
         id="stop4307" />
    </linearGradient>
    <linearGradient
       inkscape:collect="always"
       xlink:href="#linearGradient4508"
       id="linearGradient4514"
       y1="529.79797"
       y2="535.79797"
       x2="0"
       gradientUnits="userSpaceOnUse"
       gradientTransform="rotate(-90,398.07148,532.29798)" />
    <linearGradient
       inkscape:collect="always"
       xlink:href="#linearGradient4508"
       id="linearGradient4518"
       y1="529.79797"
       y2="535.79797"
       gradientUnits="userSpaceOnUse"
       x2="0"
       gradientTransform="rotate(-90,396.07148,534.29798)" />
    <linearGradient
       inkscape:collect="always"
       xlink:href="#linearGradient4508"
       id="linearGradient4524"
       y1="529.79797"
       y2="535.79797"
       gradientUnits="userSpaceOnUse"
       x2="0"
       gradientTransform="matrix(0,1,1,0,-126.2265,129.22656)" />
    <linearGradient
       inkscape:collect="always"
       xlink:href="#linearGradient4508"
       id="linearGradient4526"
       y1="529.79797"
       y2="535.79797"
       gradientUnits="userSpaceOnUse"
       x2="0"
       gradientTransform="rotate(-90,400.07148,530.29798)" />
    <linearGradient
       inkscape:collect="always"
       xlink:href="#linearGradient4508"
       id="linearGradient4620"
       y1="529.79797"
       y2="535.79797"
       gradientUnits="userSpaceOnUse"
       x2="0"
       gradientTransform="matrix(0,1,1,0,-122.2265,129.22656)" />
    <linearGradient
       inkscape:collect="always"
       xlink:href="#linearGradient4508"
       id="linearGradient4644"
       y1="529.79797"
       y2="535.79797"
       gradientUnits="userSpaceOnUse"
       x2="0"
       gradientTransform="rotate(-90,394.07148,536.29798)" />
    <linearGradient
       inkscape:collect="always"
       xlink:href="#linearGradient4508"
       id="linearGradient4674"
       y1="529.79797"
       y2="535.79797"
       gradientUnits="userSpaceOnUse"
       x2="0"
       gradientTransform="translate(1.99998,-2.99993)" />
    <linearGradient
       inkscape:collect="always"
       xlink:href="#linearGradient4508"
       id="linearGradient4676"
       y1="529.79797"
       y2="535.79797"
       gradientUnits="userSpaceOnUse"
       x2="0"
       gradientTransform="translate(1.99998,-6.99993)" />
    <linearGradient
       inkscape:collect="always"
       xlink:href="#linearGradient4508"
       id="linearGradient4678"
       y1="529.79797"
       y2="535.79797"
       gradientUnits="userSpaceOnUse"
       x2="0"
       gradientTransform="matrix(-1,0,0,1,803.14287,5.00007)" />
    <linearGradient
       inkscape:collect="always"
       xlink:href="#linearGradient4508"
       id="linearGradient4680"
       y1="529.79797"
       y2="535.79797"
       gradientUnits="userSpaceOnUse"
       x2="0"
       gradientTransform="translate(1.99998,1.00007)" />
    <linearGradient
       inkscape:collect="always"
       xlink:href="#linearGradient4508"
       id="linearGradient4682"
       y1="529.79797"
       y2="535.79797"
       gradientUnits="userSpaceOnUse"
       x2="0"
       gradientTransform="matrix(-1,0,0,1,803.14287,9.00007)" />
    <linearGradient
       inkscape:collect="always"
       xlink:href="#linearGradient4508"
       id="linearGradient4684"
       y1="529.79797"
       y2="535.79797"
       gradientUnits="userSpaceOnUse"
       x2="0"
       gradientTransform="translate(1.99998,-10.99993)" />
    <linearGradient
       inkscape:collect="always"
       xlink:href="#linearGradient4496"
       id="linearGradient4749"
       y1="544.79797"
       x1="413.57144"
       y2="518.79797"
       gradientUnits="userSpaceOnUse"
       x2="387.57144"
       gradientTransform="matrix(1 0 0 1 -0.000013 0)" />
    <linearGradient
       inkscape:collect="always"
       xlink:href="#linearGradient4410"
       id="linearGradient4839"
       y1="7"
       x1="7"
       y2="26"
       x2="26"
       gradientUnits="userSpaceOnUse" />
    <linearGradient
       inkscape:collect="always"
       id="linearGradient4410">
      <stop
         style="stop-color:#383e51"
         id="stop4412" />
      <stop
         offset="1"
         style="stop-color:#655c6f;stop-opacity:0"
         id="stop4414" />
    </linearGradient>
    <linearGradient
       gradientUnits="userSpaceOnUse"
       y2="28"
       x2="28"
       y1="7"
       x1="7"
       id="linearGradient954"
       xlink:href="#linearGradient952"
       inkscape:collect="always" />
  </defs>
  <metadata
     id="metadata5458">
    <rdf:RDF>
      <cc:Work
         rdf:about="">
        <dc:format>image/svg+xml</dc:format>
        <dc:type
           rdf:resource="http://purl.org/dc/dcmitype/StillImage" />
      </cc:Work>
    </rdf:RDF>
  </metadata>
  <g
     inkscape:label="Capa 1"
     inkscape:groupmode="layer"
     id="layer1"
     transform="matrix(1 0 0 1 -384.57143 -515.798)">
    <circle
       cx="400.57144"
       cy="531.79797"
       style="fill:url(#linearGradient4749);stroke-linecap:square;stroke-width:0.096362"
       r="13"
       id="circle4747" />
    <path
       style="fill:url(#linearGradient4378);fill-rule:evenodd"
       id="path4203"
       d="M 2 2 L 2 16 A 14.000013 14.000013 0 0 0 16 30 A 14.000013 14.000013 0 0 0 30 16 A 14.000013 14.000013 0 0 0 16 2 L 2 2 z M 4 3 A 1 1 0 0 1 5 4 A 1 1 0 0 1 4 5 A 1 1 0 0 1 3 4 A 1 1 0 0 1 4 3 z M 16 4 A 12.000013 12.000013 0 0 1 28 16 A 12.000013 12.000013 0 0 1 16 28 A 12.000013 12.000013 0 0 1 4 16 A 12.000013 12.000013 0 0 1 16 4 z "
       transform="matrix(1 0 0 1 384.57143 515.798)" />
    <circle
       cx="400.57144"
       cy="531.79797"
       style="fill:#a799a7;stroke-linecap:square;stroke-width:0.1;fill-opacity:1"
       id="path4745"
       r="13" />
    <path
       id="path4479"
       style="fill:currentColor"
       d="M 3.975586,3 C 3.4328585,3.0132541 2.9998382,3.4571107 3,4 3,4.5522847 3.4477153,5 4,5 4.5522847,5 5,4.5522847 5,4 5,3.4477153 4.5522847,3 4,3 3.9918623,2.9999007 3.9837237,2.9999007 3.975586,3 Z M 16,4 C 9.372583,4 4,9.372583 4,16 4,22.627417 9.372583,28 16,28 22.627417,28 28,22.627417 28,16 28,9.372583 22.627417,4 16,4 Z"
       transform="translate(384.57143,515.798)"
       sodipodi:nodetypes="ccssccsssss"
       class="ColorScheme-Highlight" />
    <path
       style="fill:url(#linearGradient954);fill-opacity:1;opacity:0.24"
       sodipodi:nodetypes="ccssccsssss"
       transform="translate(384.57143,515.798)"
       d="M 3.975586,3 C 3.4328585,3.0132541 2.9998382,3.4571107 3,4 3,4.5522847 3.4477153,5 4,5 4.5522847,5 5,4.5522847 5,4 5,3.4477153 4.5522847,3 4,3 3.9918623,2.9999007 3.9837237,2.9999007 3.975586,3 Z M 16,4 C 9.372583,4 4,9.372583 4,16 4,22.627417 9.372583,28 16,28 22.627417,28 28,22.627417 28,16 28,9.372583 22.627417,4 16,4 Z"
       id="path946" />
    <g
       id="g1021">
      <path
         inkscape:connector-curvature="0"
         style="opacity:0.15;fill:url(#linearGradient4514);stroke-width:0.1;stroke-linecap:square"
         id="rect4506"
         d="m 400.57143,519.798 a 12,11.999999 0 0 0 -4,0.70117 v 3.29883 4 4 4 4 3.29883 a 12,11.999999 0 0 0 4,0.70117 v -4 -4 -4 -4 -4 z" />
      <path
         inkscape:connector-curvature="0"
         style="opacity:0.15;fill:url(#linearGradient4518);stroke-width:0.1;stroke-linecap:square"
         id="rect4516"
         d="m 396.57143,520.49917 a 12,11.999999 0 0 0 -4,2.37305 v 0.92578 4 4 4 4 0.92773 a 12,11.999999 0 0 0 4,2.3711 v -3.29883 -4 -4 -4 -4 z" />
      <path
         inkscape:connector-curvature="0"
         style="opacity:0.15;fill:url(#linearGradient4524);stroke-width:0.1;stroke-linecap:square"
         id="rect4520"
         d="m 404.57143,520.49917 v 3.29883 4 4 4 4 3.29883 a 12,11.999999 0 0 0 4,-2.37305 v -0.92578 -4 -4 -4 -4 -0.92773 a 12,11.999999 0 0 0 -4,-2.3711 z" />
      <path
         inkscape:connector-curvature="0"
         style="opacity:0.15;fill:url(#linearGradient4526);stroke-width:0.1;stroke-linecap:square"
         id="rect4522"
         d="m 400.57143,519.798 v 4 4 4 4 4 4 a 12,11.999999 0 0 0 4,-0.70117 v -3.29883 -4 -4 -4 -4 -3.29883 a 12,11.999999 0 0 0 -4,-0.70117 z" />
      <path
         inkscape:connector-curvature="0"
         style="opacity:0.15;fill:url(#linearGradient4620);stroke-width:0.1;stroke-linecap:square"
         id="rect4608"
         d="m 408.57143,522.87027 v 0.92773 4 4 4 4 0.92578 a 12,11.999999 0 0 0 4,-8.92578 12,11.999999 0 0 0 -4,-8.92773 z" />
      <path
         inkscape:connector-curvature="0"
         style="opacity:0.15;fill:url(#linearGradient4644);stroke-width:0.1;stroke-linecap:square"
         id="rect4632"
         d="m 392.57143,522.87222 a 12,11.999999 0 0 0 -4,8.92578 12,11.999999 0 0 0 4,8.92773 v -0.92773 -4 -4 -4 -4 z" />
      <path
         d="m 389.2726,527.798 a 12,11.999999 0 0 0 -0.70117,4 h 4 4 4 4 4 4 a 12,11.999999 0 0 0 -0.70117,-4 h -3.29883 -4 -4 -4 -4 z"
         id="path4662"
         style="opacity:0.15;fill:url(#linearGradient4674);stroke-width:0.1;stroke-linecap:square"
         inkscape:connector-curvature="0" />
      <path
         d="m 391.6437,523.798 a 12,11.999999 0 0 0 -2.3711,4 h 3.29883 4 4 4 4 3.29883 a 12,11.999999 0 0 0 -2.37305,-4 h -0.92578 -4 -4 -4 -4 z"
         id="path4664"
         style="opacity:0.15;fill:url(#linearGradient4676);stroke-width:0.1;stroke-linecap:square"
         inkscape:connector-curvature="0" />
      <path
         d="m 389.2726,535.798 a 12,11.999999 0 0 0 2.37305,4 h 0.92578 4 4 4 4 0.92773 a 12,11.999999 0 0 0 2.3711,-4 h -3.29883 -4 -4 -4 -4 z"
         id="path4666"
         style="opacity:0.15;fill:url(#linearGradient4678);stroke-width:0.1;stroke-linecap:square"
         inkscape:connector-curvature="0" />
      <path
         d="m 388.57143,531.798 a 12,11.999999 0 0 0 0.70117,4 h 3.29883 4 4 4 4 3.29883 a 12,11.999999 0 0 0 0.70117,-4 h -4 -4 -4 -4 -4 z"
         id="path4668"
         style="opacity:0.15;fill:url(#linearGradient4680);stroke-width:0.1;stroke-linecap:square"
         inkscape:connector-curvature="0" />
      <path
         d="m 391.64565,539.798 a 12,11.999999 0 0 0 8.92578,4 12,11.999999 0 0 0 8.92773,-4 h -0.92773 -4 -4 -4 -4 z"
         id="path4670"
         style="opacity:0.15;fill:url(#linearGradient4682);stroke-width:0.1;stroke-linecap:square"
         inkscape:connector-curvature="0" />
      <path
         d="m 400.57143,519.798 a 12,11.999999 0 0 0 -8.92773,4 h 0.92773 4 4 4 4 0.92578 a 12,11.999999 0 0 0 -8.92578,-4 z"
         id="path4672"
         style="opacity:0.15;fill:url(#linearGradient4684);stroke-width:0.1;stroke-linecap:square"
         inkscape:connector-curvature="0" />
    </g>
    <path
       style="fill:url(#linearGradient4378);fill-rule:evenodd"
       id="path4821"
       d="M 2 2 L 2 16 A 14.000013 14.000013 0 0 0 16 30 A 14.000013 14.000013 0 0 0 30 16 A 14.000013 14.000013 0 0 0 16 2 L 2 2 z M 4 3 A 1 1 0 0 1 5 4 A 1 1 0 0 1 4 5 A 1 1 0 0 1 3 4 A 1 1 0 0 1 4 3 z M 16 4 A 12.000013 12.000013 0 0 1 28 16 A 12.000013 12.000013 0 0 1 16 28 A 12.000013 12.000013 0 0 1 4 16 A 12.000013 12.000013 0 0 1 16 4 z "
       transform="matrix(1 0 0 1 384.57143 515.798)" />
    <path
       style="fill:url(#linearGradient4839);opacity:0.2;stroke-linecap:square;stroke-width:0.1"
       id="rect4819"
       d="M 24.484375 7.515625 L 24.480469 7.5195312 A 12.000013 12.000013 0 0 1 24.607422 7.6386719 L 24.484375 7.515625 z M 24.607422 7.6386719 A 12.000013 12.000013 0 0 1 28 16 A 12.000013 12.000013 0 0 1 16 28 A 12.000013 12.000013 0 0 1 7.5195312 24.480469 L 7.515625 24.484375 L 12.595703 29.566406 A 14.000013 14.000013 0 0 0 16 30 A 14.000013 14.000013 0 0 0 30 16 A 14.000013 14.000013 0 0 0 29.560547 12.589844 L 24.607422 7.6386719 z "
       transform="matrix(1 0 0 1 384.57143 515.798)" />
  </g>
</svg>
