<?xml version="1.0" encoding="UTF-8" standalone="no"?>
<svg
   xmlns:dc="http://purl.org/dc/elements/1.1/"
   xmlns:cc="http://creativecommons.org/ns#"
   xmlns:rdf="http://www.w3.org/1999/02/22-rdf-syntax-ns#"
   xmlns:svg="http://www.w3.org/2000/svg"
   xmlns="http://www.w3.org/2000/svg"
   xmlns:xlink="http://www.w3.org/1999/xlink"
   xmlns:sodipodi="http://sodipodi.sourceforge.net/DTD/sodipodi-0.dtd"
   xmlns:inkscape="http://www.inkscape.org/namespaces/inkscape"
   width="32"
   height="32"
   viewBox="0 0 32 32"
   version="1.1"
   id="svg850"
   inkscape:version="1.0 (1.0+r73+1)"
   sodipodi:docname="folder-html.svg">
  <defs
     id="defs844">
    <style
       type="text/css"
       id="current-color-scheme">
      .ColorScheme-Highlight {
        color:#3daee9;
      }
      </style>
    <linearGradient
       inkscape:collect="always"
       id="linearGradient867">
      <stop
         style="stop-color:#ffffff;stop-opacity:0.23999999"
         offset="0"
         id="stop863" />
      <stop
         style="stop-color:#ffffff;stop-opacity:0"
         offset="1"
         id="stop865" />
    </linearGradient>
    <linearGradient
       gradientUnits="userSpaceOnUse"
       y2="29"
       x2="32"
       y1="8"
       x1="32"
       id="linearGradient897"
       xlink:href="#linearGradient867"
       inkscape:collect="always" />
  </defs>
  <sodipodi:namedview
     id="namedview899"
     pagecolor="#ffffff"
     bordercolor="#666666"
     borderopacity="1.0"
     inkscape:pageopacity="0.0"
     inkscape:pageshadow="2"
     inkscape:zoom="31.678384"
     inkscape:cx="19.008542"
     inkscape:cy="17.034548"
     inkscape:document-units="px"
     inkscape:current-layer="layer1"
     inkscape:document-rotation="0"
     showgrid="true"
     units="px"
     inkscape:window-width="1920"
     inkscape:window-height="1015"
     inkscape:window-x="0"
     inkscape:window-y="0"
     inkscape:window-maximized="1">
    <inkscape:grid
       type="xygrid"
       id="grid1413" />
  </sodipodi:namedview>
  <metadata
     id="metadata847">
    <rdf:RDF>
      <cc:Work
         rdf:about="">
        <dc:format>image/svg+xml</dc:format>
        <dc:type
           rdf:resource="http://purl.org/dc/dcmitype/StillImage" />
        <dc:title></dc:title>
      </cc:Work>
    </rdf:RDF>
  </metadata>
  <g
     inkscape:label="Layer 1"
     inkscape:groupmode="layer"
     id="layer1">
    <path
       sodipodi:nodetypes="ccccccccccc"
       d="m 2,3 h 12 l 2,2 h 14 v 3 h 1 V 28.99995 H 1.00001 L 1,10 h 1 z"
       style="opacity:1;fill:currentColor"
       id="base"
       class="ColorScheme-Highlight" />
    <path
       d="M 13 8 L 11 10 L 2 10 L 1 10 L 1 29 L 31 29 L 31 8 L 13 8 z M 16 13 A 5.0000062 4.9999866 0 0 1 16.511719 13.03125 C 16.513019 13.031378 16.514325 13.031122 16.515625 13.03125 A 5.0000062 4.9999866 0 0 1 16.527344 13.033203 A 5.0000062 4.9999866 0 0 1 16.929688 13.089844 C 17.053812 13.111304 17.175746 13.140545 17.296875 13.171875 A 5.0000062 4.9999866 0 0 1 17.337891 13.181641 C 17.341911 13.182741 17.345609 13.184447 17.349609 13.185547 C 17.394345 13.197737 17.439865 13.20497 17.484375 13.21875 C 17.594051 13.252864 17.703446 13.297424 17.8125 13.339844 C 17.859115 13.357974 17.908335 13.371665 17.953125 13.390625 C 18.195899 13.492972 18.423464 13.620336 18.642578 13.759766 A 5.0000062 4.9999866 0 0 1 18.732422 13.816406 C 18.771776 13.842666 18.809096 13.871078 18.847656 13.898438 A 5.0000062 4.9999866 0 0 1 19.689453 14.634766 C 19.746633 14.693006 19.806645 14.74861 19.859375 14.8125 C 19.889265 14.848738 19.910513 14.892508 19.939453 14.929688 A 5.0000062 4.9999866 0 0 1 20.337891 15.519531 C 20.377349 15.588381 20.412939 15.657676 20.449219 15.728516 A 5.0000062 4.9999866 0 0 1 20.734375 16.40625 C 20.747095 16.444005 20.76945 16.477535 20.78125 16.515625 C 20.831331 16.677325 20.869451 16.839717 20.900391 17.005859 A 5.0000062 4.9999866 0 0 1 20.90625 17.039062 A 5.0000062 4.9999866 0 0 1 21 18 A 5.0000062 4.9999866 0 0 1 20.96875 18.511719 C 20.968622 18.513019 20.968878 18.514325 20.96875 18.515625 A 5.0000062 4.9999866 0 0 1 20.966797 18.527344 A 5.0000062 4.9999866 0 0 1 20.910156 18.929688 C 20.888696 19.053812 20.859455 19.175749 20.828125 19.296875 A 5.0000062 4.9999866 0 0 1 20.818359 19.337891 C 20.817259 19.341911 20.815553 19.345609 20.814453 19.349609 C 20.802263 19.394345 20.79503 19.439875 20.78125 19.484375 C 20.7671 19.530064 20.741972 19.570134 20.726562 19.615234 A 5.0000062 4.9999866 0 0 1 20.435547 20.300781 C 20.400026 20.369026 20.360806 20.43367 20.322266 20.5 A 5.0000062 4.9999866 0 0 1 19.900391 21.125 C 19.861977 21.172709 19.819417 21.215489 19.779297 21.261719 A 5.0000062 4.9999866 0 0 1 19.205078 21.835938 C 19.184278 21.853238 19.161705 21.867796 19.140625 21.884766 A 5.0000062 4.9999866 0 0 1 18.390625 22.390625 C 18.357912 22.408395 18.322443 22.424066 18.289062 22.441406 C 18.03328 22.574266 17.761355 22.69509 17.484375 22.78125 C 17.322675 22.831331 17.160284 22.869451 16.994141 22.900391 A 5.0000062 4.9999866 0 0 1 16.960938 22.90625 A 5.0000062 4.9999866 0 0 1 16 23 A 5.0000062 4.9999866 0 0 1 15.488281 22.96875 A 5.0000062 4.9999866 0 0 1 15.484375 22.96875 C 15.480355 22.96825 15.476656 22.967208 15.472656 22.966797 A 5.0000062 4.9999866 0 0 1 15.070312 22.910156 C 14.946188 22.888696 14.824253 22.859455 14.703125 22.828125 A 5.0000062 4.9999866 0 0 1 14.650391 22.814453 C 14.605655 22.802263 14.560125 22.79503 14.515625 22.78125 C 14.427351 22.7539 14.343953 22.715664 14.257812 22.683594 A 5.0000062 4.9999866 0 0 1 14.142578 22.640625 C 14.012623 22.588525 13.886092 22.53126 13.761719 22.46875 A 5.0000062 4.9999866 0 0 1 13.679688 22.425781 C 13.554243 22.359781 13.431437 22.290954 13.3125 22.214844 A 5.0000062 4.9999866 0 0 1 13.232422 22.158203 C 12.977157 21.987729 12.73506 21.799204 12.515625 21.585938 C 12.423642 21.49654 12.338846 21.400858 12.253906 21.304688 A 5.0000062 4.9999866 0 0 1 12.150391 21.1875 C 12.074105 21.095534 12.003244 20.999644 11.933594 20.902344 A 5.0000062 4.9999866 0 0 1 11.830078 20.753906 C 11.763031 20.652731 11.700305 20.54946 11.640625 20.443359 A 5.0000062 4.9999866 0 0 1 11.568359 20.308594 C 11.506398 20.19007 11.446981 20.07106 11.394531 19.947266 C 11.330362 19.795797 11.26786 19.642917 11.21875 19.484375 C 11.168669 19.32268 11.130549 19.160283 11.099609 18.994141 A 5.0000062 4.9999866 0 0 1 11.09375 18.960938 A 5.0000062 4.9999866 0 0 1 11 18 A 5.0000062 4.9999866 0 0 1 11.03125 17.488281 C 11.031378 17.486981 11.031122 17.485675 11.03125 17.484375 C 11.03175 17.480355 11.032792 17.476656 11.033203 17.472656 A 5.0000062 4.9999866 0 0 1 11.089844 17.070312 C 11.111304 16.946188 11.140545 16.824253 11.171875 16.703125 A 5.0000062 4.9999866 0 0 1 11.185547 16.650391 C 11.197737 16.605655 11.20497 16.560135 11.21875 16.515625 C 11.2461 16.427352 11.284336 16.343953 11.316406 16.257812 A 5.0000062 4.9999866 0 0 1 11.359375 16.142578 C 11.411475 16.012623 11.46875 15.886091 11.53125 15.761719 A 5.0000062 4.9999866 0 0 1 11.574219 15.679688 C 11.640219 15.554243 11.709046 15.431437 11.785156 15.3125 A 5.0000062 4.9999866 0 0 1 11.841797 15.232422 C 12.012271 14.977157 12.200796 14.73506 12.414062 14.515625 C 12.50346 14.423642 12.599153 14.338846 12.695312 14.253906 A 5.0000062 4.9999866 0 0 1 12.8125 14.150391 C 12.904466 14.074105 13.000356 14.003244 13.097656 13.933594 A 5.0000062 4.9999866 0 0 1 13.246094 13.830078 C 13.347269 13.763031 13.45054 13.700305 13.556641 13.640625 A 5.0000062 4.9999866 0 0 1 13.691406 13.568359 C 13.80993 13.506398 13.92894 13.446971 14.052734 13.394531 C 14.204203 13.330362 14.357083 13.26786 14.515625 13.21875 C 14.677325 13.168669 14.839717 13.130549 15.005859 13.099609 A 5.0000062 4.9999866 0 0 1 15.039062 13.09375 A 5.0000062 4.9999866 0 0 1 16 13 z M 16 14 A 4.0000062 3.9999905 0 0 0 15.253906 14.074219 C 15.268736 14.080349 15.285155 14.08385 15.296875 14.09375 C 15.310375 14.10555 15.316325 14.13995 15.328125 14.15625 C 15.350825 14.18705 15.385625 14.18595 15.390625 14.21875 C 15.399725 14.297825 15.321125 14.303425 15.328125 14.390625 C 15.311725 14.425125 15.261625 14.438975 15.265625 14.484375 C 15.271075 14.555875 15.37805 14.490475 15.40625 14.546875 C 15.42174 14.57685 15.401525 14.61345 15.390625 14.65625 C 15.426125 14.69805 15.421175 14.75 15.359375 14.75 C 15.321175 14.75 15.31945 14.6965 15.28125 14.6875 C 15.25944 14.6825 15.230425 14.6925 15.203125 14.6875 C 15.180415 14.68389 15.1468 14.674875 15.125 14.671875 C 15.068665 14.665245 15.017975 14.68895 14.984375 14.65625 C 15.038915 14.58446 15.101875 14.514925 15.171875 14.453125 C 15.192665 14.434025 15.22965 14.4122 15.21875 14.375 C 15.180585 14.34041 15.145675 14.369725 15.109375 14.390625 C 15.070275 14.411525 15.027975 14.447125 14.984375 14.453125 C 14.908925 14.463025 14.796175 14.444375 14.734375 14.484375 C 14.725275 14.517975 14.807775 14.495075 14.796875 14.546875 C 14.765975 14.551875 14.726725 14.567775 14.703125 14.546875 C 14.682495 14.527775 14.7011 14.496175 14.6875 14.484375 C 14.66386 14.465575 14.57035 14.447125 14.53125 14.453125 C 14.48305 14.461225 14.459125 14.505975 14.453125 14.546875 C 14.511305 14.574125 14.6041 14.509025 14.625 14.578125 C 14.594125 14.634475 14.505625 14.658075 14.515625 14.734375 C 14.519225 14.763475 14.553525 14.8075 14.578125 14.8125 C 14.602625 14.817 14.616025 14.795875 14.640625 14.796875 C 14.666025 14.798675 14.673125 14.8175 14.703125 14.8125 C 14.74671 14.7943 14.7625 14.747 14.8125 14.75 C 14.87248 14.823625 14.766725 14.867925 14.703125 14.890625 C 14.630405 14.916925 14.52425 14.929525 14.46875 14.953125 C 14.43966 14.964825 14.343525 15.067075 14.328125 14.984375 C 14.316325 14.925375 14.376925 14.939725 14.390625 14.890625 C 14.319715 14.877025 14.2511 14.928625 14.1875 14.953125 C 14.09569 14.987665 13.943675 14.99106 13.921875 15.09375 C 13.917875 15.11465 13.935475 15.1739 13.921875 15.1875 C 13.911 15.19813 13.8407 15.193125 13.8125 15.203125 C 13.768815 15.218415 13.730425 15.243 13.703125 15.25 C 13.683025 15.2554 13.653325 15.260625 13.640625 15.265625 C 13.604215 15.280125 13.6043 15.326575 13.5625 15.359375 C 13.54609 15.372875 13.497975 15.377025 13.484375 15.390625 C 13.460765 15.414225 13.44805 15.475375 13.40625 15.484375 C 13.37985 15.486375 13.36825 15.468975 13.34375 15.484375 C 13.34175 15.542535 13.36825 15.612775 13.34375 15.671875 C 13.29011 15.716375 13.22535 15.757775 13.15625 15.796875 C 13.118065 15.818565 13.093175 15.82105 13.046875 15.84375 C 13.01411 15.86005 12.9747 15.900075 12.9375 15.921875 C 12.85023 15.972775 12.75 16.02629 12.75 16.15625 C 12.75 16.18435 12.760625 16.2173 12.765625 16.25 C 12.767625 16.2691 12.764625 16.2916 12.765625 16.3125 C 12.771625 16.35976 12.805625 16.43605 12.765625 16.46875 C 12.704715 16.44335 12.620825 16.4187 12.578125 16.375 C 12.566225 16.3296 12.59775 16.2909 12.59375 16.25 C 12.58924 16.2173 12.542925 16.16125 12.515625 16.15625 C 12.488325 16.15165 12.482225 16.1885 12.453125 16.1875 C 12.450205 16.1872 12.444706 16.182561 12.441406 16.181641 A 4.0000062 3.9999905 0 0 0 12.060547 17.333984 C 12.122766 17.328268 12.182965 17.318825 12.234375 17.328125 C 12.270775 17.334485 12.360375 17.3821 12.359375 17.4375 C 12.358485 17.4793 12.3175 17.517 12.3125 17.5625 C 12.3071 17.61975 12.28325 17.687975 12.28125 17.734375 C 12.27762 17.809805 12.38875 17.9385 12.46875 17.9375 C 12.5551 17.9366 12.61422 17.86075 12.71875 17.90625 C 12.753335 17.92085 12.789925 17.97075 12.828125 17.96875 C 12.859925 17.96695 12.900975 17.9132 12.921875 17.875 C 12.948185 17.828635 12.9545 17.789225 13 17.765625 C 13.04908 17.740225 13.09355 17.74235 13.15625 17.71875 C 13.18436 17.70886 13.208875 17.689075 13.234375 17.671875 C 13.256175 17.657245 13.269575 17.62905 13.296875 17.65625 C 13.333275 17.69256 13.25035 17.695275 13.28125 17.734375 C 13.343975 17.767975 13.376375 17.672875 13.421875 17.671875 C 13.436375 17.670975 13.489225 17.717075 13.515625 17.734375 C 13.551025 17.757975 13.55465 17.8055 13.59375 17.8125 C 13.618325 17.818 13.667625 17.77625 13.703125 17.78125 C 13.7495 17.78765 13.777 17.84475 13.8125 17.84375 C 13.855165 17.84285 13.885475 17.78825 13.921875 17.78125 C 14.00191 17.76585 14.027 17.79375 14.0625 17.84375 C 14.1016 17.85105 14.0886 17.809925 14.125 17.828125 C 14.105 17.868125 14.13995 17.87345 14.15625 17.90625 C 14.16488 17.92705 14.161875 17.944125 14.171875 17.953125 C 14.19365 17.973925 14.24945 17.98 14.28125 18 C 14.31485 18.020865 14.321175 18.064775 14.359375 18.109375 C 14.399365 18.154785 14.462925 18.1835 14.515625 18.1875 C 14.56564 18.1905 14.61445 18.1825 14.65625 18.1875 C 14.74988 18.199265 14.8096 18.245975 14.875 18.296875 C 14.91221 18.324975 14.941325 18.3413 14.953125 18.375 C 14.962125 18.3986 14.944125 18.44235 14.953125 18.46875 C 14.973025 18.52599 15.076875 18.542425 15.046875 18.640625 C 15.060475 18.668825 15.076675 18.683125 15.109375 18.703125 C 15.135685 18.719425 15.1593 18.745 15.1875 18.75 C 15.20561 18.753 15.249325 18.749 15.265625 18.75 C 15.317425 18.7536 15.346025 18.76405 15.390625 18.78125 C 15.418735 18.79115 15.45055 18.7998 15.46875 18.8125 C 15.49145 18.8279 15.487425 18.877025 15.515625 18.890625 C 15.5338 18.899625 15.5941 18.886625 15.625 18.890625 C 15.674125 18.896025 15.721925 18.9365 15.765625 18.9375 C 15.791925 18.9385 15.804425 18.9365 15.828125 18.9375 C 15.939935 18.94659 16.01773 19.069375 16.125 19.109375 C 16.158675 19.122005 16.211575 19.115 16.234375 19.125 C 16.274375 19.14227 16.292875 19.258 16.296875 19.3125 C 16.305965 19.47789 16.182975 19.531575 16.109375 19.640625 C 16.093985 19.66331 16.0843 19.7182 16.0625 19.75 C 16.01889 19.81452 15.978375 19.81936 15.984375 19.9375 C 15.985275 19.9702 16 19.979325 16 20.015625 C 16 20.059255 15.994375 20.132775 15.984375 20.171875 C 15.976745 20.201885 15.97375 20.2228 15.96875 20.25 C 15.96375 20.27731 15.97175 20.304525 15.96875 20.328125 C 15.96505 20.354425 15.941875 20.385575 15.921875 20.421875 C 15.880065 20.500025 15.851025 20.5941 15.765625 20.625 C 15.714725 20.6431 15.64825 20.63715 15.59375 20.65625 C 15.57104 20.66444 15.542925 20.690325 15.515625 20.703125 C 15.436545 20.740385 15.318675 20.7932 15.296875 20.875 C 15.276775 20.94769 15.341825 21.01105 15.328125 21.09375 C 15.313635 21.11835 15.30305 21.12805 15.28125 21.15625 C 15.26215 21.18255 15.23965 21.208875 15.21875 21.234375 C 15.19155 21.26796 15.1413 21.29735 15.125 21.34375 C 15.12 21.35904 15.131 21.366125 15.125 21.390625 C 15.1223 21.399625 15.10175 21.404675 15.09375 21.421875 C 15.08675 21.437375 15.09975 21.4873 15.09375 21.5 C 15.07285 21.541825 14.997725 21.627925 14.953125 21.640625 C 14.858585 21.667025 14.768525 21.58105 14.703125 21.59375 C 14.712225 21.64005 14.743825 21.6557 14.765625 21.6875 C 14.777255 21.7057 14.76405 21.73 14.78125 21.75 C 14.80214 21.7736 14.826125 21.7861 14.828125 21.8125 C 14.828625 21.81782 14.822478 21.819119 14.822266 21.824219 A 4.0000062 3.9999905 0 0 0 16 22 A 4.0000062 3.9999905 0 0 0 19.21875 20.365234 C 19.218998 20.361834 19.218485 20.362875 19.21875 20.359375 C 19.22605 20.201245 19.136625 20.116705 19.140625 19.953125 C 19.139625 19.884975 19.187075 19.820125 19.234375 19.765625 C 19.33435 19.596595 19.38625 19.49643 19.40625 19.34375 C 19.39535 19.31195 19.41805 19.30675 19.40625 19.28125 C 19.359915 19.18037 19.332025 19.0763 19.265625 19 C 19.22925 18.958235 19.18625 18.928825 19.15625 18.890625 C 19.13175 18.85975 19.09375 18.80495 19.09375 18.78125 C 19.09285 18.75495 19.102375 18.729525 19.109375 18.703125 C 19.118375 18.669505 19.127925 18.599575 19.140625 18.546875 C 19.146025 18.522375 19.176875 18.492225 19.171875 18.453125 C 19.167325 18.414965 19.1107 18.3243 19.0625 18.3125 C 18.99887 18.2971 18.939375 18.3195 18.859375 18.3125 C 18.789375 18.26798 18.7875 18.155225 18.6875 18.140625 C 18.5566 18.121495 18.418125 18.195275 18.328125 18.234375 C 18.276315 18.257075 18.217375 18.27825 18.171875 18.28125 C 18.128275 18.28405 18.088675 18.255 18.046875 18.25 C 17.992325 18.2445 17.9286 18.27225 17.875 18.28125 C 17.823185 18.29025 17.780775 18.3085 17.734375 18.3125 C 17.646185 18.31887 17.571125 18.2311 17.515625 18.1875 C 17.48194 18.1612 17.43805 18.1495 17.40625 18.125 C 17.372575 18.0987 17.323175 18.0879 17.296875 18.0625 C 17.261375 18.02796 17.253475 17.95255 17.234375 17.90625 C 17.211655 17.851725 17.161175 17.817425 17.109375 17.765625 C 17.071195 17.727455 16.97875 17.658475 16.96875 17.609375 C 16.96325 17.583965 16.986375 17.55845 16.984375 17.53125 C 16.981675 17.49135 16.9365 17.4657 16.9375 17.4375 C 16.9384 17.3976 16.9891 17.37735 17 17.34375 C 17.005 17.32655 16.994 17.30305 17 17.28125 C 17.01269 17.234925 17.052875 17.207825 17.046875 17.140625 C 17.044165 17.113415 17.03225 17.097 17.03125 17.0625 C 17.03025 17.0389 17.048875 17.0218 17.046875 17 C 17.044175 16.961 16.988375 16.95075 16.984375 16.90625 C 16.978875 16.859925 17.017775 16.818325 17.046875 16.765625 C 17.059465 16.742025 17.08195 16.721325 17.09375 16.703125 C 17.11916 16.66494 17.151875 16.63195 17.171875 16.59375 C 17.185505 16.56565 17.1747 16.5209 17.1875 16.5 C 17.2047 16.47269 17.24945 16.457275 17.28125 16.421875 C 17.30675 16.392775 17.32555 16.372075 17.34375 16.359375 C 17.36646 16.343075 17.397375 16.3234 17.421875 16.3125 C 17.50635 16.27342 17.55285 16.221525 17.59375 16.140625 C 17.58184 16.0679 17.610625 16.0509 17.640625 16 C 17.668725 15.952785 17.687175 15.886675 17.734375 15.859375 C 17.791635 15.826665 17.86625 15.84125 17.90625 15.78125 C 17.92625 15.75035 17.9375 15.68805 17.9375 15.65625 C 17.9375 15.611775 17.899375 15.552875 17.859375 15.546875 C 17.817575 15.539875 17.758075 15.591475 17.734375 15.546875 C 17.727375 15.532375 17.738375 15.500775 17.734375 15.484375 C 17.728975 15.454475 17.6885 15.412425 17.6875 15.390625 C 17.6848 15.347925 17.7373 15.314725 17.75 15.265625 C 17.7673 15.198375 17.754 15.155425 17.75 15.078125 C 17.81363 14.977335 17.95285 15.02225 18.09375 15.03125 C 18.11465 15.03325 18.13345 15.03125 18.15625 15.03125 C 18.23987 15.03305 18.31555 15.04145 18.34375 14.96875 C 18.35465 14.94149 18.35075 14.853525 18.34375 14.828125 C 18.33815 14.80412 18.308213 14.75312 18.283203 14.71875 A 4.0000062 3.9999905 0 0 0 18.216797 14.673828 C 18.173825 14.665608 18.127615 14.66206 18.109375 14.625 C 18.110875 14.61848 18.114887 14.618081 18.117188 14.613281 A 4.0000062 3.9999905 0 0 0 16 14 z M 13.361328 15 A 4.0000062 3.9999905 0 0 0 13.341797 15.017578 C 13.396046 15.037958 13.51752 15.05643 13.53125 15 C 13.52215 14.991 13.49145 15 13.46875 15 C 13.44595 15 13.42715 14.999 13.40625 15 C 13.39226 15.0019 13.373468 14.9985 13.361328 15 z M 18.705078 15.060547 C 18.701438 15.065747 18.69875 15.067885 18.6875 15.078125 C 18.68651 15.104425 18.6915 15.111525 18.6875 15.140625 C 18.672935 15.166015 18.609925 15.1703 18.578125 15.1875 C 18.53084 15.212085 18.50695 15.258675 18.46875 15.296875 C 18.44425 15.321375 18.41025 15.340275 18.40625 15.359375 C 18.40345 15.373875 18.424875 15.401875 18.421875 15.421875 C 18.417365 15.443685 18.37095 15.4809 18.34375 15.5 C 18.32735 15.5108 18.314175 15.52125 18.296875 15.53125 C 18.260465 15.55215 18.24875 15.58775 18.21875 15.59375 C 18.13876 15.60825 17.983375 15.57175 17.984375 15.65625 C 17.985285 15.71175 18.062975 15.72075 18.109375 15.71875 C 18.1739 15.71575 18.2146 15.72775 18.25 15.71875 C 18.2745 15.71246 18.31835 15.683675 18.34375 15.671875 C 18.36015 15.664245 18.377925 15.66225 18.390625 15.65625 C 18.417925 15.64265 18.432225 15.619375 18.453125 15.609375 C 18.494945 15.590375 18.5804 15.5655 18.625 15.5625 C 18.68681 15.5575 18.7334 15.5685 18.8125 15.5625 C 18.8406 15.5607 18.860625 15.548875 18.890625 15.546875 C 18.940625 15.542285 19.0225 15.5635 19.0625 15.5625 C 19.0906 15.5625 19.12345 15.546875 19.15625 15.546875 A 4.0000062 3.9999905 0 0 0 18.705078 15.060547 z M 19.234375 15.65625 C 19.238875 15.68895 19.267625 15.69695 19.265625 15.71875 C 19.263825 15.746915 19.1775 15.794525 19.1875 15.828125 C 19.1938 15.849025 19.25665 15.875225 19.28125 15.890625 C 19.306715 15.90606 19.359725 15.90325 19.390625 15.90625 C 19.396195 15.907125 19.399697 15.906144 19.404297 15.90625 A 4.0000062 3.9999905 0 0 0 19.234375 15.65625 z M 12.015625 17.664062 A 4.0000062 3.9999905 0 0 0 12 18 A 4.0000062 3.9999905 0 0 0 13.5 21.117188 C 13.49925 21.094378 13.4985 21.070045 13.5 21.046875 C 13.505 20.989625 13.499 20.9313 13.5 20.875 C 13.501 20.8586 13.5 20.8288 13.5 20.8125 C 13.5 20.7652 13.486375 20.7348 13.484375 20.6875 C 13.480375 20.60116 13.497975 20.533125 13.484375 20.453125 C 13.473385 20.392235 13.4593 20.303825 13.4375 20.265625 C 13.41296 20.222925 13.313825 20.167925 13.265625 20.140625 C 13.233825 20.122525 13.206375 20.11105 13.171875 20.09375 C 13.098235 20.0574 12.93895 19.97985 12.90625 19.90625 C 12.89725 19.88455 12.91625 19.8361 12.90625 19.8125 C 12.886275 19.7652 12.826875 19.732 12.796875 19.6875 C 12.74054 19.60116 12.71355 19.49445 12.65625 19.40625 C 12.62725 19.36085 12.5943 19.31665 12.5625 19.28125 C 12.5434 19.26034 12.491375 19.234925 12.484375 19.203125 C 12.474385 19.1604 12.4325 19.0943 12.4375 19.0625 C 12.4438 19.0189 12.53125 19.00875 12.53125 18.96875 C 12.53125 18.93515 12.493375 18.9032 12.484375 18.875 C 12.461665 18.80502 12.50395 18.761225 12.53125 18.703125 C 12.53988 18.684025 12.537875 18.654225 12.546875 18.640625 C 12.563275 18.616125 12.587575 18.605325 12.609375 18.578125 C 12.622075 18.563625 12.63995 18.537425 12.65625 18.515625 C 12.690825 18.47014 12.751025 18.44805 12.765625 18.40625 C 12.777425 18.37263 12.779225 18.21255 12.765625 18.15625 C 12.757425 18.12355 12.73055 18.0934 12.71875 18.0625 C 12.69785 18.0071 12.6814 17.9365 12.625 17.9375 C 12.58949 17.9375 12.569575 17.9755 12.546875 18 C 12.541385 18.0327 12.5336 18.08375 12.5 18.09375 C 12.4482 18.10925 12.435 18.0182 12.375 18 C 12.3514 17.993 12.3279 18.006 12.3125 18 C 12.268815 17.980025 12.249425 17.916025 12.203125 17.890625 C 12.16496 17.869725 12.11735 17.859925 12.09375 17.828125 C 12.08475 17.806325 12.09575 17.7791 12.09375 17.75 C 12.0661 17.73393 12.039825 17.699362 12.015625 17.664062 z M 13.265625 17.859375 C 13.232925 17.874875 13.231925 17.926875 13.265625 17.921875 C 13.301025 17.916375 13.309325 17.839375 13.265625 17.859375 z "
       style="opacity:1;fill:url(#linearGradient897);fill-opacity:1"
       id="gradient" />
    <path
       d="M 14,3 H 2 v 7 h 9 L 13,8 H 30 V 5 H 16 Z"
       style="opacity:0.3;fill:#000000;fill-opacity:1;fill-rule:evenodd"
       id="back"
       sodipodi:nodetypes="ccccccccc" />
    <path
       id="highlight"
       style="fill:#ffffff;fill-opacity:1;fill-rule:evenodd;opacity:0.23"
       d="M 14 3 L 15 6 L 30 6 L 30 5 L 16 5 L 14 3 z M 13 8 L 11 10 L 1 10 L 1 11 L 12 11 L 13 8 z " />
    <path
       id="shadow"
       style="fill-opacity:1;fill-rule:evenodd;fill:#000000;opacity:0.23"
       d="M 13,8 11,9 H 2 v 1 h 9 z M 1,28 v 1 h 30 v -1 z"
       sodipodi:nodetypes="ccccccccccc" />
    <path
       style="fill:#000000;fill-opacity:1;opacity:0.3"
       id="path4183"
       d="m 16,13 a 5.0000062,4.9999866 0 0 0 -0.960938,0.09375 5.0000062,4.9999866 0 0 0 -0.0332,0.0059 c -0.166142,0.03094 -0.328534,0.06906 -0.490234,0.119141 -0.158542,0.04911 -0.311422,0.111612 -0.462891,0.175781 -0.123794,0.05244 -0.242804,0.111867 -0.361328,0.173828 a 5.0000062,4.9999866 0 0 0 -0.134765,0.07227 c -0.106101,0.05968 -0.209372,0.122406 -0.310547,0.189453 a 5.0000062,4.9999866 0 0 0 -0.148438,0.103516 c -0.0973,0.06965 -0.19319,0.140511 -0.285156,0.216797 a 5.0000062,4.9999866 0 0 0 -0.117188,0.103515 c -0.09616,0.08494 -0.191852,0.169736 -0.28125,0.261719 -0.213266,0.219435 -0.401791,0.461532 -0.572265,0.716797 a 5.0000062,4.9999866 0 0 0 -0.05664,0.08008 c -0.07611,0.118937 -0.144937,0.241743 -0.210937,0.367188 a 5.0000062,4.9999866 0 0 0 -0.04297,0.08203 c -0.0625,0.124372 -0.119775,0.250904 -0.171875,0.380859 a 5.0000062,4.9999866 0 0 0 -0.04297,0.115234 c -0.03207,0.08614 -0.07031,0.16954 -0.09766,0.257813 -0.01378,0.04451 -0.02101,0.09003 -0.0332,0.134766 a 5.0000062,4.9999866 0 0 0 -0.01367,0.05273 c -0.03133,0.121128 -0.06057,0.243063 -0.08203,0.367187 a 5.0000062,4.9999866 0 0 0 -0.05664,0.402344 c -4.11e-4,0.004 -0.0015,0.0077 -0.002,0.01172 -1.28e-4,0.0013 1.28e-4,0.0026 0,0.0039 A 5.0000062,4.9999866 0 0 0 11,18 a 5.0000062,4.9999866 0 0 0 0.09375,0.960938 5.0000062,4.9999866 0 0 0 0.0059,0.0332 c 0.03094,0.166142 0.06906,0.328539 0.119141,0.490234 0.04911,0.158542 0.111612,0.311422 0.175781,0.462891 0.05245,0.123794 0.111867,0.242804 0.173828,0.361328 a 5.0000062,4.9999866 0 0 0 0.07227,0.134765 c 0.05968,0.106101 0.122406,0.209372 0.189453,0.310547 a 5.0000062,4.9999866 0 0 0 0.103516,0.148438 c 0.06965,0.0973 0.140511,0.19319 0.216797,0.285156 a 5.0000062,4.9999866 0 0 0 0.103515,0.117188 c 0.08494,0.09617 0.169736,0.191852 0.261719,0.28125 0.219435,0.213266 0.461532,0.401791 0.716797,0.572265 a 5.0000062,4.9999866 0 0 0 0.08008,0.05664 c 0.118937,0.07611 0.241743,0.144937 0.367188,0.210937 a 5.0000062,4.9999866 0 0 0 0.08203,0.04297 c 0.124373,0.06251 0.250904,0.119775 0.380859,0.171875 a 5.0000062,4.9999866 0 0 0 0.115234,0.04297 c 0.08614,0.03207 0.169539,0.07031 0.257813,0.09766 0.0445,0.01378 0.09003,0.02101 0.134766,0.0332 a 5.0000062,4.9999866 0 0 0 0.05273,0.01367 c 0.121128,0.03133 0.243063,0.06057 0.367187,0.08203 a 5.0000062,4.9999866 0 0 0 0.402344,0.05664 c 0.004,4.11e-4 0.0077,0.0015 0.01172,0.002 a 5.0000062,4.9999866 0 0 0 0.0039,0 A 5.0000062,4.9999866 0 0 0 16,23 a 5.0000062,4.9999866 0 0 0 0.960938,-0.09375 5.0000062,4.9999866 0 0 0 0.0332,-0.0059 c 0.166143,-0.03094 0.328534,-0.06906 0.490234,-0.119141 0.27698,-0.08616 0.548905,-0.206984 0.804687,-0.339844 0.03338,-0.01734 0.06885,-0.03301 0.101563,-0.05078 a 5.0000062,4.9999866 0 0 0 0.75,-0.505859 c 0.02108,-0.01697 0.04365,-0.03153 0.06445,-0.04883 a 5.0000062,4.9999866 0 0 0 0.574219,-0.574219 c 0.04012,-0.04623 0.08268,-0.08901 0.121094,-0.136719 A 5.0000062,4.9999866 0 0 0 20.322266,20.5 c 0.03854,-0.06633 0.07776,-0.130974 0.113281,-0.199219 a 5.0000062,4.9999866 0 0 0 0.291015,-0.685547 c 0.01541,-0.0451 0.04054,-0.08517 0.05469,-0.130859 0.01378,-0.0445 0.02101,-0.09003 0.0332,-0.134766 0.0011,-0.004 0.0028,-0.0077 0.0039,-0.01172 a 5.0000062,4.9999866 0 0 0 0.0098,-0.04102 c 0.03133,-0.121126 0.06057,-0.243063 0.08203,-0.367187 a 5.0000062,4.9999866 0 0 0 0.05664,-0.402344 5.0000062,4.9999866 0 0 0 0.002,-0.01172 c 1.28e-4,-0.0013 -1.28e-4,-0.0026 0,-0.0039 A 5.0000062,4.9999866 0 0 0 21,18 a 5.0000062,4.9999866 0 0 0 -0.09375,-0.960938 5.0000062,4.9999866 0 0 0 -0.0059,-0.0332 c -0.03094,-0.166142 -0.06906,-0.328534 -0.119141,-0.490234 -0.0118,-0.03809 -0.03415,-0.07162 -0.04687,-0.109375 a 5.0000062,4.9999866 0 0 0 -0.285156,-0.677734 c -0.03628,-0.07084 -0.07187,-0.140135 -0.111328,-0.208985 a 5.0000062,4.9999866 0 0 0 -0.398438,-0.589843 c -0.02894,-0.03718 -0.05019,-0.08095 -0.08008,-0.117188 -0.05273,-0.06389 -0.112742,-0.119494 -0.169922,-0.177734 a 5.0000062,4.9999866 0 0 0 -0.841797,-0.736328 c -0.03856,-0.02736 -0.07588,-0.05577 -0.115234,-0.08203 a 5.0000062,4.9999866 0 0 0 -0.08984,-0.05664 c -0.219114,-0.13943 -0.446679,-0.266794 -0.689453,-0.369141 -0.04479,-0.01896 -0.09401,-0.03265 -0.140625,-0.05078 -0.109054,-0.04242 -0.218449,-0.08698 -0.328125,-0.121094 -0.04451,-0.01378 -0.09003,-0.02101 -0.134766,-0.0332 -0.004,-0.0011 -0.0077,-0.0028 -0.01172,-0.0039 a 5.0000062,4.9999866 0 0 0 -0.04102,-0.0098 c -0.121129,-0.03133 -0.243063,-0.06057 -0.367187,-0.08203 a 5.0000062,4.9999866 0 0 0 -0.402344,-0.05664 5.0000062,4.9999866 0 0 0 -0.01172,-0.002 c -0.0013,-1.28e-4 -0.0026,1.28e-4 -0.0039,0 A 5.0000062,4.9999866 0 0 0 16,13 Z m 0,1 a 4.0000062,3.9999905 0 0 1 2.117188,0.613281 c -0.0023,0.0048 -0.0063,0.0052 -0.0078,0.01172 0.01824,0.03706 0.06445,0.04061 0.107422,0.04883 a 4.0000062,3.9999905 0 0 1 0.06641,0.04492 c 0.02501,0.03437 0.05495,0.08537 0.06055,0.109375 0.007,0.0254 0.0109,0.113365 0,0.140625 -0.0282,0.0727 -0.10388,0.0643 -0.1875,0.0625 -0.0228,0 -0.0416,0.002 -0.0625,0 -0.1409,-0.009 -0.28012,-0.05392 -0.34375,0.04687 0.004,0.0773 0.0173,0.12025 0,0.1875 -0.0127,0.0491 -0.0652,0.0823 -0.0625,0.125 0.001,0.0218 0.04147,0.06385 0.04687,0.09375 0.004,0.0164 -0.007,0.048 0,0.0625 0.0237,0.0446 0.0832,-0.007 0.125,0 0.04,0.006 0.07813,0.0649 0.07813,0.109375 0,0.0318 -0.01125,0.0941 -0.03125,0.125 -0.04,0.06 -0.114615,0.04542 -0.171875,0.07813 -0.0472,0.0273 -0.06565,0.09341 -0.09375,0.140625 -0.03,0.0509 -0.05878,0.0679 -0.04687,0.140625 -0.0409,0.0809 -0.0874,0.132795 -0.171875,0.171875 -0.0245,0.0109 -0.05542,0.03057 -0.07813,0.04687 -0.0182,0.0127 -0.037,0.0334 -0.0625,0.0625 -0.0318,0.0354 -0.07655,0.05082 -0.09375,0.07813 -0.0128,0.0209 -0.002,0.06565 -0.01563,0.09375 -0.02,0.0382 -0.05272,0.07119 -0.07813,0.109375 -0.0118,0.0182 -0.03428,0.0389 -0.04687,0.0625 -0.0291,0.0527 -0.068,0.0943 -0.0625,0.140625 0.004,0.0445 0.0598,0.05475 0.0625,0.09375 0.002,0.0218 -0.01663,0.0389 -0.01563,0.0625 0.001,0.0345 0.01292,0.05092 0.01563,0.07813 0.006,0.0672 -0.03418,0.0943 -0.04687,0.140625 -0.006,0.0218 0.005,0.0453 0,0.0625 -0.0109,0.0336 -0.0616,0.05385 -0.0625,0.09375 -10e-4,0.0282 0.04417,0.05385 0.04687,0.09375 0.002,0.0272 -0.02113,0.05272 -0.01563,0.07813 0.01,0.0491 0.102445,0.11808 0.140625,0.15625 0.0518,0.0518 0.10228,0.0861 0.125,0.140625 0.0191,0.0463 0.027,0.12171 0.0625,0.15625 0.0263,0.0254 0.0757,0.0362 0.109375,0.0625 0.0318,0.0245 0.07569,0.0362 0.109375,0.0625 0.0555,0.0436 0.13056,0.13137 0.21875,0.125 0.0464,-0.004 0.08881,-0.02225 0.140625,-0.03125 0.0536,-0.009 0.117325,-0.03675 0.171875,-0.03125 0.0418,0.005 0.0814,0.03405 0.125,0.03125 0.0455,-0.003 0.10444,-0.02417 0.15625,-0.04687 0.09,-0.0391 0.228475,-0.11288 0.359375,-0.09375 0.1,0.0146 0.101875,0.127355 0.171875,0.171875 0.08,0.007 0.139495,-0.0154 0.203125,0 0.0482,0.0118 0.104825,0.102465 0.109375,0.140625 0.005,0.0391 -0.02585,0.06925 -0.03125,0.09375 -0.0127,0.0527 -0.02225,0.12263 -0.03125,0.15625 -0.007,0.0264 -0.01653,0.05183 -0.01563,0.07813 0,0.0237 0.038,0.0785 0.0625,0.109375 0.03,0.0382 0.073,0.06761 0.109375,0.109375 0.0664,0.0763 0.09429,0.18037 0.140625,0.28125 0.0118,0.0255 -0.0109,0.0307 0,0.0625 -0.02,0.15268 -0.0719,0.252845 -0.171875,0.421875 -0.0473,0.0545 -0.09475,0.11935 -0.09375,0.1875 -0.004,0.16358 0.08543,0.24812 0.07813,0.40625 -2.65e-4,0.0035 2.48e-4,0.0025 0,0.0059 A 4.0000062,3.9999905 0 0 1 16,22 4.0000062,3.9999905 0 0 1 14.822266,21.824219 c 2.12e-4,-0.0051 0.0064,-0.0064 0.0059,-0.01172 -0.002,-0.0264 -0.02598,-0.0389 -0.04687,-0.0625 -0.0172,-0.02 -0.004,-0.0443 -0.01563,-0.0625 -0.0218,-0.0318 -0.0534,-0.04745 -0.0625,-0.09375 0.0654,-0.0127 0.15546,0.07327 0.25,0.04687 0.0446,-0.0127 0.119725,-0.0988 0.140625,-0.140625 0.006,-0.0127 -0.007,-0.06263 0,-0.07813 0.008,-0.0172 0.02855,-0.02225 0.03125,-0.03125 0.006,-0.0245 -0.005,-0.03158 0,-0.04687 0.0163,-0.0464 0.06655,-0.07579 0.09375,-0.109375 0.0209,-0.0255 0.0434,-0.05183 0.0625,-0.07813 0.0218,-0.0282 0.03238,-0.0379 0.04687,-0.0625 0.0137,-0.0827 -0.05135,-0.14606 -0.03125,-0.21875 0.0218,-0.0818 0.13967,-0.134615 0.21875,-0.171875 0.0273,-0.0128 0.05542,-0.03868 0.07813,-0.04687 0.0545,-0.0191 0.120975,-0.01315 0.171875,-0.03125 0.0854,-0.0309 0.11444,-0.124975 0.15625,-0.203125 0.02,-0.0363 0.04317,-0.06745 0.04687,-0.09375 0.003,-0.0236 -0.005,-0.05082 0,-0.07813 0.005,-0.0272 0.008,-0.04812 0.01563,-0.07813 0.01,-0.0391 0.01563,-0.11262 0.01563,-0.15625 0,-0.0363 -0.01473,-0.04543 -0.01563,-0.07813 -0.006,-0.11814 0.03452,-0.12298 0.07813,-0.1875 0.0218,-0.0318 0.03148,-0.08669 0.04687,-0.109375 0.0736,-0.10905 0.19659,-0.162735 0.1875,-0.328125 -0.004,-0.0545 -0.0225,-0.17023 -0.0625,-0.1875 -0.0228,-0.01 -0.0757,-0.003 -0.109375,-0.01563 -0.10727,-0.04 -0.185065,-0.162785 -0.296875,-0.171875 -0.0237,-0.001 -0.0362,10e-4 -0.0625,0 -0.0437,-0.001 -0.0915,-0.04147 -0.140625,-0.04687 -0.0309,-0.004 -0.0912,0.009 -0.109375,0 -0.0282,-0.0136 -0.02417,-0.06273 -0.04687,-0.07813 -0.0182,-0.0127 -0.05002,-0.02135 -0.07813,-0.03125 -0.0446,-0.0172 -0.0732,-0.02765 -0.125,-0.03125 -0.0163,-0.001 -0.06002,0.003 -0.07813,0 -0.0282,-0.005 -0.05182,-0.03057 -0.07813,-0.04687 -0.0327,-0.02 -0.0489,-0.0343 -0.0625,-0.0625 0.03,-0.0982 -0.07385,-0.114635 -0.09375,-0.171875 -0.009,-0.0264 0.009,-0.07015 0,-0.09375 -0.0118,-0.0337 -0.04092,-0.05003 -0.07813,-0.07813 -0.0654,-0.0509 -0.12512,-0.09761 -0.21875,-0.109375 -0.0418,-0.005 -0.09061,0.003 -0.140625,0 -0.0527,-0.004 -0.11626,-0.03272 -0.15625,-0.07813 -0.0382,-0.0446 -0.04453,-0.08851 -0.07813,-0.109375 -0.0318,-0.02 -0.0876,-0.02607 -0.109375,-0.04687 -0.01,-0.009 -0.007,-0.02607 -0.01563,-0.04687 -0.0163,-0.0328 -0.05125,-0.03813 -0.03125,-0.07813 -0.0364,-0.0182 -0.0234,0.02293 -0.0625,0.01563 -0.0355,-0.05 -0.06059,-0.0779 -0.140625,-0.0625 -0.0364,0.007 -0.06671,0.0616 -0.109375,0.0625 -0.0355,0.001 -0.063,-0.0561 -0.109375,-0.0625 -0.0355,-0.005 -0.0848,0.03675 -0.109375,0.03125 -0.0391,-0.007 -0.04273,-0.05453 -0.07813,-0.07813 -0.0264,-0.0173 -0.07925,-0.0634 -0.09375,-0.0625 -0.0455,10e-4 -0.0779,0.0961 -0.140625,0.0625 -0.0309,-0.0391 0.05203,-0.04182 0.01563,-0.07813 -0.0273,-0.0272 -0.0407,0.001 -0.0625,0.01563 -0.0255,0.0172 -0.05002,0.03698 -0.07813,0.04687 -0.0627,0.0236 -0.10717,0.02147 -0.15625,0.04687 -0.0455,0.0236 -0.05182,0.06301 -0.07813,0.109375 -0.0209,0.0382 -0.06195,0.09195 -0.09375,0.09375 -0.0382,0.002 -0.07479,-0.0479 -0.109375,-0.0625 -0.10453,-0.0455 -0.16365,0.03035 -0.25,0.03125 -0.08,0.001 -0.19113,-0.127695 -0.1875,-0.203125 0.002,-0.0464 0.02585,-0.114625 0.03125,-0.171875 0.005,-0.0455 0.04598,-0.0832 0.04687,-0.125 0.001,-0.0554 -0.0886,-0.103015 -0.125,-0.109375 -0.05141,-0.0093 -0.111609,1.84e-4 -0.173828,0.0059 a 4.0000062,3.9999905 0 0 1 0.380859,-1.152343 c 0.0033,9.2e-4 0.0088,0.0056 0.01172,0.0059 0.0291,10e-4 0.0352,-0.03585 0.0625,-0.03125 0.0273,0.005 0.07362,0.06105 0.07813,0.09375 0.004,0.0409 -0.02753,0.0796 -0.01563,0.125 0.0427,0.0437 0.12659,0.06835 0.1875,0.09375 0.04,-0.0327 0.006,-0.10899 0,-0.15625 -10e-4,-0.0209 0.002,-0.0434 0,-0.0625 -0.005,-0.0327 -0.01563,-0.06565 -0.01563,-0.09375 0,-0.12996 0.10023,-0.183475 0.1875,-0.234375 0.0372,-0.0218 0.07661,-0.06183 0.109375,-0.07813 0.0463,-0.0227 0.07119,-0.02518 0.109375,-0.04687 0.0691,-0.0391 0.13386,-0.0805 0.1875,-0.125 0.0245,-0.0591 -0.002,-0.12934 0,-0.1875 0.0245,-0.0154 0.0361,0.002 0.0625,0 0.0418,-0.009 0.05452,-0.07015 0.07813,-0.09375 0.0136,-0.0136 0.06172,-0.01775 0.07813,-0.03125 0.0418,-0.0328 0.04172,-0.07925 0.07813,-0.09375 0.0127,-0.005 0.0424,-0.01023 0.0625,-0.01563 0.0273,-0.007 0.06569,-0.03158 0.109375,-0.04687 0.0282,-0.01 0.0985,-0.005 0.109375,-0.01563 0.0136,-0.0136 -0.004,-0.07285 0,-0.09375 0.0218,-0.10269 0.173815,-0.106085 0.265625,-0.140625 0.0636,-0.0245 0.132215,-0.0761 0.203125,-0.0625 -0.0137,0.0491 -0.0743,0.03475 -0.0625,0.09375 0.0154,0.0827 0.111535,-0.01955 0.140625,-0.03125 0.0555,-0.0236 0.161655,-0.0362 0.234375,-0.0625 0.0636,-0.0227 0.169355,-0.067 0.109375,-0.140625 -0.05,-0.003 -0.06579,0.0443 -0.109375,0.0625 -0.03,0.005 -0.0371,-0.01383 -0.0625,-0.01563 -0.0246,-10e-4 -0.038,0.02013 -0.0625,0.01563 -0.0246,-0.005 -0.0589,-0.04903 -0.0625,-0.07813 -0.01,-0.0763 0.0785,-0.0999 0.109375,-0.15625 -0.0209,-0.0691 -0.113695,-0.004 -0.171875,-0.03125 0.006,-0.0409 0.02993,-0.08565 0.07813,-0.09375 0.0391,-0.006 0.13261,0.01245 0.15625,0.03125 0.0136,0.0118 -0.005,0.0434 0.01563,0.0625 0.0236,0.0209 0.06285,0.005 0.09375,0 0.0109,-0.0518 -0.0716,-0.0289 -0.0625,-0.0625 0.0618,-0.04 0.17455,-0.02135 0.25,-0.03125 0.0436,-0.006 0.0859,-0.0416 0.125,-0.0625 0.0363,-0.0209 0.07121,-0.05022 0.109375,-0.01563 0.0109,0.0372 -0.02608,0.05903 -0.04687,0.07813 -0.07,0.0618 -0.13296,0.131335 -0.1875,0.203125 0.0336,0.0327 0.08429,0.009 0.140625,0.01563 0.0218,0.003 0.05542,0.01202 0.07813,0.01563 0.0273,0.005 0.05632,-0.005 0.07813,0 0.0382,0.009 0.03993,0.0625 0.07813,0.0625 0.0618,0 0.06675,-0.05195 0.03125,-0.09375 0.0109,-0.0428 0.03112,-0.0794 0.01563,-0.109375 -0.0282,-0.0564 -0.135175,0.009 -0.140625,-0.0625 -0.004,-0.0454 0.0461,-0.05925 0.0625,-0.09375 -0.007,-0.0872 0.0716,-0.0928 0.0625,-0.171875 -0.005,-0.0328 -0.0398,-0.0317 -0.0625,-0.0625 -0.0118,-0.0163 -0.01775,-0.0507 -0.03125,-0.0625 -0.01172,-0.0099 -0.02814,-0.0134 -0.04297,-0.01953 A 4.0000062,3.9999905 0 0 1 16,14 Z m -2.638672,1 c 0.01214,-0.0015 0.03093,0.0019 0.04492,0 0.0209,-10e-4 0.0397,0 0.0625,0 0.0227,0 0.0534,-0.009 0.0625,0 -0.01373,0.05643 -0.135204,0.03796 -0.189453,0.01758 A 4.0000062,3.9999905 0 0 1 13.361328,15 Z m 5.34375,0.06055 a 4.0000062,3.9999905 0 0 1 0.451172,0.486328 c -0.0328,0 -0.06565,0.01563 -0.09375,0.01563 -0.04,0.001 -0.121875,-0.02022 -0.171875,-0.01563 -0.03,0.002 -0.05003,0.01383 -0.07813,0.01563 -0.0791,0.006 -0.12569,-0.005 -0.1875,0 -0.0446,0.003 -0.130055,0.02787 -0.171875,0.04687 -0.0209,0.01 -0.0352,0.03327 -0.0625,0.04687 -0.0127,0.006 -0.03047,0.008 -0.04687,0.01563 -0.0254,0.0118 -0.06925,0.04058 -0.09375,0.04687 -0.0354,0.009 -0.0761,-0.003 -0.140625,0 -0.0464,0.002 -0.12409,-0.007 -0.125,-0.0625 -0.001,-0.0845 0.154385,-0.048 0.234375,-0.0625 0.03,-0.006 0.04172,-0.0416 0.07813,-0.0625 0.0173,-0.01 0.03047,-0.02045 0.04687,-0.03125 0.0272,-0.0191 0.07362,-0.05632 0.07813,-0.07813 0.003,-0.02 -0.01843,-0.048 -0.01563,-0.0625 0.004,-0.0191 0.038,-0.038 0.0625,-0.0625 0.0382,-0.0382 0.06209,-0.08479 0.109375,-0.109375 0.0318,-0.0172 0.09481,-0.02148 0.109375,-0.04687 0.004,-0.0291 -9.9e-4,-0.0362 0,-0.0625 0.01125,-0.01024 0.01394,-0.01238 0.01758,-0.01758 z m 0.529297,0.595703 a 4.0000062,3.9999905 0 0 1 0.169922,0.25 c -0.0046,-1.06e-4 -0.0081,8.75e-4 -0.01367,0 -0.0309,-0.003 -0.08391,-1.95e-4 -0.109375,-0.01563 -0.0246,-0.0154 -0.08745,-0.0416 -0.09375,-0.0625 -0.01,-0.0336 0.07633,-0.08121 0.07813,-0.109375 0.002,-0.0218 -0.02675,-0.0298 -0.03125,-0.0625 z m -7.21875,2.007812 c 0.0242,0.0353 0.05048,0.06987 0.07813,0.08594 0.002,0.0291 -0.009,0.05633 0,0.07813 0.0236,0.0318 0.07121,0.0416 0.109375,0.0625 0.0463,0.0254 0.06569,0.0894 0.109375,0.109375 0.0154,0.006 0.0389,-0.007 0.0625,0 0.06,0.0182 0.0732,0.10925 0.125,0.09375 0.0336,-0.01 0.04138,-0.06105 0.04687,-0.09375 0.0227,-0.0245 0.04262,-0.0625 0.07813,-0.0625 0.0564,-0.001 0.07285,0.0696 0.09375,0.125 0.0118,0.0309 0.03867,0.06105 0.04687,0.09375 0.0136,0.0563 0.0118,0.21638 0,0.25 -0.0146,0.0418 -0.0748,0.06389 -0.109375,0.109375 -0.0163,0.0218 -0.03417,0.048 -0.04687,0.0625 -0.0218,0.0272 -0.0461,0.038 -0.0625,0.0625 -0.009,0.0136 -0.007,0.0434 -0.01563,0.0625 -0.0273,0.0581 -0.06958,0.101895 -0.04687,0.171875 0.009,0.0282 0.04687,0.06015 0.04687,0.09375 0,0.04 -0.08745,0.05015 -0.09375,0.09375 -0.005,0.0318 0.03688,0.0979 0.04687,0.140625 0.007,0.0318 0.05903,0.05722 0.07813,0.07813 0.0318,0.0354 0.06475,0.0796 0.09375,0.125 0.0573,0.0882 0.08429,0.19491 0.140625,0.28125 0.03,0.0445 0.0894,0.0777 0.109375,0.125 0.01,0.0236 -0.009,0.07205 0,0.09375 0.0327,0.0736 0.191985,0.15115 0.265625,0.1875 0.0345,0.0173 0.06195,0.02877 0.09375,0.04687 0.0482,0.0273 0.147335,0.0823 0.171875,0.125 0.0218,0.0382 0.03588,0.12661 0.04687,0.1875 0.0136,0.08 -0.004,0.148035 0,0.234375 0.002,0.0473 0.01563,0.0777 0.01563,0.125 0,0.0163 10e-4,0.0461 0,0.0625 -10e-4,0.0563 0.005,0.114625 0,0.171875 -0.0015,0.02317 -7.5e-4,0.0475 0,0.07031 A 4.0000062,3.9999905 0 0 1 12,18 4.0000062,3.9999905 0 0 1 12.01563,17.664062 Z m 1.25,0.195313 c 0.0437,-0.02 0.0354,0.057 0,0.0625 -0.0337,0.005 -0.0327,-0.047 0,-0.0625 z" />
  </g>
</svg>
