<?xml version="1.0" encoding="UTF-8" standalone="no"?>
<svg
   xmlns:dc="http://purl.org/dc/elements/1.1/"
   xmlns:cc="http://creativecommons.org/ns#"
   xmlns:rdf="http://www.w3.org/1999/02/22-rdf-syntax-ns#"
   xmlns:svg="http://www.w3.org/2000/svg"
   xmlns="http://www.w3.org/2000/svg"
   xmlns:sodipodi="http://sodipodi.sourceforge.net/DTD/sodipodi-0.dtd"
   xmlns:inkscape="http://www.inkscape.org/namespaces/inkscape"
   inkscape:version="1.0 (1.0+r73+1)"
   sodipodi:docname="keepbelow.svg"
   style="enable-background:new"
   version="1.1"
   height="22"
   width="22"
   id="svg4306">
  <metadata
     id="metadata24">
    <rdf:RDF>
      <cc:Work
         rdf:about="">
        <dc:format>image/svg+xml</dc:format>
        <dc:type
           rdf:resource="http://purl.org/dc/dcmitype/StillImage" />
        <dc:title />
      </cc:Work>
    </rdf:RDF>
  </metadata>
  <sodipodi:namedview
     inkscape:current-layer="svg4306"
     inkscape:window-maximized="1"
     inkscape:window-y="0"
     inkscape:window-x="0"
     inkscape:window-height="1013"
     inkscape:window-width="1920"
     inkscape:cy="20.495897"
     inkscape:cx="38.970068"
     inkscape:zoom="11.265497"
     showgrid="false"
     inkscape:document-rotation="0"
     id="namedview3"
     pagecolor="#777777"
     borderopacity="1"
     bordercolor="666666" />
  <defs
     id="defs22" />
  <sodipodi:namedview
     inkscape:current-layer="svg4306"
     inkscape:window-maximized="1"
     inkscape:window-y="0"
     inkscape:window-x="0"
     inkscape:cy="15.327944"
     inkscape:cx="55.151577"
     inkscape:zoom="9.6590914"
     showgrid="true"
     id="namedview20"
     inkscape:window-height="1022"
     inkscape:window-width="1920"
     inkscape:pageshadow="2"
     inkscape:pageopacity="0"
     guidetolerance="10"
     gridtolerance="10"
     objecttolerance="10"
     borderopacity="1"
     bordercolor="#666666"
     pagecolor="#ffffff"
     inkscape:document-rotation="0"
     inkscape:snap-bbox="true"
     inkscape:bbox-nodes="true">
    <inkscape:grid
       id="grid849"
       type="xygrid" />
  </sodipodi:namedview>
  <style
     id="current-color-scheme"
     type="text/css">
        .ColorScheme-Text {
            color:#232629;
        }
        .ColorScheme-ButtonFocus{
            color:#3daee9;
        }
            .ColorScheme-NegativeText {
            color:#da4453;
        }
    </style>
  <g
     id="inactive-center"
     style="enable-background:new"
     transform="translate(0,22)">
    <rect
       id="rect4266-62"
       width="22"
       height="22"
       x="0"
       y="0"
       style="opacity:0.00100002;fill:#000000;fill-opacity:1;fill-rule:nonzero;stroke:none;stroke-width:2;stroke-linecap:round;stroke-linejoin:round;stroke-miterlimit:4;stroke-dasharray:none;stroke-opacity:1" />
    <circle
       r="9"
       cy="11"
       cx="11"
       id="path867-5-6-5-9"
       style="opacity:0.003;fill:#000000;fill-opacity:1;stroke-width:1.001;enable-background:new" />
    <path
       id="rect909-7-3-7-3-5-2-0-1"
       style="opacity:1;fill:#ffffff;fill-opacity:.5"
       d="M 6.0507812 28.287109 L 5.34375 28.996094 L 11 34.652344 L 16.65625 28.996094 L 15.949219 28.287109 L 11 33.238281 L 6.0507812 28.287109 z M 6.0507812 32.287109 L 5.34375 32.996094 L 11 38.652344 L 16.65625 32.996094 L 15.949219 32.287109 L 11 37.238281 L 6.0507812 32.287109 z "
       transform="translate(0,-22)" />
  </g>
  <g
     transform="translate(66)"
     style="enable-background:new"
     id="deactivated-center">
    <rect
       style="opacity:0.00100002;fill:#000000;fill-opacity:1;fill-rule:nonzero;stroke:none;stroke-width:2;stroke-linecap:round;stroke-linejoin:round;stroke-miterlimit:4;stroke-dasharray:none;stroke-opacity:1"
       y="0"
       x="0"
       height="22"
       width="22"
       id="rect4266-62-8" />
    <circle
       style="opacity:0.003;fill:#000000;fill-opacity:1;stroke-width:1.001;enable-background:new"
       id="path867-5-6-5-9-7"
       cx="11"
       cy="11"
       r="9" />
    <path
       transform="translate(-66)"
       d="M 72.050781 6.2871094 L 71.34375 6.9960938 L 77 12.652344 L 82.65625 6.9960938 L 81.949219 6.2871094 L 77 11.238281 L 72.050781 6.2871094 z M 72.050781 10.287109 L 71.34375 10.996094 L 77 16.652344 L 82.65625 10.996094 L 81.949219 10.287109 L 77 15.238281 L 72.050781 10.287109 z "
       style="opacity:0.3;fill:#ffffff;fill-opacity:.9"
       id="rect909-7-3-7-3-5-2-0-1-9" />
  </g>
  <g
     transform="translate(44)"
     style="enable-background:new;opacity:0.9"
     id="pressed-center">
    <rect
       style="opacity:0.00100002;fill:#000000;fill-opacity:1;fill-rule:nonzero;stroke:none;stroke-width:2;stroke-linecap:round;stroke-linejoin:round;stroke-miterlimit:4;stroke-dasharray:none;stroke-opacity:1"
       y="0"
       x="0"
       height="22"
       width="22"
       id="rect4266-6-2" />
    <path
       id="path867-5-6-5-7-3"
       style="opacity:1;fill:#ffffff;fill-opacity:0.9"
       d="m 55,2 a 9,9 0 0 0 -9,9 9,9 0 0 0 9,9 9,9 0 0 0 9,-9 9,9 0 0 0 -9,-9 z m 0,3.3476562 5.65625,5.6562498 -0.707031,0.708985 L 55,6.7617188 50.050781,11.712891 49.34375,11.003906 Z m 0,4 5.65625,5.6562498 -0.707031,0.708985 L 55,10.761719 50.050781,15.712891 49.34375,15.003906 Z"
       transform="rotate(180,33,11)"
       class="ColorScheme-Text" />
  </g>
  <g
     transform="translate(44,22)"
     id="pressed-inactive-center"
     style="enable-background:new">
    <rect
       id="rect4266-6-2-3"
       width="22"
       height="22"
       x="0"
       y="0"
       style="opacity:0.00100002;fill:#000000;fill-opacity:1;fill-rule:nonzero;stroke:none;stroke-width:2;stroke-linecap:round;stroke-linejoin:round;stroke-miterlimit:4;stroke-dasharray:none;stroke-opacity:1" />
    <path
       class="ColorScheme-Text"
       transform="rotate(180,33,11)"
       d="m 55,2 a 9,9 0 0 0 -9,9 9,9 0 0 0 9,9 9,9 0 0 0 9,-9 9,9 0 0 0 -9,-9 z m 0,3.3476562 5.65625,5.6562498 -0.707031,0.708985 L 55,6.7617188 50.050781,11.712891 49.34375,11.003906 Z m 0,4 5.65625,5.6562498 -0.707031,0.708985 L 55,10.761719 50.050781,15.712891 49.34375,15.003906 Z"
       style="opacity:1;fill:#ffffff;fill-opacity:.5"
       id="path867-5-6-5-7-3-5" />
  </g>
  <g
     transform="translate(66,22)"
     id="deactivated-inactive-center"
     style="enable-background:new">
    <rect
       id="rect4266-62-8-2"
       width="22"
       height="22"
       x="0"
       y="0"
       style="opacity:0.00100002;fill:#000000;fill-opacity:1;fill-rule:nonzero;stroke:none;stroke-width:2;stroke-linecap:round;stroke-linejoin:round;stroke-miterlimit:4;stroke-dasharray:none;stroke-opacity:1" />
    <circle
       r="9"
       cy="11"
       cx="11"
       id="path867-5-6-5-9-7-9"
       style="opacity:0.003;fill:#000000;fill-opacity:1;stroke-width:1.001;enable-background:new" />
    <path
       transform="translate(-66,-22)"
       d="M 72.050781 28.287109 L 71.34375 28.996094 L 77 34.652344 L 82.65625 28.996094 L 81.949219 28.287109 L 77 33.238281 L 72.050781 28.287109 z M 72.050781 32.287109 L 71.34375 32.996094 L 77 38.652344 L 82.65625 32.996094 L 81.949219 32.287109 L 77 37.238281 L 72.050781 32.287109 z "
       style="opacity:0.3;fill:#ffffff;fill-opacity:.5"
       id="rect909-7-3-7-3-5-2-0-1-9-1" />
  </g>
  <g
     id="active-center"
     style="opacity:0.9;enable-background:new">
    <rect
       id="rect4266"
       width="22"
       height="22"
       x="0"
       y="0"
       style="opacity:0.00100002;fill:#000000;fill-opacity:1;fill-rule:nonzero;stroke:none;stroke-width:2;stroke-linecap:round;stroke-linejoin:round;stroke-miterlimit:4;stroke-dasharray:none;stroke-opacity:1" />
    <circle
       r="9"
       cy="11"
       cx="11"
       id="path867-5-6-5"
       style="opacity:0.003;fill:#000000;fill-opacity:1;stroke-width:1.001;enable-background:new" />
    <path
       id="rect909-7-3-7-3-5-2-0"
       style="opacity:1;fill:#ffffff;fill-opacity:1"
       d="M 16.656853,6.995146 15.949745,6.28804 10.999999,11.237785 6.05025,6.28804 5.3431422,6.995148 10.999999,12.652 Z"
       sodipodi:nodetypes="ccccccc"
       class="ColorScheme-Text" />
    <path
       class="ColorScheme-Text"
       sodipodi:nodetypes="ccccccc"
       d="M 16.656853,10.995146 15.949745,10.28804 10.999999,15.237785 6.05025,10.28804 5.3431422,10.995148 10.999999,16.652 Z"
       style="opacity:1;fill:#ffffff;fill-opacity:1"
       id="path872" />
  </g>
  <g
     transform="translate(21.999998)"
     style="opacity:0.9;enable-background:new"
     id="hover-center">
    <rect
       style="opacity:0.00100002;fill:#000000;fill-opacity:1;fill-rule:nonzero;stroke:none;stroke-width:2;stroke-linecap:round;stroke-linejoin:round;stroke-miterlimit:4;stroke-dasharray:none;stroke-opacity:1"
       y="0"
       x="0"
       height="22"
       width="22"
       id="rect4266-6" />
    <circle
       style="opacity:0.003;fill:#000000;fill-opacity:1;stroke-width:1.001;enable-background:new"
       id="path867-5-6-5-7"
       cx="11"
       cy="11"
       r="9" />
    <path
       class="ColorScheme-Text"
       sodipodi:nodetypes="ccccccc"
       d="M 16.656853,8.995146 15.949745,8.28804 10.999999,13.237785 6.05025,8.28804 5.3431422,8.995148 10.999999,14.652 Z"
       style="opacity:1;fill:#ffffff;fill-opacity:1"
       id="rect909-7-3-7-3-5-2-0-5" />
    <path
       id="path872-3"
       style="opacity:1;fill:#ffffff;fill-opacity:1"
       d="M 16.656853,12.995146 15.949745,12.28804 10.999999,17.237785 6.05025,12.28804 5.3431422,12.995148 10.999999,18.652 Z"
       sodipodi:nodetypes="ccccccc"
       class="ColorScheme-Text" />
    <path
       id="path901"
       style="opacity:0.4;fill:#ffffff;fill-opacity:1"
       d="M 16.656853,7.580931 15.949745,6.873825 10.999999,11.82357 6.05025,6.873825 5.3431422,7.580933 10.999999,13.237785 Z"
       sodipodi:nodetypes="ccccccc"
       class="ColorScheme-Text" />
    <path
       class="ColorScheme-Text"
       sodipodi:nodetypes="ccccccc"
       d="M 16.656853,11.580931 15.949745,10.873825 10.999999,15.82357 6.05025,10.873825 5.3431422,11.580933 10.999999,17.237785 Z"
       style="opacity:0.4;fill:#ffffff;fill-opacity:1"
       id="path903" />
    <path
       class="ColorScheme-Text"
       sodipodi:nodetypes="ccccccc"
       d="M 16.656853,6.166716 15.949745,5.45961 10.999999,10.409355 6.05025,5.45961 5.3431422,6.166718 10.999999,11.82357 Z"
       style="opacity:0.4;fill:#ffffff;fill-opacity:1"
       id="path905" />
    <path
       class="ColorScheme-Text"
       transform="translate(-21.999998)"
       d="M 27.929688,9.5820312 27.34375,10.166016 33,15.824219 38.65625,10.166016 38.070312,9.5820312 33,14.652344 Z"
       style="opacity:0.4;fill:#ffffff;fill-opacity:1"
       id="path907" />
  </g>
  <g
     id="hover-inactive-center"
     style="opacity:0.8;enable-background:new"
     transform="translate(22,22)">
    <rect
       id="rect893"
       width="22"
       height="22"
       x="0"
       y="0"
       style="opacity:0.00100002;fill:#000000;fill-opacity:1;fill-rule:nonzero;stroke:none;stroke-width:2;stroke-linecap:round;stroke-linejoin:round;stroke-miterlimit:4;stroke-dasharray:none;stroke-opacity:1" />
    <circle
       r="9"
       cy="11"
       cx="11"
       id="circle895"
       style="opacity:0.003;fill:#000000;fill-opacity:1;stroke-width:1.001;enable-background:new" />
    <path
       id="path897"
       style="opacity:1;fill:#ffffff;fill-opacity:1"
       d="M 16.656853,8.995146 15.949745,8.28804 10.999999,13.237785 6.05025,8.28804 5.3431422,8.995148 10.999999,14.652 Z"
       sodipodi:nodetypes="ccccccc"
       class="ColorScheme-Text" />
    <path
       class="ColorScheme-Text"
       sodipodi:nodetypes="ccccccc"
       d="M 16.656853,12.995146 15.949745,12.28804 10.999999,17.237785 6.05025,12.28804 5.3431422,12.995148 10.999999,18.652 Z"
       style="opacity:1;fill:#ffffff;fill-opacity:1"
       id="path899" />
    <path
       class="ColorScheme-Text"
       sodipodi:nodetypes="ccccccc"
       d="M 16.656853,7.580931 15.949745,6.873825 10.999999,11.82357 6.05025,6.873825 5.3431422,7.580933 10.999999,13.237785 Z"
       style="opacity:0.4;fill:#ffffff;fill-opacity:1"
       id="path902" />
    <path
       id="path904"
       style="opacity:0.4;fill:#ffffff;fill-opacity:1"
       d="M 16.656853,11.580931 15.949745,10.873825 10.999999,15.82357 6.05025,10.873825 5.3431422,11.580933 10.999999,17.237785 Z"
       sodipodi:nodetypes="ccccccc"
       class="ColorScheme-Text" />
    <path
       id="path906"
       style="opacity:0.4;fill:#ffffff;fill-opacity:1"
       d="M 16.656853,6.166716 15.949745,5.45961 10.999999,10.409355 6.05025,5.45961 5.3431422,6.166718 10.999999,11.82357 Z"
       sodipodi:nodetypes="ccccccc"
       class="ColorScheme-Text" />
    <path
       id="path908"
       style="opacity:0.4;fill:#ffffff;fill-opacity:1"
       d="M 27.929688,9.5820312 27.34375,10.166016 33,15.824219 38.65625,10.166016 38.070312,9.5820312 33,14.652344 Z"
       transform="translate(-21.999998)"
       class="ColorScheme-Text" />
  </g>
</svg>
