<?xml version="1.0" encoding="UTF-8" standalone="no"?>
<svg
   xmlns:dc="http://purl.org/dc/elements/1.1/"
   xmlns:cc="http://creativecommons.org/ns#"
   xmlns:rdf="http://www.w3.org/1999/02/22-rdf-syntax-ns#"
   xmlns:svg="http://www.w3.org/2000/svg"
   xmlns="http://www.w3.org/2000/svg"
   xmlns:sodipodi="http://sodipodi.sourceforge.net/DTD/sodipodi-0.dtd"
   xmlns:inkscape="http://www.inkscape.org/namespaces/inkscape"
   id="svg4306"
   width="22"
   height="22"
   version="1.1"
   style="enable-background:new"
   sodipodi:docname="keepabove.svg"
   inkscape:version="1.0 (1.0+r73+1)">
  <metadata
     id="metadata24">
    <rdf:RDF>
      <cc:Work
         rdf:about="">
        <dc:format>image/svg+xml</dc:format>
        <dc:type
           rdf:resource="http://purl.org/dc/dcmitype/StillImage" />
      </cc:Work>
    </rdf:RDF>
  </metadata>
  <sodipodi:namedview
     inkscape:current-layer="svg4306"
     inkscape:window-maximized="1"
     inkscape:window-y="0"
     inkscape:window-x="0"
     inkscape:window-height="1013"
     inkscape:window-width="1920"
     inkscape:cy="19.910477"
     inkscape:cx="48.416869"
     inkscape:zoom="7.9659091"
     showgrid="false"
     inkscape:document-rotation="0"
     id="namedview3"
     pagecolor="#777777"
     borderopacity="1"
     bordercolor="666666" />
  <defs
     id="defs22" />
  <sodipodi:namedview
     inkscape:bbox-nodes="true"
     inkscape:snap-bbox="true"
     inkscape:document-rotation="0"
     pagecolor="#ffffff"
     bordercolor="#666666"
     borderopacity="1"
     objecttolerance="10"
     gridtolerance="10"
     guidetolerance="10"
     inkscape:pageopacity="0"
     inkscape:pageshadow="2"
     inkscape:window-width="1920"
     inkscape:window-height="1022"
     id="namedview20"
     showgrid="true"
     inkscape:zoom="9.6590914"
     inkscape:cx="51.43908"
     inkscape:cy="10.306876"
     inkscape:window-x="0"
     inkscape:window-y="0"
     inkscape:window-maximized="1"
     inkscape:current-layer="svg4306">
    <inkscape:grid
       type="xygrid"
       id="grid849" />
  </sodipodi:namedview>
  <style
     type="text/css"
     id="current-color-scheme">
        .ColorScheme-Text {
            color:#232629;
        }
        .ColorScheme-ButtonFocus{
            color:#3daee9;
        }
            .ColorScheme-NegativeText {
            color:#da4453;
        }
    </style>
  <g
     transform="rotate(180,11,22)"
     style="enable-background:new"
     id="inactive-center">
    <rect
       style="opacity:0.00100002;fill:#000000;fill-opacity:1;fill-rule:nonzero;stroke:none;stroke-width:2;stroke-linecap:round;stroke-linejoin:round;stroke-miterlimit:4;stroke-dasharray:none;stroke-opacity:1"
       y="0"
       x="0"
       height="22"
       width="22"
       id="rect4266-62" />
    <circle
       style="opacity:0.003;fill:#000000;fill-opacity:1;stroke-width:1.001;enable-background:new"
       id="path867-5-6-5-9"
       cx="11"
       cy="11"
       r="9" />
    <path
       id="rect909-7-3-7-3-5-2-0-1"
       style="opacity:1;fill:#ffffff;fill-opacity:.5"
       d="M 11 27.347656 L 5.34375 33.003906 L 6.0507812 33.712891 L 11 28.761719 L 15.949219 33.712891 L 16.65625 33.003906 L 11 27.347656 z M 11 31.347656 L 5.34375 37.003906 L 6.0507812 37.712891 L 11 32.761719 L 15.949219 37.712891 L 16.65625 37.003906 L 11 31.347656 z "
       transform="rotate(-180,11,22)" />
  </g>
  <g
     id="deactivated-center"
     style="enable-background:new"
     transform="rotate(180,44,11)">
    <rect
       id="rect4266-62-8"
       width="22"
       height="22"
       x="0"
       y="0"
       style="opacity:0.00100002;fill:#000000;fill-opacity:1;fill-rule:nonzero;stroke:none;stroke-width:2;stroke-linecap:round;stroke-linejoin:round;stroke-miterlimit:4;stroke-dasharray:none;stroke-opacity:1" />
    <circle
       r="9"
       cy="11"
       cx="11"
       id="path867-5-6-5-9-7"
       style="opacity:0.003;fill:#000000;fill-opacity:1;stroke-width:1.001;enable-background:new" />
    <path
       id="rect909-7-3-7-3-5-2-0-1-9"
       style="opacity:0.3;fill:#ffffff;fill-opacity:.9"
       d="M 77 5.3476562 L 71.34375 11.003906 L 72.050781 11.712891 L 77 6.7617188 L 81.949219 11.712891 L 82.65625 11.003906 L 77 5.3476562 z M 77 9.3476562 L 71.34375 15.003906 L 72.050781 15.712891 L 77 10.761719 L 81.949219 15.712891 L 82.65625 15.003906 L 77 9.3476562 z "
       transform="rotate(-180,44,11)" />
  </g>
  <g
     id="pressed-center"
     style="enable-background:new;opacity:0.9"
     transform="rotate(180,33,11)">
    <rect
       id="rect4266-6-2"
       width="22"
       height="22"
       x="0"
       y="0"
       style="opacity:0.00100002;fill:#000000;fill-opacity:1;fill-rule:nonzero;stroke:none;stroke-width:2;stroke-linecap:round;stroke-linejoin:round;stroke-miterlimit:4;stroke-dasharray:none;stroke-opacity:1" />
    <path
       class="ColorScheme-Text"
       transform="rotate(-180,33,11)"
       d="M 55 2 A 9 9 0 0 0 46 11 A 9 9 0 0 0 55 20 A 9 9 0 0 0 64 11 A 9 9 0 0 0 55 2 z M 55 5.3476562 L 60.65625 11.003906 L 59.949219 11.712891 L 55 6.7617188 L 50.050781 11.712891 L 49.34375 11.003906 L 55 5.3476562 z M 55 9.3476562 L 60.65625 15.003906 L 59.949219 15.712891 L 55 10.761719 L 50.050781 15.712891 L 49.34375 15.003906 L 55 9.3476562 z "
       style="opacity:1;fill:#ffffff;fill-opacity:0.9"
       id="path867-5-6-5-7-3" />
  </g>
  <g
     transform="rotate(180,33,22)"
     style="enable-background:new"
     id="pressed-inactive-center">
    <rect
       style="opacity:0.00100002;fill:#000000;fill-opacity:1;fill-rule:nonzero;stroke:none;stroke-width:2;stroke-linecap:round;stroke-linejoin:round;stroke-miterlimit:4;stroke-dasharray:none;stroke-opacity:1"
       y="0"
       x="0"
       height="22"
       width="22"
       id="rect4266-6-2-3" />
    <path
       id="path867-5-6-5-7-3-5"
       style="opacity:1;fill:#ffffff;fill-opacity:.5"
       d="m 55,2 a 9,9 0 0 0 -9,9 9,9 0 0 0 9,9 9,9 0 0 0 9,-9 9,9 0 0 0 -9,-9 z m 0,3.3476562 5.65625,5.6562498 -0.707031,0.708985 L 55,6.7617188 50.050781,11.712891 49.34375,11.003906 Z m 0,4 5.65625,5.6562498 -0.707031,0.708985 L 55,10.761719 50.050781,15.712891 49.34375,15.003906 Z"
       transform="rotate(180,33,11)"
       class="ColorScheme-Text" />
  </g>
  <g
     transform="rotate(180,44,22)"
     style="enable-background:new"
     id="deactivated-inactive-center">
    <rect
       style="opacity:0.00100002;fill:#000000;fill-opacity:1;fill-rule:nonzero;stroke:none;stroke-width:2;stroke-linecap:round;stroke-linejoin:round;stroke-miterlimit:4;stroke-dasharray:none;stroke-opacity:1"
       y="0"
       x="0"
       height="22"
       width="22"
       id="rect4266-62-8-2" />
    <circle
       style="opacity:0.003;fill:#000000;fill-opacity:1;stroke-width:1.001;enable-background:new"
       id="path867-5-6-5-9-7-9"
       cx="11"
       cy="11"
       r="9" />
    <path
       id="rect909-7-3-7-3-5-2-0-1-9-1"
       style="opacity:0.3;fill:#ffffff;fill-opacity:.5"
       d="M 77 27.347656 L 71.34375 33.003906 L 72.050781 33.712891 L 77 28.761719 L 81.949219 33.712891 L 82.65625 33.003906 L 77 27.347656 z M 77 31.347656 L 71.34375 37.003906 L 72.050781 37.712891 L 77 32.761719 L 81.949219 37.712891 L 82.65625 37.003906 L 77 31.347656 z "
       transform="rotate(-180,44,22)" />
  </g>
  <g
     id="active-center"
     style="opacity:0.9;enable-background:new"
     transform="rotate(180,11,11)">
    <rect
       id="rect4266"
       width="22"
       height="22"
       x="0"
       y="0"
       style="opacity:0.00100002;fill:#000000;fill-opacity:1;fill-rule:nonzero;stroke:none;stroke-width:2;stroke-linecap:round;stroke-linejoin:round;stroke-miterlimit:4;stroke-dasharray:none;stroke-opacity:1" />
    <circle
       r="9"
       cy="11"
       cx="11"
       id="path867-5-6-5"
       style="opacity:0.003;fill:#000000;fill-opacity:1;stroke-width:1.001;enable-background:new" />
    <path
       id="rect909-7-3-7-3-5-2-0"
       style="opacity:1;fill:#ffffff;fill-opacity:1"
       d="M 16.656853,6.995146 15.949745,6.28804 10.999999,11.237785 6.05025,6.28804 5.3431422,6.995148 10.999999,12.652 Z"
       sodipodi:nodetypes="ccccccc"
       class="ColorScheme-Text" />
    <path
       class="ColorScheme-Text"
       sodipodi:nodetypes="ccccccc"
       d="M 16.656853,10.995146 15.949745,10.28804 10.999999,15.237785 6.05025,10.28804 5.3431422,10.995148 10.999999,16.652 Z"
       style="opacity:1;fill:#ffffff;fill-opacity:1"
       id="path872" />
  </g>
  <g
     transform="rotate(180,22,11)"
     style="opacity:0.9;enable-background:new"
     id="hover-center">
    <rect
       style="opacity:0.00100002;fill:#000000;fill-opacity:1;fill-rule:nonzero;stroke:none;stroke-width:2;stroke-linecap:round;stroke-linejoin:round;stroke-miterlimit:4;stroke-dasharray:none;stroke-opacity:1"
       y="0"
       x="0"
       height="22"
       width="22"
       id="rect4266-6" />
    <circle
       style="opacity:0.003;fill:#000000;fill-opacity:1;stroke-width:1.001;enable-background:new"
       id="path867-5-6-5-7"
       cx="11"
       cy="11"
       r="9" />
    <path
       class="ColorScheme-Text"
       sodipodi:nodetypes="ccccccc"
       d="M 16.656853,8.995146 15.949745,8.28804 10.999999,13.237785 6.05025,8.28804 5.3431422,8.995148 10.999999,14.652 Z"
       style="opacity:1;fill:#ffffff;fill-opacity:1"
       id="rect909-7-3-7-3-5-2-0-5" />
    <path
       id="path872-3"
       style="opacity:1;fill:#ffffff;fill-opacity:1"
       d="M 16.656853,12.995146 15.949745,12.28804 10.999999,17.237785 6.05025,12.28804 5.3431422,12.995148 10.999999,18.652 Z"
       sodipodi:nodetypes="ccccccc"
       class="ColorScheme-Text" />
    <path
       id="path901"
       style="opacity:0.4;fill:#ffffff;fill-opacity:1"
       d="M 16.656853,7.580931 15.949745,6.873825 10.999999,11.82357 6.05025,6.873825 5.3431422,7.580933 10.999999,13.237785 Z"
       sodipodi:nodetypes="ccccccc"
       class="ColorScheme-Text" />
    <path
       class="ColorScheme-Text"
       sodipodi:nodetypes="ccccccc"
       d="M 16.656853,11.580931 15.949745,10.873825 10.999999,15.82357 6.05025,10.873825 5.3431422,11.580933 10.999999,17.237785 Z"
       style="opacity:0.4;fill:#ffffff;fill-opacity:1"
       id="path903" />
    <path
       class="ColorScheme-Text"
       sodipodi:nodetypes="ccccccc"
       d="M 16.656853,6.166716 15.949745,5.45961 10.999999,10.409355 6.05025,5.45961 5.3431422,6.166718 10.999999,11.82357 Z"
       style="opacity:0.4;fill:#ffffff;fill-opacity:1"
       id="path905" />
    <path
       transform="rotate(180,22,11)"
       d="M 33,6.1757812 27.34375,11.833984 27.929688,12.417969 33,7.3476562 38.070312,12.417969 38.65625,11.833984 Z"
       style="opacity:0.4;fill:#ffffff;fill-opacity:1"
       id="path907"
       class="ColorScheme-Text" />
  </g>
  <g
     id="hover-inactive-center"
     style="opacity:0.8;enable-background:new"
     transform="rotate(180,22,22)">
    <rect
       id="rect893"
       width="22"
       height="22"
       x="0"
       y="0"
       style="opacity:0.00100002;fill:#000000;fill-opacity:1;fill-rule:nonzero;stroke:none;stroke-width:2;stroke-linecap:round;stroke-linejoin:round;stroke-miterlimit:4;stroke-dasharray:none;stroke-opacity:1" />
    <circle
       r="9"
       cy="11"
       cx="11"
       id="circle895"
       style="opacity:0.003;fill:#000000;fill-opacity:1;stroke-width:1.001;enable-background:new" />
    <path
       id="path897"
       style="opacity:1;fill:#ffffff;fill-opacity:1"
       d="M 16.656853,8.995146 15.949745,8.28804 10.999999,13.237785 6.05025,8.28804 5.3431422,8.995148 10.999999,14.652 Z"
       sodipodi:nodetypes="ccccccc"
       class="ColorScheme-Text" />
    <path
       class="ColorScheme-Text"
       sodipodi:nodetypes="ccccccc"
       d="M 16.656853,12.995146 15.949745,12.28804 10.999999,17.237785 6.05025,12.28804 5.3431422,12.995148 10.999999,18.652 Z"
       style="opacity:1;fill:#ffffff;fill-opacity:1"
       id="path899" />
    <path
       class="ColorScheme-Text"
       sodipodi:nodetypes="ccccccc"
       d="M 16.656853,7.580931 15.949745,6.873825 10.999999,11.82357 6.05025,6.873825 5.3431422,7.580933 10.999999,13.237785 Z"
       style="opacity:0.4;fill:#ffffff;fill-opacity:1"
       id="path902" />
    <path
       id="path904"
       style="opacity:0.4;fill:#ffffff;fill-opacity:1"
       d="M 16.656853,11.580931 15.949745,10.873825 10.999999,15.82357 6.05025,10.873825 5.3431422,11.580933 10.999999,17.237785 Z"
       sodipodi:nodetypes="ccccccc"
       class="ColorScheme-Text" />
    <path
       id="path906"
       style="opacity:0.4;fill:#ffffff;fill-opacity:1"
       d="M 16.656853,6.166716 15.949745,5.45961 10.999999,10.409355 6.05025,5.45961 5.3431422,6.166718 10.999999,11.82357 Z"
       sodipodi:nodetypes="ccccccc"
       class="ColorScheme-Text" />
    <path
       class="ColorScheme-Text"
       id="path908"
       style="opacity:0.4;fill:#ffffff;fill-opacity:1"
       d="M 33,6.1757812 27.34375,11.833984 27.929688,12.417969 33,7.3476562 38.070312,12.417969 38.65625,11.833984 Z"
       transform="rotate(180,22,11)" />
  </g>
</svg>
