<?xml version="1.0" encoding="UTF-8" standalone="no"?>
<svg
   xmlns:dc="http://purl.org/dc/elements/1.1/"
   xmlns:cc="http://creativecommons.org/ns#"
   xmlns:rdf="http://www.w3.org/1999/02/22-rdf-syntax-ns#"
   xmlns:svg="http://www.w3.org/2000/svg"
   xmlns="http://www.w3.org/2000/svg"
   xmlns:sodipodi="http://sodipodi.sourceforge.net/DTD/sodipodi-0.dtd"
   xmlns:inkscape="http://www.inkscape.org/namespaces/inkscape"
   inkscape:version="1.0 (1.0+r73+1)"
   sodipodi:docname="close.svg"
   style="enable-background:new"
   version="1.1"
   height="22"
   width="22"
   id="svg4306">
  <metadata
     id="metadata40">
    <rdf:RDF>
      <cc:Work
         rdf:about="">
        <dc:format>image/svg+xml</dc:format>
        <dc:type
           rdf:resource="http://purl.org/dc/dcmitype/StillImage" />
      </cc:Work>
    </rdf:RDF>
  </metadata>
  <defs
     id="defs38" />
  <sodipodi:namedview
     inkscape:current-layer="svg4306"
     inkscape:window-maximized="1"
     inkscape:window-y="0"
     inkscape:window-x="0"
     inkscape:cy="16.537934"
     inkscape:cx="38.798608"
     inkscape:zoom="9.6590907"
     inkscape:bbox-nodes="true"
     inkscape:snap-bbox="true"
     showgrid="true"
     id="namedview36"
     inkscape:window-height="1003"
     inkscape:window-width="1920"
     inkscape:pageshadow="2"
     inkscape:pageopacity="0"
     guidetolerance="10"
     gridtolerance="10"
     objecttolerance="10"
     borderopacity="1"
     bordercolor="#666666"
     pagecolor="#ffffff"
     inkscape:document-rotation="0">
    <inkscape:grid
       id="grid865"
       type="xygrid" />
  </sodipodi:namedview>
  <style
     id="current-color-scheme"
     type="text/css">
        .ColorScheme-Text {
            color:#232629;
        }
        .ColorScheme-ButtonFocus{
            color:#3daee9;
        }
            .ColorScheme-NegativeText {
            color:#da4453;
        }
    </style>
  <g
     id="inactive-center"
     style="enable-background:new"
     transform="translate(0,22)">
    <rect
       y="0"
       x="0"
       height="22"
       width="22"
       id="rect953-2"
       style="opacity:0.003;fill:#050505;fill-opacity:1;stroke-width:1.001" />
    <path
       id="path867-5-3-3-6-6"
       style="opacity:1;fill:#eff0f1;fill-opacity:1"
       d="M 10.990234,2.0000013 A 9,9 0 0 0 2,11.000001 a 9,9 0 0 0 9,9 9,9 0 0 0 9,-9 9,9 0 0 0 -9,-8.9999997 9,9 0 0 0 -0.0098,0 z M 7.287109,6.5800793 11,10.29297 l 3.712891,-3.7128907 0.707031,0.707031 -3.712891,3.7128907 3.712891,3.712891 -0.707031,0.707031 L 11,11.707032 7.287109,15.419923 6.580078,14.712892 10.292969,11.000001 6.580078,7.2871103 Z"
       class="ColorScheme-Text" />
  </g>
  <g
     style="enable-background:new"
     id="deactivated-center"
     transform="translate(66)">
    <rect
       style="opacity:0.003;fill:#050505;fill-opacity:1;stroke-width:1.001"
       id="rect953-2-8"
       width="22"
       height="22"
       x="0"
       y="0" />
    <path
       class="ColorScheme-Text"
       d="M 10.990234,2.0000013 A 9,9 0 0 0 2,11.000001 a 9,9 0 0 0 9,9 9,9 0 0 0 9,-9 9,9 0 0 0 -9,-8.9999997 9,9 0 0 0 -0.0098,0 z M 7.287109,6.5800793 11,10.29297 l 3.712891,-3.7128907 0.707031,0.707031 -3.712891,3.7128907 3.712891,3.712891 -0.707031,0.707031 L 11,11.707032 7.287109,15.419923 6.580078,14.712892 10.292969,11.000001 6.580078,7.2871103 Z"
       style="opacity:0.3;fill:#eff0f1;fill-opacity:1"
       id="path867-5-3-3-6-6-7" />
  </g>
  <g
     transform="translate(22)"
     id="hover-center"
     style="enable-background:new">
    <rect
       y="0"
       x="0"
       height="22"
       width="22"
       id="rect953-2-7-2"
       style="opacity:0.003;fill:#050505;fill-opacity:1;stroke-width:1.001" />
    <path
       class="ColorScheme-NegativeText"
       d="M 10.990234,2.0000013 A 9,9 0 0 0 2,11.000001 a 9,9 0 0 0 9,9 9,9 0 0 0 9,-9 9,9 0 0 0 -9,-8.9999997 9,9 0 0 0 -0.0098,0 z M 7.287109,6.5800793 11,10.29297 l 3.712891,-3.7128907 0.707031,0.707031 -3.712891,3.7128907 3.712891,3.712891 -0.707031,0.707031 L 11,11.707032 7.287109,15.419923 6.580078,14.712892 10.292969,11.000001 6.580078,7.2871103 Z"
       style="opacity:1;fill:currentColor"
       id="path1158" />
    <path
       id="path867-5-3-3-6-6-9-8"
       style="opacity:0.4;fill:#ffffff;fill-opacity:1"
       d="M 10.990234,2.0000013 A 9,9 0 0 0 2,11.000001 a 9,9 0 0 0 9,9 9,9 0 0 0 9,-9 9,9 0 0 0 -9,-8.9999997 9,9 0 0 0 -0.0098,0 z M 7.287109,6.5800793 11,10.29297 l 3.712891,-3.7128907 0.707031,0.707031 -3.712891,3.7128907 3.712891,3.712891 -0.707031,0.707031 L 11,11.707032 7.287109,15.419923 6.580078,14.712892 10.292969,11.000001 6.580078,7.2871103 Z"
       class="ColorScheme-Text" />
  </g>
  <g
     id="active-center"
     style="enable-background:new">
    <rect
       y="0"
       x="0"
       height="22"
       width="22"
       id="rect953-2-7-6"
       style="opacity:0.003;fill:#050505;fill-opacity:1;stroke-width:1.001" />
    <path
       id="path867-5-3-3-6-6-9-7"
       style="opacity:1;fill:currentColor"
       d="M 10.990234,2.0000013 A 9,9 0 0 0 2,11.000001 a 9,9 0 0 0 9,9 9,9 0 0 0 9,-9 9,9 0 0 0 -9,-8.9999997 9,9 0 0 0 -0.0098,0 z M 7.287109,6.5800793 11,10.29297 l 3.712891,-3.7128907 0.707031,0.707031 -3.712891,3.7128907 3.712891,3.712891 -0.707031,0.707031 L 11,11.707032 7.287109,15.419923 6.580078,14.712892 10.292969,11.000001 6.580078,7.2871103 Z"
       class="ColorScheme-NegativeText" />
  </g>
  <g
     transform="translate(66,22)"
     id="deactivated-inactive-center"
     style="enable-background:new">
    <rect
       y="0"
       x="0"
       height="22"
       width="22"
       id="rect953-2-8-9"
       style="opacity:0.003;fill:#050505;fill-opacity:1;stroke-width:1.001" />
    <path
       id="path867-5-3-3-6-6-7-1"
       style="opacity:0.3;fill:#eff0f1;fill-opacity:1"
       d="M 10.990234,2.0000013 A 9,9 0 0 0 2,11.000001 a 9,9 0 0 0 9,9 9,9 0 0 0 9,-9 9,9 0 0 0 -9,-8.9999997 9,9 0 0 0 -0.0098,0 z M 7.287109,6.5800793 11,10.29297 l 3.712891,-3.7128907 0.707031,0.707031 -3.712891,3.7128907 3.712891,3.712891 -0.707031,0.707031 L 11,11.707032 7.287109,15.419923 6.580078,14.712892 10.292969,11.000001 6.580078,7.2871103 Z"
       class="ColorScheme-Text" />
  </g>
  <g
     style="enable-background:new"
     id="pressed-center"
     transform="translate(44)">
    <rect
       style="opacity:0.003;fill:#050505;fill-opacity:1;stroke-width:1.001"
       id="rect859"
       width="22"
       height="22"
       x="0"
       y="0" />
    <path
       id="path861"
       style="opacity:1;fill:currentColor"
       d="M 10.990234,2.0000013 A 9,9 0 0 0 2,11.000001 a 9,9 0 0 0 9,9 9,9 0 0 0 9,-9 9,9 0 0 0 -9,-8.9999997 9,9 0 0 0 -0.0098,0 z M 7.287109,6.5800793 11,10.29297 l 3.712891,-3.7128907 0.707031,0.707031 -3.712891,3.7128907 3.712891,3.712891 -0.707031,0.707031 L 11,11.707032 7.287109,15.419923 6.580078,14.712892 10.292969,11.000001 6.580078,7.2871103 Z"
       class="ColorScheme-NegativeText" />
    <path
       class="ColorScheme-Text"
       d="M 10.990234,2.0000013 A 9,9 0 0 0 2,11.000001 a 9,9 0 0 0 9,9 9,9 0 0 0 9,-9 9,9 0 0 0 -9,-8.9999997 9,9 0 0 0 -0.0098,0 z M 7.287109,6.5800793 11,10.29297 l 3.712891,-3.7128907 0.707031,0.707031 -3.712891,3.7128907 3.712891,3.712891 -0.707031,0.707031 L 11,11.707032 7.287109,15.419923 6.580078,14.712892 10.292969,11.000001 6.580078,7.2871103 Z"
       style="opacity:0.4;fill:#000000;fill-opacity:1"
       id="path863" />
  </g>
  <g
     style="enable-background:new"
     id="hover-inactive-center"
     transform="translate(22,22)">
    <rect
       style="opacity:0.003;fill:#050505;fill-opacity:1;stroke-width:1.001"
       id="rect867"
       width="22"
       height="22"
       x="0"
       y="0" />
    <path
       id="path869"
       style="opacity:1;fill:currentColor"
       d="M 10.990234,2.0000013 A 9,9 0 0 0 2,11.000001 a 9,9 0 0 0 9,9 9,9 0 0 0 9,-9 9,9 0 0 0 -9,-8.9999997 9,9 0 0 0 -0.0098,0 z M 7.287109,6.5800793 11,10.29297 l 3.712891,-3.7128907 0.707031,0.707031 -3.712891,3.7128907 3.712891,3.712891 -0.707031,0.707031 L 11,11.707032 7.287109,15.419923 6.580078,14.712892 10.292969,11.000001 6.580078,7.2871103 Z"
       class="ColorScheme-NegativeText" />
    <path
       class="ColorScheme-Text"
       d="M 10.990234,2.0000013 A 9,9 0 0 0 2,11.000001 a 9,9 0 0 0 9,9 9,9 0 0 0 9,-9 9,9 0 0 0 -9,-8.9999997 9,9 0 0 0 -0.0098,0 z M 7.287109,6.5800793 11,10.29297 l 3.712891,-3.7128907 0.707031,0.707031 -3.712891,3.7128907 3.712891,3.712891 -0.707031,0.707031 L 11,11.707032 7.287109,15.419923 6.580078,14.712892 10.292969,11.000001 6.580078,7.2871103 Z"
       style="opacity:0.4;fill:#ffffff;fill-opacity:1"
       id="path871" />
  </g>
  <g
     transform="translate(44,22)"
     id="pressed-inactive-center"
     style="enable-background:new">
    <rect
       y="0"
       x="0"
       height="22"
       width="22"
       id="rect875"
       style="opacity:0.003;fill:#050505;fill-opacity:1;stroke-width:1.001" />
    <path
       class="ColorScheme-NegativeText"
       d="M 10.990234,2.0000013 A 9,9 0 0 0 2,11.000001 a 9,9 0 0 0 9,9 9,9 0 0 0 9,-9 9,9 0 0 0 -9,-8.9999997 9,9 0 0 0 -0.0098,0 z M 7.287109,6.5800793 11,10.29297 l 3.712891,-3.7128907 0.707031,0.707031 -3.712891,3.7128907 3.712891,3.712891 -0.707031,0.707031 L 11,11.707032 7.287109,15.419923 6.580078,14.712892 10.292969,11.000001 6.580078,7.2871103 Z"
       style="opacity:1;fill:currentColor"
       id="path877" />
    <path
       id="path879"
       style="opacity:0.4;fill:#000000;fill-opacity:1"
       d="M 10.990234,2.0000013 A 9,9 0 0 0 2,11.000001 a 9,9 0 0 0 9,9 9,9 0 0 0 9,-9 9,9 0 0 0 -9,-8.9999997 9,9 0 0 0 -0.0098,0 z M 7.287109,6.5800793 11,10.29297 l 3.712891,-3.7128907 0.707031,0.707031 -3.712891,3.7128907 3.712891,3.712891 -0.707031,0.707031 L 11,11.707032 7.287109,15.419923 6.580078,14.712892 10.292969,11.000001 6.580078,7.2871103 Z"
       class="ColorScheme-Text" />
  </g>
</svg>
