<?xml version="1.0" encoding="UTF-8" standalone="no"?>
<svg
   xmlns:dc="http://purl.org/dc/elements/1.1/"
   xmlns:cc="http://creativecommons.org/ns#"
   xmlns:rdf="http://www.w3.org/1999/02/22-rdf-syntax-ns#"
   xmlns:svg="http://www.w3.org/2000/svg"
   xmlns="http://www.w3.org/2000/svg"
   xmlns:xlink="http://www.w3.org/1999/xlink"
   xmlns:sodipodi="http://sodipodi.sourceforge.net/DTD/sodipodi-0.dtd"
   xmlns:inkscape="http://www.inkscape.org/namespaces/inkscape"
   sodipodi:docname="folder-cloud.svg"
   inkscape:version="1.0 (1.0+r73+1)"
   id="svg850"
   version="1.1"
   viewBox="0 0 64 64"
   height="64"
   width="64">
  <defs
     id="defs844">
    <style
       id="current-color-scheme"
       type="text/css">
      .ColorScheme-Highlight {
        color:#3daee9;
      }
      </style>
    <linearGradient
       inkscape:collect="always"
       xlink:href="#linearGradient867"
       id="linearGradient853"
       x1="62"
       y1="16"
       x2="62"
       y2="58"
       gradientUnits="userSpaceOnUse" />
    <linearGradient
       id="linearGradient867"
       inkscape:collect="always">
      <stop
         id="stop863"
         offset="0"
         style="stop-color:#ffffff;stop-opacity:0.23999999" />
      <stop
         id="stop865"
         offset="1"
         style="stop-color:#ffffff;stop-opacity:0" />
    </linearGradient>
  </defs>
  <sodipodi:namedview
     inkscape:window-maximized="1"
     inkscape:window-y="0"
     inkscape:window-x="0"
     inkscape:window-height="1015"
     inkscape:window-width="1920"
     units="px"
     showgrid="true"
     inkscape:document-rotation="0"
     inkscape:current-layer="layer1"
     inkscape:document-units="px"
     inkscape:cy="32.116334"
     inkscape:cx="41.2182"
     inkscape:zoom="15.839192"
     inkscape:pageshadow="2"
     inkscape:pageopacity="0.0"
     borderopacity="1.0"
     bordercolor="#666666"
     pagecolor="#ffffff"
     id="namedview1431">
    <inkscape:grid
       id="grid1413"
       type="xygrid" />
  </sodipodi:namedview>
  <metadata
     id="metadata847">
    <rdf:RDF>
      <cc:Work
         rdf:about="">
        <dc:format>image/svg+xml</dc:format>
        <dc:type
           rdf:resource="http://purl.org/dc/dcmitype/StillImage" />
        <dc:title></dc:title>
      </cc:Work>
    </rdf:RDF>
  </metadata>
  <g
     id="layer1"
     inkscape:groupmode="layer"
     inkscape:label="Layer 1">
    <path
       sodipodi:nodetypes="ccccccccccccc"
       id="base"
       style="fill:currentColor;fill-opacity:1"
       d="M 4,6 V 20 H 3 V 58 H 61 V 21.011719 21 16 H 60 V 10 H 32 L 28,6 Z"
       class="ColorScheme-Highlight" />
    <path
       d="M 26 16 L 22 20 L 3 20 L 3 58 L 61 58 L 61 16 L 26 16 z M 32 28 A 7 7 0 0 1 38.931641 34.078125 A 6 6 0 0 1 44 40 A 6 6 0 0 1 38 46 L 25 46 A 5 5 0 0 1 20 41 A 5 5 0 0 1 25 36 A 5 5 0 0 1 25.080078 36.001953 A 7 7 0 0 1 25 35 A 7 7 0 0 1 32 28 z M 32 29 A 6 6 0 0 0 26.029297 34.400391 A 6 6 0 0 0 26 35 A 6 6 0 0 0 26.025391 35.507812 A 6 6 0 0 0 26.039062 35.623047 A 6 6 0 0 0 26.113281 36.130859 A 6 6 0 0 0 26.455078 37.277344 A 4 4 0 0 0 25.298828 37.015625 A 4 4 0 0 1 25.298828 37.013672 A 4 4 0 0 0 25 37 A 4 4 0 0 0 21.019531 40.601562 A 4 4 0 0 0 21 41 A 4 4 0 0 0 25 45 L 38 45 A 5 5 0 0 0 43 40 A 5 5 0 0 0 42.988281 39.646484 A 5 5 0 0 0 42.927734 39.152344 A 5 5 0 0 1 42.927734 39.150391 A 5 5 0 0 0 42.818359 38.664062 A 5 5 0 0 1 42.818359 38.662109 A 5 5 0 0 0 42.662109 38.189453 A 5 5 0 0 1 42.660156 38.1875 A 5 5 0 0 0 42.457031 37.734375 A 5 5 0 0 1 42.455078 37.732422 A 5 5 0 0 0 42.208984 37.300781 A 5 5 0 0 1 42.207031 37.298828 A 5 5 0 0 0 41.587891 36.517578 A 5 5 0 0 1 41.585938 36.515625 A 5 5 0 0 0 41.222656 36.177734 A 5 5 0 0 1 41.220703 36.175781 A 5 5 0 0 0 40.826172 35.875 A 5 5 0 0 0 40.822266 35.873047 A 5 5 0 0 0 40.400391 35.613281 A 5 5 0 0 0 40.396484 35.611328 A 5 5 0 0 0 39.949219 35.394531 A 5 5 0 0 1 39.947266 35.394531 A 5 5 0 0 0 39.480469 35.222656 A 5 5 0 0 1 39.478516 35.222656 A 5 5 0 0 0 38.996094 35.099609 A 5 5 0 0 0 38 35 A 6 6 0 0 0 37.914062 34.003906 A 6 6 0 0 0 36.699219 31.271484 A 6 6 0 0 1 36.699219 31.269531 A 6 6 0 0 0 35.388672 30.048828 A 6 6 0 0 1 35.386719 30.048828 A 6 6 0 0 0 32.599609 29.029297 A 6 6 0 0 0 32 29 z "
       style="fill:url(#linearGradient853);fill-opacity:1;fill-rule:evenodd"
       id="gradient" />
    <path
       d="M 32,10 28,6 H 4 v 14 h 18 l 4,-4 h 34 v -6 z"
       style="fill-opacity:1;fill-rule:evenodd;fill:#000000;opacity:0.3"
       id="back"
       sodipodi:nodetypes="ccccccccc" />
    <path
       sodipodi:nodetypes="ccccccccccc"
       id="shadow"
       style="fill-opacity:1;fill-rule:evenodd;fill:#000000;opacity:0.23"
       d="m 26,16 -6,3 H 4 v 1 H 22 Z M 3,57 v 1 h 58 v -1 z" />
    <path
       sodipodi:nodetypes="cccccccccccc"
       d="m 28,6 3,5 H 60 V 10 H 32 Z m -2,10 -4,4 H 3 v 1 h 20 z"
       style="opacity:0.23;fill:#ffffff;fill-opacity:1;fill-rule:evenodd"
       id="highlight" />
    <path
       style="fill:#000000;stroke-linejoin:round;fill-opacity:1;opacity:0.3"
       id="path4225"
       d="m 32,28.000047 a 7,7 0 0 0 -7,7 A 7,7 0 0 0 25.08008,36.002 5,5 0 0 0 25,36 a 5,5 0 0 0 -5,5 5,5 0 0 0 5,5 H 38 A 6,6 0 0 0 44,40 6,6 0 0 0 38.931641,34.078125 7,7 0 0 0 32,28 Z m 0,1 a 6,6 0 0 1 0.599609,0.0293 6,6 0 0 1 2.78711,1.019531 6,6 0 0 1 0.002,0 6,6 0 0 1 1.310547,1.220703 6,6 0 0 1 0,0.002 6,6 0 0 1 1.214843,2.732422 6,6 0 0 1 0.08589,0.996044 5,5 0 0 1 0.996094,0.09961 5,5 0 0 1 0.482422,0.123047 5,5 0 0 1 0.002,0 5,5 0 0 1 0.466797,0.171875 5,5 0 0 1 0.002,0 5,5 0 0 1 0.447265,0.216797 5,5 0 0 1 0.0039,0.002 5,5 0 0 1 0.421875,0.259766 5,5 0 0 1 0.0039,0.002 5,5 0 0 1 0.394531,0.300781 5,5 0 0 1 0.002,0.002 5,5 0 0 1 0.363282,0.337891 5,5 0 0 1 0.002,0.002 5,5 0 0 1 0.61914,0.78125 5,5 0 0 1 0.002,0.002 5,5 0 0 1 0.246094,0.431641 5,5 0 0 1 0.002,0.002 5,5 0 0 1 0.203125,0.453125 5,5 0 0 1 0.002,0.002 5,5 0 0 1 0.15625,0.472656 5,5 0 0 1 0,0.002 5,5 0 0 1 0.109375,0.486329 5,5 0 0 1 0,0.002 5,5 0 0 1 0.06055,0.49414 5,5 0 0 1 0.0114,0.353092 5,5 0 0 1 -5,5 h -13 a 4,4 0 0 1 -4,-4 4,4 0 0 1 0.01953,-0.398438 4,4 0 0 1 3.980469,-3.601562 4,4 0 0 1 0.298828,0.01367 4,4 0 0 1 0,0.002 4,4 0 0 1 1.156252,0.261719 6,6 0 0 1 -0.341797,-1.146485 6,6 0 0 1 -0.07422,-0.507812 6,6 0 0 1 -0.01367,-0.115235 6,6 0 0 1 -0.02539,-0.507857 6,6 0 0 1 0.0293,-0.599609 6,6 0 0 1 5.970703,-5.400391 z" />
  </g>
</svg>
