<?xml version="1.0" encoding="UTF-8" standalone="no"?>
<svg
   xmlns:dc="http://purl.org/dc/elements/1.1/"
   xmlns:cc="http://creativecommons.org/ns#"
   xmlns:rdf="http://www.w3.org/1999/02/22-rdf-syntax-ns#"
   xmlns:svg="http://www.w3.org/2000/svg"
   xmlns="http://www.w3.org/2000/svg"
   xmlns:xlink="http://www.w3.org/1999/xlink"
   xmlns:sodipodi="http://sodipodi.sourceforge.net/DTD/sodipodi-0.dtd"
   xmlns:inkscape="http://www.inkscape.org/namespaces/inkscape"
   width="64"
   height="64"
   viewBox="0 0 64 64"
   version="1.1"
   id="svg850"
   inkscape:version="1.0 (1.0+r73+1)"
   sodipodi:docname="folder-script.svg">
  <defs
     id="defs844">
    <style
       type="text/css"
       id="current-color-scheme">
      .ColorScheme-Highlight {
        color:#3daee9;
      }
      </style>
    <linearGradient
       gradientUnits="userSpaceOnUse"
       y2="58"
       x2="62"
       y1="16"
       x1="62"
       id="linearGradient853"
       xlink:href="#linearGradient867"
       inkscape:collect="always" />
    <linearGradient
       inkscape:collect="always"
       id="linearGradient867">
      <stop
         style="stop-color:#ffffff;stop-opacity:0.23999999"
         offset="0"
         id="stop863" />
      <stop
         style="stop-color:#ffffff;stop-opacity:0"
         offset="1"
         id="stop865" />
    </linearGradient>
  </defs>
  <sodipodi:namedview
     id="namedview1431"
     pagecolor="#ffffff"
     bordercolor="#666666"
     borderopacity="1.0"
     inkscape:pageopacity="0.0"
     inkscape:pageshadow="2"
     inkscape:zoom="16"
     inkscape:cx="37.474241"
     inkscape:cy="34.426237"
     inkscape:document-units="px"
     inkscape:current-layer="layer1"
     inkscape:document-rotation="0"
     showgrid="true"
     units="px"
     inkscape:window-width="1920"
     inkscape:window-height="1015"
     inkscape:window-x="0"
     inkscape:window-y="0"
     inkscape:window-maximized="1">
    <inkscape:grid
       type="xygrid"
       id="grid1413" />
  </sodipodi:namedview>
  <metadata
     id="metadata847">
    <rdf:RDF>
      <cc:Work
         rdf:about="">
        <dc:format>image/svg+xml</dc:format>
        <dc:type
           rdf:resource="http://purl.org/dc/dcmitype/StillImage" />
        <dc:title></dc:title>
      </cc:Work>
    </rdf:RDF>
  </metadata>
  <g
     inkscape:label="Layer 1"
     inkscape:groupmode="layer"
     id="layer1">
    <path
       class="ColorScheme-Highlight"
       d="M 4,6 V 20 H 3 V 58 H 61 V 21.011719 21 16 H 60 V 10 H 32 L 28,6 Z"
       style="fill:currentColor;fill-opacity:1"
       id="base"
       sodipodi:nodetypes="ccccccccccccc" />
    <path
       d="M 26 16 L 22 20 L 3 20 L 3 58 L 61 58 L 61 16 L 26 16 z M 24.707031 29 L 29 33.292969 L 31.699219 35.992188 L 28.992188 38.699219 L 29 38.707031 L 24.707031 43 L 24 42.292969 L 28.292969 38 L 30.292969 36 L 28.292969 34 L 24 29.707031 L 24.707031 29 z M 33 44 L 40 44 L 40 45 L 33 45 L 33 44 z "
       style="fill:url(#linearGradient853);fill-opacity:1;fill-rule:evenodd"
       id="gradient" />
    <path
       sodipodi:nodetypes="ccccccccc"
       id="back"
       style="fill-opacity:1;fill-rule:evenodd;fill:#000000;opacity:0.3"
       d="M 32,10 28,6 H 4 v 14 h 18 l 4,-4 h 34 v -6 z" />
    <path
       d="m 26,16 -6,3 H 4 v 1 H 22 Z M 3,57 v 1 h 58 v -1 z"
       style="fill-opacity:1;fill-rule:evenodd;fill:#000000;opacity:0.23"
       id="shadow"
       sodipodi:nodetypes="ccccccccccc" />
    <path
       id="highlight"
       style="opacity:0.23;fill:#ffffff;fill-opacity:1;fill-rule:evenodd"
       d="m 28,6 3,5 H 60 V 10 H 32 Z m -2,10 -4,4 H 3 v 1 h 20 z"
       sodipodi:nodetypes="cccccccccccc" />
    <g
       style="fill:#000000;fill-opacity:1;opacity:0.3"
       id="g1101"
       transform="matrix(0.90909091,0,0,0.90909091,-316.7013,-436.45273)" />
    <path
       style="color:#000000;fill:#000000;stroke-width:0.1;fill-opacity:1;opacity:0.3"
       id="rect3806"
       d="M 24.707031,29 24,29.707031 28.292969,34 l 2,2 -2,2 L 24,42.292969 24.707031,43 29,38.707031 28.9922,38.699231 31.699231,35.9922 29,33.292969 Z M 33,44 v 1 h 7 v -1 z" />
  </g>
</svg>
