<?xml version="1.0" encoding="UTF-8" standalone="no"?>
<svg
   xmlns:dc="http://purl.org/dc/elements/1.1/"
   xmlns:cc="http://creativecommons.org/ns#"
   xmlns:rdf="http://www.w3.org/1999/02/22-rdf-syntax-ns#"
   xmlns:svg="http://www.w3.org/2000/svg"
   xmlns="http://www.w3.org/2000/svg"
   xmlns:xlink="http://www.w3.org/1999/xlink"
   xmlns:sodipodi="http://sodipodi.sourceforge.net/DTD/sodipodi-0.dtd"
   xmlns:inkscape="http://www.inkscape.org/namespaces/inkscape"
   width="64"
   height="64"
   viewBox="0 0 64 64"
   version="1.1"
   id="svg850"
   inkscape:version="1.0 (1.0+r73+1)"
   sodipodi:docname="folder-network.svg">
  <defs
     id="defs844">
    <style
       type="text/css"
       id="current-color-scheme">
      .ColorScheme-Highlight {
        color:#3daee9;
      }
      </style>
    <linearGradient
       gradientUnits="userSpaceOnUse"
       y2="58"
       x2="62"
       y1="16"
       x1="62"
       id="linearGradient853"
       xlink:href="#linearGradient867"
       inkscape:collect="always" />
    <linearGradient
       inkscape:collect="always"
       id="linearGradient867">
      <stop
         style="stop-color:#ffffff;stop-opacity:0.23999999"
         offset="0"
         id="stop863" />
      <stop
         style="stop-color:#ffffff;stop-opacity:0"
         offset="1"
         id="stop865" />
    </linearGradient>
  </defs>
  <sodipodi:namedview
     id="namedview1431"
     pagecolor="#ffffff"
     bordercolor="#666666"
     borderopacity="1.0"
     inkscape:pageopacity="0.0"
     inkscape:pageshadow="2"
     inkscape:zoom="16"
     inkscape:cx="34.62639"
     inkscape:cy="33.554281"
     inkscape:document-units="px"
     inkscape:current-layer="layer1"
     inkscape:document-rotation="0"
     showgrid="true"
     units="px"
     inkscape:window-width="1920"
     inkscape:window-height="1015"
     inkscape:window-x="0"
     inkscape:window-y="0"
     inkscape:window-maximized="1">
    <inkscape:grid
       type="xygrid"
       id="grid1413" />
  </sodipodi:namedview>
  <metadata
     id="metadata847">
    <rdf:RDF>
      <cc:Work
         rdf:about="">
        <dc:format>image/svg+xml</dc:format>
        <dc:type
           rdf:resource="http://purl.org/dc/dcmitype/StillImage" />
        <dc:title></dc:title>
      </cc:Work>
    </rdf:RDF>
  </metadata>
  <g
     inkscape:label="Layer 1"
     inkscape:groupmode="layer"
     id="layer1">
    <path
       class="ColorScheme-Highlight"
       d="M 4,6 V 20 H 3 V 58 H 61 V 21.011719 21 16 H 60 V 10 H 32 L 28,6 Z"
       style="fill:currentColor;fill-opacity:1"
       id="base"
       sodipodi:nodetypes="ccccccccccccc" />
    <path
       d="M 26 16 L 22 20 L 3 20 L 3 58 L 61 58 L 61 16 L 26 16 z M 22 29 L 42 29 L 42 45 L 22 45 L 22 30 L 22 29 z M 23 30 L 23 42 L 29.023438 35.976562 L 23.048828 30 L 23 30 z M 24.462891 30 L 32 37.537109 L 39.537109 30 L 24.462891 30 z M 40.951172 30 L 34.976562 35.976562 L 41 42 L 41 30 L 40.951172 30 z M 29.728516 36.679688 L 22.998047 43.410156 L 22.998047 43.996094 L 40.998047 43.996094 L 40.998047 43.410156 L 40.535156 42.947266 L 34.267578 36.679688 L 31.998047 38.947266 L 29.728516 36.679688 z "
       style="fill:url(#linearGradient853);fill-opacity:1;fill-rule:evenodd"
       id="gradient" />
    <path
       sodipodi:nodetypes="ccccccccc"
       id="back"
       style="fill-opacity:1;fill-rule:evenodd;fill:#000000;opacity:0.3"
       d="M 32,10 28,6 H 4 v 14 h 18 l 4,-4 h 34 v -6 z" />
    <path
       d="m 26,16 -6,3 H 4 v 1 H 22 Z M 3,57 v 1 h 58 v -1 z"
       style="fill-opacity:1;fill-rule:evenodd;fill:#000000;opacity:0.23"
       id="shadow"
       sodipodi:nodetypes="ccccccccccc" />
    <path
       id="highlight"
       style="opacity:0.23;fill:#ffffff;fill-opacity:1;fill-rule:evenodd"
       d="m 28,6 3,5 H 60 V 10 H 32 Z m -2,10 -4,4 H 3 v 1 h 20 z"
       sodipodi:nodetypes="cccccccccccc" />
    <g
       style="fill:#000000;fill-opacity:1;opacity:0.3"
       id="g1101"
       transform="matrix(0.90909091,0,0,0.90909091,-316.7013,-436.45273)" />
    <path
       sodipodi:nodetypes="ccccccccccccccccccccccccccccc"
       inkscape:connector-curvature="0"
       style="fill:#000000;fill-opacity:1;opacity:0.3"
       id="path90"
       d="M 22.00006,29 V 29.99999 45 H 42.00002 V 29 H 22 m 1,0.99999 h 0.0494 l 5.97467,5.97602 -6.024,6.024 V 29.99999 m 1.46266,0 h 15.07465 l -7.53733,7.53734 -7.53732,-7.53734 m 16.48797,0 h 0.0494 v 12.00002 l -6.02398,-6.024 5.97464,-5.97602 m -11.22132,6.68002 2.26934,2.26797 2.26934,-2.26797 6.26798,6.26801 0.46264,0.46265 v 0.58535 H 22.9988 v -0.58535 l 6.73064,-6.73066" />
  </g>
</svg>
