<?xml version="1.0" encoding="UTF-8" standalone="no"?>
<svg
   xmlns:dc="http://purl.org/dc/elements/1.1/"
   xmlns:cc="http://creativecommons.org/ns#"
   xmlns:rdf="http://www.w3.org/1999/02/22-rdf-syntax-ns#"
   xmlns:svg="http://www.w3.org/2000/svg"
   xmlns="http://www.w3.org/2000/svg"
   xmlns:xlink="http://www.w3.org/1999/xlink"
   xmlns:sodipodi="http://sodipodi.sourceforge.net/DTD/sodipodi-0.dtd"
   xmlns:inkscape="http://www.inkscape.org/namespaces/inkscape"
   width="64"
   height="64"
   viewBox="0 0 64 64"
   version="1.1"
   id="svg850"
   inkscape:version="1.0 (1.0+r73+1)"
   sodipodi:docname="folder-unlocked.svg">
  <defs
     id="defs844">
    <style
       type="text/css"
       id="current-color-scheme">
      .ColorScheme-Highlight {
        color:#3daee9;
      }
      </style>
    <linearGradient
       gradientUnits="userSpaceOnUse"
       y2="58"
       x2="62"
       y1="16"
       x1="62"
       id="linearGradient853"
       xlink:href="#linearGradient867"
       inkscape:collect="always" />
    <linearGradient
       inkscape:collect="always"
       id="linearGradient867">
      <stop
         style="stop-color:#ffffff;stop-opacity:0.23999999"
         offset="0"
         id="stop863" />
      <stop
         style="stop-color:#ffffff;stop-opacity:0"
         offset="1"
         id="stop865" />
    </linearGradient>
  </defs>
  <sodipodi:namedview
     id="namedview1431"
     pagecolor="#ffffff"
     bordercolor="#666666"
     borderopacity="1.0"
     inkscape:pageopacity="0.0"
     inkscape:pageshadow="2"
     inkscape:zoom="16"
     inkscape:cx="37.474241"
     inkscape:cy="34.426237"
     inkscape:document-units="px"
     inkscape:current-layer="layer1"
     inkscape:document-rotation="0"
     showgrid="true"
     units="px"
     inkscape:window-width="1920"
     inkscape:window-height="1015"
     inkscape:window-x="0"
     inkscape:window-y="0"
     inkscape:window-maximized="1">
    <inkscape:grid
       type="xygrid"
       id="grid1413" />
  </sodipodi:namedview>
  <metadata
     id="metadata847">
    <rdf:RDF>
      <cc:Work
         rdf:about="">
        <dc:format>image/svg+xml</dc:format>
        <dc:type
           rdf:resource="http://purl.org/dc/dcmitype/StillImage" />
        <dc:title></dc:title>
      </cc:Work>
    </rdf:RDF>
  </metadata>
  <g
     inkscape:label="Layer 1"
     inkscape:groupmode="layer"
     id="layer1">
    <path
       class="ColorScheme-Highlight"
       d="M 4,6 V 20 H 3 V 58 H 61 V 21.011719 21 16 H 60 V 10 H 32 L 28,6 Z"
       style="fill:currentColor;fill-opacity:1"
       id="base"
       sodipodi:nodetypes="ccccccccccccc" />
    <path
       d="M 26 16 L 22 20 L 3 20 L 3 58 L 61 58 L 61 16 L 26 16 z M 32 27 C 34.77 27 37 29.23 37 32 L 37 37 L 38.25 37 L 40 37 L 40 47 L 38.25 47 L 25.75 47 L 24 47 L 24 38 L 24 37 L 27 37 L 28 37 L 36 37 L 36 32 C 36 29.57625 34.0775 28 32 28 C 29.92251 28 28 29.57625 28 32 L 28 33 L 27 33 L 27 32 C 27 29.23 29.23 27 32 27 z M 25 38 L 25 46 L 39 46 L 39 38 L 25 38 z "
       style="fill:url(#linearGradient853);fill-opacity:1;fill-rule:evenodd"
       id="gradient" />
    <path
       sodipodi:nodetypes="ccccccccc"
       id="back"
       style="fill-opacity:1;fill-rule:evenodd;fill:#000000;opacity:0.3"
       d="M 32,10 28,6 H 4 v 14 h 18 l 4,-4 h 34 v -6 z" />
    <path
       d="m 26,16 -6,3 H 4 v 1 H 22 Z M 3,57 v 1 h 58 v -1 z"
       style="fill-opacity:1;fill-rule:evenodd;fill:#000000;opacity:0.23"
       id="shadow"
       sodipodi:nodetypes="ccccccccccc" />
    <path
       id="highlight"
       style="opacity:0.23;fill:#ffffff;fill-opacity:1;fill-rule:evenodd"
       d="m 28,6 3,5 H 60 V 10 H 32 Z m -2,10 -4,4 H 3 v 1 h 20 z"
       sodipodi:nodetypes="cccccccccccc" />
    <g
       style="fill:#000000;fill-opacity:1;opacity:0.3"
       id="g1101"
       transform="matrix(0.90909091,0,0,0.90909091,-316.7013,-436.45273)" />
    <path
       id="rect4136"
       d="m 32,27 c -2.77,0 -5,2.23 -5,5 v 1 h 1 v -1 c 0,-2.42375 1.92251,-4 4,-4 2.0775,0 4,1.57625 4,4 v 5 h -8 -1 -3 v 1 9 H 25.75 38.25 40 V 37 H 38.25 37 v -5 c 0,-2.77 -2.23,-5 -5,-5 z m -7,11 h 14 v 8 H 25 Z"
       style="fill:#000000;fill-opacity:1;opacity:0.3" />
  </g>
</svg>
