<?xml version="1.0" encoding="UTF-8" standalone="no"?>
<svg
   xmlns:dc="http://purl.org/dc/elements/1.1/"
   xmlns:cc="http://creativecommons.org/ns#"
   xmlns:rdf="http://www.w3.org/1999/02/22-rdf-syntax-ns#"
   xmlns:svg="http://www.w3.org/2000/svg"
   xmlns="http://www.w3.org/2000/svg"
   xmlns:xlink="http://www.w3.org/1999/xlink"
   xmlns:sodipodi="http://sodipodi.sourceforge.net/DTD/sodipodi-0.dtd"
   xmlns:inkscape="http://www.inkscape.org/namespaces/inkscape"
   sodipodi:docname="folder-image-people.svg"
   inkscape:version="1.0 (1.0+r73+1)"
   id="svg850"
   version="1.1"
   viewBox="0 0 64 64"
   height="64"
   width="64">
  <defs
     id="defs844">
    <style
       id="current-color-scheme"
       type="text/css">
      .ColorScheme-Highlight {
        color:#3daee9;
      }
      </style>
    <linearGradient
       inkscape:collect="always"
       xlink:href="#linearGradient867"
       id="linearGradient853"
       x1="62"
       y1="16"
       x2="62"
       y2="58"
       gradientUnits="userSpaceOnUse" />
    <linearGradient
       id="linearGradient867"
       inkscape:collect="always">
      <stop
         id="stop863"
         offset="0"
         style="stop-color:#ffffff;stop-opacity:0.23999999" />
      <stop
         id="stop865"
         offset="1"
         style="stop-color:#ffffff;stop-opacity:0" />
    </linearGradient>
  </defs>
  <sodipodi:namedview
     inkscape:window-maximized="1"
     inkscape:window-y="0"
     inkscape:window-x="0"
     inkscape:window-height="1015"
     inkscape:window-width="1920"
     units="px"
     showgrid="true"
     inkscape:document-rotation="0"
     inkscape:current-layer="layer1"
     inkscape:document-units="px"
     inkscape:cy="32.444709"
     inkscape:cx="20.739541"
     inkscape:zoom="15.839192"
     inkscape:pageshadow="2"
     inkscape:pageopacity="0.0"
     borderopacity="1.0"
     bordercolor="#666666"
     pagecolor="#ffffff"
     id="namedview1431">
    <inkscape:grid
       id="grid1413"
       type="xygrid" />
  </sodipodi:namedview>
  <metadata
     id="metadata847">
    <rdf:RDF>
      <cc:Work
         rdf:about="">
        <dc:format>image/svg+xml</dc:format>
        <dc:type
           rdf:resource="http://purl.org/dc/dcmitype/StillImage" />
        <dc:title />
      </cc:Work>
    </rdf:RDF>
  </metadata>
  <g
     id="layer1"
     inkscape:groupmode="layer"
     inkscape:label="Layer 1">
    <path
       sodipodi:nodetypes="ccccccccccccc"
       id="base"
       style="fill:currentColor;fill-opacity:1"
       d="M 4,6 V 20 H 3 V 58 H 61 V 21.011719 21 16 H 60 V 10 H 32 L 28,6 Z"
       class="ColorScheme-Highlight" />
    <path
       sodipodi:nodetypes="cccccccsssssccssccccccccccc"
       d="m 26,16 -4,4 H 3 V 58 H 61 V 16 Z m 6,11 c 2.761425,-2e-6 5.000002,2.238575 5,5 2e-6,2.761425 -2.238575,5.000002 -5,5 -2.761425,2e-6 -5.000002,-2.238575 -5,-5 -2e-6,-2.761425 2.238575,-5.000002 5,-5 z m -0.06055,1 C 29.753995,28.033085 27.99975,29.814292 28,32 c 0,2.209139 1.790861,4 4,4 2.209139,0 4,-1.790861 4,-4 0,-2.209139 -1.790861,-4 -4,-4 -0.02018,-1.53e-4 -0.04037,-1.53e-4 -0.06055,0 z m -0.0098,10 c 0.02344,-8.2e-5 0.04687,-8.2e-5 0.07031,0 5.135357,3.3e-4 9.43569,3.890384 9.949219,9 H 22.060547 c 0.510311,-5.079269 4.764467,-8.958776 9.869141,-9 z M 32,39 c -4.198711,0.0016 -7.838437,2.906273 -8.771484,7 H 40.763672 C 39.831277,41.90912 36.195787,39.005265 32,39 Z"
       style="fill:url(#linearGradient853);fill-opacity:1;fill-rule:evenodd"
       id="gradient" />
    <path
       d="M 32,10 28,6 H 4 v 14 h 18 l 4,-4 h 34 v -6 z"
       style="fill-opacity:1;fill-rule:evenodd;fill:#000000;opacity:0.3"
       id="back"
       sodipodi:nodetypes="ccccccccc" />
    <path
       sodipodi:nodetypes="ccccccccccc"
       id="shadow"
       style="fill-opacity:1;fill-rule:evenodd;fill:#000000;opacity:0.23"
       d="m 26,16 -6,3 H 4 v 1 H 22 Z M 3,57 v 1 h 58 v -1 z" />
    <path
       sodipodi:nodetypes="cccccccccccc"
       d="m 28,6 3,5 H 60 V 10 H 32 Z m -2,10 -4,4 H 3 v 1 h 20 z"
       style="opacity:0.23;fill:#ffffff;fill-opacity:1;fill-rule:evenodd"
       id="highlight" />
    <g
       transform="matrix(0.90909091,0,0,0.90909091,-316.7013,-436.45273)"
       id="g1101"
       style="fill:#000000;fill-opacity:1;opacity:0.3" />
    <path
       sodipodi:nodetypes="ccccccccc"
       d="m 32,38 c -5.131618,0.0053 -9.4263,3.894101 -9.939453,9 H 41.949219 C 41.43569,41.890384 37.135357,38.00033 32,38 Z m -0.01172,1 H 32 c 4.195787,0.0053 7.831277,2.90912 8.763672,7 H 23.230469 c 0.931904,-4.088747 4.564218,-6.992006 8.757812,-7 z"
       style="opacity:0.3;fill:#000000;fill-opacity:1"
       id="path4193" />
    <path
       style="fill:#000000;fill-opacity:1;opacity:0.3"
       id="path1047"
       d="m 32.000453,27 a 4.9999962,4.9999962 0 0 0 -5,5 4.9999962,4.9999962 0 0 0 5,5 4.9999962,4.9999962 0 0 0 5,-5 4.9999962,4.9999962 0 0 0 -5,-5 z m 0,1 a 4,4 0 0 1 4,4 4,4 0 0 1 -4,4 4,4 0 0 1 -4,-4 4,4 0 0 1 4,-4 z" />
  </g>
</svg>
