<?xml version="1.0" encoding="UTF-8" standalone="no"?>
<svg
   xmlns:dc="http://purl.org/dc/elements/1.1/"
   xmlns:cc="http://creativecommons.org/ns#"
   xmlns:rdf="http://www.w3.org/1999/02/22-rdf-syntax-ns#"
   xmlns:svg="http://www.w3.org/2000/svg"
   xmlns="http://www.w3.org/2000/svg"
   xmlns:sodipodi="http://sodipodi.sourceforge.net/DTD/sodipodi-0.dtd"
   xmlns:inkscape="http://www.inkscape.org/namespaces/inkscape"
   width="32"
   height="32"
   viewBox="0 0 32 32"
   version="1.1"
   id="svg867"
   inkscape:version="1.0 (1.0+r73+1)"
   sodipodi:docname="redshift.svg">
  <defs
     id="defs3871">
    <style
       type="text/css"
       id="current-color-scheme">
      .ColorScheme-Text {
        color:#31363b;
      }
      </style>
  </defs>
  <sodipodi:namedview
     inkscape:object-paths="true"
     guideopacity="0.62745098"
     guidecolor="#0000ff"
     inkscape:bbox-nodes="true"
     inkscape:snap-intersection-paths="true"
     inkscape:snap-bbox="true"
     id="base"
     pagecolor="#ffffff"
     bordercolor="#666666"
     borderopacity="1.0"
     inkscape:pageopacity="0.0"
     inkscape:pageshadow="2"
     inkscape:zoom="7.919596"
     inkscape:cx="17.523016"
     inkscape:cy="10.751467"
     inkscape:document-units="px"
     inkscape:current-layer="layer1"
     inkscape:document-rotation="0"
     showgrid="true"
     inkscape:window-width="1920"
     inkscape:window-height="1013"
     inkscape:window-x="0"
     inkscape:window-y="0"
     inkscape:window-maximized="1"
     units="px"
     inkscape:snap-bbox-edge-midpoints="false">
    <inkscape:grid
       opacity="0.41960784"
       color="#3f3fff"
       type="xygrid"
       id="grid1448" />
  </sodipodi:namedview>
  <metadata
     id="metadata864">
    <rdf:RDF>
      <cc:Work
         rdf:about="">
        <dc:format>image/svg+xml</dc:format>
        <dc:type
           rdf:resource="http://purl.org/dc/dcmitype/StillImage" />
        <dc:title />
      </cc:Work>
    </rdf:RDF>
  </metadata>
  <g
     inkscape:label="Layer 1"
     inkscape:groupmode="layer"
     id="layer1">
    <g
       transform="translate(3,-22)"
       id="22-22-redshift-status-on">
      <rect
         y="32"
         x="-47"
         height="22"
         width="22"
         id="rect1467-9-7-9-9-4"
         style="opacity:0.003;fill-opacity:1" />
      <path
         class="ColorScheme-Text"
         id="path901-5-2-0"
         style="opacity:1;fill:currentColor;fill-opacity:1"
         d="m -36,35 c -3.313708,0 -6,2.686292 -6,6 2.56e-4,2.542476 1.60293,4.808758 4,5.65625 V 47.5 h 1 V 45.900391 C -39.282304,45.43717 -41,43.419003 -41,41 c 0,-2.761424 2.238576,-5 5,-5 2.761424,0 5,2.238576 5,5 0,2.419003 -1.717696,4.43717 -4,4.900391 V 47.5 h 1 v -0.84375 c 2.39707,-0.847492 3.999744,-3.113774 4,-5.65625 0,-3.313708 -2.686292,-6 -6,-6 z m -1.646484,2.355469 C -39.078881,38.002423 -39.99965,39.428277 -40,41 c -2.5e-4,2.185708 1.753995,3.966915 3.939453,4 H -36 c 1.572887,7.2e-5 2.999819,-0.921664 3.646484,-2.355469 C -32.870892,42.878544 -33.432162,42.99972 -34,43 c -2.209139,0 -4,-1.790861 -4,-4 -5.7e-5,-0.567038 0.120445,-1.127608 0.353516,-1.644531 z M -38,48 v 1 h 4 v -1 z m 0,2 v 1 h 4 v -1 z"
         sodipodi:nodetypes="scccccssscccccscccscccccccccccccc" />
    </g>
    <g
       id="22-22-redshift-status-off"
       transform="translate(25,-22)">
      <rect
         style="opacity:0.003;fill-opacity:1"
         id="rect1467-9-7-9-9-4-67"
         width="22"
         height="22"
         x="-47"
         y="32" />
      <path
         id="path901-5-2-0-53"
         style="opacity:1;fill:currentColor;fill-opacity:1"
         d="m -11,-9 c -3.313708,0 -6,2.686292 -6,6 2.56e-4,2.542476 1.60293,4.808758 4,5.65625 V 3.5 h 1 V 1.9003906 C -14.282304,1.4371696 -16,-0.580997 -16,-3 c 0,-2.761424 2.238576,-5 5,-5 2.761424,0 5,2.238576 5,5 0,2.419003 -1.717696,4.4371696 -4,4.9003906 V 3.5 h 1 V 2.65625 C -6.60293,1.808758 -5.000256,-0.457524 -5,-3 c 0,-3.313708 -2.686292,-6 -6,-6 z m -2,7 v 1 l 1,1 v -2 z m 1,0 v 2 h 1 v -1 z m 1,1 1,1 v -2 h -1 z m 1,-1 v 2 h 1 v -1 z m -3,6 v 1 h 4 V 4 Z m 0,2 v 1 h 4 V 6 Z"
         transform="translate(-25,44)"
         class="ColorScheme-Text"
         sodipodi:nodetypes="scccccssscccccscccccccccccccccccccccccccccccc" />
    </g>
    <g
       transform="translate(0,-31)"
       id="redshift-status-on">
      <rect
         y="31"
         x="3.5527137e-15"
         height="32"
         width="32"
         id="rect910"
         style="opacity:0.003;fill:#000000;stroke-width:1" />
      <path
         class="ColorScheme-Text"
         d="M 15.990234,35 C 11.023486,35.005389 6.9999971,39.033249 7,44 c 3.472e-4,3.446987 1.967409,6.550081 5,8.054688 V 53 h 1 V 52.484375 52 51.410156 C 10.012356,50.20205 7.9999476,47.291811 8,44 c 0,-4.418278 3.581722,-8 8,-8 4.418278,0 8,3.581722 8,8 5.2e-5,3.291811 -2.012356,6.20205 -5,7.410156 V 52 52.484375 53 h 1 V 52.054688 C 23.032591,50.550081 24.999653,47.446987 25,44 25,39.029437 20.970563,35 16,35 Z m -1.912109,2.271484 A 7,7 0 0 0 9,44 7,7 0 0 0 15.90625,51 H 16 A 7,7 0 0 0 21.921875,47.728516 7,7 0 0 1 20,48 7,7 0 0 1 13,41 7,7 0 0 1 14.078125,37.271484 Z M 13,54 v 1 h 6 v -1 z m 0,2 v 1 h 6 v -1 z m 1,2 v 1 h 4 v -1 z"
         style="opacity:1;fill:currentColor"
         id="path915" />
    </g>
    <g
       transform="translate(-3,-35)"
       id="redshift-status-off">
      <rect
         style="opacity:0.003;fill:#000000;stroke-width:1"
         id="rect1033"
         width="32"
         height="32"
         x="35"
         y="35" />
      <path
         sodipodi:nodetypes="sccccccccsccccccccssccccccccccccccc"
         id="path1035"
         style="fill:currentColor"
         d="M 50.990234,39 C 46.023486,39.0054 41.999997,43.033249 42,48 c 3.47e-4,3.446987 1.967409,6.550081 5,8.054688 V 57 h 1 V 56.484375 56 55.410156 C 45.012356,54.20205 42.999948,51.291811 43,48 c 0,-4.418278 3.581722,-8 8,-8 4.418278,0 8,3.581722 8,8 5.2e-5,3.291811 -2.012356,6.20205 -5,7.410156 V 56 56.484375 57 h 1 V 56.054688 C 58.032591,54.550081 59.999653,51.446987 60,48 60,43.029437 55.970563,39 51,39 Z M 48,58 v 1 h 6 v -1 z m 0,2 v 1 h 6 v -1 z m 1,2 v 1 h 4 v -1 z"
         class="ColorScheme-Text" />
      <path
         class="ColorScheme-Text"
         d="m 55,53 v -1 l -1,-1 h -1 -1 l -1,1 -1,-1 h -1 -1 l -1,1 v 1 h 1 l 1,-1 1,1 h 1 1 l 1,-1 1,1 z"
         style="opacity:1;fill:currentColor;"
         id="path901-5-2-0-53-3" />
    </g>
  </g>
</svg>
