<?xml version="1.0" encoding="UTF-8" standalone="no"?>
<svg
   xmlns:dc="http://purl.org/dc/elements/1.1/"
   xmlns:cc="http://creativecommons.org/ns#"
   xmlns:rdf="http://www.w3.org/1999/02/22-rdf-syntax-ns#"
   xmlns:svg="http://www.w3.org/2000/svg"
   xmlns="http://www.w3.org/2000/svg"
   xmlns:sodipodi="http://sodipodi.sourceforge.net/DTD/sodipodi-0.dtd"
   xmlns:inkscape="http://www.inkscape.org/namespaces/inkscape"
   sodipodi:docname="update.svg"
   inkscape:version="1.0 (1.0+r73+1)"
   id="svg846"
   version="1.1"
   viewBox="0 0 5.8208332 5.8208335"
   height="22"
   width="22">
  <defs
     id="defs840" />
  <sodipodi:namedview
     inkscape:document-rotation="0"
     inkscape:snap-midpoints="true"
     inkscape:object-paths="true"
     inkscape:snap-intersection-paths="true"
     inkscape:snap-smooth-nodes="true"
     inkscape:window-maximized="1"
     inkscape:window-y="0"
     inkscape:window-x="0"
     inkscape:window-height="1013"
     inkscape:window-width="1920"
     units="px"
     showgrid="true"
     inkscape:current-layer="layer1"
     inkscape:document-units="px"
     inkscape:cy="18.85228"
     inkscape:cx="59.087095"
     inkscape:zoom="7.9195959"
     inkscape:pageshadow="2"
     inkscape:pageopacity="0.0"
     borderopacity="1.0"
     bordercolor="#666666"
     pagecolor="#ffffff"
     id="base">
    <inkscape:grid
       id="grid1394"
       type="xygrid" />
  </sodipodi:namedview>
  <metadata
     id="metadata843">
    <rdf:RDF>
      <cc:Work
         rdf:about="">
        <dc:format>image/svg+xml</dc:format>
        <dc:type
           rdf:resource="http://purl.org/dc/dcmitype/StillImage" />
        <dc:title />
      </cc:Work>
    </rdf:RDF>
  </metadata>
  <style
     type="text/css"
     id="current-color-scheme">
      .ColorScheme-Text {
        color:#7B7C7E;
      }
      .ColorScheme-Background{
        color:#EFF0F1;
      }
      .ColorScheme-Highlight{
        color:#3DAEE6;
      }
      .ColorScheme-ViewText {
        color:#7B7C7E;
      }
      .ColorScheme-ViewBackground{
        color:#FCFCFC;
      }
      .ColorScheme-ViewHover {
        color:#3DAEE6;
      }
      .ColorScheme-ViewFocus{
        color:#1E92FF;
      }
      .ColorScheme-ButtonText {
        color:#7B7C7E;
      }
      .ColorScheme-ButtonBackground{
        color:#EFF0F1;
      }
      .ColorScheme-ButtonHover {
        color:#3DAEE6;
      }
      .ColorScheme-ButtonFocus{
        color:#1E92FF;
      }
     .ColorScheme-NegativeText {
            color:#da4453;
        }
      .ColorScheme-NeutralText {
        color:#f67400;
      }
</style>
  <g
     transform="translate(0,-291.17915)"
     id="layer1"
     inkscape:groupmode="layer"
     inkscape:label="Layer 1">
    <g
       id="update-high"
       transform="translate(-15.08125,-7.6729292)">
      <rect
         style="opacity:0.003;fill:#000000;fill-opacity:1;stroke:none;stroke-width:0.157018;stroke-miterlimit:4;stroke-dasharray:none;stroke-opacity:1"
         id="rect1396-6-3-9"
         width="8.4666672"
         height="8.46667"
         x="23.547916"
         y="304.67291"
         ry="1.8892064e-06" />
      <path
         class="ColorScheme-Text"
         transform="matrix(0.26458333,0,0,0.26458333,0,291.17915)"
         d="m 105,55 c -4.01478,0.0032 -7.762,2.013844 -9.984375,5.357422 l 0.724609,0.724609 C 97.75837,57.919981 101.24878,56.004288 105,56 c 5.4783,0.0055 10.1173,4.041977 10.88086,9.466797 L 113.41406,63 112.70703,63.707031 116,67 l 0.95703,0.957031 C 116.98408,67.638726 116.99841,67.319405 117,67 117,60.372548 111.62741,55 105,55 Z M 93.042969,66.042969 C 93.01591,66.361274 93.001578,66.68054 93,67 c 0,6.627397 5.372583,12 12,12 2.55017,-0.002 4.98796,-0.818509 7,-2.267578 V 75.447266 C 110.05514,77.061316 107.59658,77.997032 105,78 99.521705,77.994503 94.882698,73.958023 94.119141,68.533203 L 96.585938,71 97.292969,70.292969 94,67 Z M 114,69 v 6 h 2 v -6 z m -12,2 v 2 h 6 v -2 z m 12,6 v 2 h 2 v -2 z"
         style="fill:currentColor;stroke-width:0.999999"
         id="path1750" />
      <path
         class="ColorScheme-Text"
         id="path1746"
         transform="matrix(0.26458333,0,0,0.26458333,0,291.17915)"
         d="m 105,60 -6,6 h 3 v 5 h 6 v -5 h 3 z"
         style="opacity:0.65;fill:currentColor" />
    </g>
    <g
       id="22-22-update-none">
      <rect
         style="opacity:0.003;fill:#000000;fill-opacity:1;stroke:none;stroke-width:0.10794999;stroke-miterlimit:4;stroke-dasharray:none;stroke-opacity:1"
         id="rect1396"
         width="5.8208332"
         height="5.8208332"
         x="0"
         y="291.17914"
         ry="1.2988289e-06" />
      <path
         class="ColorScheme-Text"
         style="fill:currentColor;stroke-width:0.26458332"
         d="m 2.9104167,291.9729 a 2.1166667,2.1166667 0 0 0 -1.94148356,1.27899 l 0.20360516,0.20361 a 1.8520833,1.8520833 0 0 1 1.7378784,-1.21802 1.8520833,1.8520833 0 0 1 1.79989,1.42576 l -0.2899048,-0.28991 -0.1870686,0.18707 0.5291667,0.52917 0.2475301,0.24753 a 2.1166667,2.1166667 0 0 0 0.017053,-0.24753 2.1166667,2.1166667 0 0 0 -2.1166664,-2.11667 z m 0,0.79375 -1.0583333,1.05833 H 2.38125 v 1.32292 h 1.0583333 v -1.32292 H 3.96875 Z m -2.09961345,1.07539 a 2.1166667,2.1166667 0 0 0 -0.0170532,0.24753 2.1166667,2.1166667 0 0 0 2.11666665,2.11666 2.1166667,2.1166667 0 0 0 1.9414836,-1.27899 l -0.2036053,-0.2036 a 1.8520833,1.8520833 0 0 1 -1.7378783,1.21801 1.8520833,1.8520833 0 0 1 -1.7998901,-1.42575 l 0.3219441,0.32194 0.1870687,-0.18707 -0.561206,-0.5612 z"
         id="path5"
         inkscape:connector-curvature="0" />
    </g>
    <g
       id="update-none"
       transform="matrix(1.4545455,0,0,1.454546,0,-126.53346)">
      <rect
         style="opacity:0.003;fill:#000000;fill-opacity:1;stroke:none;stroke-width:0.10794999;stroke-miterlimit:4;stroke-dasharray:none;stroke-opacity:1"
         id="rect1396-6"
         width="5.8208332"
         height="5.8208332"
         x="0"
         y="291.17914"
         ry="1.2988289e-06" />
      <path
         class="ColorScheme-Text"
         inkscape:connector-curvature="0"
         id="path845"
         d="m 2.9104166,291.90673 c -0.7302926,5.8e-4 -1.4119159,0.36632 -1.8161682,0.97452 l 0.1318073,0.13181 c 0.367101,-0.57518 1.0020109,-0.92365 1.6843609,-0.92443 0.9965078,10e-4 1.840348,0.73524 1.9792396,1.72202 l -0.4487129,-0.44871 -0.1286097,0.12861 0.5989945,0.59899 0.1740849,0.17408 c 0.00492,-0.0579 0.00753,-0.11598 0.00782,-0.17408 -9e-7,-1.20554 -0.977279,-2.18281 -2.1828125,-2.18281 z m 0,0.9095 -1.0914062,1.09141 h 0.5457031 v 1.27331 h 1.0914063 v -1.27331 h 0.5457031 z m -2.17499639,1.09922 c -0.004922,0.0579 -0.007529,0.11598 -0.007816,0.17409 0,1.20553 0.97727849,2.18281 2.18281249,2.18281 0.7302927,-5.8e-4 1.4119161,-0.36632 1.8161682,-0.97452 l -0.1318071,-0.13181 c -0.367101,0.57519 -1.002011,0.92365 -1.6843611,0.92443 -0.9965075,-10e-4 -1.8403477,-0.73524 -1.97923965,-1.72202 l 0.44871295,0.44871 0.1286098,-0.12861 -0.59899455,-0.59899 z"
         style="opacity:1;fill:currentColor;fill-opacity:1;stroke-width:0.26458332" />
    </g>
    <ellipse
       ry="1.0583333"
       rx="0.92604166"
       cy="303.08539"
       cx="14.684375"
       id="path844"
       style="opacity:0;fill:#000000;fill-opacity:1;stroke:none;stroke-width:0.10794999;stroke-miterlimit:4;stroke-dasharray:none;stroke-opacity:1" />
    <g
       id="22-22-update-high"
       transform="translate(11.641666,5.8208065)">
      <rect
         ry="1.2988289e-06"
         y="285.35831"
         x="5.8208332"
         height="5.8208332"
         width="5.8208332"
         id="rect1396-36"
         style="opacity:0.003;fill:#000000;fill-opacity:1;stroke:none;stroke-width:0.10795;stroke-miterlimit:4;stroke-dasharray:none;stroke-opacity:1" />
      <path
         id="path1172"
         style="fill:currentColor;stroke-width:0.999999"
         d="m -14,-20 c -3.191169,0.0036 -6.074981,1.903347 -7.337891,4.833984 l 0.769532,0.769532 C -19.562279,-17.157613 -16.93871,-18.996374 -14,-19 c 3.241799,0.0043 6.0565081,2.233926 6.8027344,5.388672 L -8.2929688,-14.707031 -9,-14 l 2,2 0.9355469,0.935547 C -6.0246939,-11.374773 -6.0031726,-11.687159 -6,-12 c 2e-7,-4.418278 -3.5817219,-8 -8,-8 z m -7.935547,7.064453 c -0.03976,0.31032 -0.06128,0.622706 -0.06445,0.935547 0,4.4182781 3.581722,8.0000002 8,8 1.818688,-0.00246 3.582258,-0.6245312 5,-1.7636719 v -1.3476562 c -1.314902,1.3475607 -3.117215,2.1086154 -5,2.1113281 -3.241798,-0.0043 -6.056508,-2.233926 -6.802734,-5.388672 l 1.216796,1.216797 0.707032,-0.7070312 L -21,-12 Z m 13.9355466,2.9355548 v 4 h 1 v -4 z m 0,5 v 1 h 1 v -1 z"
         transform="matrix(0.26458334,0,0,0.26458334,12.435417,291.44373)"
         sodipodi:nodetypes="cccccccccccccccccccccccccccccccc"
         class="ColorScheme-Text" />
      <path
         class="ColorScheme-Text"
         sodipodi:nodetypes="cccccccc"
         id="path1170"
         d="m 8.73125,286.94583 -1.0583333,1.05833 h 0.5291666 l 8e-7,1.32293 h 1.0583333 l -8e-7,-1.32293 h 0.5291667 z"
         style="opacity:0.65;fill:currentColor;stroke-width:0.264583" />
      <rect
         class="ColorScheme-Text"
         style="fill:currentColor"
         id="rect1176"
         width="1.0583329"
         height="0.26458129"
         x="8.2020836"
         y="289.32709"
         ry="1.2988289e-06" />
    </g>
    <g
       transform="translate(5.8208332,5.8208431)"
       id="22-22-update-medium">
      <rect
         style="opacity:0.003;fill:#000000;fill-opacity:1;stroke:none;stroke-width:0.10795;stroke-miterlimit:4;stroke-dasharray:none;stroke-opacity:1"
         id="rect1396-36-9"
         width="5.8208332"
         height="5.8208332"
         x="5.8208332"
         y="285.35831"
         ry="1.2988289e-06" />
      <path
         id="path1172-3"
         style="fill:currentColor;stroke-width:0.999999"
         d="m 33,-19 a 8.0000001,8.0000001 0 0 0 -7.337891,4.833984 l 0.769532,0.769532 A 6.9999999,6.9999999 0 0 1 33,-18 a 6.9999999,6.9999999 0 0 1 6.802734,5.388672 L 38.707031,-13.707031 38,-13 l 2,2 0.935547,0.935547 A 8.0000001,8.0000001 0 0 0 41,-11 8.0000001,8.0000001 0 0 0 33,-19 Z m -7.935547,7.064453 A 8.0000001,8.0000001 0 0 0 25,-11 a 8.0000001,8.0000001 0 0 0 8,8 8.0000001,8.0000001 0 0 0 7.337891,-4.8339844 L 39.568359,-8.6035156 A 6.9999999,6.9999999 0 0 1 33,-4 6.9999999,6.9999999 0 0 1 26.197266,-9.3886719 L 27.414062,-8.171875 28.121094,-8.8789062 26,-11 Z"
         transform="matrix(0.26458333,0,0,0.26458333,0,291.17915)"
         class="ColorScheme-Text" />
      <path
         style="opacity:0.65;fill:currentColor;stroke-width:0.264583"
         d="m 8.73125,286.94583 -1.0583333,1.05833 h 0.5291666 l 2e-7,0.79373 h 1.0583333 l -2e-7,-0.79373 h 0.5291667 z"
         id="path1170-1"
         sodipodi:nodetypes="cccccccc"
         class="ColorScheme-Text" />
      <rect
         ry="1.2988289e-06"
         y="288.79788"
         x="8.2020836"
         height="0.79378456"
         width="1.0583345"
         id="rect1176-4"
         style="fill:currentColor"
         class="ColorScheme-Text" />
    </g>
    <g
       transform="translate(1.4382324e-7,5.8208431)"
       id="22-22-update-low">
      <rect
         style="opacity:0.003;fill:#000000;fill-opacity:1;stroke:none;stroke-width:0.10795;stroke-miterlimit:4;stroke-dasharray:none;stroke-opacity:1"
         id="rect1396-36-8"
         width="5.8208332"
         height="5.8208332"
         x="5.8208332"
         y="285.35831"
         ry="1.2988289e-06" />
      <path
         id="path1172-4"
         style="fill:currentColor;stroke-width:0.999999"
         d="m 33,-19 a 8.0000001,8.0000001 0 0 0 -7.337891,4.833984 l 0.769532,0.769532 A 6.9999999,6.9999999 0 0 1 33,-18 a 6.9999999,6.9999999 0 0 1 6.802734,5.388672 L 38.707031,-13.707031 38,-13 l 2,2 0.935547,0.935547 A 8.0000001,8.0000001 0 0 0 41,-11 8.0000001,8.0000001 0 0 0 33,-19 Z m -7.935547,7.064453 A 8.0000001,8.0000001 0 0 0 25,-11 a 8.0000001,8.0000001 0 0 0 8,8 8.0000001,8.0000001 0 0 0 7.337891,-4.8339844 L 39.568359,-8.6035156 A 6.9999999,6.9999999 0 0 1 33,-4 6.9999999,6.9999999 0 0 1 26.197266,-9.3886719 L 27.414062,-8.171875 28.121094,-8.8789062 26,-11 Z"
         transform="matrix(0.26458333,0,0,0.26458333,0,291.17915)"
         class="ColorScheme-Text" />
      <path
         style="opacity:0.65;fill:currentColor;stroke-width:0.264583"
         d="m 8.73125,286.94583 -1.0583335,1.05831 h 0.5291667 v 0.26458 h 1.0583333 v -0.26458 h 0.5291667 z"
         id="path1170-5"
         sodipodi:nodetypes="cccccccc"
         class="ColorScheme-Text" />
      <path
         id="path1510"
         style="opacity:1;fill:currentColor;stroke-width:0.999999"
         d="M 31,-10.999999 31,-6 h 4 l 10e-7,-4.999999 z"
         transform="matrix(0.26458333,0,0,0.26458333,-1.4382324e-7,291.17914)"
         sodipodi:nodetypes="ccccc"
         class="ColorScheme-Text" />
    </g>
    <g
       id="update-low"
       transform="translate(17.4625,-8.4666609)">
      <rect
         ry="1.8892064e-06"
         y="305.46664"
         x="7.9375"
         height="8.46667"
         width="8.4666672"
         id="rect1396-6-6"
         style="opacity:0.003;fill:#000000;fill-opacity:1;stroke:none;stroke-width:0.157018;stroke-miterlimit:4;stroke-dasharray:none;stroke-opacity:1" />
      <path
         style="fill:currentColor;fill-opacity:1;stroke-width:0.384848"
         d="m 12.170833,306.52497 c -1.062243,8.4e-4 -2.053696,0.53283 -2.6416989,1.41748 l 0.1917197,0.19172 c 0.5339652,-0.83662 1.4574702,-1.34349 2.4499792,-1.34462 1.449466,10e-4 2.67687,1.06944 2.878894,2.50476 l -0.652673,-0.65267 -0.187069,0.18707 0.871265,0.87125 0.253215,0.25321 c 0.0072,-0.0842 0.01095,-0.1687 0.01137,-0.25321 -10e-7,-1.75351 -1.421497,-3.17499 -3.175,-3.17499 z m -0.79375,3.17501 0,1.58749 h 1.587501 l 0,-1.58749 z m -2.3698808,-0.25324 c -0.00716,0.0842 -0.010951,0.1687 -0.011369,0.25322 0,1.7535 1.4214958,3.175 3.1750008,3.175 1.062243,-8.4e-4 2.053696,-0.53283 2.641699,-1.41748 l -0.19172,-0.19173 c -0.533965,0.83664 -1.45747,1.3435 -2.449979,1.34463 -1.449466,-0.001 -2.6768702,-1.06944 -2.8788948,-2.50476 l 0.6526734,0.65267 0.1870694,-0.18707 -0.8712654,-0.87126 z"
         id="path845-5"
         inkscape:connector-curvature="0"
         class="ColorScheme-Text"
         sodipodi:nodetypes="scccccccccsscccccccccccccccc" />
      <path
         class="ColorScheme-Text"
         sodipodi:nodetypes="cccccccc"
         d="m 12.170833,307.8479 1.5875,1.58749 h -0.79375 v 0.26459 h -1.5875 v -0.26459 h -0.79375 z"
         style="opacity:0.65;fill:currentColor"
         id="rect1592" />
    </g>
    <g
       id="update-medium"
       transform="translate(1.0583334,-7.9375167)">
      <rect
         ry="1.8892064e-06"
         y="304.9375"
         x="15.875"
         height="8.46667"
         width="8.4666672"
         id="rect1396-6-3"
         style="opacity:0.003;fill:#000000;fill-opacity:1;stroke:none;stroke-width:0.157018;stroke-miterlimit:4;stroke-dasharray:none;stroke-opacity:1" />
      <path
         sodipodi:nodetypes="ccccccccccccccccccccccccccc"
         id="path1732"
         style="fill:currentColor;fill-opacity:1;stroke-width:0.384847"
         d="m 20.108334,305.99582 c -1.062244,8.4e-4 -2.053696,0.53283 -2.641699,1.41748 l 0.191719,0.19172 c 0.533965,-0.83663 1.457471,-1.34349 2.44998,-1.34462 1.449466,10e-4 2.67687,1.06944 2.878894,2.50476 l -0.652673,-0.65268 -0.187069,0.18707 0.871265,0.87127 0.253214,0.25321 c 0.0072,-0.0842 0.01095,-0.1687 0.01137,-0.25321 -1e-6,-1.75352 -1.421497,-3.175 -3.175001,-3.175 z m -3.163631,2.92178 c -0.0072,0.0842 -0.01095,0.16869 -0.01137,0.25322 0,1.7535 1.421496,3.175 3.175,3.175 1.062244,-8.5e-4 2.053696,-0.53283 2.641699,-1.41749 l -0.191719,-0.19172 c -0.533965,0.83664 -1.457471,1.34349 -2.44998,1.34462 -1.449466,-0.001 -2.676869,-1.06944 -2.878894,-2.50475 l 0.652673,0.65267 0.187069,-0.18707 -0.871265,-0.87126 z m 2.36988,0.7824 1e-6,1.05832 h 1.5875 l -10e-7,-1.05832 z"
         class="ColorScheme-Text" />
      <path
         sodipodi:nodetypes="cccccccc"
         style="opacity:0.65;fill:currentColor;fill-opacity:1;stroke-width:0.384848"
         d="m 20.108333,307.31872 -1.5875,1.5875 h 0.79375 l 0,0.79378 h 1.5875 l 10e-7,-0.79378 h 0.793749 z"
         id="path1730"
         class="ColorScheme-Text" />
    </g>
  </g>
</svg>
