<?xml version="1.0" encoding="UTF-8" standalone="no"?>
<svg
   xmlns:dc="http://purl.org/dc/elements/1.1/"
   xmlns:cc="http://creativecommons.org/ns#"
   xmlns:rdf="http://www.w3.org/1999/02/22-rdf-syntax-ns#"
   xmlns:svg="http://www.w3.org/2000/svg"
   xmlns="http://www.w3.org/2000/svg"
   xmlns:xlink="http://www.w3.org/1999/xlink"
   xmlns:sodipodi="http://sodipodi.sourceforge.net/DTD/sodipodi-0.dtd"
   xmlns:inkscape="http://www.inkscape.org/namespaces/inkscape"
   width="48"
   height="48"
   version="1.1"
   id="svg90"
   sodipodi:docname="accessories-calculator.svg"
   inkscape:version="1.0 (1.0+r73+1)">
  <metadata
     id="metadata94">
    <rdf:RDF>
      <cc:Work
         rdf:about="">
        <dc:format>image/svg+xml</dc:format>
        <dc:type
           rdf:resource="http://purl.org/dc/dcmitype/StillImage" />
      </cc:Work>
    </rdf:RDF>
  </metadata>
  <sodipodi:namedview
     inkscape:document-rotation="0"
     pagecolor="#ffffff"
     bordercolor="#666666"
     borderopacity="1"
     objecttolerance="10"
     gridtolerance="10"
     guidetolerance="10"
     inkscape:pageopacity="0"
     inkscape:pageshadow="2"
     inkscape:window-width="1920"
     inkscape:window-height="1013"
     id="namedview92"
     showgrid="true"
     inkscape:zoom="6.3786924"
     inkscape:cx="-7.4768262"
     inkscape:cy="28.189487"
     inkscape:window-x="0"
     inkscape:window-y="0"
     inkscape:window-maximized="1"
     inkscape:current-layer="svg90">
    <inkscape:grid
       type="xygrid"
       id="grid919" />
  </sodipodi:namedview>
  <defs
     id="defs32">
    <linearGradient
       id="highlight"
       inkscape:collect="always">
      <stop
         id="stop977"
         offset="0"
         style="stop-color:#ffffff;stop-opacity:1;" />
      <stop
         id="stop979"
         offset="1"
         style="stop-color:#ffffff;stop-opacity:0;" />
    </linearGradient>
    <style
       type="text/css"
       id="current-color-scheme">
      .ColorScheme-Highlight {
        color:#3daee9;
      }
      </style>
    <linearGradient
       id="a"
       y1="543.8"
       y2="503.8"
       x2="0"
       gradientUnits="userSpaceOnUse"
       gradientTransform="matrix(1.125 0 0 1-51.07 0)">
      <stop
         stop-color="#2a2c2f"
         id="stop2" />
      <stop
         offset="1"
         stop-color="#424649"
         id="stop4" />
    </linearGradient>
    <linearGradient
       id="b"
       y1="540.92"
       y2="522.55"
       x2="0"
       gradientUnits="userSpaceOnUse"
       gradientTransform="matrix(1 0 0 1.14286 0-77.4)">
      <stop
         stop-color="#197cf1"
         id="stop7" />
      <stop
         offset="1"
         stop-color="#05a0eb"
         id="stop9" />
    </linearGradient>
    <linearGradient
       id="c"
       y1="542.8"
       y2="533.8"
       gradientUnits="userSpaceOnUse"
       x2="0"
       gradientTransform="translate(0-28)">
      <stop
         stop-color="#bcb4a1"
         id="stop12" />
      <stop
         offset="1"
         stop-color="#c5bfad"
         id="stop14" />
    </linearGradient>
    <linearGradient
       id="d"
       y1="540.8"
       y2="531.8"
       gradientUnits="userSpaceOnUse"
       x2="0">
      <stop
         stop-color="#1e1f21"
         id="stop17" />
      <stop
         offset="1"
         stop-color="#242628"
         id="stop19" />
    </linearGradient>
    <linearGradient
       xlink:href="#d"
       id="e"
       y1="528.8"
       y2="519.8"
       gradientUnits="userSpaceOnUse"
       x2="0" />
    <linearGradient
       id="f"
       y1="20"
       x1="32"
       y2="30"
       x2="42"
       gradientUnits="userSpaceOnUse">
      <stop
         stop-color="#383e51"
         id="stop23" />
      <stop
         offset="1"
         stop-color="#655c6f"
         stop-opacity="0"
         id="stop25" />
    </linearGradient>
    <linearGradient
       xlink:href="#f"
       id="g"
       y1="531.8"
       x1="404.57"
       y2="543.8"
       x2="416.57"
       gradientUnits="userSpaceOnUse"
       gradientTransform="translate(-384.57-499.8)" />
    <linearGradient
       xlink:href="#f"
       id="h"
       y1="531.8"
       x1="404.57"
       y2="543.8"
       gradientUnits="userSpaceOnUse"
       x2="416.57"
       gradientTransform="translate(0-12)" />
    <linearGradient
       xlink:href="#f"
       id="i"
       y1="531.8"
       x1="404.57"
       y2="543.8"
       gradientUnits="userSpaceOnUse"
       x2="416.57"
       gradientTransform="translate(-12-12)" />
    <linearGradient
       xlink:href="#f"
       id="j"
       y1="531.8"
       x1="404.57"
       y2="543.8"
       gradientUnits="userSpaceOnUse"
       x2="416.57"
       gradientTransform="translate(-12)" />
    <linearGradient
       gradientUnits="userSpaceOnUse"
       y2="540.79999"
       x2="425.57001"
       y1="519.79999"
       x1="425.57001"
       id="linearGradient983"
       xlink:href="#highlight"
       inkscape:collect="always" />
  </defs>
  <g
     transform="translate(-384.57-499.8)"
     id="g88">
    <rect
       width="36"
       x="390.57"
       y="503.8"
       fill="url(#a)"
       rx="0"
       height="40"
       id="rect34" />
    <g
       fill-rule="evenodd"
       id="g44">
      <path
         opacity=".2"
         fill="url(#h)"
         d="m413.57 519.8l-9 9 3 3h18z"
         id="path36" />
      <path
         opacity=".2"
         fill="url(#i)"
         d="m401.57 519.8l-9 9 3 3h18z"
         id="path38" />
      <path
         opacity=".2"
         fill="url(#j)"
         d="m401.57 531.8l-9 9 3 3h18z"
         id="path40" />
      <path
         opacity=".2"
         fill="url(#g)"
         d="m29 32l-9 9 3 3h18z"
         transform="translate(384.57 499.8)"
         id="path42" />
    </g>
    <rect
       width="36"
       x="390.57"
       y="542.8"
       fill="#1c1e20"
       height="1"
       id="rect46" />
    <path
       opacity=".2"
       fill="url(#f)"
       fill-rule="evenodd"
       d="m40 20l-8 21 3 3h7v-22z"
       transform="translate(384.57 499.8)"
       id="path48" />
    <rect
       width="8"
       x="416.57001"
       y="519.79999"
       rx="0"
       height="21"
       id="rect50"
       style="fill:currentColor"
       class="ColorScheme-Highlight" />
    <rect
       width="32"
       x="392.57"
       y="505.8"
       fill="url(#c)"
       height="9"
       id="rect52" />
    <rect
       class="ColorScheme-Highlight"
       style="fill:url(#linearGradient983);fill-opacity:1;opacity:0.2"
       id="rect975"
       height="21"
       rx="0"
       y="519.79999"
       x="416.57001"
       width="8" />
    <path
       fill="#ffffff"
       d="m418.57 534.8v1h4v-1zm0 2v1h4v-1z"
       id="path54" />
    <g
       fill="#383432"
       id="g64">
      <rect
         width="3"
         x="418.57"
         y="506.8"
         height="1"
         id="rect56" />
      <rect
         width="1"
         x="421.57"
         y="507.8"
         height="5"
         id="rect58" />
      <rect
         width="3"
         x="418.57"
         y="512.8"
         height="1"
         id="rect60" />
      <rect
         width="1"
         x="417.57"
         y="507.8"
         height="5"
         id="rect62" />
    </g>
    <rect
       width="9"
       x="392.57"
       y="531.8"
       fill="url(#d)"
       rx="0"
       height="9"
       id="rect66" />
    <g
       fill="url(#e)"
       id="g72">
      <rect
         width="9"
         x="392.57"
         y="519.8"
         rx="0"
         height="9"
         id="rect68" />
      <rect
         width="9"
         x="404.57"
         y="519.8"
         rx="0"
         height="9"
         id="rect70" />
    </g>
    <rect
       width="9"
       x="404.57"
       y="531.8"
       fill="url(#d)"
       rx="0"
       height="9"
       id="rect74" />
    <g
       fill="#ffffff"
       id="g86">
      <path
         d="m12 22v2h-2v1h2v2h1v-2h2v-1h-2v-2z"
         transform="translate(384.57 499.8)"
         id="path76" />
      <rect
         width="1"
         x="523.8"
         y="-411.57"
         rx="0"
         height="5"
         transform="rotate(90)"
         id="rect78" />
      <g
         transform="translate(384.57 499.8)"
         id="g84">
        <path
           d="M12.5 34A.5 .5 0 0 0 12 34.5 .5 .5 0 0 0 12.5 35 .5 .5 0 0 0 13 34.5 .5 .5 0 0 0 12.5 34M10 36V37H15V36zM12.5 38A.5 .5 0 0 0 12 38.5 .5 .5 0 0 0 12.5 39 .5 .5 0 0 0 13 38.5 .5 .5 0 0 0 12.5 38"
           id="path80" />
        <path
           d="m22.707 34l-.707.707 1.793 1.793-1.793 1.793.707.707 1.793-1.793 1.793 1.793.707-.707-1.793-1.793 1.793-1.793-.707-.707-1.793 1.793z"
           id="path82" />
      </g>
    </g>
  </g>
</svg>
