<?xml version="1.0" encoding="UTF-8" standalone="no"?>
<svg
   xmlns:dc="http://purl.org/dc/elements/1.1/"
   xmlns:cc="http://creativecommons.org/ns#"
   xmlns:rdf="http://www.w3.org/1999/02/22-rdf-syntax-ns#"
   xmlns:svg="http://www.w3.org/2000/svg"
   xmlns="http://www.w3.org/2000/svg"
   xmlns:xlink="http://www.w3.org/1999/xlink"
   xmlns:sodipodi="http://sodipodi.sourceforge.net/DTD/sodipodi-0.dtd"
   xmlns:inkscape="http://www.inkscape.org/namespaces/inkscape"
   width="48"
   height="48"
   version="1.1"
   id="svg2"
   inkscape:version="1.0 (1.0+r73+1)"
   sodipodi:docname="homerun.svg">
  <metadata
     id="metadata49">
    <rdf:RDF>
      <cc:Work
         rdf:about="">
        <dc:format>image/svg+xml</dc:format>
        <dc:type
           rdf:resource="http://purl.org/dc/dcmitype/StillImage" />
        <dc:title />
      </cc:Work>
    </rdf:RDF>
  </metadata>
  <sodipodi:namedview
     pagecolor="#ffffff"
     bordercolor="#666666"
     borderopacity="1"
     objecttolerance="10"
     gridtolerance="10"
     guidetolerance="10"
     inkscape:pageopacity="0"
     inkscape:pageshadow="2"
     inkscape:window-width="1920"
     inkscape:window-height="1013"
     id="namedview47"
     showgrid="true"
     inkscape:zoom="27.812867"
     inkscape:cx="43.455902"
     inkscape:cy="36.592007"
     inkscape:window-x="0"
     inkscape:window-y="0"
     inkscape:window-maximized="1"
     inkscape:current-layer="svg2"
     inkscape:object-nodes="true"
     inkscape:snap-bbox="true"
     inkscape:snap-intersection-paths="true"
     inkscape:snap-smooth-nodes="true"
     inkscape:document-rotation="0">
    <inkscape:grid
       type="xygrid"
       id="grid4177" />
  </sodipodi:namedview>
  <defs
     id="defs4">
    <style
       id="current-color-scheme"
       type="text/css">
      .ColorScheme-Highlight {
        color:#3daee9;
      }
      </style>
    <linearGradient
       inkscape:collect="always"
       id="linearGradient984">
      <stop
         style="stop-color:#ffffff;stop-opacity:1;"
         offset="0"
         id="stop980" />
      <stop
         style="stop-color:#ffffff;stop-opacity:0;"
         offset="1"
         id="stop982" />
    </linearGradient>
    <linearGradient
       inkscape:collect="always"
       id="linearGradient934">
      <stop
         style="stop-color:#ffffff;stop-opacity:1"
         offset="0"
         id="stop930" />
      <stop
         style="stop-color:#ffffff;stop-opacity:0"
         offset="1"
         id="stop932" />
    </linearGradient>
    <linearGradient
       id="linearGradient4252">
      <stop
         style="stop-color:#000000;stop-opacity:1;"
         offset="0"
         id="stop7" />
      <stop
         style="stop-color:#000000;stop-opacity:0;"
         offset="1"
         id="stop9" />
    </linearGradient>
    <linearGradient
       id="c-5"
       y1="-.883"
       x1="-41.26"
       y2="37.956"
       x2="-2.994"
       gradientUnits="userSpaceOnUse"
       gradientTransform="matrix(1.0454421,0,0,1.0298842,46.076843,3.856842)">
      <stop
         stop-color="#21c9fb"
         id="stop13" />
      <stop
         offset="1"
         stop-color="#1a86f2"
         id="stop15" />
    </linearGradient>
    <linearGradient
       gradientTransform="matrix(1.0454421,0,0,1.0298842,89.076843,3.856842)"
       gradientUnits="userSpaceOnUse"
       x2="-2.994"
       y2="37.956001"
       x1="-41.259998"
       y1="-0.88300002"
       id="c-5-3">
      <stop
         id="stop13-6"
         stop-color="#21c9fb" />
      <stop
         id="stop15-7"
         stop-color="#1a86f2"
         offset="1" />
    </linearGradient>
    <linearGradient
       inkscape:collect="always"
       xlink:href="#linearGradient934"
       id="linearGradient936"
       x1="47"
       y1="4"
       x2="87"
       y2="44"
       gradientUnits="userSpaceOnUse"
       gradientTransform="translate(-43)" />
    <linearGradient
       gradientUnits="userSpaceOnUse"
       y2="43"
       x2="43"
       y1="4"
       x1="4"
       id="linearGradient4237-5"
       xlink:href="#linearGradient4252"
       inkscape:collect="always" />
    <linearGradient
       inkscape:collect="always"
       xlink:href="#linearGradient984"
       id="linearGradient986"
       x1="48"
       y1="5"
       x2="85"
       y2="42"
       gradientUnits="userSpaceOnUse"
       gradientTransform="translate(-43)" />
  </defs>
  <path
     id="path19-5"
     style="fill:currentColor;fill-opacity:1"
     d="M 5,4 C 4.446,4 4,4.446 4,5 v 38 c 0,0.554 0.446,1 1,1 h 38 c 0.554,0 1,-0.446 1,-1 V 5 C 44,4.446 43.554,4 43,4 Z"
     class="ColorScheme-Highlight" />
  <path
     id="rect4179-3"
     style="opacity:0.15;fill:#000000;fill-opacity:1;stroke:none;stroke-width:2;stroke-miterlimit:4;stroke-dasharray:none;stroke-opacity:1"
     d="m 4,43 c 0,0.554 0.446,1 1,1 h 38 c 0.554,0 1,-0.446 1,-1 z" />
  <path
     class="ColorScheme-Highlight"
     d="M 5,4 C 4.446,4 4,4.446 4,5 v 38 c 0,0.554 0.446,1 1,1 h 38 c 0.554,0 1,-0.446 1,-1 V 5 C 44,4.446 43.554,4 43,4 Z"
     style="opacity:0.3;fill:url(#linearGradient936);fill-opacity:1"
     id="path928" />
  <path
     sodipodi:nodetypes="ccccccccccccccc"
     inkscape:connector-curvature="0"
     id="path4228-9"
     d="m 8,40 4,4 H 44 V 12 L 40,8 V 22 H 26 V 12 L 22,8 V 22 H 8 l 4,4 h 10 v 14 z"
     style="opacity:0.2;fill:url(#linearGradient4237-5);fill-opacity:1;fill-rule:evenodd;stroke:none;stroke-width:1px;stroke-linecap:butt;stroke-linejoin:miter;stroke-opacity:1" />
  <path
     d="M 8,8 V 22 H 22 V 8 Z M 26,8 V 22 H 40 V 8 Z M 10,10 H 20 V 20 H 10 Z m 18,0 H 38 V 20 H 28 Z M 8,26 V 40 H 22 V 26 Z m 18,0 V 40 H 40 V 26 Z M 10,28 H 20 V 38 H 10 Z m 18,0 H 38 V 38 H 28 Z"
     style="opacity:0.9;fill:#ffffff;fill-opacity:1;stroke:none;stroke-width:2;stroke-miterlimit:4;stroke-dasharray:none;stroke-opacity:1"
     id="rect4181-1" />
  <path
     id="path978"
     style="opacity:1;fill:url(#linearGradient986);fill-opacity:1;stroke:none;stroke-width:2;stroke-miterlimit:4;stroke-dasharray:none;stroke-opacity:1"
     d="M 8,8 V 22 H 22 V 8 Z M 26,8 V 22 H 40 V 8 Z M 10,10 H 20 V 20 H 10 Z m 18,0 H 38 V 20 H 28 Z M 8,26 V 40 H 22 V 26 Z m 18,0 V 40 H 40 V 26 Z M 10,28 H 20 V 38 H 10 Z m 18,0 H 38 V 38 H 28 Z" />
</svg>
