<?xml version="1.0" encoding="UTF-8" standalone="no"?>
<svg
   xmlns:dc="http://purl.org/dc/elements/1.1/"
   xmlns:cc="http://creativecommons.org/ns#"
   xmlns:rdf="http://www.w3.org/1999/02/22-rdf-syntax-ns#"
   xmlns:svg="http://www.w3.org/2000/svg"
   xmlns="http://www.w3.org/2000/svg"
   xmlns:xlink="http://www.w3.org/1999/xlink"
   xmlns:sodipodi="http://sodipodi.sourceforge.net/DTD/sodipodi-0.dtd"
   xmlns:inkscape="http://www.inkscape.org/namespaces/inkscape"
   width="48"
   height="48"
   version="1.1"
   id="svg67"
   sodipodi:docname="hwinfo.svg"
   inkscape:version="1.0 (1.0+r73+1)">
  <metadata
     id="metadata71">
    <rdf:RDF>
      <cc:Work
         rdf:about="">
        <dc:format>image/svg+xml</dc:format>
        <dc:type
           rdf:resource="http://purl.org/dc/dcmitype/StillImage" />
      </cc:Work>
    </rdf:RDF>
  </metadata>
  <sodipodi:namedview
     inkscape:document-rotation="0"
     pagecolor="#ffffff"
     bordercolor="#666666"
     borderopacity="1"
     objecttolerance="10"
     gridtolerance="10"
     guidetolerance="10"
     inkscape:pageopacity="0"
     inkscape:pageshadow="2"
     inkscape:window-width="1920"
     inkscape:window-height="1013"
     id="namedview69"
     showgrid="true"
     inkscape:zoom="25.51477"
     inkscape:cx="27.375906"
     inkscape:cy="23.487216"
     inkscape:window-x="0"
     inkscape:window-y="0"
     inkscape:window-maximized="1"
     inkscape:current-layer="svg67">
    <inkscape:grid
       type="xygrid"
       id="grid896" />
  </sodipodi:namedview>
  <defs
     id="defs29">
    <linearGradient
       id="linearGradient1118"
       inkscape:collect="always">
      <stop
         id="stop1114"
         offset="0"
         style="stop-color:#ffffff;stop-opacity:1;" />
      <stop
         id="stop1116"
         offset="1"
         style="stop-color:#ffffff;stop-opacity:0;" />
    </linearGradient>
    <style
       id="current-color-scheme"
       type="text/css">
      .ColorScheme-Highlight {
        color:#3daee9;
      }
      </style>
    <linearGradient
       inkscape:collect="always"
       id="linearGradient1032">
      <stop
         style="stop-color:#ffffff;stop-opacity:1;"
         offset="0"
         id="stop1028" />
      <stop
         style="stop-color:#ffffff;stop-opacity:0;"
         offset="1"
         id="stop1030" />
    </linearGradient>
    <linearGradient
       id="a"
       y1="44"
       y2="4"
       gradientUnits="userSpaceOnUse"
       x2="0"
       gradientTransform="translate(0 1004.36)">
      <stop
         stop-color="#63984b"
         id="stop2" />
      <stop
         offset="1"
         stop-color="#8fc278"
         id="stop4" />
    </linearGradient>
    <linearGradient
       id="b"
       y1="11"
       x1="17"
       y2="41"
       gradientUnits="userSpaceOnUse"
       x2="44"
       gradientTransform="translate(0 1004.36)">
      <stop
         id="stop7" />
      <stop
         offset="1"
         stop-opacity="0"
         id="stop9" />
    </linearGradient>
    <linearGradient
       gradientTransform="translate(106,-988.36)"
       id="c"
       y1="1004.36"
       y2="1022.36"
       x1="-93"
       x2="-75"
       gradientUnits="userSpaceOnUse">
      <stop
         stop-color="#292c2f"
         id="stop12" />
      <stop
         offset="1"
         stop-opacity="0"
         id="stop14" />
    </linearGradient>
    <linearGradient
       id="d"
       x1="-50"
       x2="-22.15"
       gradientUnits="userSpaceOnUse">
      <stop
         stop-color="#7cbaf8"
         id="stop17" />
      <stop
         offset="1"
         stop-color="#f4fcff"
         id="stop19" />
    </linearGradient>
    <linearGradient
       xlink:href="#d"
       id="e"
       y1="1040.36"
       y2="1014.36"
       gradientUnits="userSpaceOnUse"
       x2="0"
       gradientTransform="translate(-0.148)" />
    <linearGradient
       id="f"
       y1="1043.36"
       y2="1012.36"
       x2="0"
       gradientUnits="userSpaceOnUse"
       gradientTransform="translate(60)">
      <stop
         stop-color="#197cf1"
         id="stop23" />
      <stop
         offset="1"
         stop-color="#20bcfa"
         id="stop25" />
    </linearGradient>
    <linearGradient
       xlink:href="#d"
       id="g"
       y1="37"
       y2="10"
       x2="0"
       gradientUnits="userSpaceOnUse"
       gradientTransform="translate(60 1004.36)" />
    <linearGradient
       id="b-3-0"
       y1="524.79999"
       y2="538.79999"
       x1="393.57001"
       gradientUnits="userSpaceOnUse"
       x2="407.57001"
       gradientTransform="matrix(1.42857,0,0,1.42857,-491.17998,-673.71044)">
      <stop
         stop-color="#383e51"
         id="stop7-5-9" />
      <stop
         offset="1"
         stop-color="#655c6f"
         stop-opacity="0"
         id="stop9-6-3" />
    </linearGradient>
    <linearGradient
       gradientTransform="translate(96,-1)"
       gradientUnits="userSpaceOnUse"
       x2="0"
       y2="10"
       y1="37"
       id="g-3"
       xlink:href="#d-6" />
    <linearGradient
       gradientUnits="userSpaceOnUse"
       x2="-22.15"
       x1="-50"
       id="d-6">
      <stop
         id="stop17-7"
         stop-color="#7cbaf8" />
      <stop
         id="stop19-5"
         stop-color="#f4fcff"
         offset="1" />
    </linearGradient>
    <linearGradient
       gradientTransform="translate(-0.148)"
       x2="0"
       gradientUnits="userSpaceOnUse"
       y2="1014.36"
       y1="1040.36"
       id="e-3"
       xlink:href="#d-6" />
    <linearGradient
       gradientUnits="userSpaceOnUse"
       x2="-22.15"
       x1="-50"
       id="linearGradient948">
      <stop
         id="stop944"
         stop-color="#7cbaf8" />
      <stop
         id="stop946"
         stop-color="#f4fcff"
         offset="1" />
    </linearGradient>
    <linearGradient
       gradientTransform="translate(-0.148)"
       x2="0"
       gradientUnits="userSpaceOnUse"
       y2="1014.36"
       y1="1040.36"
       id="linearGradient950"
       xlink:href="#d-6" />
    <linearGradient
       gradientUnits="userSpaceOnUse"
       x2="-22.15"
       x1="-50"
       id="linearGradient956">
      <stop
         id="stop952"
         stop-color="#7cbaf8" />
      <stop
         id="stop954"
         stop-color="#f4fcff"
         offset="1" />
    </linearGradient>
    <linearGradient
       gradientUnits="userSpaceOnUse"
       x2="-22.15"
       x1="-50"
       id="d-1">
      <stop
         id="stop17-2"
         stop-color="#7cbaf8" />
      <stop
         id="stop19-7"
         stop-color="#f4fcff"
         offset="1" />
    </linearGradient>
    <linearGradient
       inkscape:collect="always"
       xlink:href="#linearGradient1032"
       id="linearGradient1034"
       x1="36"
       y1="1014.36"
       x2="36"
       y2="1041.36"
       gradientUnits="userSpaceOnUse" />
    <linearGradient
       gradientUnits="userSpaceOnUse"
       y2="1043.36"
       x2="38"
       y1="1012.36"
       x1="38"
       id="linearGradient1120"
       xlink:href="#linearGradient1118"
       inkscape:collect="always" />
  </defs>
  <g
     transform="translate(0-1004.36)"
     id="g65">
    <g
       fill-rule="evenodd"
       id="g35">
      <path
         fill="#dce269"
         d="m4 1008.36v9l3 2-3 2v27h40v-40z"
         id="path31" />
      <path
         fill="url(#a)"
         d="m4 1008.36v8l3 2-3 2v27h40v-39z"
         id="path33" />
    </g>
    <g
       color="#000000"
       id="g41">
      <path
         d="m9 1044.36v1h1v-1zm1 1v1h1v-1zm1 0h1v-1h-1zm1 0v1h1v-1zm1 0h1v-1h-1zm1 0v1h1v-1zm1 0h1v-1h-1zm1 0v1h1v-1zm1 0h1v-1h-1zm1 0v1h1v-1zm1 0h1v-1h-1zm1 0v1h1v-1zm1 0h1v-1h-1zm1 0v1h1v-1zm1 0h1v-1h-1zm1 0v1h1v-1z"
         id="path37" />
      <path
         d="m35 1044.36v1h1v-1zm1 1v1h1v-1zm1 0h1v-1h-1zm1 0v1h1v-1zm1 0h1v-1h-1zm-4 0h-1v1h1z"
         id="path39" />
    </g>
    <path
       fill="#e6ea97"
       fill-rule="evenodd"
       d="m43 1044.36l-2 2h2z"
       id="path43" />
    <path
       color="#000000"
       d="m42 1013.36v1h1v-1zm0 1h-1v1h1zm0 1v1h1v-1zm0 1h-1v1h1zm0 1v1h1v-1zm0 1h-1v1h1zm0 1v1h1v-1zm0 1h-1v1h1zm0 1v1h1v-1zm0 1h-1v1h1zm0 1v1h1v-1zm0 1h-1v1h1zm0 1v1h1v-1zm0 1h-1v1h1zm0 1v1h1v-1zm0 1h-1v1h1z"
       id="path45" />
    <g
       fill-rule="evenodd"
       id="g61">
      <path
         opacity=".2"
         fill="url(#b)"
         d="m40 1012.36v31h-32l4.584 5h31.416v-32z"
         id="path47" />
      <rect
         width="32"
         x="8"
         y="1012.36"
         height="31"
         id="rect49"
         fill="currentColor"
         class="ColorScheme-Highlight" />
      <rect
         style="fill:url(#linearGradient1120);fill-opacity:1;opacity:0.24"
         id="rect1112"
         height="31"
         y="1012.36"
         x="8"
         width="32" />
      <rect
         width="32"
         x="8"
         y="1042.36"
         fill="#1c5593"
         height="1"
         id="rect51"
         style="fill:#000000;fill-opacity:1;opacity:0.3" />
      <path
         sodipodi:nodetypes="ccccccccccc"
         transform="translate(0,1004.36)"
         d="m 26,15 v 4 h -4 l 2,2 h 2 v 11 h -4 l 5,5 H 38 V 27 Z"
         style="fill:url(#c);opacity:0.2"
         id="path53" />
      <path
         d="m 24,1014.362 a 14,13.5 0 0 0 -14,13.5 14,13.5 0 0 0 14,13.5 14,13.5 0 0 0 14,-13.5 14,13.5 0 0 0 -14,-13.5 z m -0.04102,1.9277 a 12,11.571428 0 0 1 0.04102,0 12,11.571428 0 0 1 12,11.5723 12,11.571428 0 0 1 -12,11.5722 12,11.571428 0 0 1 -12,-11.5722 12,11.571428 0 0 1 11.958984,-11.5723 z M 22,1019.36 v 4 h 4 v -4 z m 0,6 v 11 h 4 v -11 z"
         style="fill:#ffffff;fill-opacity:1;opacity:0.6"
         id="path55" />
      <path
         id="path1026"
         style="fill:url(#linearGradient1034);fill-opacity:1;opacity:0.6"
         d="m 24,1014.362 a 14,13.5 0 0 0 -14,13.5 14,13.5 0 0 0 14,13.5 14,13.5 0 0 0 14,-13.5 14,13.5 0 0 0 -14,-13.5 z m -0.04102,1.9277 a 12,11.571428 0 0 1 0.04102,0 12,11.571428 0 0 1 12,11.5723 12,11.571428 0 0 1 -12,11.5722 12,11.571428 0 0 1 -12,-11.5722 12,11.571428 0 0 1 11.958984,-11.5723 z M 22,1019.36 v 4 h 4 v -4 z m 0,6 v 11 h 4 v -11 z" />
    </g>
  </g>
</svg>
