<?xml version="1.0" encoding="UTF-8" standalone="no"?>
<svg
   xmlns:dc="http://purl.org/dc/elements/1.1/"
   xmlns:cc="http://creativecommons.org/ns#"
   xmlns:rdf="http://www.w3.org/1999/02/22-rdf-syntax-ns#"
   xmlns:svg="http://www.w3.org/2000/svg"
   xmlns="http://www.w3.org/2000/svg"
   xmlns:xlink="http://www.w3.org/1999/xlink"
   xmlns:sodipodi="http://sodipodi.sourceforge.net/DTD/sodipodi-0.dtd"
   xmlns:inkscape="http://www.inkscape.org/namespaces/inkscape"
   width="48"
   height="48"
   version="1.1"
   id="svg31"
   sodipodi:docname="kfind.svg"
   inkscape:version="1.0 (1.0+r73+1)">
  <metadata
     id="metadata35">
    <rdf:RDF>
      <cc:Work
         rdf:about="">
        <dc:format>image/svg+xml</dc:format>
        <dc:type
           rdf:resource="http://purl.org/dc/dcmitype/StillImage" />
      </cc:Work>
    </rdf:RDF>
  </metadata>
  <sodipodi:namedview
     inkscape:document-rotation="0"
     pagecolor="#ffffff"
     bordercolor="#666666"
     borderopacity="1"
     objecttolerance="10"
     gridtolerance="10"
     guidetolerance="10"
     inkscape:pageopacity="0"
     inkscape:pageshadow="2"
     inkscape:window-width="1920"
     inkscape:window-height="1013"
     id="namedview33"
     showgrid="true"
     inkscape:zoom="12.757385"
     inkscape:cx="15.478031"
     inkscape:cy="26.017057"
     inkscape:window-x="0"
     inkscape:window-y="0"
     inkscape:window-maximized="1"
     inkscape:current-layer="svg31">
    <inkscape:grid
       type="xygrid"
       id="grid860" />
  </sodipodi:namedview>
  <defs
     id="defs17">
    <linearGradient
       id="linearGradient927"
       inkscape:collect="always">
      <stop
         id="stop923"
         offset="0"
         style="stop-color:#ffffff;stop-opacity:1;" />
      <stop
         id="stop925"
         offset="1"
         style="stop-color:#ffffff;stop-opacity:0;" />
    </linearGradient>
    <linearGradient
       id="shadow"
       inkscape:collect="always">
      <stop
         id="stop915"
         offset="0"
         style="stop-color:#000000;stop-opacity:1;" />
      <stop
         id="stop917"
         offset="1"
         style="stop-color:#000000;stop-opacity:0;" />
    </linearGradient>
    <style
       type="text/css"
       id="current-color-scheme">
      .ColorScheme-Highlight {
        color:#3daee9;
      }
      </style>
    <linearGradient
       gradientUnits="userSpaceOnUse"
       y2="522.79999"
       x2="423.57001"
       y1="512.79999"
       x1="413.57001"
       id="linearGradient921"
       xlink:href="#shadow"
       inkscape:collect="always" />
    <linearGradient
       gradientUnits="userSpaceOnUse"
       y2="33"
       x2="33"
       y1="15"
       x1="33"
       id="linearGradient937"
       xlink:href="#linearGradient927"
       inkscape:collect="always" />
    <linearGradient
       gradientUnits="userSpaceOnUse"
       y2="543.79999"
       x2="394.57001"
       y1="503.79999"
       x1="394.57001"
       id="linearGradient945"
       xlink:href="#linearGradient927"
       inkscape:collect="always" />
  </defs>
  <g
     transform="translate(-384.57-499.8)"
     id="g29">
    <path
       fill="currentColor"
       d="m392.57 503.8v40h32v-30l-10-10z"
       id="path19"
       class="ColorScheme-Highlight" />
    <path
       style="fill-opacity:1;fill:url(#linearGradient945);opacity:0.24"
       id="path887"
       d="m392.57 503.8v40h32v-30l-10-10z" />
    <g
       fill-rule="evenodd"
       id="g25">
      <path
         style="opacity:0.8;fill:#eff0f1;fill-opacity:1"
         fill="#313437"
         d="m424.57 513.8l-10-10v10z"
         id="path21" />
      <path
         style="fill-opacity:1;fill:url(#linearGradient921)"
         opacity=".2"
         d="m414.57 513.8l10 9.959v-9.959z"
         id="path23" />
    </g>
    <path
       style="fill:#ffffff;fill-opacity:1;opacity:0.6"
       transform="translate(384.57,499.8)"
       d="M 21.998047 14.998047 C 18.134157 14.998047 15.001953 18.130251 15.001953 21.994141 C 15.001953 25.858041 18.134147 28.990234 21.998047 28.990234 C 23.506917 28.987234 24.974631 28.495294 26.181641 27.589844 L 31.587891 32.998047 L 33 31.583984 L 27.59375 26.177734 C 28.49919 24.970724 28.990911 23.503011 28.994141 21.994141 C 28.994141 18.130241 25.861947 14.998047 21.998047 14.998047 z M 22 17 A 5 5 0 0 1 27 22 A 5 5 0 0 1 22 27 A 5 5 0 0 1 17 22 A 5 5 0 0 1 22 17 z "
       id="path27" />
    <path
       transform="translate(384.57,499.8)"
       id="path905"
       d="M 21.998047 14.998047 C 18.134157 14.998047 15.001953 18.130251 15.001953 21.994141 C 15.001953 25.858041 18.134147 28.990234 21.998047 28.990234 C 23.506917 28.987234 24.974631 28.495294 26.181641 27.589844 L 31.587891 32.998047 L 33 31.583984 L 27.59375 26.177734 C 28.49919 24.970724 28.990911 23.503011 28.994141 21.994141 C 28.994141 18.130241 25.861947 14.998047 21.998047 14.998047 z M 22 17 A 5 5 0 0 1 27 22 A 5 5 0 0 1 22 27 A 5 5 0 0 1 17 22 A 5 5 0 0 1 22 17 z "
       style="fill:url(#linearGradient937);fill-opacity:1;opacity:0.6" />
  </g>
</svg>
