<?xml version="1.0" encoding="UTF-8" standalone="no"?>
<svg
   xmlns:dc="http://purl.org/dc/elements/1.1/"
   xmlns:cc="http://creativecommons.org/ns#"
   xmlns:rdf="http://www.w3.org/1999/02/22-rdf-syntax-ns#"
   xmlns:svg="http://www.w3.org/2000/svg"
   xmlns="http://www.w3.org/2000/svg"
   xmlns:xlink="http://www.w3.org/1999/xlink"
   xmlns:sodipodi="http://sodipodi.sourceforge.net/DTD/sodipodi-0.dtd"
   xmlns:inkscape="http://www.inkscape.org/namespaces/inkscape"
   width="48"
   height="48"
   version="1.1"
   id="svg29"
   sodipodi:docname="ktip.svg"
   inkscape:version="1.0 (1.0+r73+1)">
  <metadata
     id="metadata33">
    <rdf:RDF>
      <cc:Work
         rdf:about="">
        <dc:format>image/svg+xml</dc:format>
        <dc:type
           rdf:resource="http://purl.org/dc/dcmitype/StillImage" />
      </cc:Work>
    </rdf:RDF>
  </metadata>
  <sodipodi:namedview
     inkscape:document-rotation="0"
     pagecolor="#ffffff"
     bordercolor="#666666"
     borderopacity="1"
     objecttolerance="10"
     gridtolerance="10"
     guidetolerance="10"
     inkscape:pageopacity="0"
     inkscape:pageshadow="2"
     inkscape:window-width="1920"
     inkscape:window-height="1013"
     id="namedview31"
     showgrid="true"
     inkscape:snap-bbox="true"
     inkscape:bbox-nodes="true"
     inkscape:zoom="12.757385"
     inkscape:cx="14.30594"
     inkscape:cy="21.549985"
     inkscape:window-x="0"
     inkscape:window-y="0"
     inkscape:window-maximized="1"
     inkscape:current-layer="svg29">
    <inkscape:grid
       type="xygrid"
       id="grid858" />
  </sodipodi:namedview>
  <defs
     id="defs17">
    <style
       id="current-color-scheme"
       type="text/css">
      .ColorScheme-Highlight {
        color:#3daee9;
      }
      </style>
    <linearGradient
       id="a"
       y1="1016.36"
       x1="13"
       y2="1040.36"
       gradientUnits="userSpaceOnUse"
       x2="36">
      <stop
         stop-color="#292c2f"
         id="stop2" />
      <stop
         offset="1"
         stop-opacity="0"
         id="stop4" />
    </linearGradient>
    <linearGradient
       id="b"
       y1="44"
       y2="4"
       x2="0"
       gradientUnits="userSpaceOnUse">
      <stop
         stop-color="#7cbaf8"
         id="stop7" />
      <stop
         offset="1"
         stop-color="#f4fcff"
         id="stop9" />
    </linearGradient>
    <linearGradient
       id="c"
       y1="39"
       y2="9"
       x2="0"
       gradientUnits="userSpaceOnUse"
       gradientTransform="matrix(1.02857,0,0,1.2,-60.314,1007.56)">
      <stop
         stop-color="#197cf1"
         id="stop12" />
      <stop
         offset="1"
         stop-color="#20bcfa"
         id="stop14" />
    </linearGradient>
    <linearGradient
       gradientUnits="userSpaceOnUse"
       y2="44"
       x2="55"
       y1="4"
       x1="55"
       id="linearGradient1004"
       xlink:href="#highlight"
       inkscape:collect="always"
       gradientTransform="matrix(0.9,0,0,0.9,-35.399998,2.4000561)" />
    <linearGradient
       id="highlight"
       inkscape:collect="always">
      <stop
         id="stop891"
         offset="0"
         style="stop-color:#ffffff;stop-opacity:1;" />
      <stop
         id="stop893"
         offset="1"
         style="stop-color:#ffffff;stop-opacity:0;" />
    </linearGradient>
    <linearGradient
       id="b-3-0"
       y1="524.79999"
       y2="538.79999"
       x1="393.57001"
       gradientUnits="userSpaceOnUse"
       x2="407.57001"
       gradientTransform="matrix(1.42857,0,0,1.42857,-582.24639,-698.71043)">
      <stop
         stop-color="#383e51"
         id="stop7-5-9" />
      <stop
         offset="1"
         stop-color="#655c6f"
         stop-opacity="0"
         id="stop9-6-3" />
    </linearGradient>
    <linearGradient
       inkscape:collect="always"
       xlink:href="#highlight"
       id="linearGradient901"
       gradientUnits="userSpaceOnUse"
       gradientTransform="translate(-41.999998,5.6055256e-5)"
       x1="55"
       y1="4"
       x2="55"
       y2="44" />
    <linearGradient
       gradientTransform="matrix(1.02857,0,0,1.2,-4.314,-2.8)"
       gradientUnits="userSpaceOnUse"
       x2="0"
       y2="9"
       y1="39"
       id="c-3">
      <stop
         id="stop12-6"
         stop-color="#197cf1" />
      <stop
         id="stop14-7"
         stop-color="#20bcfa"
         offset="1" />
    </linearGradient>
    <linearGradient
       x2="35"
       gradientUnits="userSpaceOnUse"
       y2="1039.36"
       x1="13"
       y1="1016.36"
       id="shadow"
       gradientTransform="translate(2.0139654e-7,-1002.3599)">
      <stop
         id="stop2-3"
         stop-color="#292c2f"
         style="stop-color:#000000;stop-opacity:1" />
      <stop
         id="stop4-5"
         stop-opacity="0"
         offset="1" />
    </linearGradient>
    <linearGradient
       gradientTransform="translate(1,-1001.36)"
       id="shadow-3"
       y1="1016.36"
       x1="13"
       y2="1039.36"
       gradientUnits="userSpaceOnUse"
       x2="35">
      <stop
         stop-color="#292c2f"
         id="stop2-3-6" />
      <stop
         offset="1"
         stop-opacity="0"
         id="stop4-5-7" />
    </linearGradient>
  </defs>
  <circle
     style="opacity:1;fill:currentColor"
     id="base"
     cx="24"
     cy="24.000055"
     r="20"
     class="ColorScheme-Highlight" />
  <path
     id="circle996"
     style="color:#3daee9;opacity:0.3;fill:url(#linearGradient1004);fill-opacity:1;stroke-width:0.9"
     d="M 23.910156,6.0000561 A 18,18 0 0 0 6,24.000056 a 18,18 0 0 0 18,18 18,18 0 0 0 18,-18 18,18 0 0 0 -18,-17.9999999 18,18 0 0 0 -0.08984,0 z M 22,14.000056 h 4 v 4 h -4 z m 0,8 h 4 v 16 h -4 z" />
  <path
     id="circle893"
     style="color:#3daee9;opacity:0.9;fill:url(#linearGradient901);fill-opacity:1"
     d="M 24,4.0000561 A 20,20 0 0 0 4,24.000056 a 20,20 0 0 0 20,20 20,20 0 0 0 20,-20 A 20,20 0 0 0 24,4.0000561 Z m -0.08984,2 a 18,18 0 0 1 0.08984,0 18,18 0 0 1 18,17.9999999 18,18 0 0 1 -18,18 18,18 0 0 1 -18,-18 A 18,18 0 0 1 23.910156,6.0000561 Z M 22,14.000056 v 4 h 4 v -4 z m 0,8 v 16 h 4 v -16 z" />
  <path
     d="M 24,4.0000561 A 20,20 0 0 0 4,24.000056 a 20,20 0 0 0 20,20 20,20 0 0 0 20,-20 A 20,20 0 0 0 24,4.0000561 Z m -0.08984,2 a 18,18 0 0 1 0.08984,0 18,18 0 0 1 18,17.9999999 18,18 0 0 1 -18,18 18,18 0 0 1 -18,-18 A 18,18 0 0 1 23.910156,6.0000561 Z M 22,14.000056 v 4 h 4 v -4 z m 0,8 v 16 h 4 v -16 z"
     style="color:#3daee9;opacity:0.3;fill:#ffffff;fill-opacity:1"
     id="path935" />
  <path
     d="m 26,14.000056 v 4 h -4 l 4,4 v 16 h -4 l 5.662109,5.662109 a 20,20 0 0 0 15.371094,-13.52539 z"
     style="opacity:0.2;fill:url(#shadow)"
     id="path25-6" />
</svg>
