<?xml version="1.0" encoding="UTF-8" standalone="no"?>
<svg
   xmlns:dc="http://purl.org/dc/elements/1.1/"
   xmlns:cc="http://creativecommons.org/ns#"
   xmlns:rdf="http://www.w3.org/1999/02/22-rdf-syntax-ns#"
   xmlns:svg="http://www.w3.org/2000/svg"
   xmlns="http://www.w3.org/2000/svg"
   xmlns:xlink="http://www.w3.org/1999/xlink"
   xmlns:sodipodi="http://sodipodi.sourceforge.net/DTD/sodipodi-0.dtd"
   xmlns:inkscape="http://www.inkscape.org/namespaces/inkscape"
   inkscape:version="1.0 (1.0+r73+1)"
   sodipodi:docname="kuser.svg"
   id="svg29"
   version="1.1"
   height="48"
   width="48">
  <metadata
     id="metadata33">
    <rdf:RDF>
      <cc:Work
         rdf:about="">
        <dc:format>image/svg+xml</dc:format>
        <dc:type
           rdf:resource="http://purl.org/dc/dcmitype/StillImage" />
      </cc:Work>
    </rdf:RDF>
  </metadata>
  <sodipodi:namedview
     inkscape:current-layer="svg29"
     inkscape:window-maximized="1"
     inkscape:window-y="0"
     inkscape:window-x="0"
     inkscape:cy="15.171312"
     inkscape:cx="1.7033011"
     inkscape:zoom="6.4331345"
     showgrid="true"
     id="namedview31"
     inkscape:window-height="1013"
     inkscape:window-width="1920"
     inkscape:pageshadow="2"
     inkscape:pageopacity="0"
     guidetolerance="10"
     gridtolerance="10"
     objecttolerance="10"
     borderopacity="1"
     bordercolor="#666666"
     pagecolor="#ffffff"
     inkscape:document-rotation="0"
     inkscape:snap-bbox="true"
     inkscape:bbox-nodes="true">
    <inkscape:grid
       id="grid858"
       type="xygrid" />
  </sodipodi:namedview>
  <defs
     id="defs17">
    <linearGradient
       inkscape:collect="always"
       id="linearGradient1077">
      <stop
         style="stop-color:#ffffff;stop-opacity:1;"
         offset="0"
         id="stop1073" />
      <stop
         style="stop-color:#ffffff;stop-opacity:0;"
         offset="1"
         id="stop1075" />
    </linearGradient>
    <style
       id="current-color-scheme"
       type="text/css">
      .ColorScheme-Highlight {
        color:#3daee9;
      }
      </style>
    <linearGradient
       id="highlight"
       inkscape:collect="always">
      <stop
         id="stop891"
         offset="0"
         style="stop-color:#ffffff;stop-opacity:1;" />
      <stop
         id="stop893"
         offset="1"
         style="stop-color:#ffffff;stop-opacity:0;" />
    </linearGradient>
    <linearGradient
       x2="0"
       gradientUnits="userSpaceOnUse"
       y2="517.8"
       y1="545.8"
       id="a">
      <stop
         id="stop2"
         stop-color="#197cf1" />
      <stop
         id="stop4"
         stop-color="#20bcfa"
         offset="1" />
    </linearGradient>
    <linearGradient
       gradientTransform="translate(-384.57-515.8)"
       x2="407.57"
       gradientUnits="userSpaceOnUse"
       x1="393.57"
       y2="538.8"
       y1="524.8"
       id="b">
      <stop
         id="stop7"
         stop-color="#383e51" />
      <stop
         id="stop9"
         stop-opacity="0"
         stop-color="#655c6f"
         offset="1" />
    </linearGradient>
    <linearGradient
       gradientUnits="userSpaceOnUse"
       x2="0"
       y2="14"
       y1="34"
       id="c">
      <stop
         id="stop12"
         stop-color="#7cbaf8" />
      <stop
         id="stop14"
         stop-color="#f4fcff"
         offset="1" />
    </linearGradient>
    <linearGradient
       id="a-3"
       y1="545.79999"
       y2="517.79999"
       gradientUnits="userSpaceOnUse"
       x2="0"
       gradientTransform="matrix(1.42857,0,0,1.42857,-548.24,-735.71391)">
      <stop
         stop-color="#197cf1"
         id="stop2-6" />
      <stop
         offset="1"
         stop-color="#20bcfa"
         id="stop4-7" />
    </linearGradient>
    <linearGradient
       gradientTransform="matrix(1.42857,0,0,1.42857,-581.23999,-725.70999)"
       x2="407.57001"
       gradientUnits="userSpaceOnUse"
       x1="393.57001"
       y2="538.79999"
       y1="524.79999"
       id="b-3">
      <stop
         id="stop7-5"
         stop-color="#383e51" />
      <stop
         id="stop9-6"
         stop-opacity="0"
         stop-color="#655c6f"
         offset="1" />
    </linearGradient>
    <linearGradient
       gradientUnits="userSpaceOnUse"
       y2="44"
       x2="55"
       y1="4"
       x1="55"
       id="linearGradient1004"
       xlink:href="#highlight"
       inkscape:collect="always"
       gradientTransform="translate(-41.999999,1.1457359e-4)" />
    <linearGradient
       gradientTransform="translate(42)"
       id="c-9"
       y1="34"
       y2="14"
       x2="0"
       gradientUnits="userSpaceOnUse">
      <stop
         stop-color="#7cbaf8"
         id="stop12-1" />
      <stop
         offset="1"
         stop-color="#f4fcff"
         id="stop14-2" />
    </linearGradient>
    <linearGradient
       inkscape:collect="always"
       xlink:href="#linearGradient1077"
       id="linearGradient1079"
       x1="55"
       y1="14"
       x2="55"
       y2="34"
       gradientUnits="userSpaceOnUse"
       gradientTransform="translate(-41.999999,1.1457359e-4)" />
    <linearGradient
       id="b-3-0"
       y1="524.79999"
       y2="538.79999"
       x1="393.57001"
       gradientUnits="userSpaceOnUse"
       x2="407.57001"
       gradientTransform="matrix(1.42857,0,0,1.42857,-548.24053,-735.71032)">
      <stop
         style="stop-color:#000000;stop-opacity:1"
         stop-color="#383e51"
         id="stop7-5-9" />
      <stop
         offset="1"
         stop-color="#655c6f"
         stop-opacity="0"
         id="stop9-6-3" />
    </linearGradient>
  </defs>
  <circle
     style="opacity:1;fill:currentColor"
     id="base"
     cx="24"
     cy="24.000114"
     r="20"
     class="ColorScheme-Highlight" />
  <circle
     class="ColorScheme-Highlight"
     r="20"
     cy="24.000114"
     cx="24"
     id="circle996"
     style="opacity:0.3;fill:url(#linearGradient1004);fill-opacity:1" />
  <path
     style="opacity:0.6;fill:#ffffff;fill-opacity:1"
     color-rendering="auto"
     shape-rendering="auto"
     color-interpolation-filters="linearRGB"
     image-rendering="auto"
     text-rendering="auto"
     color-interpolation="sRGB"
     d="m 24.000001,14.000115 a 5,5 0 0 0 -5,5 5,5 0 0 0 5,5 5,5 0 0 0 5,-5 5,5 0 0 0 -5,-5 m 0,10 a 10,10 0 0 0 -10,10 h 16 v -1 h -14.94 a 9,9 0 0 1 8.94,-8 9,9 0 0 1 6,2.304688 v -1.294688 a 10,10 0 0 0 -6,-2.01 m 0,-9 a 4.00001,4 0 0 1 4,4 4.00001,4 0 0 1 -4,4 4.00001,4 0 0 1 -4,-4 4.00001,4 0 0 1 4,-4 m 9,9 a 1,1 0 0 0 -1,1 1,1 0 0 0 1,1 1,1 0 0 0 1,-1 1,1 0 0 0 -1,-1 m -1,4 v 6 h 2 v -6 z"
     id="path25-7" />
  <path
     id="path1071"
     d="m 24.000001,14.000115 a 5,5 0 0 0 -5,5 5,5 0 0 0 5,5 5,5 0 0 0 5,-5 5,5 0 0 0 -5,-5 m 0,10 a 10,10 0 0 0 -10,10 h 16 v -1 h -14.94 a 9,9 0 0 1 8.94,-8 9,9 0 0 1 6,2.304688 v -1.294688 a 10,10 0 0 0 -6,-2.01 m 0,-9 a 4.00001,4 0 0 1 4,4 4.00001,4 0 0 1 -4,4 4.00001,4 0 0 1 -4,-4 4.00001,4 0 0 1 4,-4 m 9,9 a 1,1 0 0 0 -1,1 1,1 0 0 0 1,1 1,1 0 0 0 1,-1 1,1 0 0 0 -1,-1 m -1,4 v 6 h 2 v -6 z"
     color-interpolation="sRGB"
     text-rendering="auto"
     image-rendering="auto"
     color-interpolation-filters="linearRGB"
     shape-rendering="auto"
     color-rendering="auto"
     style="opacity:0.6;fill:url(#linearGradient1079);fill-opacity:1" />
  <path
     id="path21-2-6"
     style="opacity:0.2;fill:url(#b-3-0);stroke-width:1.42857"
     d="m 23.939454,15.000115 a 4,4 0 0 0 -3.939453,4 4,4 0 0 0 4,4 4,4 0 0 0 4,-4 4,4 0 0 0 -4,-4 4,4 0 0 0 -0.06055,0 z m 4.748047,2.263672 c 0.201314,0.542128 0.307043,1.115088 0.3125,1.693359 2e-4,0.01671 0.0039,0.03211 0.0039,0.04883 -0.0014,0.0014 -10e-4,0.0025 -0.0039,0.0039 -0.0057,2.75534 -2.238815,4.987019 -4.994141,4.990234 2.162812,0.0043 4.266,0.709272 5.994141,2.009771 v 1.294922 c -1.648156,-1.480542 -3.784517,-2.301146 -6,-2.304688 -4.581753,0.0029 -8.430367,3.446618 -8.939453,8 h 14.939453 v 1 H 14.001954 c -1.86e-4,0.0014 1.85e-4,0.0025 0,0.0039 l 10,10 h 20 v -14.28515 l -1.427734,1.427734 z m 4.3125,6.736328 c 0.552285,0 1,0.447715 1,1 0,0.552285 -0.447715,1 -1,1 -0.552285,0 -1,-0.447715 -1,-1 0,-0.552285 0.447715,-1 1,-1 z m -1,4 h 2 v 6 h -2 z" />
</svg>
