<?xml version="1.0" encoding="UTF-8" standalone="no"?>
<svg
   xmlns:dc="http://purl.org/dc/elements/1.1/"
   xmlns:cc="http://creativecommons.org/ns#"
   xmlns:rdf="http://www.w3.org/1999/02/22-rdf-syntax-ns#"
   xmlns:svg="http://www.w3.org/2000/svg"
   xmlns="http://www.w3.org/2000/svg"
   xmlns:xlink="http://www.w3.org/1999/xlink"
   xmlns:sodipodi="http://sodipodi.sourceforge.net/DTD/sodipodi-0.dtd"
   xmlns:inkscape="http://www.inkscape.org/namespaces/inkscape"
   width="48"
   height="48"
   version="1.1"
   id="svg57"
   sodipodi:docname="muondiscover.svg"
   inkscape:version="1.0 (1.0+r73+1)">
  <metadata
     id="metadata61">
    <rdf:RDF>
      <cc:Work
         rdf:about="">
        <dc:format>image/svg+xml</dc:format>
        <dc:type
           rdf:resource="http://purl.org/dc/dcmitype/StillImage" />
      </cc:Work>
    </rdf:RDF>
  </metadata>
  <sodipodi:namedview
     inkscape:document-rotation="0"
     pagecolor="#ffffff"
     bordercolor="#666666"
     borderopacity="1"
     objecttolerance="10"
     gridtolerance="10"
     guidetolerance="10"
     inkscape:pageopacity="0"
     inkscape:pageshadow="2"
     inkscape:window-width="1920"
     inkscape:window-height="1013"
     id="namedview59"
     showgrid="true"
     inkscape:snap-smooth-nodes="true"
     inkscape:snap-bbox="true"
     inkscape:bbox-nodes="true"
     inkscape:object-paths="true"
     inkscape:snap-intersection-paths="true"
     inkscape:snap-midpoints="true"
     inkscape:bbox-paths="true"
     inkscape:zoom="10.24"
     inkscape:cx="27.576426"
     inkscape:cy="14.530155"
     inkscape:window-x="0"
     inkscape:window-y="0"
     inkscape:window-maximized="1"
     inkscape:current-layer="svg57"
     inkscape:object-nodes="true"
     inkscape:snap-nodes="true">
    <inkscape:grid
       type="xygrid"
       id="grid886" />
  </sodipodi:namedview>
  <defs
     id="defs31">
    <style
       id="current-color-scheme"
       type="text/css">
      .ColorScheme-Highlight {
        color:#3daee9;
      }
      </style>
    <linearGradient
       id="linearGradient930"
       inkscape:collect="always">
      <stop
         id="stop926"
         offset="0"
         style="stop-color:#ffffff;stop-opacity:1" />
      <stop
         id="stop928"
         offset="1"
         style="stop-color:#fefefe;stop-opacity:0" />
    </linearGradient>
    <linearGradient
       inkscape:collect="always"
       id="linearGradient1668">
      <stop
         style="stop-color:#ffffff;stop-opacity:1;"
         offset="0"
         id="stop1664" />
      <stop
         style="stop-color:#ffffff;stop-opacity:0;"
         offset="1"
         id="stop1666" />
    </linearGradient>
    <linearGradient
       inkscape:collect="always"
       id="linearGradient1660">
      <stop
         style="stop-color:#1d1e1e;stop-opacity:1;"
         offset="0"
         id="stop1656" />
      <stop
         style="stop-color:#000000;stop-opacity:0.3019608"
         offset="1"
         id="stop1658" />
    </linearGradient>
    <style
       id="style15"
       type="text/css">
      .ColorScheme-Highlight {
        color:#3daee9;
      }
      </style>
    <linearGradient
       gradientUnits="userSpaceOnUse"
       x2="32"
       y2="39"
       x1="16"
       y1="23"
       id="i-3">
      <stop
         style="stop-color:#000000;stop-opacity:1"
         id="stop26-6"
         stop-color="#292c2f" />
      <stop
         id="stop28-1"
         stop-opacity="0"
         offset="1" />
    </linearGradient>
    <linearGradient
       id="h-8-3"
       y1="19"
       y2="3"
       x2="0"
       gradientUnits="userSpaceOnUse"
       gradientTransform="translate(13,18)">
      <stop
         stop-color="#7cbaf8"
         id="stop21-9-1"
         style="stop-color:#ffffff;stop-opacity:0" />
      <stop
         offset="1"
         stop-color="#f4fcff"
         id="stop23-7-9"
         style="stop-color:#ffffff;stop-opacity:1" />
    </linearGradient>
    <linearGradient
       inkscape:collect="always"
       xlink:href="#linearGradient1660"
       id="linearGradient1662"
       x1="112"
       y1="19"
       x2="112"
       y2="15"
       gradientUnits="userSpaceOnUse"
       gradientTransform="translate(-88,-3)" />
    <linearGradient
       inkscape:collect="always"
       xlink:href="#linearGradient1668"
       id="linearGradient1670"
       x1="115"
       y1="17"
       x2="115"
       y2="45"
       gradientUnits="userSpaceOnUse"
       gradientTransform="translate(-88,-1)" />
    <linearGradient
       gradientUnits="userSpaceOnUse"
       y2="16"
       x2="28"
       y1="4"
       x1="28"
       id="linearGradient932"
       xlink:href="#linearGradient930"
       inkscape:collect="always" />
  </defs>
  <path
     sodipodi:nodetypes="sscccsssscccsssssss"
     id="rect963-2"
     style="opacity:1;fill:currentColor"
     d="M 23.92383,4 C 19.53446,4 16,7.568 16,12 H 6 v 2.666016 L 4,16 v 27 c 0,0.554 0.446,1 1,1 h 38 c 0.554,0 1,-0.446 1,-1 V 16 L 42,14.666016 V 12 H 32 C 32,7.568 28.46554,4 24.07617,4 Z M 24,6 c 3.324,0 6,2.676 6,6 H 18 c 0,-3.324 2.676,-6 6,-6 z"
     class="ColorScheme-Highlight" />
  <path
     id="path43-6-7"
     style="opacity:0.5;fill:url(#linearGradient1662);fill-opacity:1"
     d="m 6,12 1,2 -3,2 h 12 v -4 z m 12,0 v 4 h 12 v -4 z m 14,0 v 4 h 12 l -3,-2 1,-2 z" />
  <path
     style="color:#000000;clip-rule:nonzero;display:inline;overflow:visible;visibility:visible;opacity:0.3;isolation:auto;mix-blend-mode:normal;color-interpolation:sRGB;color-interpolation-filters:linearRGB;solid-color:#000000;solid-opacity:1;fill:#000000;fill-opacity:1;fill-rule:nonzero;stroke:none;stroke-width:1;stroke-linecap:butt;stroke-linejoin:miter;stroke-miterlimit:4;stroke-dasharray:none;stroke-dashoffset:0;stroke-opacity:1;marker:none;color-rendering:auto;image-rendering:auto;shape-rendering:auto;text-rendering:auto;enable-background:accumulate"
     d="M 5,44 C 4.44599,44 4,43.554 4,43 v -1 c 0,0.554 0.44599,1 1,1 h 38 c 0.55401,0 1,-0.446 1,-1 v 1 c 0,0.554 -0.44599,1 -1,1 z"
     id="path4233"
     inkscape:connector-curvature="0"
     sodipodi:nodetypes="sscsscsss" />
  <path
     sodipodi:nodetypes="csssscc"
     id="rect1353"
     style="opacity:0.2;fill:url(#linearGradient1670);fill-opacity:1;stroke-width:1.001"
     d="m 4,16 v 27 c 0,0.554 0.446,1 1,1 h 38 c 0.554,0 1,-0.446 1,-1 V 16 Z" />
  <path
     id="path37-2"
     style="opacity:0.2;fill:url(#i-3)"
     d="M 20.70703,23.292969 C 20.88778,23.473719 21,23.723 21,24 c 0,0.554 -0.446,1 -1,1 -0.277,0 -0.52628,-0.112219 -0.70703,-0.292969 l 6,6 1.41406,-1.414062 z M 32,28 28.70703,31.292969 27.29297,32.707031 27,33 38,44 h 4 V 38 Z M 18.58008,29.458984 C 18.83972,29.728422 19,30.094535 19,30.5 19,31.331 18.331,32 17.5,32 17.09453,32 16.72842,31.839723 16.45898,31.580078 l 4.07032,4.070313 C 20.89438,35.252577 21.415,35 22,35 c 1.108,0 2,0.892 2,2 0,1.108 -0.892,2 -2,2 -0.544,0 -1.03467,-0.216371 -1.39453,-0.566406 L 26.17188,44 h 6.95117 z" />
  <path
     style="opacity:0.6;fill:#ffffff"
     d="m 20,23 c -0.554,0 -1,0.446 -1,1 0,0.554 0.446,1 1,1 0.554,0 1,-0.446 1,-1 0,-0.554 -0.446,-1 -1,-1 m 7,0 -2,2 3,3 -3,3 2,2 5,-5 z m -9.5,6 C 16.669,29 16,29.669 16,30.5 16,31.331 16.669,32 17.5,32 18.331,32 19,31.331 19,30.5 19,29.669 18.331,29 17.5,29 m 4.5,6 c -1.108,0 -2,0.892 -2,2 0,1.108 0.892,2 2,2 1.108,0 2,-0.892 2,-2 0,-1.108 -0.892,-2 -2,-2"
     id="path53-9-4" />
  <path
     id="path1339"
     d="m 20,23 c -0.554,0 -1,0.446 -1,1 0,0.554 0.446,1 1,1 0.554,0 1,-0.446 1,-1 0,-0.554 -0.446,-1 -1,-1 m 7,0 -2,2 3,3 -3,3 2,2 5,-5 z m -9.5,6 C 16.669,29 16,29.669 16,30.5 16,31.331 16.669,32 17.5,32 18.331,32 19,31.331 19,30.5 19,29.669 18.331,29 17.5,29 m 4.5,6 c -1.108,0 -2,0.892 -2,2 0,1.108 0.892,2 2,2 1.108,0 2,-0.892 2,-2 0,-1.108 -0.892,-2 -2,-2"
     style="opacity:1;fill:url(#h-8-3);fill-opacity:1" />
  <path
     id="rect1353-5"
     style="opacity:0.2;fill-opacity:1;fill:url(#linearGradient932)"
     d="M 23.923828,4 C 19.534458,4 16,7.568 16,12 v 4 h 2 v -4 c 0,-3.324 2.676,-6 6,-6 3.324,0 6,2.676 6,6 v 4 h 2 V 12 C 32,7.568 28.465542,4 24.076172,4 Z" />
</svg>
