<?xml version="1.0" encoding="UTF-8" standalone="no"?>
<svg
   xmlns:dc="http://purl.org/dc/elements/1.1/"
   xmlns:cc="http://creativecommons.org/ns#"
   xmlns:rdf="http://www.w3.org/1999/02/22-rdf-syntax-ns#"
   xmlns:svg="http://www.w3.org/2000/svg"
   xmlns="http://www.w3.org/2000/svg"
   xmlns:xlink="http://www.w3.org/1999/xlink"
   xmlns:sodipodi="http://sodipodi.sourceforge.net/DTD/sodipodi-0.dtd"
   xmlns:inkscape="http://www.inkscape.org/namespaces/inkscape"
   width="64"
   version="1.1"
   height="64"
   id="svg2"
   inkscape:version="1.0 (1.0+r73+1)"
   sodipodi:docname="system-file-manager.svg">
  <sodipodi:namedview
     pagecolor="#ffffff"
     bordercolor="#666666"
     borderopacity="1"
     objecttolerance="10"
     gridtolerance="10"
     guidetolerance="10"
     inkscape:pageopacity="0"
     inkscape:pageshadow="2"
     inkscape:window-width="1920"
     inkscape:window-height="1013"
     id="namedview17"
     showgrid="true"
     inkscape:snap-bbox="true"
     inkscape:bbox-nodes="true"
     inkscape:zoom="11.313708"
     inkscape:cx="36.657842"
     inkscape:cy="-2.3447836"
     inkscape:current-layer="layer1"
     showguides="false"
     inkscape:guide-bbox="true"
     inkscape:object-nodes="true"
     inkscape:document-rotation="0"
     inkscape:window-x="0"
     inkscape:window-y="0"
     inkscape:window-maximized="1">
    <inkscape:grid
       type="xygrid"
       id="grid4145" />
    <sodipodi:guide
       position="26,40"
       orientation="0.70710678,0.70710678"
       id="guide4381" />
    <sodipodi:guide
       position="3,35"
       orientation="0.70710678,0.70710678"
       id="guide4401" />
  </sodipodi:namedview>
  <defs
     id="defs5455">
    <linearGradient
       id="linearGradient1242"
       inkscape:collect="always">
      <stop
         id="stop1238"
         offset="0"
         style="stop-color:#ffffff;stop-opacity:1" />
      <stop
         id="stop1240"
         offset="1"
         style="stop-color:#ffffff;stop-opacity:0" />
    </linearGradient>
    <style
       id="current-color-scheme"
       type="text/css">
      .ColorScheme-Highlight {
        color:#3daee9;
      }
      </style>
    <linearGradient
       inkscape:collect="always"
       id="shadow">
      <stop
         style="stop-color:#000000;stop-opacity:1;"
         offset="0"
         id="stop4395" />
      <stop
         style="stop-color:#000000;stop-opacity:0;"
         offset="1"
         id="stop4397" />
    </linearGradient>
    <linearGradient
       id="paper"
       inkscape:collect="always">
      <stop
         id="stop4229"
         offset="0"
         style="stop-color:#f5f5f5;stop-opacity:1" />
      <stop
         id="stop4231"
         offset="1"
         style="stop-color:#f9f9f9;stop-opacity:1" />
    </linearGradient>
    <linearGradient
       inkscape:collect="always"
       xlink:href="#paper"
       id="linearGradient4225"
       gradientUnits="userSpaceOnUse"
       x1="396.57144"
       y1="498.798"
       x2="426.57144"
       y2="511.798"
       gradientTransform="translate(-384.57143,-482.798)" />
    <linearGradient
       gradientUnits="userSpaceOnUse"
       x2="383.77145"
       y2="502.05301"
       y1="542.0531"
       id="a-2"
       x1="383.77145">
      <stop
         id="stop4304"
         stop-color="#197cf1" />
      <stop
         id="stop4306"
         stop-color="#20bcfa"
         offset="1" />
    </linearGradient>
    <linearGradient
       gradientUnits="userSpaceOnUse"
       x2="39.28"
       y2="36.633"
       x1="22.285"
       y1="18.71"
       id="b-9">
      <stop
         id="stop4309"
         stop-color="#292c2f" />
      <stop
         id="stop4311"
         stop-opacity="0"
         stop-color="#292c2f"
         offset="1" />
    </linearGradient>
    <linearGradient
       inkscape:collect="always"
       xlink:href="#shadow"
       id="linearGradient4399"
       x1="443.57144"
       y1="510.798"
       x2="443.57144"
       y2="526.79797"
       gradientUnits="userSpaceOnUse"
       gradientTransform="translate(-407.57143,-478.798)" />
    <linearGradient
       gradientTransform="translate(-386.72845,506.21259)"
       gradientUnits="userSpaceOnUse"
       x2="419.97357"
       y2="539.82538"
       x1="406.50085"
       y1="527.01447"
       id="c-1">
      <stop
         id="stop17"
         stop-color="#292c2f" />
      <stop
         id="stop19"
         stop-opacity="0"
         offset="1" />
    </linearGradient>
    <linearGradient
       inkscape:collect="always"
       xlink:href="#folder"
       id="linearGradient4178-3"
       y1="548.88599"
       y2="495.30789"
       x2="397.2283"
       gradientUnits="userSpaceOnUse"
       gradientTransform="matrix(1,0,0,0.99967455,1.3e-6,0.17645)"
       x1="434.16153" />
    <linearGradient
       inkscape:collect="always"
       id="folder">
      <stop
         style="stop-color:#ffffff;stop-opacity:0"
         id="stop4174-6-7" />
      <stop
         offset="1"
         style="stop-color:#fafdff;stop-opacity:1"
         id="stop4176-6-5" />
    </linearGradient>
    <linearGradient
       gradientUnits="userSpaceOnUse"
       y2="499.798"
       x2="442.57143"
       y1="499.798"
       x1="390.57143"
       id="linearGradient1244"
       xlink:href="#linearGradient1242"
       inkscape:collect="always" />
  </defs>
  <metadata
     id="metadata5458">
    <rdf:RDF>
      <cc:Work
         rdf:about="">
        <dc:format>image/svg+xml</dc:format>
        <dc:type
           rdf:resource="http://purl.org/dc/dcmitype/StillImage" />
      </cc:Work>
    </rdf:RDF>
  </metadata>
  <g
     inkscape:label="Capa 1"
     inkscape:groupmode="layer"
     id="layer1"
     transform="matrix(1 0 0 1 -384.57143 -483.798)">
    <path
       inkscape:connector-curvature="0"
       style="opacity:0.3;fill:#ffffff;fill-opacity:1;fill-rule:evenodd"
       id="path4224"
       d="m 387.57144,511.79812 0,1 19.99999,0 3,-5 -4,4 z" />
    <path
       inkscape:connector-curvature="0"
       style="fill:#ffffff;fill-opacity:1;fill-rule:evenodd;opacity:0.3"
       id="path4196"
       d="m 28,6 3,5 2,0 27,0 0,-1 -27,0 -1,0 z"
       transform="matrix(1 0 0 1 384.57143 483.798)" />
    <path
       style="fill:url(#linearGradient4178)"
       d="m 410.57143,507.798 -3,5 h -20.002 v 1 h 0.002 c -5e-5,0.004 -0.002,0.008 -0.002,0.0117 l 0.002,25.9883 v 1 c 0,0.554 0.44599,1 1,1 h 56 c 0.55401,0 1,-0.446 1,-1 v -1 l -0.002,-25.9883 v -0.0117 l 0.002,-6 z"
       id="rect4113"
       sodipodi:nodetypes="cccccscssssccccc" />
    <path
       id="base"
       style="opacity:1;fill:currentColor;fill-opacity:1"
       d="M 5 6 C 4.446 6 4 6.44599 4 7 L 4 28 L 3 28 L 3 57 C 3 57.554 3.44599 58 4 58 L 60 58 C 60.554 58 61 57.55401 61 57 L 61 29.011719 L 61 29 L 61 24 L 60 24 L 60 11 C 60 10.446 59.55401 10 59 10 L 32 10 L 28 6 L 5 6 z "
       transform="translate(384.57143,483.798)"
       class="ColorScheme-Highlight" />
    <path
       id="back"
       style="opacity:0.3;fill:#000000;fill-opacity:1;fill-rule:evenodd"
       d="M 5 6 C 4.446 6 4 6.44599 4 7 L 4 28 L 22 28 L 26 24 L 60 24 L 60 11 C 60 10.446 59.55401 10 59 10 L 32 10 L 28 6 L 5 6 z "
       transform="translate(384.57143,483.798)" />
    <path
       sodipodi:nodetypes="cccsssscccc"
       style="fill:url(#linearGradient4178-3);opacity:0.24"
       d="m 410.57143,507.798 -4,4 h -19 v 28.99998 c 0,0.554 0.44599,1 1,1 h 56 c 0.55401,0 1,-0.446 1,-1 v -27.98828 -0.0117 -5 z"
       id="rect4113-3" />
    <path
       id="rect4223"
       style="color:#000000;clip-rule:nonzero;display:inline;overflow:visible;visibility:visible;opacity:1;isolation:auto;mix-blend-mode:normal;color-interpolation:sRGB;color-interpolation-filters:linearRGB;solid-color:#000000;solid-opacity:1;fill:url(#linearGradient4225);fill-opacity:1;fill-rule:nonzero;stroke:none;stroke-width:1;stroke-linecap:butt;stroke-linejoin:miter;stroke-miterlimit:4;stroke-dasharray:none;stroke-dashoffset:0;stroke-opacity:1;marker:none;color-rendering:auto;image-rendering:auto;shape-rendering:auto;text-rendering:auto;enable-background:accumulate"
       d="M 7 15 C 6.446 15 6 15.446 6 16 L 6 28 L 22 28 L 26 24 L 58 24 L 58 16 C 58 15.446 57.55401 15 57 15 L 7 15 z "
       transform="translate(384.57143,483.798)" />
    <path
       transform="translate(384.57143,483.798)"
       d="M 26 24 L 23 29 L 3 29 L 32 58 L 60 58 C 60.554 58 61 57.554 61 57 L 61 24 L 26 24 z "
       style="opacity:0.109;fill:url(#linearGradient4399);fill-opacity:1;fill-rule:evenodd;stroke:none;stroke-width:1px;stroke-linecap:butt;stroke-linejoin:miter;stroke-opacity:1"
       id="path4383" />
    <path
       style="color:#000000;clip-rule:nonzero;display:inline;overflow:visible;visibility:visible;opacity:0.3;isolation:auto;mix-blend-mode:normal;color-interpolation:sRGB;color-interpolation-filters:linearRGB;solid-color:#000000;solid-opacity:1;fill:#000000;fill-opacity:1;fill-rule:nonzero;stroke:none;stroke-width:1;stroke-linecap:butt;stroke-linejoin:miter;stroke-miterlimit:4;stroke-dasharray:none;stroke-dashoffset:0;stroke-opacity:1;marker:none;color-rendering:auto;image-rendering:auto;shape-rendering:auto;text-rendering:auto;enable-background:accumulate"
       d="m 388.57143,541.798 c -0.55401,0 -1,-0.446 -1,-1 l 0,-1 c 0,0.554 0.44599,1 1,1 l 56,0 c 0.55401,0 1,-0.446 1,-1 l 0,1 c 0,0.554 -0.44599,1 -1,1 z"
       id="path4233"
       inkscape:connector-curvature="0"
       sodipodi:nodetypes="sscsscsss" />
    <path
       transform="translate(384.57143,483.798)"
       d="M 28 6 L 31 11 L 59 11 A 1 1 0 0 1 60 12 L 60 11 C 60 10.8615 59.972345 10.729094 59.921875 10.609375 C 59.770474 10.250219 59.4155 10 59 10 L 32 10 L 28 6 z M 26 24 L 22 28 L 3 28 L 3 29 L 23 29 L 26 24 z "
       style="opacity:0.23;fill:#ffffff;fill-opacity:1;fill-rule:evenodd"
       id="highlight" />
    <path
       inkscape:connector-curvature="0"
       id="path4215"
       d="m 391.57143,498.798 c -0.55401,0 -1,0.446 -1,1 l 0,1 c 0,-0.554 0.44599,-1 1,-1 l 50,0 c 0.55401,0 1,0.446 1,1 l 0,-1 c 0,-0.554 -0.44599,-1 -1,-1 l -50,0 z"
       style="color:#000000;clip-rule:nonzero;display:inline;overflow:visible;visibility:visible;opacity:0.85;isolation:auto;mix-blend-mode:normal;color-interpolation:sRGB;color-interpolation-filters:linearRGB;solid-color:#000000;solid-opacity:1;fill:url(#linearGradient1244);fill-opacity:1;fill-rule:nonzero;stroke:none;stroke-width:1;stroke-linecap:butt;stroke-linejoin:miter;stroke-miterlimit:4;stroke-dasharray:none;stroke-dashoffset:0;stroke-opacity:1;marker:none;color-rendering:auto;image-rendering:auto;shape-rendering:auto;text-rendering:auto;enable-background:accumulate" />
  </g>
</svg>
