<?xml version="1.0" encoding="UTF-8" standalone="no"?>
<svg
   xmlns:dc="http://purl.org/dc/elements/1.1/"
   xmlns:cc="http://creativecommons.org/ns#"
   xmlns:rdf="http://www.w3.org/1999/02/22-rdf-syntax-ns#"
   xmlns:svg="http://www.w3.org/2000/svg"
   xmlns="http://www.w3.org/2000/svg"
   xmlns:xlink="http://www.w3.org/1999/xlink"
   xmlns:sodipodi="http://sodipodi.sourceforge.net/DTD/sodipodi-0.dtd"
   xmlns:inkscape="http://www.inkscape.org/namespaces/inkscape"
   inkscape:version="1.0 (1.0+r73+1)"
   sodipodi:docname="usb-creator-kde.svg"
   id="svg54"
   version="1.1"
   height="48"
   width="48">
  <metadata
     id="metadata58">
    <rdf:RDF>
      <cc:Work
         rdf:about="">
        <dc:format>image/svg+xml</dc:format>
        <dc:type
           rdf:resource="http://purl.org/dc/dcmitype/StillImage" />
      </cc:Work>
    </rdf:RDF>
  </metadata>
  <sodipodi:namedview
     inkscape:current-layer="svg54"
     inkscape:window-maximized="1"
     inkscape:window-y="0"
     inkscape:window-x="0"
     inkscape:cy="24.988861"
     inkscape:cx="21.501636"
     inkscape:zoom="18.041667"
     showgrid="true"
     id="namedview56"
     inkscape:window-height="1013"
     inkscape:window-width="1920"
     inkscape:pageshadow="2"
     inkscape:pageopacity="0"
     guidetolerance="10"
     gridtolerance="10"
     objecttolerance="10"
     borderopacity="1"
     bordercolor="#666666"
     pagecolor="#ffffff"
     inkscape:document-rotation="0">
    <inkscape:grid
       id="grid883"
       type="xygrid" />
  </sodipodi:namedview>
  <defs
     id="defs22">
    <linearGradient
       inkscape:collect="always"
       id="linearGradient924">
      <stop
         style="stop-color:#ffffff;stop-opacity:1;"
         offset="0"
         id="stop920" />
      <stop
         style="stop-color:#ffffff;stop-opacity:0;"
         offset="1"
         id="stop922" />
    </linearGradient>
    <style
       id="current-color-scheme"
       type="text/css">
      .ColorScheme-Highlight {
        color:#3daee9;
      }
      </style>
    <linearGradient
       gradientUnits="userSpaceOnUse"
       x2="0"
       y2="503.8"
       y1="525.8"
       id="b">
      <stop
         id="stop7"
         stop-color="#c6cdd1" />
      <stop
         id="stop9"
         stop-color="#e0e5e7"
         offset="1" />
    </linearGradient>
    <linearGradient
       gradientUnits="userSpaceOnUse"
       x2="27"
       y2="36"
       x1="5"
       y1="14"
       id="c">
      <stop
         id="stop12"
         stop-color="#383e51" />
      <stop
         id="stop14"
         stop-opacity="0"
         stop-color="#655c6f"
         offset="1" />
    </linearGradient>
    <linearGradient
       inkscape:collect="always"
       xlink:href="#linearGradient924"
       id="linearGradient926"
       x1="419.57001"
       y1="525.79999"
       x2="419.57001"
       y2="543.79999"
       gradientUnits="userSpaceOnUse" />
  </defs>
  <g
     id="g52"
     transform="translate(-384.57-499.8)">
    <g
       id="g30"
       stroke-width="2.8"
       stroke-opacity=".55">
      <rect
         id="rect24"
         height="18"
         fill="url(#a)"
         y="525.8"
         x="392.57"
         width="31" />
      <rect
         id="rect26"
         height="1"
         fill="#202224"
         y="542.8"
         x="392.57"
         width="32" />
      <rect
         id="rect28"
         height="22"
         fill="url(#b)"
         y="503.8"
         x="395.57"
         width="26" />
    </g>
    <path
       id="path32"
       transform="translate(384.57,499.8)"
       d="m 22,11 -7,7 8,8 14,0.002 v -11 l -4,-4 h -7 v 4 z"
       fill-rule="evenodd"
       fill="url(#c)"
       opacity="0.2"
       sodipodi:nodetypes="ccccccccc" />
    <g
       id="g48"
       stroke-width="2.8"
       stroke-opacity=".55">
      <g
         id="g38"
         fill="#202224">
        <rect
           id="rect34"
           height="7"
           y="510.8"
           x="399.57"
           width="7" />
        <rect
           id="rect36"
           height="7"
           y="510.8"
           x="410.57"
           width="7" />
      </g>
      <g
         id="g44"
         fill="#fdbc4a">
        <rect
           id="rect40"
           height="7"
           y="510.8"
           x="401.57"
           width="3" />
        <rect
           id="rect42"
           height="7"
           y="510.8"
           x="412.57"
           width="3" />
      </g>
      <rect
         class="ColorScheme-Highlight"
         id="rect46"
         height="18"
         fill="currentColor"
         y="525.8"
         x="392.57"
         width="32" />
      <rect
         width="32"
         x="392.57"
         y="525.8"
         height="18"
         id="rect918"
         style="fill:url(#linearGradient926);fill-opacity:1;opacity:0.24" />
    </g>
    <path
       id="path50"
       transform="translate(384.57 499.8)"
       d="M22.5 32A.5 .5 0 0 0 22 32.5 .5 .5 0 0 0 22.5 33 .5 .5 0 0 0 23 32.5 .5 .5 0 0 0 22.5 32M25 32L24 33 25 34 24 35 25 36 27 34zM21.5 34.09961A.5 .5 0 0 0 21 34.599609 .5 .5 0 0 0 21.5 35.09961 .5 .5 0 0 0 22 34.599609 .5 .5 0 0 0 21.5 34.09961M23 36A.999987 .999987 0 0 0 22 37 .999987 .999987 0 0 0 23 38 .999987 .999987 0 0 0 24 37 .999987 .999987 0 0 0 23 36"
       fill-rule="evenodd"
       style="fill:#000000;fill-opacity:1;opacity:0.3" />
  </g>
</svg>
