<?xml version="1.0" encoding="UTF-8" standalone="no"?>
<svg
   xmlns:dc="http://purl.org/dc/elements/1.1/"
   xmlns:cc="http://creativecommons.org/ns#"
   xmlns:rdf="http://www.w3.org/1999/02/22-rdf-syntax-ns#"
   xmlns:svg="http://www.w3.org/2000/svg"
   xmlns="http://www.w3.org/2000/svg"
   xmlns:xlink="http://www.w3.org/1999/xlink"
   xmlns:sodipodi="http://sodipodi.sourceforge.net/DTD/sodipodi-0.dtd"
   xmlns:inkscape="http://www.inkscape.org/namespaces/inkscape"
   sodipodi:docname="utilities-system-monitor.svg"
   inkscape:version="1.0 (1.0+r73+1)"
   version="1.1"
   id="svg2"
   height="48"
   width="48">
  <metadata
     id="metadata65">
    <rdf:RDF>
      <cc:Work
         rdf:about="">
        <dc:format>image/svg+xml</dc:format>
        <dc:type
           rdf:resource="http://purl.org/dc/dcmitype/StillImage" />
      </cc:Work>
    </rdf:RDF>
  </metadata>
  <sodipodi:namedview
     inkscape:bbox-paths="true"
     inkscape:bbox-nodes="true"
     inkscape:snap-bbox="true"
     inkscape:object-paths="true"
     inkscape:snap-intersection-paths="true"
     inkscape:snap-smooth-nodes="true"
     inkscape:document-rotation="0"
     inkscape:current-layer="svg2"
     inkscape:window-maximized="1"
     inkscape:window-y="0"
     inkscape:window-x="0"
     inkscape:cy="16.85939"
     inkscape:cx="25.13441"
     inkscape:zoom="13.906433"
     inkscape:snap-global="true"
     inkscape:object-nodes="true"
     showgrid="true"
     id="namedview63"
     inkscape:window-height="1013"
     inkscape:window-width="1920"
     inkscape:pageshadow="2"
     inkscape:pageopacity="0"
     guidetolerance="10"
     gridtolerance="10"
     objecttolerance="10"
     borderopacity="1"
     bordercolor="#666666"
     pagecolor="#ffffff">
    <inkscape:grid
       id="grid3393"
       type="xygrid" />
  </sodipodi:namedview>
  <defs
     id="defs4">
    <linearGradient
       gradientTransform="translate(-384.57,-499.8)"
       gradientUnits="userSpaceOnUse"
       x2="0"
       y2="503.8"
       y1="543.8"
       id="a">
      <stop
         id="stop7"
         stop-color="#2a2c2f" />
      <stop
         id="stop9"
         stop-color="#424649"
         offset="1" />
    </linearGradient>
    <linearGradient
       x1="0"
       gradientUnits="userSpaceOnUse"
       x2="0"
       y2="12"
       y1="44"
       id="b">
      <stop
         id="stop12"
         stop-color="#77b76b" />
      <stop
         id="stop14"
         stop-color="#58b4b4"
         offset="1" />
    </linearGradient>
    <linearGradient
       gradientUnits="userSpaceOnUse"
       x2="0"
       y2="15"
       y1="21"
       id="c">
      <stop
         id="stop17"
         stop-color="#b8ddd2" />
      <stop
         id="stop19"
         stop-color="#c4e4dd"
         offset="1" />
    </linearGradient>
    <linearGradient
       gradientTransform="translate(22,10)"
       gradientUnits="userSpaceOnUse"
       x2="0"
       y2="15"
       y1="21"
       id="d"
       xlink:href="#c" />
    <linearGradient
       gradientUnits="userSpaceOnUse"
       x2="13"
       y2="21.928"
       x1="9"
       y1="15"
       id="e">
      <stop
         id="stop23"
         stop-color="#ffffff" />
      <stop
         id="stop25"
         stop-opacity="0"
         stop-color="#ffffff"
         offset="1" />
    </linearGradient>
    <linearGradient
       gradientUnits="userSpaceOnUse"
       x2="36"
       y2="41"
       x1="10"
       y1="15"
       id="h">
      <stop
         id="stop30"
         stop-color="#292c2f" />
      <stop
         id="stop32"
         stop-opacity="0"
         offset="1" />
    </linearGradient>
    <linearGradient
       gradientTransform="translate(22,10)"
       x2="22"
       gradientUnits="userSpaceOnUse"
       y2="27"
       x1="6"
       y1="11"
       id="i"
       xlink:href="#h" />
    <path
       d="m12.637 17.938c-.205.01-.418.031-.637.063-5.639.806-4.793 8.099-10 11.428v1c5.207-3.329 4.361-10.622 10-11.428 7-1 7 9 12 12 6.586 3.088 9-8 17 2 2 2 3.367.637 5 .488v-1c-1.633.149-3 1.512-5-.488-8-10-10.414 1.088-17-2-4.844-2.906-4.995-12.382-11.363-12.06"
       id="k"
       fill-rule="evenodd" />
    <linearGradient
       y2="21.928"
       x2="13"
       y1="15"
       x1="9"
       gradientUnits="userSpaceOnUse"
       id="linearGradient3395"
       xlink:href="#e"
       inkscape:collect="always" />
    <linearGradient
       y2="41"
       x2="36"
       y1="15"
       x1="10"
       gradientUnits="userSpaceOnUse"
       id="linearGradient3397"
       xlink:href="#h"
       inkscape:collect="always" />
    <linearGradient
       y2="15"
       x2="0"
       y1="21"
       gradientUnits="userSpaceOnUse"
       id="linearGradient3399"
       xlink:href="#c"
       inkscape:collect="always" />
    <linearGradient
       gradientTransform="translate(60)"
       gradientUnits="userSpaceOnUse"
       y2="18.025423"
       x2="-42"
       y1="44"
       x1="-42"
       id="linearGradient4245"
       xlink:href="#b"
       inkscape:collect="always" />
  </defs>
  <rect
     ry="1"
     rx="1"
     width="40"
     x="4"
     y="4"
     height="40"
     id="rect39"
     style="fill:url(#a)" />
  <path
     inkscape:connector-curvature="0"
     id="path43"
     d="m 13.675781,17.935547 c -0.225992,0.0096 -0.459218,0.0296 -0.699218,0.05859 C 7.633231,18.636376 7.587194,23.739439 4,27.101562 l 0,14.900391 40,0 0,-11.896484 c -8.141491,-7.78521 -10.848309,1.734791 -17.849609,-1.03125 -5.145,-2.597 -5.46736,-10.874672 -11.81836,-11.138672 -0.2115,-0.009 -0.430258,-0.0096 -0.65625,0 z"
     style="opacity:0.11000001;fill:#1a1a1a;fill-rule:evenodd" />
  <path
     d="M 13 18 C 7.542411 18.006 7.691394 22.847039 4 28 L 4 43 C 4 43.554 4.446 44 5 44 L 43 44 C 43.554 44 44 43.554 44 43 L 44 33 C 44 33 38.528416 27.658203 34.964844 27.658203 C 31.957178 27.658203 29.649218 30.600371 26.275391 30.585938 C 20.156615 30.559759 19.188763 17.993145 13 18 z "
     style="fill:url(#linearGradient4245);fill-opacity:1;fill-rule:evenodd;stroke:none;stroke-width:1;stroke-linecap:butt;stroke-linejoin:miter;stroke-miterlimit:4;stroke-dasharray:none;stroke-opacity:0"
     id="path4237" />
  <use
     height="100%"
     width="100%"
     y="0"
     x="0"
     style="fill:url(#linearGradient3395)"
     id="use47"
     xlink:href="#k" />
  <path
     id="path51"
     d="M 34 25 L 34 26 L 33 26 L 33 27 L 32 27 L 44 39 L 44 35 L 38 29 L 34 25 z M 38 25 L 38 27 L 37 27 L 44 34 L 44 31 L 38 25 z M 32 29 L 32 31 L 44 43 L 44 40 L 33 29 L 32 29 z "
     style="opacity:0.2;fill:url(#i);fill-rule:evenodd" />
  <path
     d="m 32,25 0,2 1,0 0,-1 1,0 0,-1 z m 4,0 0,1 1,0 0,1 1,0 0,-2 z m -4,4 0,2 2,0 0,-1 -1,0 0,-1 z m 5,0 0,1 -1,0 0,1 2,0 0,-2 z"
     id="path53"
     style="fill:url(#d)"
     inkscape:connector-curvature="0" />
  <path
     d="M 12 15 L 12 16 L 11 16 L 11 17 L 10 17 L 37 44 L 41 44 L 16 19 L 12 15 z M 16 15 L 16 17 L 15 17 L 42 44 L 43 44 C 43.554 44 44 43.554 44 43 L 16 15 z M 10 19 L 10 21 L 33 44 L 36 44 L 11 19 L 10 19 z "
     style="opacity:0.2;fill:url(#linearGradient3397);fill-rule:evenodd"
     id="path57" />
  <path
     d="m 10,15 0,2 1,0 0,-1 1,0 0,-1 z m 4,0 0,1 1,0 0,1 1,0 0,-2 z m -4,4 0,2 2,0 0,-1 -1,0 0,-1 z m 5,0 0,1 -1,0 0,1 2,0 0,-2 z"
     id="path59"
     style="fill:url(#linearGradient3399)"
     inkscape:connector-curvature="0" />
  <path
     d="M 4 42 L 4 43 C 4 43.554 4.446 44 5 44 L 43 44 C 43.554 44 44 43.554 44 43 L 44 42 C 44.000001 42.553999 43.554 43.000001 43 43 L 5 43 C 4.446 43 4 42.554 4 42 z "
     style="fill:#498d48"
     id="rect61" />
</svg>
