<?xml version="1.0" encoding="UTF-8" standalone="no"?>
<svg
   xmlns:dc="http://purl.org/dc/elements/1.1/"
   xmlns:cc="http://creativecommons.org/ns#"
   xmlns:rdf="http://www.w3.org/1999/02/22-rdf-syntax-ns#"
   xmlns:svg="http://www.w3.org/2000/svg"
   xmlns="http://www.w3.org/2000/svg"
   xmlns:sodipodi="http://sodipodi.sourceforge.net/DTD/sodipodi-0.dtd"
   xmlns:inkscape="http://www.inkscape.org/namespaces/inkscape"
   id="svg4306"
   width="22"
   height="22"
   version="1.1"
   style="enable-background:new"
   sodipodi:docname="alldesktops.svg"
   inkscape:version="1.0 (1.0+r73+1)">
  <metadata
     id="metadata28">
    <rdf:RDF>
      <cc:Work
         rdf:about="">
        <dc:format>image/svg+xml</dc:format>
        <dc:type
           rdf:resource="http://purl.org/dc/dcmitype/StillImage" />
        <dc:title />
      </cc:Work>
    </rdf:RDF>
  </metadata>
  <defs
     id="defs26" />
  <sodipodi:namedview
     inkscape:snap-intersection-paths="true"
     inkscape:document-rotation="0"
     pagecolor="#ffffff"
     bordercolor="#666666"
     borderopacity="1"
     objecttolerance="10"
     gridtolerance="10"
     guidetolerance="10"
     inkscape:pageopacity="0"
     inkscape:pageshadow="2"
     inkscape:window-width="1920"
     inkscape:window-height="1013"
     id="namedview24"
     showgrid="true"
     inkscape:zoom="8.0000004"
     inkscape:cx="43.954223"
     inkscape:cy="16.599272"
     inkscape:window-x="0"
     inkscape:window-y="0"
     inkscape:window-maximized="1"
     inkscape:current-layer="svg4306"
     inkscape:snap-bbox="true"
     inkscape:bbox-nodes="true">
    <inkscape:grid
       type="xygrid"
       id="grid853" />
  </sodipodi:namedview>
  <style
     type="text/css"
     id="current-color-scheme">
        .ColorScheme-Text {
            color:#232629;
        }
        .ColorScheme-ButtonFocus{
            color:#3daee9;
        }
            .ColorScheme-NegativeText {
            color:#da4453;
        }
    </style>
  <g
     id="active-center">
    <rect
       style="opacity:0.00100002;fill:#000000;fill-opacity:1;fill-rule:nonzero;stroke:none;stroke-width:2;stroke-linecap:round;stroke-linejoin:round;stroke-miterlimit:4;stroke-dasharray:none;stroke-opacity:1"
       y="-22"
       x="-22"
       height="22"
       width="22"
       id="rect4266"
       transform="scale(-1)" />
    <circle
       style="opacity:0.003;fill:#ffffff;fill-opacity:1;stroke-width:1.001;enable-background:new"
       id="path867-5-6-5"
       cx="-11"
       cy="-11"
       r="9"
       transform="scale(-1)" />
    <path
       sodipodi:nodetypes="ccccccccccccc"
       id="path3"
       d="M 14,5 8.854,10.146 7.7151012,9 7.0071012,9.708 9.293,12 6,15.292672 6.708,16.000672 10,12.707 12.292,15.002383 13,14.294383 11.854,13.146 17,8 Z"
       style="fill:#232627;fill-opacity:1"
       class="ColorScheme-Text" />
  </g>
  <g
     id="pressed-center">
    <rect
       transform="scale(-1)"
       id="rect4266-6"
       width="22"
       height="22"
       x="-66"
       y="-22"
       style="opacity:0.00100002;fill:#000000;fill-opacity:1;fill-rule:nonzero;stroke:none;stroke-width:2;stroke-linecap:round;stroke-linejoin:round;stroke-miterlimit:4;stroke-dasharray:none;stroke-opacity:1" />
    <path
       id="path1165"
       style="opacity:1;fill:#232627;fill-opacity:1"
       d="M 54.990234 2 C 50.023486 2.0053895 45.999997 6.0332486 46 11 C 46 15.970563 50.029437 20 55 20 C 59.970563 20 64 15.970563 64 11 C 64 6.0294373 59.970563 2 55 2 L 54.990234 2 z M 55 10 A 1 1 0 0 1 56 11 A 1 1 0 0 1 55 12 A 1 1 0 0 1 54 11 A 1 1 0 0 1 55 10 z "
       class="ColorScheme-Text" />
  </g>
  <g
     transform="translate(0,22)"
     style="enable-background:new"
     id="inactive-center">
    <rect
       transform="scale(-1)"
       id="rect4266-8"
       width="22"
       height="22"
       x="-22"
       y="-22"
       style="opacity:0.00100002;fill:#000000;fill-opacity:1;fill-rule:nonzero;stroke:none;stroke-width:2;stroke-linecap:round;stroke-linejoin:round;stroke-miterlimit:4;stroke-dasharray:none;stroke-opacity:1" />
    <circle
       transform="scale(-1)"
       r="9"
       cy="-11"
       cx="-11"
       id="path867-5-6-5-7"
       style="opacity:0.003;fill:#ffffff;fill-opacity:1;stroke-width:1.001;enable-background:new" />
    <path
       d="M 14,5 8.854,10.146 7.7151012,9 7.0071012,9.708 9.293,12 6,15.292672 6.708,16.000672 10,12.707 12.292,15.002383 13,14.294383 11.854,13.146 17,8 Z"
       id="path3-9"
       sodipodi:nodetypes="ccccccccccccc"
       style="opacity:1;fill:#898e92;fill-opacity:1"
       class="ColorScheme-Text" />
  </g>
  <g
     transform="translate(66)"
     style="enable-background:new"
     id="deactivated-center">
    <rect
       transform="scale(-1)"
       id="rect4266-0"
       width="22"
       height="22"
       x="-22"
       y="-22"
       style="opacity:0.00100002;fill:#000000;fill-opacity:1;fill-rule:nonzero;stroke:none;stroke-width:2;stroke-linecap:round;stroke-linejoin:round;stroke-miterlimit:4;stroke-dasharray:none;stroke-opacity:1" />
    <circle
       transform="scale(-1)"
       r="9"
       cy="-11"
       cx="-11"
       id="path867-5-6-5-2"
       style="opacity:0.003;fill:#ffffff;fill-opacity:1;stroke-width:1.001;enable-background:new" />
    <path
       d="M 14,5 8.854,10.146 7.7151012,9 7.0071012,9.708 9.293,12 6,15.292672 6.708,16.000672 10,12.707 12.292,15.002383 13,14.294383 11.854,13.146 17,8 Z"
       id="path3-3"
       sodipodi:nodetypes="ccccccccccccc"
       style="opacity:0.3;fill:#232627;fill-opacity:1"
       class="ColorScheme-Text" />
  </g>
  <g
     id="hover-center"
     style="enable-background:new"
     transform="translate(-22)">
    <rect
       style="opacity:0.00100002;fill:#000000;fill-opacity:1;fill-rule:nonzero;stroke:none;stroke-width:2;stroke-linecap:round;stroke-linejoin:round;stroke-miterlimit:4;stroke-dasharray:none;stroke-opacity:1"
       y="-22"
       x="-66"
       height="22"
       width="22"
       id="rect4266-6-6"
       transform="scale(-1)" />
    <path
       d="M 54.990234,2 A 9,9 0 0 0 46,11 9,9 0 0 0 55,20 9,9 0 0 0 64,11 9,9 0 0 0 55,2 9,9 0 0 0 54.9902,2 Z M 58,5 61,8 55.853516,13.146484 57,14.294922 56.292969,15.001953 54,12.707031 50.707031,16 50,15.292969 53.292969,12 51.007812,9.7070312 51.714844,9 l 1.138672,1.146484 z"
       style="opacity:1;fill:#232627;fill-opacity:1"
       id="path1165-7"
       class="ColorScheme-Text" />
  </g>
  <g
     transform="translate(-22,22)"
     style="enable-background:new"
     id="hover-inactive-center">
    <rect
       transform="scale(-1)"
       id="rect4266-6-6-6"
       width="22"
       height="22"
       x="-66"
       y="-22"
       style="opacity:0.00100002;fill:#000000;fill-opacity:1;fill-rule:nonzero;stroke:none;stroke-width:2;stroke-linecap:round;stroke-linejoin:round;stroke-miterlimit:4;stroke-dasharray:none;stroke-opacity:1" />
    <path
       class="ColorScheme-Text"
       id="path1165-7-7"
       style="opacity:1;fill:#898e92;fill-opacity:1"
       d="M 54.990234,2 A 9,9 0 0 0 46,11 9,9 0 0 0 55,20 9,9 0 0 0 64,11 9,9 0 0 0 55,2 9,9 0 0 0 54.9902,2 Z M 58,5 61,8 55.853516,13.146484 57,14.294922 56.292969,15.001953 54,12.707031 50.707031,16 50,15.292969 53.292969,12 51.007812,9.7070312 51.714844,9 l 1.138672,1.146484 z" />
  </g>
  <g
     id="pressed-inactive-center"
     style="enable-background:new"
     transform="translate(0,22)">
    <rect
       style="opacity:0.00100002;fill:#000000;fill-opacity:1;fill-rule:nonzero;stroke:none;stroke-width:2;stroke-linecap:round;stroke-linejoin:round;stroke-miterlimit:4;stroke-dasharray:none;stroke-opacity:1"
       y="-22"
       x="-66"
       height="22"
       width="22"
       id="rect4266-6-3"
       transform="scale(-1)" />
    <path
       class="ColorScheme-Text"
       d="M 54.990234,2 C 50.023486,2.0053895 45.999997,6.0332486 46,11 c 0,4.970563 4.029437,9 9,9 4.970563,0 9,-4.029437 9,-9 C 64,6.0294373 59.970563,2 55,2 Z M 55,10 a 1,1 0 0 1 1,1 1,1 0 0 1 -1,1 1,1 0 0 1 -1,-1 1,1 0 0 1 1,-1 z"
       style="opacity:1;fill:#898e92;fill-opacity:1"
       id="path1165-5" />
  </g>
  <g
     id="deactivated-inactive-center"
     style="enable-background:new"
     transform="translate(66,22)">
    <rect
       style="opacity:0.00100002;fill:#000000;fill-opacity:1;fill-rule:nonzero;stroke:none;stroke-width:2;stroke-linecap:round;stroke-linejoin:round;stroke-miterlimit:4;stroke-dasharray:none;stroke-opacity:1"
       y="-22"
       x="-22"
       height="22"
       width="22"
       id="rect4266-0-2"
       transform="scale(-1)" />
    <circle
       style="opacity:0.003;fill:#ffffff;fill-opacity:1;stroke-width:1.001;enable-background:new"
       id="path867-5-6-5-2-9"
       cx="-11"
       cy="-11"
       r="9"
       transform="scale(-1)" />
    <path
       class="ColorScheme-Text"
       style="opacity:0.3;fill:#898e92;fill-opacity:1"
       sodipodi:nodetypes="ccccccccccccc"
       id="path3-3-1"
       d="M 14,5 8.854,10.146 7.7151012,9 7.0071012,9.708 9.293,12 6,15.292672 6.708,16.000672 10,12.707 12.292,15.002383 13,14.294383 11.854,13.146 17,8 Z" />
  </g>
</svg>
