<?xml version="1.0" encoding="UTF-8" standalone="no"?>
<svg
   xmlns:dc="http://purl.org/dc/elements/1.1/"
   xmlns:cc="http://creativecommons.org/ns#"
   xmlns:rdf="http://www.w3.org/1999/02/22-rdf-syntax-ns#"
   xmlns:svg="http://www.w3.org/2000/svg"
   xmlns="http://www.w3.org/2000/svg"
   xmlns:xlink="http://www.w3.org/1999/xlink"
   xmlns:sodipodi="http://sodipodi.sourceforge.net/DTD/sodipodi-0.dtd"
   xmlns:inkscape="http://www.inkscape.org/namespaces/inkscape"
   height="32"
   width="32"
   version="1.1"
   id="svg54"
   sodipodi:docname="hwinfo.svg"
   inkscape:version="1.0 (1.0+r73+1)">
  <metadata
     id="metadata60">
    <rdf:RDF>
      <cc:Work
         rdf:about="">
        <dc:format>image/svg+xml</dc:format>
        <dc:type
           rdf:resource="http://purl.org/dc/dcmitype/StillImage" />
      </cc:Work>
    </rdf:RDF>
  </metadata>
  <defs
     id="defs58">
    <linearGradient
       id="linearGradient952"
       inkscape:collect="always">
      <stop
         id="stop948"
         offset="0"
         style="stop-color:#ffffff;stop-opacity:0.6" />
      <stop
         id="stop950"
         offset="1"
         style="stop-color:#ffffff;stop-opacity:0;" />
    </linearGradient>
    <style
       type="text/css"
       id="current-color-scheme">
      .ColorScheme-Highlight {
        color:#3daee9;
      }
      </style>
    <linearGradient
       inkscape:collect="always"
       xlink:href="#linearGradient1118"
       id="linearGradient1120"
       x1="38"
       y1="1012.36"
       x2="38"
       y2="1043.36"
       gradientUnits="userSpaceOnUse"
       gradientTransform="matrix(0.625,0,0,0.64516129,1,-647.13548)" />
    <linearGradient
       inkscape:collect="always"
       id="linearGradient1118">
      <stop
         style="stop-color:#ffffff;stop-opacity:1;"
         offset="0"
         id="stop1114" />
      <stop
         style="stop-color:#ffffff;stop-opacity:0;"
         offset="1"
         id="stop1116" />
    </linearGradient>
    <linearGradient
       gradientUnits="userSpaceOnUse"
       y2="24"
       x2="24"
       y1="8"
       x1="24"
       id="linearGradient954"
       xlink:href="#linearGradient952"
       inkscape:collect="always" />
  </defs>
  <sodipodi:namedview
     inkscape:document-rotation="0"
     pagecolor="#ffffff"
     bordercolor="#666666"
     borderopacity="1"
     objecttolerance="10"
     gridtolerance="10"
     guidetolerance="10"
     inkscape:pageopacity="0"
     inkscape:pageshadow="2"
     inkscape:window-width="1920"
     inkscape:window-height="1013"
     id="namedview56"
     showgrid="true"
     inkscape:zoom="27.0625"
     inkscape:cx="16.195929"
     inkscape:cy="12.271079"
     inkscape:window-x="0"
     inkscape:window-y="0"
     inkscape:window-maximized="1"
     inkscape:current-layer="svg54">
    <inkscape:grid
       type="xygrid"
       id="grid885" />
  </sodipodi:namedview>
  <linearGradient
     id="e"
     gradientUnits="userSpaceOnUse"
     x1="392.571"
     x2="406.571"
     xlink:href="#a"
     y1="539.798"
     y2="553.798" />
  <linearGradient
     gradientTransform="translate(-376.571,-523.798)"
     id="h"
     gradientUnits="userSpaceOnUse"
     x1="387.57101"
     x2="397.571"
     xlink:href="#b"
     y1="533.79797"
     y2="543.798" />
  <linearGradient
     id="d"
     gradientUnits="userSpaceOnUse"
     x1="378.571"
     x2="378.571"
     y1="553.798"
     y2="525.798">
    <stop
       offset="0"
       stop-color="#63984b"
       id="stop4" />
    <stop
       offset="1"
       stop-color="#8fc278"
       id="stop6" />
  </linearGradient>
  <linearGradient
     id="f"
     gradientUnits="userSpaceOnUse"
     x1="402.571"
     x2="402.571"
     y1="549.798"
     y2="529.798">
    <stop
       offset="0"
       stop-color="#197cf1"
       id="stop9" />
    <stop
       offset="1"
       stop-color="#20bcfa"
       id="stop11" />
  </linearGradient>
  <linearGradient
     id="a"
     gradientUnits="userSpaceOnUse"
     x1="402.571"
     x2="406.571"
     xlink:href="#b"
     y1="529.798"
     y2="533.798">
    <stop
       offset="0"
       id="stop14" />
    <stop
       offset="1"
       stop-opacity="0"
       id="stop16" />
  </linearGradient>
  <linearGradient
     id="c"
     gradientUnits="userSpaceOnUse"
     x1="-50"
     x2="-22.15">
    <stop
       offset="0"
       stop-color="#7cbaf8"
       id="stop19" />
    <stop
       offset="1"
       stop-color="#f4fcff"
       id="stop21" />
  </linearGradient>
  <linearGradient
     id="g"
     gradientUnits="userSpaceOnUse"
     x1="18"
     x2="18"
     xlink:href="#c"
     y1="24"
     y2="8" />
  <linearGradient
     id="i"
     gradientUnits="userSpaceOnUse"
     x1="399.571"
     x2="399.571"
     xlink:href="#c"
     y1="547.798"
     y2="531.798" />
  <linearGradient
     id="j"
     gradientUnits="userSpaceOnUse"
     x1="398.571"
     x2="398.571"
     xlink:href="#c"
     y1="547.798"
     y2="531.798" />
  <linearGradient
     id="b"
     gradientUnits="userSpaceOnUse"
     x1="802.643"
     x2="816.643"
     y1="36.236"
     y2="50.236">
    <stop
       offset="0"
       stop-color="#292c2f"
       id="stop27" />
    <stop
       offset="1"
       stop-opacity="0"
       id="stop29" />
  </linearGradient>
  <path
     d="M378.571 530.798v-5h28v28h-28v-20l2-1z"
     fill="url(#d)"
     transform="translate(-376.571 -523.798)"
     id="path32" />
  <path
     d="M29 27l-2 2h2z"
     fill="#e6ea97"
     fill-rule="evenodd"
     id="path34" />
  <path
     d="M382.571 549.798l4 4h20v-20l-4-4z"
     fill="url(#e)"
     opacity=".2"
     transform="translate(-376.571 -523.798)"
     id="path36" />
  <path
     id="path887"
     transform="translate(-376.571 -523.798)"
     fill="currentColor"
     d="M382.571 529.798h20v20h-20z"
     class="ColorScheme-Highlight" />
  <rect
     width="20"
     x="6"
     y="6"
     height="20"
     id="rect1112"
     style="opacity:0.24;fill:url(#linearGradient1120);fill-opacity:1;stroke-width:0.635001" />
  <path
     d="M6 27h1v1H6zm1 1h1v1H7zm1-1h1v1H8zm1 1h1v1H9zm1-1h1v1h-1zm1 1h1v1h-1zm1-1h1v1h-1zm13 0h1v1h-1zm-1 1h1v1h-1zm-1-1h1v1h-1zm-1 1h1v1h-1zm-5 0h1v1h-1zm-1-1h1v1h-1zm-1 1h1v1h-1zm-1-1h1v1h-1zm-1 1h1v1h-1zM28 7h1v1h-1zm-1 1h1v1h-1zm1 1h1v1h-1zm-1 1h1v1h-1zm1 1h1v1h-1zm-1 1h1v1h-1zm1 1h1v1h-1zm-1 3h1v1h-1zm1-1h1v1h-1zm-1-1h1v1h-1z"
     id="path40" />
  <path
     d="M6 25h20v1H6z"
     fill-rule="evenodd"
     id="path42"
     style="fill:#000000;fill-opacity:1;opacity:0.2" />
  <path
     d="M 16 8 A 8 8 0 0 0 8 16 A 8 8 0 0 0 16 24 A 8 8 0 0 0 24 16 A 8 8 0 0 0 16 8 z M 16 9 A 7.09 7.09 0 0 1 20.949219 11.050781 C 22.243219 12.348781 23 14.168 23 16 C 23 17.832 22.244219 19.652219 20.949219 20.949219 C 19.654219 22.246219 17.832 23 16 23 C 14.168 23 12.347781 22.244219 11.050781 20.949219 C 9.7567812 19.651219 9 17.832 9 16 C 9 14.168 9.7557812 12.347781 11.050781 11.050781 A 7.084 7.084 0 0 1 16 9 z M 15 11 L 15 13 L 17 13 L 17 11 L 15 11 z M 15 14 L 15 21 L 17 21 L 17 14 L 15 14 z "
     style="fill:#ffffff;fill-opacity:1;opacity:0.6"
     id="path44" />
  <path
     d="M 17 11 L 17 13 L 15 13 L 16 14 L 17 14 L 17 21 L 15 21 L 19 25 L 26 25 L 26 20 L 17 11 z "
     style="fill:url(#h);opacity:0.2"
     id="path46" />
  <path
     d="M2 29h28v1H2z"
     fill="#4a7937"
     id="path52" />
  <path
     id="path946"
     style="fill:url(#linearGradient954);fill-opacity:1;opacity:0.6"
     d="M 16 8 A 8 8 0 0 0 8 16 A 8 8 0 0 0 16 24 A 8 8 0 0 0 24 16 A 8 8 0 0 0 16 8 z M 16 9 A 7.09 7.09 0 0 1 20.949219 11.050781 C 22.243219 12.348781 23 14.168 23 16 C 23 17.832 22.244219 19.652219 20.949219 20.949219 C 19.654219 22.246219 17.832 23 16 23 C 14.168 23 12.347781 22.244219 11.050781 20.949219 C 9.7567812 19.651219 9 17.832 9 16 C 9 14.168 9.7557812 12.347781 11.050781 11.050781 A 7.084 7.084 0 0 1 16 9 z M 15 11 L 15 13 L 17 13 L 17 11 L 15 11 z M 15 14 L 15 21 L 17 21 L 17 14 L 15 14 z " />
</svg>
