<?xml version="1.0" encoding="UTF-8" standalone="no"?>
<svg
   xmlns:dc="http://purl.org/dc/elements/1.1/"
   xmlns:cc="http://creativecommons.org/ns#"
   xmlns:rdf="http://www.w3.org/1999/02/22-rdf-syntax-ns#"
   xmlns:svg="http://www.w3.org/2000/svg"
   xmlns="http://www.w3.org/2000/svg"
   xmlns:xlink="http://www.w3.org/1999/xlink"
   xmlns:sodipodi="http://sodipodi.sourceforge.net/DTD/sodipodi-0.dtd"
   xmlns:inkscape="http://www.inkscape.org/namespaces/inkscape"
   inkscape:version="1.0 (1.0+r73+1)"
   sodipodi:docname="plasmadiscover.svg"
   id="svg57"
   version="1.1"
   height="32"
   width="32">
  <metadata
     id="metadata61">
    <rdf:RDF>
      <cc:Work
         rdf:about="">
        <dc:format>image/svg+xml</dc:format>
        <dc:type
           rdf:resource="http://purl.org/dc/dcmitype/StillImage" />
        <dc:title />
      </cc:Work>
    </rdf:RDF>
  </metadata>
  <sodipodi:namedview
     inkscape:snap-nodes="true"
     inkscape:object-nodes="true"
     inkscape:current-layer="svg57"
     inkscape:window-maximized="1"
     inkscape:window-y="0"
     inkscape:window-x="0"
     inkscape:cy="18.579063"
     inkscape:cx="14.583502"
     inkscape:zoom="32"
     inkscape:bbox-paths="true"
     inkscape:snap-midpoints="true"
     inkscape:snap-intersection-paths="true"
     inkscape:object-paths="true"
     inkscape:bbox-nodes="true"
     inkscape:snap-bbox="true"
     inkscape:snap-smooth-nodes="true"
     showgrid="true"
     id="namedview59"
     inkscape:window-height="1013"
     inkscape:window-width="1920"
     inkscape:pageshadow="2"
     inkscape:pageopacity="0"
     guidetolerance="10"
     gridtolerance="10"
     objecttolerance="10"
     borderopacity="1"
     bordercolor="#666666"
     pagecolor="#ffffff"
     inkscape:document-rotation="0">
    <inkscape:grid
       id="grid886"
       type="xygrid" />
  </sodipodi:namedview>
  <defs
     id="defs31">
    <linearGradient
       inkscape:collect="always"
       id="Handle">
      <stop
         style="stop-color:#ffffff;stop-opacity:1"
         offset="0"
         id="stop926" />
      <stop
         style="stop-color:#fefefe;stop-opacity:0"
         offset="1"
         id="stop928" />
    </linearGradient>
    <linearGradient
       id="linearGradient1668"
       inkscape:collect="always">
      <stop
         id="stop1664"
         offset="0"
         style="stop-color:#ffffff;stop-opacity:1;" />
      <stop
         id="stop1666"
         offset="1"
         style="stop-color:#ffffff;stop-opacity:0;" />
    </linearGradient>
    <linearGradient
       id="linearGradient1660"
       inkscape:collect="always">
      <stop
         id="stop1656"
         offset="0"
         style="stop-color:#1d1e1e;stop-opacity:1;" />
      <stop
         id="stop1658"
         offset="1"
         style="stop-color:#000000;stop-opacity:0.3019608" />
    </linearGradient>
    <style
       type="text/css"
       id="current-color-scheme">
      .ColorScheme-Highlight {
        color:#3daee9;
      }
      </style>
    <linearGradient
       id="i-3"
       y1="23"
       x1="16"
       y2="39"
       x2="32"
       gradientUnits="userSpaceOnUse"
       gradientTransform="translate(2,12.5)">
      <stop
         stop-color="#292c2f"
         id="stop26-6" />
      <stop
         offset="1"
         stop-opacity="0"
         id="stop28-1" />
    </linearGradient>
    <linearGradient
       gradientTransform="translate(15,30.5)"
       gradientUnits="userSpaceOnUse"
       x2="0"
       y2="3"
       y1="19"
       id="h-8-3">
      <stop
         style="stop-color:#ffffff;stop-opacity:0"
         id="stop21-9-1"
         stop-color="#7cbaf8" />
      <stop
         style="stop-color:#ffffff;stop-opacity:1"
         id="stop23-7-9"
         stop-color="#f4fcff"
         offset="1" />
    </linearGradient>
    <linearGradient
       gradientTransform="translate(-90,-7)"
       gradientUnits="userSpaceOnUse"
       y2="15"
       x2="109"
       y1="17"
       x1="109"
       id="linearGradient1662"
       xlink:href="#linearGradient1660"
       inkscape:collect="always" />
    <linearGradient
       gradientTransform="translate(-90,-3)"
       gradientUnits="userSpaceOnUse"
       y2="32"
       x2="115"
       y1="14"
       x1="115"
       id="linearGradient1670"
       xlink:href="#linearGradient1668"
       inkscape:collect="always" />
    <linearGradient
       gradientTransform="matrix(0.7456402,0,0,0.7456402,-9.6327995,17.894389)"
       gradientUnits="userSpaceOnUse"
       x2="32"
       y2="39"
       x1="16"
       y1="23"
       id="i-3-6">
      <stop
         id="stop26-6-7"
         stop-color="#292c2f" />
      <stop
         id="stop28-1-5"
         stop-opacity="0"
         offset="1" />
    </linearGradient>
    <linearGradient
       gradientTransform="matrix(0.76923077,0,0,0.76923077,-10.692307,16.538461)"
       gradientUnits="userSpaceOnUse"
       x2="32"
       y2="39"
       x1="16"
       y1="23"
       id="i-3-5">
      <stop
         id="stop26-6-6"
         stop-color="#292c2f" />
      <stop
         id="stop28-1-2"
         stop-opacity="0"
         offset="1" />
    </linearGradient>
    <linearGradient
       id="h-8-3-9"
       y1="19"
       y2="3"
       x2="0"
       gradientUnits="userSpaceOnUse"
       gradientTransform="matrix(0.76923077,0,0,0.76923077,-0.69230728,30.384615)">
      <stop
         stop-color="#7cbaf8"
         id="stop21-9-1-1"
         style="stop-color:#ffffff;stop-opacity:0" />
      <stop
         offset="1"
         stop-color="#f4fcff"
         id="stop23-7-9-2"
         style="stop-color:#ffffff;stop-opacity:1" />
    </linearGradient>
    <linearGradient
       gradientTransform="translate(21,-13)"
       gradientUnits="userSpaceOnUse"
       x2="32"
       y2="39"
       x1="16"
       y1="23"
       id="shadow">
      <stop
         style="stop-color:#000000;stop-opacity:1"
         id="stop26-6-4"
         stop-color="#292c2f" />
      <stop
         id="stop28-1-50"
         stop-opacity="0"
         offset="1" />
    </linearGradient>
    <linearGradient
       id="logoGradient"
       y1="19"
       y2="3"
       x2="0"
       gradientUnits="userSpaceOnUse"
       gradientTransform="translate(29,5)">
      <stop
         stop-color="#7cbaf8"
         id="stop21-9-1-6"
         style="stop-color:#ffffff;stop-opacity:0" />
      <stop
         offset="1"
         stop-color="#f4fcff"
         id="stop23-7-9-1"
         style="stop-color:#ffffff;stop-opacity:1" />
    </linearGradient>
    <linearGradient
       inkscape:collect="always"
       xlink:href="#logoGradient"
       id="linearGradient1165"
       x1="9"
       y1="25"
       x2="9"
       y2="13"
       gradientUnits="userSpaceOnUse"
       gradientTransform="translate(0,-1)" />
    <linearGradient
       inkscape:collect="always"
       xlink:href="#shadow"
       id="linearGradient1173"
       x1="10"
       y1="15"
       x2="22"
       y2="27"
       gradientUnits="userSpaceOnUse"
       gradientTransform="translate(0,-1)" />
    <linearGradient
       inkscape:collect="always"
       xlink:href="#Handle"
       id="linearGradient1286"
       x1="18"
       y1="3"
       x2="18"
       y2="11"
       gradientUnits="userSpaceOnUse" />
  </defs>
  <path
     id="rect963-2"
     style="opacity:1;fill:currentColor"
     d="M 16,3 C 13.238576,3 11,5.2385763 11,8 H 4 v 2 l -1,1 v 17 c 0,0.554 0.446,1 1,1 h 24 c 0.554,0 1.004476,-0.446018 1,-1 V 11 L 28,10 V 8 H 21 C 21,5.2385763 18.761424,3 16,3 Z m 0,1 c 2.216,0 4,1.784 4,4 h -8 c 0,-2.216 1.784,-4 4,-4 z"
     class="ColorScheme-Highlight"
     sodipodi:nodetypes="sscccssscccccsssss" />
  <path
     d="m 4,8 1,1 -2,2 h 8 V 8 Z m 8,0 v 3 h 8 V 8 Z m 9,0 v 3 h 8 L 27,9 28,8 Z"
     style="opacity:0.5;fill:url(#linearGradient1662);fill-opacity:1"
     id="path43-6-7"
     sodipodi:nodetypes="ccccccccccccccccc" />
  <path
     sodipodi:nodetypes="sscsscsss"
     inkscape:connector-curvature="0"
     id="path4233"
     d="M 4,29 C 3.44599,29 3,28.554 3,28 v -1 c 0,0.554 0.44599,1 1,1 h 24 c 0.55401,0 1,-0.446 1,-1 v 1 c 0,0.554 -0.44599,1 -1,1 z"
     style="color:#000000;clip-rule:nonzero;display:inline;overflow:visible;visibility:visible;opacity:0.3;isolation:auto;mix-blend-mode:normal;color-interpolation:sRGB;color-interpolation-filters:linearRGB;solid-color:#000000;solid-opacity:1;fill:#000000;fill-opacity:1;fill-rule:nonzero;stroke:none;stroke-width:1;stroke-linecap:butt;stroke-linejoin:miter;stroke-miterlimit:4;stroke-dasharray:none;stroke-dashoffset:0;stroke-opacity:1;marker:none;color-rendering:auto;image-rendering:auto;shape-rendering:auto;text-rendering:auto;enable-background:accumulate" />
  <path
     d="m 3,11 v 17 c 0,0.554 0.446,1 1,1 h 24 c 0.554,0 1,-0.445999 1,-1 V 11 Z"
     style="opacity:0.2;fill:url(#linearGradient1670);fill-opacity:1;stroke-width:1.001"
     id="rect1353"
     sodipodi:nodetypes="csssscc" />
  <path
     id="path3"
     fill="currentColor"
     class="ColorScheme-Text"
     d="m 13,14 a 1,1 0 0 0 -1,1 1,1 0 0 0 1,1 1,1 0 0 0 1,-1 1,1 0 0 0 -1,-1 z m 5,0 -1.5,1.5 2.5,2.5 -2.5,2.5 1.5,1.5 4,-4 z m -6.75,4.5 A 1.25,1.25 0 0 0 10,19.75 1.25,1.25 0 0 0 11.25,21 1.25,1.25 0 0 0 12.5,19.75 1.25,1.25 0 0 0 11.25,18.5 Z M 14.5,23 A 1.5,1.5 0 0 0 13,24.5 1.5,1.5 0 0 0 14.5,26 1.5,1.5 0 0 0 16,24.5 1.5,1.5 0 0 0 14.5,23 Z"
     style="color:#eff0f1;opacity:0.6;fill:#fefefe;fill-opacity:1" />
  <path
     id="path1101"
     style="color:#000000;font-style:normal;font-variant:normal;font-weight:normal;font-stretch:normal;font-size:medium;line-height:normal;font-family:sans-serif;font-variant-ligatures:normal;font-variant-position:normal;font-variant-caps:normal;font-variant-numeric:normal;font-variant-alternates:normal;font-variant-east-asian:normal;font-feature-settings:normal;font-variation-settings:normal;text-indent:0;text-align:start;text-decoration:none;text-decoration-line:none;text-decoration-style:solid;text-decoration-color:#000000;letter-spacing:normal;word-spacing:normal;text-transform:none;writing-mode:lr-tb;direction:ltr;text-orientation:mixed;dominant-baseline:auto;baseline-shift:baseline;text-anchor:start;white-space:normal;shape-padding:0;shape-margin:0;inline-size:0;clip-rule:nonzero;display:inline;overflow:visible;visibility:visible;opacity:0.2;isolation:auto;mix-blend-mode:normal;color-interpolation:sRGB;color-interpolation-filters:linearRGB;solid-color:#000000;solid-opacity:1;vector-effect:none;fill:url(#linearGradient1173);fill-opacity:1;fill-rule:nonzero;stroke:none;stroke-width:2;stroke-linecap:butt;stroke-linejoin:miter;stroke-miterlimit:4;stroke-dasharray:none;stroke-dashoffset:0;stroke-opacity:1;color-rendering:auto;image-rendering:auto;shape-rendering:auto;text-rendering:auto;enable-background:accumulate;stop-color:#000000;stop-opacity:1"
     d="M 13.726562,14.3125 C 13.902254,14.49828 14.000102,14.744303 14,15 c 0,0.552285 -0.447715,1 -1,1 -0.245656,4.3e-5 -0.482733,-0.09034 -0.666016,-0.253906 l 4.458985,4.460937 1.414062,-1.414062 z M 22,18 19.707031,20.292969 18.292969,21.707031 18,22 l 7,7 h 3 c 0.55401,0 1.017814,-0.446286 1,-1 v -3 z m -9.865234,0.865234 -0.002,0.002 C 12.367456,19.101077 12.499432,19.418697 12.5,19.75 12.5,20.440356 11.940356,21 11.25,21 10.918697,20.999432 10.601169,20.867363 10.367188,20.632812 l -0.002,0.002 2.947266,2.947265 C 13.596924,23.21449 14.035389,22.999632 14.5,23 c 0.828427,0 1.5,0.671573 1.5,1.5 0,0.828427 -0.671573,1.5 -1.5,1.5 -0.3779,3.56e-4 -0.742011,-0.14194 -1.019531,-0.398438 L 16.878906,29 h 5.390625 z"
     sodipodi:nodetypes="ccccccccccccssccccccccccsccccc" />
  <path
     style="color:#eff0f1;opacity:0.6;fill:url(#linearGradient1165);fill-opacity:1"
     d="m 13,14 a 1,1 0 0 0 -1,1 1,1 0 0 0 1,1 1,1 0 0 0 1,-1 1,1 0 0 0 -1,-1 z m 5,0 -1.5,1.5 2.5,2.5 -2.5,2.5 1.5,1.5 4,-4 z m -6.75,4.5 A 1.25,1.25 0 0 0 10,19.75 1.25,1.25 0 0 0 11.25,21 1.25,1.25 0 0 0 12.5,19.75 1.25,1.25 0 0 0 11.25,18.5 Z M 14.5,23 A 1.5,1.5 0 0 0 13,24.5 1.5,1.5 0 0 0 14.5,26 1.5,1.5 0 0 0 16,24.5 1.5,1.5 0 0 0 14.5,23 Z"
     class="ColorScheme-Text"
     fill="currentColor"
     id="path1157" />
  <path
     d="m 16,3 c -2.761424,0 -5,2.2385763 -5,5 v 3 h 1 V 8 c 0,-2.216 1.784,-4 4,-4 2.216,0 4,1.784 4,4 v 3 h 1 V 8 C 21,5.2385763 18.761424,3 16,3 Z"
     style="opacity:0.2;fill:url(#linearGradient1286);fill-opacity:1;stroke-width:0.653721;stroke-miterlimit:4;stroke-dasharray:none"
     id="rect1217-2-1" />
</svg>
