<?xml version="1.0" encoding="UTF-8" standalone="no"?>
<svg
   xmlns:dc="http://purl.org/dc/elements/1.1/"
   xmlns:cc="http://creativecommons.org/ns#"
   xmlns:rdf="http://www.w3.org/1999/02/22-rdf-syntax-ns#"
   xmlns:svg="http://www.w3.org/2000/svg"
   xmlns="http://www.w3.org/2000/svg"
   xmlns:sodipodi="http://sodipodi.sourceforge.net/DTD/sodipodi-0.dtd"
   xmlns:inkscape="http://www.inkscape.org/namespaces/inkscape"
   height="32"
   width="32"
   version="1.1"
   id="svg38"
   sodipodi:docname="utilities-system-monitor.svg"
   inkscape:version="1.0 (1.0+r73+1)">
  <metadata
     id="metadata44">
    <rdf:RDF>
      <cc:Work
         rdf:about="">
        <dc:format>image/svg+xml</dc:format>
        <dc:type
           rdf:resource="http://purl.org/dc/dcmitype/StillImage" />
        <dc:title></dc:title>
      </cc:Work>
    </rdf:RDF>
  </metadata>
  <defs
     id="defs42" />
  <style
     id="current-color-scheme"
     type="text/css">
      .ColorScheme-Highlight {
        color:#3daee9;
      }
      </style>
  <sodipodi:namedview
     inkscape:document-rotation="0"
     pagecolor="#ffffff"
     bordercolor="#666666"
     borderopacity="1"
     objecttolerance="10"
     gridtolerance="10"
     guidetolerance="10"
     inkscape:pageopacity="0"
     inkscape:pageshadow="2"
     inkscape:window-width="1920"
     inkscape:window-height="1013"
     id="namedview40"
     showgrid="true"
     inkscape:zoom="18.73833"
     inkscape:cx="24.853929"
     inkscape:cy="11.003238"
     inkscape:window-x="0"
     inkscape:window-y="0"
     inkscape:window-maximized="1"
     inkscape:current-layer="svg38" />
  <linearGradient
     id="a"
     gradientUnits="userSpaceOnUse"
     x2="17"
     y1="-1"
     y2="18">
    <stop
       offset="0"
       stop-color="#fff"
       id="stop2" />
    <stop
       offset="1"
       stop-color="#fff"
       stop-opacity="0"
       id="stop4" />
  </linearGradient>
  <linearGradient
     id="b"
     gradientUnits="userSpaceOnUse"
     x1="9"
     x2="30"
     y1="9"
     y2="30">
    <stop
       offset="0"
       id="stop7" />
    <stop
       offset="1"
       stop-opacity="0"
       id="stop9" />
  </linearGradient>
  <rect
     fill="#2d3033"
     height="28"
     rx="1"
     width="28"
     x="2"
     y="2"
     id="rect12" />
  <rect
     fill="url(#a)"
     height="28"
     opacity=".276"
     rx="1"
     width="28"
     x="2"
     y="2"
     id="rect14" />
  <path
     d="M23.414 10.586L22 12H6l-.729.729L11 18.455V20H6l-.729.729L14.545 30H29c.554 0 1-.446 1-1V17.172z"
     fill="url(#b)"
     opacity=".4"
     id="path16" />
  <g
     transform="translate(-30)"
     id="g24">
    <path
       class="ColorScheme-Highlight"
       id="path18"
       d="M 6 11 C 4.648 10.98 4.648 13.02 6 13 L 22 13 L 22 11 L 6 11 z M 6 19 C 4.648 18.98 4.648 21.02 6 21 L 12 21 L 12 19 L 6 19 z "
       transform="translate(30)"
       fill="currentColor" />
    <path
       transform="translate(30)"
       d="M 6 11 C 4.648 10.98 4.648 13.02 6 13 L 22 13 L 22 11 L 6 11 z M 6 19 C 4.648 18.98 4.648 21.02 6 21 L 12 21 L 12 19 L 6 19 z "
       id="path848"
       style="fill:#ffffff;fill-opacity:1;opacity:0.2" />
    <circle
       cx="42"
       cy="20"
       fill="#fafafa"
       r="2"
       id="circle20" />
    <path
       d="M42 19v2h14c1.352.02 1.352-2.02 0-2z"
       fill="#fcfcfc"
       opacity=".2"
       id="path22" />
  </g>
  <g
     transform="translate(-30)"
     id="g32">
    <circle
       cx="52"
       cy="12"
       fill="#fafafa"
       r="2"
       id="circle28" />
    <path
       d="M52 11v2h4c1.352.02 1.352-2.02 0-2z"
       fill="#fcfcfc"
       opacity=".2"
       id="path30" />
  </g>
  <path
     d="M2 28v1c0 .554.446 1 1 1h26c.554 0 1-.446 1-1v-1c0 .554-.446 1-1 1H3c-.554 0-1-.446-1-1z"
     opacity=".3"
     id="path34" />
  <path
     d="M2 4V3c0-.554.446-1 1-1h26c.554 0 1 .446 1 1v1c0-.554-.446-1-1-1H3c-.554 0-1 .446-1 1z"
     fill="#fff"
     opacity=".3"
     id="path36" />
</svg>
