<?xml version="1.0" encoding="UTF-8" standalone="no"?>
<svg
   xmlns:dc="http://purl.org/dc/elements/1.1/"
   xmlns:cc="http://creativecommons.org/ns#"
   xmlns:rdf="http://www.w3.org/1999/02/22-rdf-syntax-ns#"
   xmlns:svg="http://www.w3.org/2000/svg"
   xmlns="http://www.w3.org/2000/svg"
   xmlns:xlink="http://www.w3.org/1999/xlink"
   xmlns:sodipodi="http://sodipodi.sourceforge.net/DTD/sodipodi-0.dtd"
   xmlns:inkscape="http://www.inkscape.org/namespaces/inkscape"
   sodipodi:docname="system-file-manager.svg"
   inkscape:version="1.0 (1.0+r73+1)"
   version="1.1"
   id="svg6548"
   viewBox="0 0 32 32.000001"
   height="32"
   width="32">
  <defs
     id="defs6550">
    <linearGradient
       inkscape:collect="always"
       id="linearGradient1245">
      <stop
         style="stop-color:#fbfdff;stop-opacity:1"
         id="stop1241" />
      <stop
         offset="1"
         style="stop-color:#ffffff;stop-opacity:0"
         id="stop1243" />
    </linearGradient>
    <style
       type="text/css"
       id="current-color-scheme">
      .ColorScheme-Highlight {
        color:#3daee9;
      }
      </style>
    <linearGradient
       inkscape:collect="always"
       id="linearGradient4274">
      <stop
         style="stop-color:#ffffff;stop-opacity:1;"
         offset="0"
         id="stop4276" />
      <stop
         style="stop-color:#ffffff;stop-opacity:0.48760331"
         offset="1"
         id="stop4278" />
    </linearGradient>
    <linearGradient
       id="linearGradient4393"
       inkscape:collect="always">
      <stop
         id="stop4395"
         offset="0"
         style="stop-color:#000000;stop-opacity:1;" />
      <stop
         id="stop4397"
         offset="1"
         style="stop-color:#000000;stop-opacity:0;" />
    </linearGradient>
    <linearGradient
       inkscape:collect="always"
       id="linearGradient4227">
      <stop
         style="stop-color:#f5f5f5;stop-opacity:1"
         offset="0"
         id="stop4229" />
      <stop
         style="stop-color:#f9f9f9;stop-opacity:1"
         offset="1"
         id="stop4231" />
    </linearGradient>
    <linearGradient
       y2="498.298"
       x2="442.57144"
       y1="498.298"
       x1="390.57144"
       gradientTransform="matrix(0.46149782,0,0,0.46149782,-180.18094,1102.9563)"
       gradientUnits="userSpaceOnUse"
       id="linearGradient7243-3"
       xlink:href="#linearGradient4274"
       inkscape:collect="always" />
    <linearGradient
       inkscape:collect="always"
       xlink:href="#linearGradient4227"
       id="linearGradient4225-6"
       gradientUnits="userSpaceOnUse"
       x1="396.57144"
       y1="498.798"
       x2="426.57144"
       y2="511.798"
       gradientTransform="matrix(0.46149782,0,0,0.46149782,-176.18094,799.24676)" />
    <linearGradient
       inkscape:collect="always"
       xlink:href="#linearGradient4274"
       id="linearGradient7243-1"
       gradientUnits="userSpaceOnUse"
       gradientTransform="matrix(0.46149782,0,0,0.46149782,-178.18094,3146.014)"
       x1="390.57144"
       y1="498.298"
       x2="442.57144"
       y2="498.298" />
    <linearGradient
       inkscape:collect="always"
       xlink:href="#linearGradient4393"
       id="linearGradient4399-6"
       x1="430.51038"
       y1="501.60815"
       x2="452.87308"
       y2="527.82001"
       gradientUnits="userSpaceOnUse"
       gradientTransform="matrix(0.46149782,0,0,0.46149782,-186.79539,-221.73106)" />
    <linearGradient
       inkscape:collect="always"
       xlink:href="#linearGradient1245"
       id="linearGradient1239"
       x1="38"
       y1="1026.3622"
       x2="55"
       y2="1051.3622"
       gradientUnits="userSpaceOnUse"
       gradientTransform="translate(-31)" />
  </defs>
  <sodipodi:namedview
     inkscape:window-maximized="1"
     inkscape:window-y="0"
     inkscape:window-x="0"
     inkscape:window-height="1018"
     inkscape:window-width="1920"
     inkscape:snap-smooth-nodes="true"
     inkscape:bbox-paths="false"
     inkscape:snap-bbox-edge-midpoints="true"
     inkscape:snap-intersection-paths="true"
     inkscape:object-paths="true"
     inkscape:document-rotation="0"
     showborder="false"
     inkscape:snap-global="true"
     inkscape:object-nodes="true"
     inkscape:bbox-nodes="true"
     inkscape:snap-bbox="true"
     units="px"
     showgrid="true"
     inkscape:current-layer="layer1"
     inkscape:document-units="px"
     inkscape:cy="1.9232791"
     inkscape:cx="24.294976"
     inkscape:zoom="11.313709"
     inkscape:pageshadow="2"
     inkscape:pageopacity="0.0"
     borderopacity="1.0"
     bordercolor="#666666"
     pagecolor="#ffffff"
     id="base">
    <inkscape:grid
       id="grid7247"
       type="xygrid" />
  </sodipodi:namedview>
  <metadata
     id="metadata6553">
    <rdf:RDF>
      <cc:Work
         rdf:about="">
        <dc:format>image/svg+xml</dc:format>
        <dc:type
           rdf:resource="http://purl.org/dc/dcmitype/StillImage" />
        <dc:title />
      </cc:Work>
    </rdf:RDF>
  </metadata>
  <g
     transform="translate(0,-1020.3622)"
     id="layer1"
     inkscape:groupmode="layer"
     inkscape:label="Livello 1">
    <path
       class="ColorScheme-Highlight"
       sodipodi:nodetypes="sccssssssss"
       d="m 3,1023.3622 h 11 l 2,2 h 13 c 0.553951,0 1,0.446 1,1 v 22 c 0,0.554 -0.446,1 -1,1 H 3 c -0.554,0 -1,-0.446 -1,-1 v -24 c 0,-0.554 0.4461044,-0.9892 1,-1 z"
       style="opacity:1;fill:currentColor"
       id="rect907" />
    <path
       sodipodi:nodetypes="ccccsssscc"
       id="path1204"
       style="opacity:0.24;fill:url(#linearGradient1239);fill-opacity:1"
       d="m 13,1032.3622 -2,1 H 2 v 1 14 c 0,0.554 0.446,1 1,1 h 26 c 0.554,0 1,-0.446 1,-1 v -16 z" />
    <path
       id="rect907-3"
       style="opacity:0.3;fill:#000000;fill-opacity:1;stroke-width:1.001"
       d="m 3,1023.3622 c -0.554,0 -1,0.446 -1,1 v 9 h 9 l 2,-1 h 17 v -6 c 0,-0.554 -0.44608,-1.0058 -1,-1 H 16 l -2,-2 z m -1,24 v 1 c 0,0.554 0.446,1 1,1 h 26 c 0.554,0 1,-0.446 1,-1 v -1 c 0,0.554 -0.446,1 -1,1 H 3 c -0.554,0 -1,-0.446 -1,-1 z"
       sodipodi:nodetypes="ssccccssccscsssscssc" />
    <path
       id="rect4223-0"
       style="color:#000000;clip-rule:nonzero;display:inline;overflow:visible;visibility:visible;opacity:1;isolation:auto;mix-blend-mode:normal;color-interpolation:sRGB;color-interpolation-filters:linearRGB;solid-color:#000000;solid-opacity:1;fill:url(#linearGradient4225-6);fill-opacity:1;fill-rule:nonzero;stroke:none;stroke-width:1;stroke-linecap:butt;stroke-linejoin:miter;stroke-miterlimit:4;stroke-dasharray:none;stroke-dashoffset:0;stroke-opacity:1;marker:none;color-rendering:auto;image-rendering:auto;shape-rendering:auto;text-rendering:auto;enable-background:accumulate"
       d="m 4,1028.3622 c -0.554,0 -1,0.446 -1,1 v 4 h 8 l 2,-1 h 16 v -3 c 0,-0.554 -0.446,-1 -1,-1 z"
       sodipodi:nodetypes="ssccccsss" />
    <path
       id="rect7300-9"
       style="color:#000000;clip-rule:nonzero;display:inline;overflow:visible;visibility:visible;opacity:0.85;isolation:auto;mix-blend-mode:normal;color-interpolation:sRGB;color-interpolation-filters:linearRGB;solid-color:#000000;solid-opacity:1;fill:url(#linearGradient7243-1);fill-opacity:1;fill-rule:nonzero;stroke:none;stroke-width:1;stroke-linecap:butt;stroke-linejoin:miter;stroke-miterlimit:4;stroke-dasharray:none;stroke-dashoffset:0;stroke-opacity:1;marker:none;color-rendering:auto;image-rendering:auto;shape-rendering:auto;text-rendering:auto;enable-background:accumulate"
       d="m 4,1028.3622 c -0.554,0 -1,0.446 -1,1 v 1 a 1,1 0 0 1 1,-1 h 24 c 0.554,0 1,0.446 1,1 v -1 c 0,-0.554 -0.446,-1 -1,-1 z" />
    <path
       id="path4383-7"
       style="opacity:0.099;fill:url(#linearGradient4399-6);fill-opacity:1;fill-rule:evenodd;stroke:none;stroke-width:1px;stroke-linecap:butt;stroke-linejoin:miter;stroke-opacity:1"
       d="m 13,12 -1,2 H 2 l 14,14 h 13 c 0.554,0 1,-0.446 1,-1 V 12 Z"
       transform="translate(0,1020.3622)"
       sodipodi:nodetypes="ccccsscc" />
    <path
       transform="translate(0,1020.3622)"
       d="M 14 3 L 15 6 L 29 6 A 1 1 0 0 1 30 7 L 30 6 C 30 5.446 29.55395 5.001 29 5 L 16 5 L 14 3 z M 13 12 L 11 13 L 2 13 L 2 14 L 12 14 L 13 12 z "
       style="opacity:0.23;fill:#ffffff;fill-opacity:1;fill-rule:evenodd"
       id="path4224-5" />
  </g>
</svg>
